<?xml version="1.0" encoding="UTF-8" standalone="no"?>
<!-- Created with Inkscape (http://www.inkscape.org/) -->

<svg
   width="58.626152mm"
   height="38.041447mm"
   viewBox="0 0 58.626152 38.041447"
   version="1.1"
   id="svg121992"
   inkscape:version="1.2.1 (9c6d41e410, 2022-07-14)"
   sodipodi:docname="bills_icon.svg"
   xmlns:inkscape="http://www.inkscape.org/namespaces/inkscape"
   xmlns:sodipodi="http://sodipodi.sourceforge.net/DTD/sodipodi-0.dtd"
   xmlns:xlink="http://www.w3.org/1999/xlink"
   xmlns="http://www.w3.org/2000/svg"
   xmlns:svg="http://www.w3.org/2000/svg">
  <sodipodi:namedview
     id="namedview121994"
     pagecolor="#ffffff"
     bordercolor="#000000"
     borderopacity="0.25"
     inkscape:showpageshadow="2"
     inkscape:pageopacity="0.0"
     inkscape:pagecheckerboard="0"
     inkscape:deskcolor="#d1d1d1"
     inkscape:document-units="mm"
     showgrid="false"
     inkscape:zoom="2.9825758"
     inkscape:cx="125.22733"
     inkscape:cy="64.373888"
     inkscape:window-width="1920"
     inkscape:window-height="1017"
     inkscape:window-x="-8"
     inkscape:window-y="-8"
     inkscape:window-maximized="1"
     inkscape:current-layer="g142158" />
  <defs
     id="defs121989">
    <linearGradient
       inkscape:collect="always"
       id="linearGradient128478">
      <stop
         style="stop-color:#ffd297;stop-opacity:1;"
         offset="0"
         id="stop128474" />
      <stop
         style="stop-color:#eaa041;stop-opacity:1;"
         offset="1"
         id="stop128476" />
    </linearGradient>
    <linearGradient
       inkscape:collect="always"
       id="linearGradient125598">
      <stop
         style="stop-color:#ffbe6e;stop-opacity:1;"
         offset="0"
         id="stop125596" />
      <stop
         style="stop-color:#ffbc69;stop-opacity:1;"
         offset="1"
         id="stop125594" />
    </linearGradient>
    <rect
       x="67.726692"
       y="49.202438"
       width="2.5984251"
       height="25.481331"
       id="rect124822" />
    <linearGradient
       inkscape:collect="always"
       xlink:href="#linearGradient125598"
       id="linearGradient125600"
       x1="9.3503094"
       y1="24.92742"
       x2="47.157757"
       y2="24.92742"
       gradientUnits="userSpaceOnUse"
       gradientTransform="translate(-3.5019618,2.0510849)" />
    <filter
       style="color-interpolation-filters:sRGB"
       inkscape:label="Drop Shadow"
       id="filter126967"
       x="-1.4164088"
       y="-4.591887"
       width="6.1771536"
       height="8.0301933">
      <feFlood
         flood-opacity="0.192157"
         flood-color="rgb(151,151,151)"
         result="flood"
         id="feFlood126957" />
      <feComposite
         in="flood"
         in2="SourceGraphic"
         operator="out"
         result="composite1"
         id="feComposite126959" />
      <feGaussianBlur
         in="composite1"
         stdDeviation="8.72274"
         result="blur"
         id="feGaussianBlur126961" />
      <feOffset
         dx="34.7352"
         dy="-18.5358"
         result="offset"
         id="feOffset126963" />
      <feComposite
         in="offset"
         in2="SourceGraphic"
         operator="atop"
         result="composite2"
         id="feComposite126965" />
    </filter>
    <linearGradient
       inkscape:collect="always"
       xlink:href="#linearGradient128478"
       id="linearGradient128472"
       gradientUnits="userSpaceOnUse"
       gradientTransform="translate(14.193417,4.9974175)"
       x1="9.3503094"
       y1="24.92742"
       x2="47.157757"
       y2="24.92742" />
    <filter
       inkscape:collect="always"
       style="color-interpolation-filters:sRGB"
       id="filter128482"
       x="-0.029309543"
       y="-0.040444977"
       width="1.0586191"
       height="1.08089">
      <feGaussianBlur
         inkscape:collect="always"
         stdDeviation="0.43750276"
         id="feGaussianBlur128484" />
    </filter>
    <filter
       inkscape:collect="always"
       style="color-interpolation-filters:sRGB"
       id="filter132604"
       x="-0.032025403"
       y="-0.044192661"
       width="1.0640508"
       height="1.0883853">
      <feGaussianBlur
         inkscape:collect="always"
         stdDeviation="0.48016176"
         id="feGaussianBlur132602" />
    </filter>
    <filter
       inkscape:collect="always"
       style="color-interpolation-filters:sRGB"
       id="filter132608"
       x="-0.038644198"
       y="-0.050763025"
       width="1.0772884"
       height="1.101526">
      <feGaussianBlur
         inkscape:collect="always"
         stdDeviation="0.58351311"
         id="feGaussianBlur132610" />
    </filter>
    <filter
       inkscape:collect="always"
       style="color-interpolation-filters:sRGB"
       id="filter138737"
       x="-0.1039976"
       y="-0.09370743"
       width="1.2094801"
       height="1.1875866">
      <feGaussianBlur
         inkscape:collect="always"
         stdDeviation="11.40296"
         id="feGaussianBlur138739" />
    </filter>
    <filter
       inkscape:collect="always"
       style="color-interpolation-filters:sRGB"
       id="filter138741"
       x="-0.10827296"
       y="-0.073910636"
       width="1.2165393"
       height="1.1476117">
      <feGaussianBlur
         inkscape:collect="always"
         stdDeviation="11.40296"
         id="feGaussianBlur138743" />
    </filter>
    <filter
       inkscape:collect="always"
       style="color-interpolation-filters:sRGB"
       id="filter140363"
       x="-0.030098717"
       y="-0.020687639"
       width="1.0601908"
       height="1.0411657">
      <feGaussianBlur
         inkscape:collect="always"
         stdDeviation="3.1081709"
         id="feGaussianBlur140365" />
    </filter>
    <filter
       inkscape:collect="always"
       style="color-interpolation-filters:sRGB"
       id="filter140369"
       x="-0.035612723"
       y="-0.046780878"
       width="1.0712254"
       height="1.0935618">
      <feGaussianBlur
         inkscape:collect="always"
         stdDeviation="0.53590006"
         id="feGaussianBlur140371" />
    </filter>
    <filter
       inkscape:collect="always"
       style="color-interpolation-filters:sRGB"
       id="filter141972"
       x="-0.026720001"
       y="-0.036871603"
       width="1.05344"
       height="1.0737432">
      <feGaussianBlur
         inkscape:collect="always"
         stdDeviation="0.3968279"
         id="feGaussianBlur141974" />
    </filter>
  </defs>
  <g
     inkscape:label="Layer 1"
     inkscape:groupmode="layer"
     id="layer1"
     transform="translate(-3.7661158,-8.1701483)">
    <text
       xml:space="preserve"
       style="font-style:normal;font-variant:normal;font-weight:normal;font-stretch:normal;font-size:1px;font-family:'Times New Roman';-inkscape-font-specification:'Times New Roman, ';fill:#ffffff;fill-opacity:0.680851;stroke:#030303;stroke-width:0.105833"
       x="15.834677"
       y="17.298388"
       id="text124818"><tspan
         sodipodi:role="line"
         id="tspan124816"
         style="stroke-width:0.105833"
         x="15.834677"
         y="17.298388" /></text>
    <text
       xml:space="preserve"
       transform="scale(0.26458333)"
       id="text124820"
       style="font-style:normal;font-variant:normal;font-weight:normal;font-stretch:normal;font-size:3.77953px;font-family:'Times New Roman';-inkscape-font-specification:'Times New Roman, ';white-space:pre;shape-inside:url(#rect124822);display:inline;fill:#ffffff;fill-opacity:0.680851;stroke:#030303;stroke-width:0.4"><tspan
         x="67.726562"
         y="78.038383"
         id="tspan42067"><tspan
           dx="0 1.889765 1.889765 1.0500746 1.8897648 1.0500746 1.0500741 1.0500746 1.8897648"
           id="tspan42065">khjkjjjdd</tspan></tspan></text>
    <text
       xml:space="preserve"
       style="font-style:normal;font-variant:normal;font-weight:normal;font-stretch:normal;font-size:1px;font-family:'Times New Roman';-inkscape-font-specification:'Times New Roman, ';fill:#ffffff;fill-opacity:0.680851;stroke:#030303;stroke-width:0.105833"
       x="13.018145"
       y="13.860887"
       id="text124944"><tspan
         sodipodi:role="line"
         id="tspan124942"
         style="stroke-width:0.105833"
         x="13.018145"
         y="13.860887" /></text>
    <text
       xml:space="preserve"
       style="font-style:normal;font-variant:normal;font-weight:normal;font-stretch:normal;font-size:1px;font-family:'Times New Roman';-inkscape-font-specification:'Times New Roman, ';fill:#ffffff;fill-opacity:0.680851;stroke:#030303;stroke-width:0.105833"
       x="12.707662"
       y="15.03629"
       id="text124948"><tspan
         sodipodi:role="line"
         style="stroke-width:0.105833"
         x="12.707662"
         y="15.03629"
         id="tspan124950" /></text>
    <g
       id="g142158">
      <g
         id="g41917">
        <rect
           style="mix-blend-mode:normal;fill:#444444;fill-opacity:1;stroke:#030303;stroke-width:0.109789;filter:url(#filter128482)"
           id="rect129590"
           width="37.697659"
           height="27.318624"
           x="4.871017"
           y="15.004677" />
        <rect
           style="fill:url(#linearGradient125600);fill-opacity:1;stroke:#030303;stroke-width:0.215635;stroke-dasharray:none"
           id="rect123980"
           width="37.697659"
           height="27.318624"
           x="5.9032421"
           y="13.319193" />
        <rect
           style="fill:#ffffff;fill-opacity:0.729345;stroke:#030303;stroke-width:0.124883;stroke-dasharray:none"
           id="rect128237"
           width="12.958957"
           height="6.3500867"
           x="7.5387197"
           y="14.821607" />
        <rect
           style="mix-blend-mode:normal;fill:#404040;fill-opacity:0.991453;stroke:#030303;stroke-width:0.112518;filter:url(#filter132608)"
           id="rect132606"
           width="37.694931"
           height="28.695894"
           x="12.49281"
           y="11.109884" />
        <rect
           style="mix-blend-mode:normal;fill:#333333;fill-opacity:0.991453;stroke:#030303;stroke-width:0.112518;filter:url(#filter140369)"
           id="rect140367"
           width="37.694931"
           height="28.695894"
           x="15.242811"
           y="9.5131102"
           transform="matrix(0.9823988,0,0,1.0000346,0.24519107,-8.254388e-4)" />
        <rect
           style="fill:#202020;fill-opacity:0.991453;stroke:#030303;stroke-width:0.109789;filter:url(#filter141972)"
           id="rect141962"
           width="37.697659"
           height="27.318624"
           x="23.68733"
           y="15.999396" />
        <rect
           style="fill:#ffffff;fill-opacity:0.991453;stroke:#030303;stroke-width:0.239448;stroke-dasharray:none"
           id="rect128244"
           width="37.694931"
           height="28.695894"
           x="13.734746"
           y="9.5131102" />
        <rect
           style="fill:#e9e9e9;fill-opacity:0.991453;stroke:#030303;stroke-width:0.127265;stroke-dasharray:none"
           id="rect128246"
           width="12.958018"
           height="6.6702266"
           x="15.694516"
           y="11.655813" />
        <rect
           style="mix-blend-mode:normal;fill:#2e2e2e;fill-opacity:1;stroke:#030303;stroke-width:0.109789;filter:url(#filter132604)"
           id="rect128480"
           width="37.697659"
           height="27.318624"
           x="22.622818"
           y="13.959074"
           transform="matrix(0.99996114,0,0,1.026906,0.00161169,2.5835126)" />
        <rect
           style="fill:url(#linearGradient128472);fill-opacity:1;stroke:#030303;stroke-width:0.215635;stroke-dasharray:none"
           id="rect128452"
           width="37.697659"
           height="27.318624"
           x="23.598621"
           y="16.265526" />
        <path
           id="rect132491"
           style="fill:#272727;fill-opacity:0.729345;stroke:#030303;stroke-width:0.097659"
           d="m 38.150093,17.720595 v 6.162702 H 25.656819 v 0.188126 h 12.740182 v -6.350828 z" />
        <rect
           style="fill:#ffffff;fill-opacity:0.729345;stroke:#030303;stroke-width:0.124619;stroke-dasharray:none"
           id="rect128454"
           width="12.849597"
           height="6.3505001"
           x="25.609791"
           y="17.767733" />
        <g
           id="g140329"
           transform="matrix(0.00993143,0,0,0.00993143,54.3875,16.358352)"
           style="fill:#130a0a;fill-opacity:1">
          <path
             style="fill:#130a0a;fill-opacity:1;stroke:#030303;stroke-width:0.4"
             d="m 208.63559,263.20182 -5.7776,5.7776 -1.28391,1.92587 -3.20978,3.85173 v 5.13565 l -1.92587,7.06151 -1.28391,3.85174 -1.28391,5.7776 -2.56782,4.49369"
             id="path140303" />
          <path
             style="fill:#130a0a;fill-opacity:1;stroke:#030303;stroke-width:0.4"
             d="M 189.37692,310.70654 Z"
             id="path140305" />
          <path
             style="fill:#130a0a;fill-opacity:1;stroke:#030303;stroke-width:0.4"
             d="M 184.24128,318.41001 Z"
             id="path140307" />
          <path
             style="fill:#130a0a;fill-opacity:1;stroke:#030303;stroke-width:0.4"
             d="M 186.16714,326.75543 Z"
             id="path140309" />
          <rect
             style="fill:#130a0a;fill-opacity:1;stroke:#030303;stroke-width:1.901;stroke-dasharray:none"
             id="rect140311"
             width="429.41891"
             height="513.8501"
             x="63.550369"
             y="147.07372" />
          <path
             style="fill:#130a0a;fill-opacity:1;stroke:#030303;stroke-width:0.4;filter:url(#filter138741)"
             d="m 216.9415,301.86425 -2.72359,10.44042 0.90787,15.88759 -31.54822,32.91001 -0.90787,4.53932 1.13483,4.31234 4.76628,1.58876 11.57525,2.95055 -2.95056,17.70332 1.13483,2.95055 1.36179,2.95056 0.90787,2.26965 c 0,0 0,2.26966 -0.45393,3.17752 -0.45394,0.90786 -2.04269,3.17752 -2.04269,3.17752 l -1.81573,3.40448 1.81573,2.95056 0.90786,2.49662 1.58876,0.68089 0.90786,1.13483 0.90786,2.72359 v 1.58876 l -0.90786,2.95055 v 2.04269 l 0.45393,3.17752 2.26966,3.85842 2.95055,2.26965 3.40448,1.81573 6.12807,1.81572 10.44042,2.49662 c 0,0 27.46284,4.08538 28.3707,4.08538 0.90787,0 17.02242,79.8919 17.02242,79.8919 l -2.72358,5.44717 -31.32126,43.12346 -5.9011,-1.81572 -3.17752,2.72359 -3.63145,7.2629 -6.80897,11.34828 c 0,0 -10.89435,11.80221 -13.164,13.61793 -2.26966,1.81573 -17.24939,8.6247 -17.24939,8.6247 l 4.53931,6.35503 10.89435,6.35504 13.16401,5.44717 16.34152,3.17752 h 19.97297 l 26.78194,-2.72359 17.24939,-1.81572 14.97973,0.45393 23.15049,-1.81572 c 0,0 9.98649,-0.90787 12.71007,-0.45393 2.72359,0.45393 23.1505,-0.45394 25.42015,-0.45394 2.26966,0 19.06511,-3.17751 22.24263,-3.63145 3.17752,-0.45393 28.59767,-8.17076 28.59767,-8.17076 l 11.80221,-6.80897 0.90786,-12.71007 -7.2629,-14.07187 c 0,0 -4.53931,-14.97973 -4.99324,-17.70331 -0.45393,-2.72359 -5.44718,-17.70332 -5.44718,-17.70332 l -7.2629,-8.17076 c 0,0 -9.07862,-1.3618 -9.98648,-3.17752 -0.90787,-1.81573 -19.97298,-39.03808 -19.97298,-39.03808 l -15.88759,-38.58416 -9.07862,-14.97973 -10.89435,-13.164 -12.25614,-14.07187 -9.53256,-12.25614 -6.35504,-15.43366 8.6247,-6.80897 4.53931,-7.2629 v -3.17752 l -14.5258,-1.36179 -9.07862,-1.36179 -7.71683,-6.35504 -11.34828,-7.2629 -6.35504,-7.2629 c 0,0 -0.45393,-7.71683 0.45393,-9.53256 0.90786,-1.81572 2.72359,-5.9011 2.72359,-5.9011 l -10.44042,-4.08538 -3.63145,-9.53256 3.63145,-5.44717 0.90786,-8.62469 -5.44717,-7.2629 -10.89435,-4.08538 -8.17076,-5.90111 -1.3618,-5.90111 -6.35503,-2.72358 -4.53932,-7.2629 -2.26965,-6.35504 -1.81573,-4.08538 -5.9011,3.17752 -5.44718,5.9011 c 0,0 -0.90786,3.17752 -1.36179,4.99325 -0.45393,1.81572 -3.63145,14.07186 -4.53931,16.34152 -0.90786,2.26966 -1.13483,7.71683 -1.13483,7.71683 z"
             id="path140313" />
          <path
             style="fill:#130a0a;fill-opacity:1;stroke:#030303;stroke-width:0.4"
             d="m 117.56818,575.13084 -33.590907,49.70546 29.051597,0.6809 -0.45393,12.25614 -4.76628,4.31235 h -2.49662 l -0.22697,2.95055 20.88084,-0.22696 -0.45393,-3.40449 h -4.31235 l -1.81572,-2.72359 -0.22697,-12.93703 4.99324,0.22696 6.12808,-7.71683 -4.76628,1.13483 -5.67414,0.22696 1.13483,-44.03132 z"
             id="path140315" />
          <path
             style="fill:#130a0a;fill-opacity:1;stroke:#030303;stroke-width:0.4"
             d="m 192.19196,301.86425 -2.72359,10.44042 0.90787,15.88759 -31.54822,32.91001 -0.90787,4.53932 1.13483,4.31234 4.76628,1.58876 11.57525,2.95055 -2.95056,17.70332 1.13483,2.95055 1.36179,2.95056 0.90787,2.26965 c 0,0 0,2.26966 -0.45393,3.17752 -0.45394,0.90786 -2.04269,3.17752 -2.04269,3.17752 l -1.81573,3.40448 1.81573,2.95056 0.90786,2.49662 1.58876,0.68089 0.90786,1.13483 0.90786,2.72359 v 1.58876 l -0.90786,2.95055 v 2.04269 l 0.45393,3.17752 2.26966,3.85842 2.95055,2.26965 3.40448,1.81573 6.12807,1.81572 10.44042,2.49662 c 0,0 27.46284,4.08538 28.3707,4.08538 0.90787,0 17.02242,79.8919 17.02242,79.8919 l -2.72358,5.44717 -31.32126,43.12346 -5.9011,-1.81572 -3.17752,2.72359 -3.63145,7.2629 -6.80897,11.34828 c 0,0 -10.89435,11.80221 -13.164,13.61793 -2.26966,1.81573 -17.24939,8.6247 -17.24939,8.6247 l 4.53931,6.35503 10.89435,6.35504 13.16401,5.44717 16.34152,3.17752 h 19.97297 l 26.78194,-2.72359 17.24939,-1.81572 14.97973,0.45393 23.15049,-1.81572 c 0,0 9.98649,-0.90787 12.71007,-0.45393 2.72359,0.45393 23.1505,-0.45394 25.42015,-0.45394 2.26966,0 19.06511,-3.17751 22.24263,-3.63145 3.17752,-0.45393 28.59767,-8.17076 28.59767,-8.17076 l 11.80221,-6.80897 0.90786,-12.71007 -7.2629,-14.07187 c 0,0 -4.53931,-14.97973 -4.99324,-17.70331 -0.45393,-2.72359 -5.44718,-17.70332 -5.44718,-17.70332 l -7.2629,-8.17076 c 0,0 -9.07862,-1.3618 -9.98648,-3.17752 -0.90787,-1.81573 -19.97298,-39.03808 -19.97298,-39.03808 l -15.88759,-38.58416 -9.07862,-14.97973 -10.89435,-13.164 -12.25614,-14.07187 -9.53256,-12.25614 -6.35504,-15.43366 8.6247,-6.80897 4.53931,-7.2629 v -3.17752 l -14.5258,-1.36179 -9.07862,-1.36179 -7.71683,-6.35504 -11.34828,-7.2629 -6.35504,-7.2629 c 0,0 -0.45393,-7.71683 0.45393,-9.53256 0.90786,-1.81572 2.72359,-5.9011 2.72359,-5.9011 l -10.44042,-4.08538 -3.63145,-9.53256 3.63145,-5.44717 0.90786,-8.62469 -5.44717,-7.2629 -10.89435,-4.08538 -8.17076,-5.90111 -1.3618,-5.90111 -6.35503,-2.72358 -4.53932,-7.2629 -2.26965,-6.35504 -1.81573,-4.08538 -5.9011,3.17752 -5.44718,5.9011 c 0,0 -0.90786,3.17752 -1.36179,4.99325 -0.45393,1.81572 -3.63145,14.07186 -4.53931,16.34152 -0.90786,2.26966 -1.13483,7.71683 -1.13483,7.71683 z"
             id="path140317" />
          <path
             style="fill:#130a0a;fill-opacity:1;stroke:#030303;stroke-width:0.4;filter:url(#filter138737)"
             d="m 226.74893,266.00369 c -1.3618,-2.26966 -8.17077,-15.8876 -8.17077,-15.8876 l -0.45393,-11.34828 5.44718,-9.07862 11.80221,-5.90111 9.07862,-1.36179 10.89435,-0.90786 5.44718,1.81572 3.17751,-2.72358 0.90787,-4.08539 3.17752,-1.36179 h 2.72358 l 3.17752,-7.2629 -0.45393,-3.63145 7.71683,-20.4269 5.90111,-10.44042 6.80896,-7.71683 4.53932,-3.17752 c 0,0 2.26965,-4.08538 2.26965,0 0,4.08538 -5.44717,11.34828 -5.44717,11.34828 l -4.99325,11.34828 -0.90786,4.53931 4.53931,-1.36179 h 5.90111 v -4.53931 l 2.26966,-4.53931 2.72358,-1.81573 2.72359,5.44718 2.72359,4.99324 v 3.63145 l 5.9011,-8.62469 0.45393,-3.17752 0.90787,-4.99325 5.9011,-1.81572 4.08538,2.26965 1.81573,5.44718 -0.45393,4.08538 -3.17752,4.53931 3.63145,4.08538 c 0,0 2.72359,-2.72358 4.08538,0 1.36179,2.72359 1.81572,4.08538 1.81572,4.08538 0,0 5.90111,0.45394 8.17077,0.45394 2.26965,0 8.17076,0.45393 8.17076,0.45393 l -4.08538,4.99324 -6.35504,5.90111 -4.99324,3.63144 5.9011,4.08539 5.90111,-2.72359 14.5258,-2.26966 5.44717,-8.17076 2.72359,-4.99324 11.34828,3.63145 39.94594,29.50553 c 0,0 -26.78194,40.8538 -28.59766,41.76167 -1.81573,0.90786 0.90786,4.53931 0.90786,4.53931 l 18.61118,-20.88084 8.17076,-0.90786 7.2629,4.53931 3.17752,4.53931 8.17076,4.08539 -1.36179,4.99324 20.88083,-6.35504 h 6.35504 l -16.34152,12.25614 2.26965,4.53932 5.44718,4.99324 15.43366,-0.45393 10.89435,-0.90786 -49.93244,43.12346 -14.97973,12.71007 -2.26965,9.98649 2.26965,11.80221 -2.72358,19.06511 6.35503,8.6247 2.26966,8.17076 -0.45393,8.17076 -2.72359,11.34828 -4.53931,12.71007 -4.53931,7.2629 -13.16401,6.35504 -17.24938,2.26965 -11.34828,0.90787 -7.71683,3.63145 -16.79546,-20.42691 -7.2629,-8.62469 -11.80221,-15.88759 -3.63145,-9.07863 -4.53931,-9.07862 8.17076,-11.34828 4.53931,-6.35504 -13.61793,-2.26965 -9.98649,-0.90787 -9.53256,-6.35503 c 0,0 -6.35503,-4.53932 -8.17076,-6.80897 -1.81572,-2.26966 -6.35503,-5.44718 -6.35503,-5.44718 l -2.72359,-8.62469 0.90786,-6.35504 0.45393,-2.72358 -9.53255,-4.53931 -2.26966,-8.6247 2.26966,-5.44717 1.81572,-7.71683 -2.72358,-4.99325 -9.53256,-5.9011 -12.71007,-7.2629 -2.26966,-5.90111 -7.2629,-4.08538 -5.44717,-14.5258 -2.26966,-2.26965 z"
             id="path140319" />
          <path
             style="fill:#130a0a;fill-opacity:1;stroke:#030303;stroke-width:0.4"
             d="m 201.99939,266.00369 c -1.3618,-2.26966 -8.17077,-15.8876 -8.17077,-15.8876 l -0.45393,-11.34828 5.44718,-9.07862 11.80221,-5.90111 9.07862,-1.36179 10.89435,-0.90786 5.44718,1.81572 3.17751,-2.72358 0.90787,-4.08539 3.17752,-1.36179 h 2.72358 l 3.17752,-7.2629 -0.45393,-3.63145 7.71683,-20.4269 5.90111,-10.44042 6.80896,-7.71683 4.53932,-3.17752 c 0,0 2.26965,-4.08538 2.26965,0 0,4.08538 -5.44717,11.34828 -5.44717,11.34828 l -4.99325,11.34828 -0.90786,4.53931 4.53931,-1.36179 h 5.90111 v -4.53931 l 2.26966,-4.53931 2.72358,-1.81573 2.72359,5.44718 2.72359,4.99324 v 3.63145 l 5.9011,-8.62469 0.45393,-3.17752 0.90787,-4.99325 5.9011,-1.81572 4.08538,2.26965 1.81573,5.44718 -0.45393,4.08538 -3.17752,4.53931 3.63145,4.08538 c 0,0 2.72359,-2.72358 4.08538,0 1.36179,2.72359 1.81572,4.08538 1.81572,4.08538 0,0 5.90111,0.45394 8.17077,0.45394 2.26965,0 8.17076,0.45393 8.17076,0.45393 l -4.08538,4.99324 -6.35504,5.90111 -4.99324,3.63144 5.9011,4.08539 5.90111,-2.72359 14.5258,-2.26966 5.44717,-8.17076 2.72359,-4.99324 11.34828,3.63145 39.94594,29.50553 c 0,0 -26.78194,40.8538 -28.59766,41.76167 -1.81573,0.90786 0.90786,4.53931 0.90786,4.53931 l 18.61118,-20.88084 8.17076,-0.90786 7.2629,4.53931 3.17752,4.53931 8.17076,4.08539 -1.36179,4.99324 20.88083,-6.35504 h 6.35504 l -16.34152,12.25614 2.26965,4.53932 5.44718,4.99324 15.43366,-0.45393 10.89435,-0.90786 -49.93244,43.12346 -14.97973,12.71007 -2.26965,9.98649 2.26965,11.80221 -2.72358,19.06511 6.35503,8.6247 2.26966,8.17076 -0.45393,8.17076 -2.72359,11.34828 -4.53931,12.71007 -4.53931,7.2629 -13.16401,6.35504 -17.24938,2.26965 -11.34828,0.90787 -7.71683,3.63145 -16.79546,-20.42691 -7.2629,-8.62469 -11.80221,-15.88759 -3.63145,-9.07863 -4.53931,-9.07862 8.17076,-11.34828 4.53931,-6.35504 -13.61793,-2.26965 -9.98649,-0.90787 -9.53256,-6.35503 c 0,0 -6.35503,-4.53932 -8.17076,-6.80897 -1.81572,-2.26966 -6.35503,-5.44718 -6.35503,-5.44718 l -2.72359,-8.62469 0.90786,-6.35504 0.45393,-2.72358 -9.53255,-4.53931 -2.26966,-8.6247 2.26966,-5.44717 1.81572,-7.71683 -2.72358,-4.99325 -9.53256,-5.9011 -12.71007,-7.2629 -2.26966,-5.90111 -7.2629,-4.08538 -5.44717,-14.5258 -2.26966,-2.26965 z"
             id="path140321" />
          <path
             style="fill:#130a0a;fill-opacity:1;stroke:#030303;stroke-width:0.4"
             d="m 94.190725,618.02733 17.476355,-27.46283 0.45393,28.59766 z"
             id="path140323" />
          <path
             style="fill:#130a0a;fill-opacity:1;stroke:#030303;stroke-width:0.4"
             d="m 129.37039,586.93305 -0.22696,17.93028 -2.04269,0.22697 0.22696,3.40448 h 12.48311 l 4.76628,-2.26966 3.17752,-2.49662 1.58876,-3.17752 0.45393,-3.40448 0.45393,-2.04269 v -2.72359 l -0.6809,-4.08538 -1.36179,-2.04269 -2.26966,-1.81572 -1.58876,-0.6809 -2.49662,-1.13483 -4.53931,0.6809 -5.67414,-0.22697 h -3.17752 -1.58876 v 2.72359 z"
             id="path140325" />
          <path
             style="fill:#130a0a;fill-opacity:1;stroke:#030303;stroke-width:0.4"
             d="m 133.90971,586.47912 0.68089,18.38421 h 1.81573 l 2.49662,-1.36179 2.72359,-1.81573 1.81572,-2.49662 v -2.95055 l -0.90786,-4.31235 -0.22697,-2.49662 -2.72358,-2.72359 -2.49663,-0.22696 z"
             id="path140327" />
        </g>
        <g
           id="g140357"
           transform="matrix(0.0091064,0,0,0.0091064,54.624193,16.687732)"
           style="fill:#f9f5f5;fill-opacity:1">
          <path
             style="fill:#f9f5f5;fill-opacity:1;stroke:#030303;stroke-width:0.4"
             d="m 208.63559,263.20182 -5.7776,5.7776 -1.28391,1.92587 -3.20978,3.85173 v 5.13565 l -1.92587,7.06151 -1.28391,3.85174 -1.28391,5.7776 -2.56782,4.49369"
             id="path140331" />
          <path
             style="fill:#f9f5f5;fill-opacity:1;stroke:#030303;stroke-width:0.4"
             d="M 189.37692,310.70654 Z"
             id="path140333" />
          <path
             style="fill:#f9f5f5;fill-opacity:1;stroke:#030303;stroke-width:0.4"
             d="M 184.24128,318.41001 Z"
             id="path140335" />
          <path
             style="fill:#f9f5f5;fill-opacity:1;stroke:#030303;stroke-width:0.4"
             d="M 186.16714,326.75543 Z"
             id="path140337" />
          <rect
             style="fill:#f9f5f5;fill-opacity:1;stroke:#030303;stroke-width:1.901;stroke-dasharray:none"
             id="rect140339"
             width="429.41891"
             height="513.8501"
             x="63.550369"
             y="147.07372" />
          <path
             style="fill:#f9f5f5;fill-opacity:1;stroke:#030303;stroke-width:0.4;filter:url(#filter138741)"
             d="m 216.9415,301.86425 -2.72359,10.44042 0.90787,15.88759 -31.54822,32.91001 -0.90787,4.53932 1.13483,4.31234 4.76628,1.58876 11.57525,2.95055 -2.95056,17.70332 1.13483,2.95055 1.36179,2.95056 0.90787,2.26965 c 0,0 0,2.26966 -0.45393,3.17752 -0.45394,0.90786 -2.04269,3.17752 -2.04269,3.17752 l -1.81573,3.40448 1.81573,2.95056 0.90786,2.49662 1.58876,0.68089 0.90786,1.13483 0.90786,2.72359 v 1.58876 l -0.90786,2.95055 v 2.04269 l 0.45393,3.17752 2.26966,3.85842 2.95055,2.26965 3.40448,1.81573 6.12807,1.81572 10.44042,2.49662 c 0,0 27.46284,4.08538 28.3707,4.08538 0.90787,0 17.02242,79.8919 17.02242,79.8919 l -2.72358,5.44717 -31.32126,43.12346 -5.9011,-1.81572 -3.17752,2.72359 -3.63145,7.2629 -6.80897,11.34828 c 0,0 -10.89435,11.80221 -13.164,13.61793 -2.26966,1.81573 -17.24939,8.6247 -17.24939,8.6247 l 4.53931,6.35503 10.89435,6.35504 13.16401,5.44717 16.34152,3.17752 h 19.97297 l 26.78194,-2.72359 17.24939,-1.81572 14.97973,0.45393 23.15049,-1.81572 c 0,0 9.98649,-0.90787 12.71007,-0.45393 2.72359,0.45393 23.1505,-0.45394 25.42015,-0.45394 2.26966,0 19.06511,-3.17751 22.24263,-3.63145 3.17752,-0.45393 28.59767,-8.17076 28.59767,-8.17076 l 11.80221,-6.80897 0.90786,-12.71007 -7.2629,-14.07187 c 0,0 -4.53931,-14.97973 -4.99324,-17.70331 -0.45393,-2.72359 -5.44718,-17.70332 -5.44718,-17.70332 l -7.2629,-8.17076 c 0,0 -9.07862,-1.3618 -9.98648,-3.17752 -0.90787,-1.81573 -19.97298,-39.03808 -19.97298,-39.03808 l -15.88759,-38.58416 -9.07862,-14.97973 -10.89435,-13.164 -12.25614,-14.07187 -9.53256,-12.25614 -6.35504,-15.43366 8.6247,-6.80897 4.53931,-7.2629 v -3.17752 l -14.5258,-1.36179 -9.07862,-1.36179 -7.71683,-6.35504 -11.34828,-7.2629 -6.35504,-7.2629 c 0,0 -0.45393,-7.71683 0.45393,-9.53256 0.90786,-1.81572 2.72359,-5.9011 2.72359,-5.9011 l -10.44042,-4.08538 -3.63145,-9.53256 3.63145,-5.44717 0.90786,-8.62469 -5.44717,-7.2629 -10.89435,-4.08538 -8.17076,-5.90111 -1.3618,-5.90111 -6.35503,-2.72358 -4.53932,-7.2629 -2.26965,-6.35504 -1.81573,-4.08538 -5.9011,3.17752 -5.44718,5.9011 c 0,0 -0.90786,3.17752 -1.36179,4.99325 -0.45393,1.81572 -3.63145,14.07186 -4.53931,16.34152 -0.90786,2.26966 -1.13483,7.71683 -1.13483,7.71683 z"
             id="path140341" />
          <path
             style="fill:#f9f5f5;fill-opacity:1;stroke:#030303;stroke-width:0.4"
             d="m 117.56818,575.13084 -33.590907,49.70546 29.051597,0.6809 -0.45393,12.25614 -4.76628,4.31235 h -2.49662 l -0.22697,2.95055 20.88084,-0.22696 -0.45393,-3.40449 h -4.31235 l -1.81572,-2.72359 -0.22697,-12.93703 4.99324,0.22696 6.12808,-7.71683 -4.76628,1.13483 -5.67414,0.22696 1.13483,-44.03132 z"
             id="path140343" />
          <path
             style="fill:#f9f5f5;fill-opacity:1;stroke:#030303;stroke-width:0.4"
             d="m 192.19196,301.86425 -2.72359,10.44042 0.90787,15.88759 -31.54822,32.91001 -0.90787,4.53932 1.13483,4.31234 4.76628,1.58876 11.57525,2.95055 -2.95056,17.70332 1.13483,2.95055 1.36179,2.95056 0.90787,2.26965 c 0,0 0,2.26966 -0.45393,3.17752 -0.45394,0.90786 -2.04269,3.17752 -2.04269,3.17752 l -1.81573,3.40448 1.81573,2.95056 0.90786,2.49662 1.58876,0.68089 0.90786,1.13483 0.90786,2.72359 v 1.58876 l -0.90786,2.95055 v 2.04269 l 0.45393,3.17752 2.26966,3.85842 2.95055,2.26965 3.40448,1.81573 6.12807,1.81572 10.44042,2.49662 c 0,0 27.46284,4.08538 28.3707,4.08538 0.90787,0 17.02242,79.8919 17.02242,79.8919 l -2.72358,5.44717 -31.32126,43.12346 -5.9011,-1.81572 -3.17752,2.72359 -3.63145,7.2629 -6.80897,11.34828 c 0,0 -10.89435,11.80221 -13.164,13.61793 -2.26966,1.81573 -17.24939,8.6247 -17.24939,8.6247 l 4.53931,6.35503 10.89435,6.35504 13.16401,5.44717 16.34152,3.17752 h 19.97297 l 26.78194,-2.72359 17.24939,-1.81572 14.97973,0.45393 23.15049,-1.81572 c 0,0 9.98649,-0.90787 12.71007,-0.45393 2.72359,0.45393 23.1505,-0.45394 25.42015,-0.45394 2.26966,0 19.06511,-3.17751 22.24263,-3.63145 3.17752,-0.45393 28.59767,-8.17076 28.59767,-8.17076 l 11.80221,-6.80897 0.90786,-12.71007 -7.2629,-14.07187 c 0,0 -4.53931,-14.97973 -4.99324,-17.70331 -0.45393,-2.72359 -5.44718,-17.70332 -5.44718,-17.70332 l -7.2629,-8.17076 c 0,0 -9.07862,-1.3618 -9.98648,-3.17752 -0.90787,-1.81573 -19.97298,-39.03808 -19.97298,-39.03808 l -15.88759,-38.58416 -9.07862,-14.97973 -10.89435,-13.164 -12.25614,-14.07187 -9.53256,-12.25614 -6.35504,-15.43366 8.6247,-6.80897 4.53931,-7.2629 v -3.17752 l -14.5258,-1.36179 -9.07862,-1.36179 -7.71683,-6.35504 -11.34828,-7.2629 -6.35504,-7.2629 c 0,0 -0.45393,-7.71683 0.45393,-9.53256 0.90786,-1.81572 2.72359,-5.9011 2.72359,-5.9011 l -10.44042,-4.08538 -3.63145,-9.53256 3.63145,-5.44717 0.90786,-8.62469 -5.44717,-7.2629 -10.89435,-4.08538 -8.17076,-5.90111 -1.3618,-5.90111 -6.35503,-2.72358 -4.53932,-7.2629 -2.26965,-6.35504 -1.81573,-4.08538 -5.9011,3.17752 -5.44718,5.9011 c 0,0 -0.90786,3.17752 -1.36179,4.99325 -0.45393,1.81572 -3.63145,14.07186 -4.53931,16.34152 -0.90786,2.26966 -1.13483,7.71683 -1.13483,7.71683 z"
             id="path140345" />
          <path
             style="fill:#f9f5f5;fill-opacity:1;stroke:#030303;stroke-width:0.4;filter:url(#filter138737)"
             d="m 226.74893,266.00369 c -1.3618,-2.26966 -8.17077,-15.8876 -8.17077,-15.8876 l -0.45393,-11.34828 5.44718,-9.07862 11.80221,-5.90111 9.07862,-1.36179 10.89435,-0.90786 5.44718,1.81572 3.17751,-2.72358 0.90787,-4.08539 3.17752,-1.36179 h 2.72358 l 3.17752,-7.2629 -0.45393,-3.63145 7.71683,-20.4269 5.90111,-10.44042 6.80896,-7.71683 4.53932,-3.17752 c 0,0 2.26965,-4.08538 2.26965,0 0,4.08538 -5.44717,11.34828 -5.44717,11.34828 l -4.99325,11.34828 -0.90786,4.53931 4.53931,-1.36179 h 5.90111 v -4.53931 l 2.26966,-4.53931 2.72358,-1.81573 2.72359,5.44718 2.72359,4.99324 v 3.63145 l 5.9011,-8.62469 0.45393,-3.17752 0.90787,-4.99325 5.9011,-1.81572 4.08538,2.26965 1.81573,5.44718 -0.45393,4.08538 -3.17752,4.53931 3.63145,4.08538 c 0,0 2.72359,-2.72358 4.08538,0 1.36179,2.72359 1.81572,4.08538 1.81572,4.08538 0,0 5.90111,0.45394 8.17077,0.45394 2.26965,0 8.17076,0.45393 8.17076,0.45393 l -4.08538,4.99324 -6.35504,5.90111 -4.99324,3.63144 5.9011,4.08539 5.90111,-2.72359 14.5258,-2.26966 5.44717,-8.17076 2.72359,-4.99324 11.34828,3.63145 39.94594,29.50553 c 0,0 -26.78194,40.8538 -28.59766,41.76167 -1.81573,0.90786 0.90786,4.53931 0.90786,4.53931 l 18.61118,-20.88084 8.17076,-0.90786 7.2629,4.53931 3.17752,4.53931 8.17076,4.08539 -1.36179,4.99324 20.88083,-6.35504 h 6.35504 l -16.34152,12.25614 2.26965,4.53932 5.44718,4.99324 15.43366,-0.45393 10.89435,-0.90786 -49.93244,43.12346 -14.97973,12.71007 -2.26965,9.98649 2.26965,11.80221 -2.72358,19.06511 6.35503,8.6247 2.26966,8.17076 -0.45393,8.17076 -2.72359,11.34828 -4.53931,12.71007 -4.53931,7.2629 -13.16401,6.35504 -17.24938,2.26965 -11.34828,0.90787 -7.71683,3.63145 -16.79546,-20.42691 -7.2629,-8.62469 -11.80221,-15.88759 -3.63145,-9.07863 -4.53931,-9.07862 8.17076,-11.34828 4.53931,-6.35504 -13.61793,-2.26965 -9.98649,-0.90787 -9.53256,-6.35503 c 0,0 -6.35503,-4.53932 -8.17076,-6.80897 -1.81572,-2.26966 -6.35503,-5.44718 -6.35503,-5.44718 l -2.72359,-8.62469 0.90786,-6.35504 0.45393,-2.72358 -9.53255,-4.53931 -2.26966,-8.6247 2.26966,-5.44717 1.81572,-7.71683 -2.72358,-4.99325 -9.53256,-5.9011 -12.71007,-7.2629 -2.26966,-5.90111 -7.2629,-4.08538 -5.44717,-14.5258 -2.26966,-2.26965 z"
             id="path140347" />
          <path
             style="fill:#f9f5f5;fill-opacity:1;stroke:#030303;stroke-width:0.4"
             d="m 201.99939,266.00369 c -1.3618,-2.26966 -8.17077,-15.8876 -8.17077,-15.8876 l -0.45393,-11.34828 5.44718,-9.07862 11.80221,-5.90111 9.07862,-1.36179 10.89435,-0.90786 5.44718,1.81572 3.17751,-2.72358 0.90787,-4.08539 3.17752,-1.36179 h 2.72358 l 3.17752,-7.2629 -0.45393,-3.63145 7.71683,-20.4269 5.90111,-10.44042 6.80896,-7.71683 4.53932,-3.17752 c 0,0 2.26965,-4.08538 2.26965,0 0,4.08538 -5.44717,11.34828 -5.44717,11.34828 l -4.99325,11.34828 -0.90786,4.53931 4.53931,-1.36179 h 5.90111 v -4.53931 l 2.26966,-4.53931 2.72358,-1.81573 2.72359,5.44718 2.72359,4.99324 v 3.63145 l 5.9011,-8.62469 0.45393,-3.17752 0.90787,-4.99325 5.9011,-1.81572 4.08538,2.26965 1.81573,5.44718 -0.45393,4.08538 -3.17752,4.53931 3.63145,4.08538 c 0,0 2.72359,-2.72358 4.08538,0 1.36179,2.72359 1.81572,4.08538 1.81572,4.08538 0,0 5.90111,0.45394 8.17077,0.45394 2.26965,0 8.17076,0.45393 8.17076,0.45393 l -4.08538,4.99324 -6.35504,5.90111 -4.99324,3.63144 5.9011,4.08539 5.90111,-2.72359 14.5258,-2.26966 5.44717,-8.17076 2.72359,-4.99324 11.34828,3.63145 39.94594,29.50553 c 0,0 -26.78194,40.8538 -28.59766,41.76167 -1.81573,0.90786 0.90786,4.53931 0.90786,4.53931 l 18.61118,-20.88084 8.17076,-0.90786 7.2629,4.53931 3.17752,4.53931 8.17076,4.08539 -1.36179,4.99324 20.88083,-6.35504 h 6.35504 l -16.34152,12.25614 2.26965,4.53932 5.44718,4.99324 15.43366,-0.45393 10.89435,-0.90786 -49.93244,43.12346 -14.97973,12.71007 -2.26965,9.98649 2.26965,11.80221 -2.72358,19.06511 6.35503,8.6247 2.26966,8.17076 -0.45393,8.17076 -2.72359,11.34828 -4.53931,12.71007 -4.53931,7.2629 -13.16401,6.35504 -17.24938,2.26965 -11.34828,0.90787 -7.71683,3.63145 -16.79546,-20.42691 -7.2629,-8.62469 -11.80221,-15.88759 -3.63145,-9.07863 -4.53931,-9.07862 8.17076,-11.34828 4.53931,-6.35504 -13.61793,-2.26965 -9.98649,-0.90787 -9.53256,-6.35503 c 0,0 -6.35503,-4.53932 -8.17076,-6.80897 -1.81572,-2.26966 -6.35503,-5.44718 -6.35503,-5.44718 l -2.72359,-8.62469 0.90786,-6.35504 0.45393,-2.72358 -9.53255,-4.53931 -2.26966,-8.6247 2.26966,-5.44717 1.81572,-7.71683 -2.72358,-4.99325 -9.53256,-5.9011 -12.71007,-7.2629 -2.26966,-5.90111 -7.2629,-4.08538 -5.44717,-14.5258 -2.26966,-2.26965 z"
             id="path140349" />
          <path
             style="fill:#f9f5f5;fill-opacity:1;stroke:#030303;stroke-width:0.4"
             d="m 94.190725,618.02733 17.476355,-27.46283 0.45393,28.59766 z"
             id="path140351" />
          <path
             style="fill:#f9f5f5;fill-opacity:1;stroke:#030303;stroke-width:0.4"
             d="m 129.37039,586.93305 -0.22696,17.93028 -2.04269,0.22697 0.22696,3.40448 h 12.48311 l 4.76628,-2.26966 3.17752,-2.49662 1.58876,-3.17752 0.45393,-3.40448 0.45393,-2.04269 v -2.72359 l -0.6809,-4.08538 -1.36179,-2.04269 -2.26966,-1.81572 -1.58876,-0.6809 -2.49662,-1.13483 -4.53931,0.6809 -5.67414,-0.22697 h -3.17752 -1.58876 v 2.72359 z"
             id="path140353" />
          <path
             style="fill:#f9f5f5;fill-opacity:1;stroke:#030303;stroke-width:0.4"
             d="m 133.90971,586.47912 0.68089,18.38421 h 1.81573 l 2.49662,-1.36179 2.72359,-1.81573 1.81572,-2.49662 v -2.95055 l -0.90786,-4.31235 -0.22697,-2.49662 -2.72358,-2.72359 -2.49663,-0.22696 z"
             id="path140355" />
        </g>
        <g
           id="g137916"
           transform="matrix(0.00887068,0,0,0.00887068,54.69182,16.78184)">
          <path
             style="fill:#ffb3b3;stroke:#030303;stroke-width:0.4"
             d="m 208.63559,263.20182 -5.7776,5.7776 -1.28391,1.92587 -3.20978,3.85173 v 5.13565 l -1.92587,7.06151 -1.28391,3.85174 -1.28391,5.7776 -2.56782,4.49369"
             id="path135760" />
          <path
             style="fill:#ffb3b3;stroke:#030303;stroke-width:0.4"
             d="M 189.37692,310.70654 Z"
             id="path135762" />
          <path
             style="fill:#ffb3b3;stroke:#030303;stroke-width:0.4"
             d="M 184.24128,318.41001 Z"
             id="path135764" />
          <path
             style="fill:#ffb3b3;stroke:#030303;stroke-width:0.4"
             d="M 186.16714,326.75543 Z"
             id="path135766" />
          <rect
             style="fill:#ed3137;fill-opacity:1;stroke:#030303;stroke-width:1.901;stroke-dasharray:none"
             id="rect135830"
             width="429.41891"
             height="513.8501"
             x="63.550369"
             y="147.07372" />
          <path
             style="fill:#130a0a;fill-opacity:1;stroke:#030303;stroke-width:0.4;filter:url(#filter138741)"
             d="m 216.9415,301.86425 -2.72359,10.44042 0.90787,15.88759 -31.54822,32.91001 -0.90787,4.53932 1.13483,4.31234 4.76628,1.58876 11.57525,2.95055 -2.95056,17.70332 1.13483,2.95055 1.36179,2.95056 0.90787,2.26965 c 0,0 0,2.26966 -0.45393,3.17752 -0.45394,0.90786 -2.04269,3.17752 -2.04269,3.17752 l -1.81573,3.40448 1.81573,2.95056 0.90786,2.49662 1.58876,0.68089 0.90786,1.13483 0.90786,2.72359 v 1.58876 l -0.90786,2.95055 v 2.04269 l 0.45393,3.17752 2.26966,3.85842 2.95055,2.26965 3.40448,1.81573 6.12807,1.81572 10.44042,2.49662 c 0,0 27.46284,4.08538 28.3707,4.08538 0.90787,0 17.02242,79.8919 17.02242,79.8919 l -2.72358,5.44717 -31.32126,43.12346 -5.9011,-1.81572 -3.17752,2.72359 -3.63145,7.2629 -6.80897,11.34828 c 0,0 -10.89435,11.80221 -13.164,13.61793 -2.26966,1.81573 -17.24939,8.6247 -17.24939,8.6247 l 4.53931,6.35503 10.89435,6.35504 13.16401,5.44717 16.34152,3.17752 h 19.97297 l 26.78194,-2.72359 17.24939,-1.81572 14.97973,0.45393 23.15049,-1.81572 c 0,0 9.98649,-0.90787 12.71007,-0.45393 2.72359,0.45393 23.1505,-0.45394 25.42015,-0.45394 2.26966,0 19.06511,-3.17751 22.24263,-3.63145 3.17752,-0.45393 28.59767,-8.17076 28.59767,-8.17076 l 11.80221,-6.80897 0.90786,-12.71007 -7.2629,-14.07187 c 0,0 -4.53931,-14.97973 -4.99324,-17.70331 -0.45393,-2.72359 -5.44718,-17.70332 -5.44718,-17.70332 l -7.2629,-8.17076 c 0,0 -9.07862,-1.3618 -9.98648,-3.17752 -0.90787,-1.81573 -19.97298,-39.03808 -19.97298,-39.03808 l -15.88759,-38.58416 -9.07862,-14.97973 -10.89435,-13.164 -12.25614,-14.07187 -9.53256,-12.25614 -6.35504,-15.43366 8.6247,-6.80897 4.53931,-7.2629 v -3.17752 l -14.5258,-1.36179 -9.07862,-1.36179 -7.71683,-6.35504 -11.34828,-7.2629 -6.35504,-7.2629 c 0,0 -0.45393,-7.71683 0.45393,-9.53256 0.90786,-1.81572 2.72359,-5.9011 2.72359,-5.9011 l -10.44042,-4.08538 -3.63145,-9.53256 3.63145,-5.44717 0.90786,-8.62469 -5.44717,-7.2629 -10.89435,-4.08538 -8.17076,-5.90111 -1.3618,-5.90111 -6.35503,-2.72358 -4.53932,-7.2629 -2.26965,-6.35504 -1.81573,-4.08538 -5.9011,3.17752 -5.44718,5.9011 c 0,0 -0.90786,3.17752 -1.36179,4.99325 -0.45393,1.81572 -3.63145,14.07186 -4.53931,16.34152 -0.90786,2.26966 -1.13483,7.71683 -1.13483,7.71683 z"
             id="path138733" />
          <path
             style="fill:#ffffff;fill-opacity:0.445596;stroke:#030303;stroke-width:0.4"
             d="m 117.56818,575.13084 -33.590907,49.70546 29.051597,0.6809 -0.45393,12.25614 -4.76628,4.31235 h -2.49662 l -0.22697,2.95055 20.88084,-0.22696 -0.45393,-3.40449 h -4.31235 l -1.81572,-2.72359 -0.22697,-12.93703 4.99324,0.22696 6.12808,-7.71683 -4.76628,1.13483 -5.67414,0.22696 1.13483,-44.03132 z"
             id="path136668" />
          <path
             style="fill:#ffc5c5;fill-opacity:1;stroke:#030303;stroke-width:0.4"
             d="m 192.19196,301.86425 -2.72359,10.44042 0.90787,15.88759 -31.54822,32.91001 -0.90787,4.53932 1.13483,4.31234 4.76628,1.58876 11.57525,2.95055 -2.95056,17.70332 1.13483,2.95055 1.36179,2.95056 0.90787,2.26965 c 0,0 0,2.26966 -0.45393,3.17752 -0.45394,0.90786 -2.04269,3.17752 -2.04269,3.17752 l -1.81573,3.40448 1.81573,2.95056 0.90786,2.49662 1.58876,0.68089 0.90786,1.13483 0.90786,2.72359 v 1.58876 l -0.90786,2.95055 v 2.04269 l 0.45393,3.17752 2.26966,3.85842 2.95055,2.26965 3.40448,1.81573 6.12807,1.81572 10.44042,2.49662 c 0,0 27.46284,4.08538 28.3707,4.08538 0.90787,0 17.02242,79.8919 17.02242,79.8919 l -2.72358,5.44717 -31.32126,43.12346 -5.9011,-1.81572 -3.17752,2.72359 -3.63145,7.2629 -6.80897,11.34828 c 0,0 -10.89435,11.80221 -13.164,13.61793 -2.26966,1.81573 -17.24939,8.6247 -17.24939,8.6247 l 4.53931,6.35503 10.89435,6.35504 13.16401,5.44717 16.34152,3.17752 h 19.97297 l 26.78194,-2.72359 17.24939,-1.81572 14.97973,0.45393 23.15049,-1.81572 c 0,0 9.98649,-0.90787 12.71007,-0.45393 2.72359,0.45393 23.1505,-0.45394 25.42015,-0.45394 2.26966,0 19.06511,-3.17751 22.24263,-3.63145 3.17752,-0.45393 28.59767,-8.17076 28.59767,-8.17076 l 11.80221,-6.80897 0.90786,-12.71007 -7.2629,-14.07187 c 0,0 -4.53931,-14.97973 -4.99324,-17.70331 -0.45393,-2.72359 -5.44718,-17.70332 -5.44718,-17.70332 l -7.2629,-8.17076 c 0,0 -9.07862,-1.3618 -9.98648,-3.17752 -0.90787,-1.81573 -19.97298,-39.03808 -19.97298,-39.03808 l -15.88759,-38.58416 -9.07862,-14.97973 -10.89435,-13.164 -12.25614,-14.07187 -9.53256,-12.25614 -6.35504,-15.43366 8.6247,-6.80897 4.53931,-7.2629 v -3.17752 l -14.5258,-1.36179 -9.07862,-1.36179 -7.71683,-6.35504 -11.34828,-7.2629 -6.35504,-7.2629 c 0,0 -0.45393,-7.71683 0.45393,-9.53256 0.90786,-1.81572 2.72359,-5.9011 2.72359,-5.9011 l -10.44042,-4.08538 -3.63145,-9.53256 3.63145,-5.44717 0.90786,-8.62469 -5.44717,-7.2629 -10.89435,-4.08538 -8.17076,-5.90111 -1.3618,-5.90111 -6.35503,-2.72358 -4.53932,-7.2629 -2.26965,-6.35504 -1.81573,-4.08538 -5.9011,3.17752 -5.44718,5.9011 c 0,0 -0.90786,3.17752 -1.36179,4.99325 -0.45393,1.81572 -3.63145,14.07186 -4.53931,16.34152 -0.90786,2.26966 -1.13483,7.71683 -1.13483,7.71683 z"
             id="path135774" />
          <path
             style="fill:#130a0a;fill-opacity:1;stroke:#030303;stroke-width:0.4;filter:url(#filter138737)"
             d="m 226.74893,266.00369 c -1.3618,-2.26966 -8.17077,-15.8876 -8.17077,-15.8876 l -0.45393,-11.34828 5.44718,-9.07862 11.80221,-5.90111 9.07862,-1.36179 10.89435,-0.90786 5.44718,1.81572 3.17751,-2.72358 0.90787,-4.08539 3.17752,-1.36179 h 2.72358 l 3.17752,-7.2629 -0.45393,-3.63145 7.71683,-20.4269 5.90111,-10.44042 6.80896,-7.71683 4.53932,-3.17752 c 0,0 2.26965,-4.08538 2.26965,0 0,4.08538 -5.44717,11.34828 -5.44717,11.34828 l -4.99325,11.34828 -0.90786,4.53931 4.53931,-1.36179 h 5.90111 v -4.53931 l 2.26966,-4.53931 2.72358,-1.81573 2.72359,5.44718 2.72359,4.99324 v 3.63145 l 5.9011,-8.62469 0.45393,-3.17752 0.90787,-4.99325 5.9011,-1.81572 4.08538,2.26965 1.81573,5.44718 -0.45393,4.08538 -3.17752,4.53931 3.63145,4.08538 c 0,0 2.72359,-2.72358 4.08538,0 1.36179,2.72359 1.81572,4.08538 1.81572,4.08538 0,0 5.90111,0.45394 8.17077,0.45394 2.26965,0 8.17076,0.45393 8.17076,0.45393 l -4.08538,4.99324 -6.35504,5.90111 -4.99324,3.63144 5.9011,4.08539 5.90111,-2.72359 14.5258,-2.26966 5.44717,-8.17076 2.72359,-4.99324 11.34828,3.63145 39.94594,29.50553 c 0,0 -26.78194,40.8538 -28.59766,41.76167 -1.81573,0.90786 0.90786,4.53931 0.90786,4.53931 l 18.61118,-20.88084 8.17076,-0.90786 7.2629,4.53931 3.17752,4.53931 8.17076,4.08539 -1.36179,4.99324 20.88083,-6.35504 h 6.35504 l -16.34152,12.25614 2.26965,4.53932 5.44718,4.99324 15.43366,-0.45393 10.89435,-0.90786 -49.93244,43.12346 -14.97973,12.71007 -2.26965,9.98649 2.26965,11.80221 -2.72358,19.06511 6.35503,8.6247 2.26966,8.17076 -0.45393,8.17076 -2.72359,11.34828 -4.53931,12.71007 -4.53931,7.2629 -13.16401,6.35504 -17.24938,2.26965 -11.34828,0.90787 -7.71683,3.63145 -16.79546,-20.42691 -7.2629,-8.62469 -11.80221,-15.88759 -3.63145,-9.07863 -4.53931,-9.07862 8.17076,-11.34828 4.53931,-6.35504 -13.61793,-2.26965 -9.98649,-0.90787 -9.53256,-6.35503 c 0,0 -6.35503,-4.53932 -8.17076,-6.80897 -1.81572,-2.26966 -6.35503,-5.44718 -6.35503,-5.44718 l -2.72359,-8.62469 0.90786,-6.35504 0.45393,-2.72358 -9.53255,-4.53931 -2.26966,-8.6247 2.26966,-5.44717 1.81572,-7.71683 -2.72358,-4.99325 -9.53256,-5.9011 -12.71007,-7.2629 -2.26966,-5.90111 -7.2629,-4.08538 -5.44717,-14.5258 -2.26966,-2.26965 z"
             id="path138735" />
          <path
             style="fill:#fdd4d4;fill-opacity:1;stroke:#030303;stroke-width:0.4"
             d="m 201.99939,266.00369 c -1.3618,-2.26966 -8.17077,-15.8876 -8.17077,-15.8876 l -0.45393,-11.34828 5.44718,-9.07862 11.80221,-5.90111 9.07862,-1.36179 10.89435,-0.90786 5.44718,1.81572 3.17751,-2.72358 0.90787,-4.08539 3.17752,-1.36179 h 2.72358 l 3.17752,-7.2629 -0.45393,-3.63145 7.71683,-20.4269 5.90111,-10.44042 6.80896,-7.71683 4.53932,-3.17752 c 0,0 2.26965,-4.08538 2.26965,0 0,4.08538 -5.44717,11.34828 -5.44717,11.34828 l -4.99325,11.34828 -0.90786,4.53931 4.53931,-1.36179 h 5.90111 v -4.53931 l 2.26966,-4.53931 2.72358,-1.81573 2.72359,5.44718 2.72359,4.99324 v 3.63145 l 5.9011,-8.62469 0.45393,-3.17752 0.90787,-4.99325 5.9011,-1.81572 4.08538,2.26965 1.81573,5.44718 -0.45393,4.08538 -3.17752,4.53931 3.63145,4.08538 c 0,0 2.72359,-2.72358 4.08538,0 1.36179,2.72359 1.81572,4.08538 1.81572,4.08538 0,0 5.90111,0.45394 8.17077,0.45394 2.26965,0 8.17076,0.45393 8.17076,0.45393 l -4.08538,4.99324 -6.35504,5.90111 -4.99324,3.63144 5.9011,4.08539 5.90111,-2.72359 14.5258,-2.26966 5.44717,-8.17076 2.72359,-4.99324 11.34828,3.63145 39.94594,29.50553 c 0,0 -26.78194,40.8538 -28.59766,41.76167 -1.81573,0.90786 0.90786,4.53931 0.90786,4.53931 l 18.61118,-20.88084 8.17076,-0.90786 7.2629,4.53931 3.17752,4.53931 8.17076,4.08539 -1.36179,4.99324 20.88083,-6.35504 h 6.35504 l -16.34152,12.25614 2.26965,4.53932 5.44718,4.99324 15.43366,-0.45393 10.89435,-0.90786 -49.93244,43.12346 -14.97973,12.71007 -2.26965,9.98649 2.26965,11.80221 -2.72358,19.06511 6.35503,8.6247 2.26966,8.17076 -0.45393,8.17076 -2.72359,11.34828 -4.53931,12.71007 -4.53931,7.2629 -13.16401,6.35504 -17.24938,2.26965 -11.34828,0.90787 -7.71683,3.63145 -16.79546,-20.42691 -7.2629,-8.62469 -11.80221,-15.88759 -3.63145,-9.07863 -4.53931,-9.07862 8.17076,-11.34828 4.53931,-6.35504 -13.61793,-2.26965 -9.98649,-0.90787 -9.53256,-6.35503 c 0,0 -6.35503,-4.53932 -8.17076,-6.80897 -1.81572,-2.26966 -6.35503,-5.44718 -6.35503,-5.44718 l -2.72359,-8.62469 0.90786,-6.35504 0.45393,-2.72358 -9.53255,-4.53931 -2.26966,-8.6247 2.26966,-5.44717 1.81572,-7.71683 -2.72358,-4.99325 -9.53256,-5.9011 -12.71007,-7.2629 -2.26966,-5.90111 -7.2629,-4.08538 -5.44717,-14.5258 -2.26966,-2.26965 z"
             id="path135776" />
          <path
             style="fill:#ed3137;fill-opacity:1;stroke:#030303;stroke-width:0.4"
             d="m 94.190725,618.02733 17.476355,-27.46283 0.45393,28.59766 z"
             id="path136666" />
          <path
             style="fill:#c2c2c2;fill-opacity:0.595855;stroke:#030303;stroke-width:0.4"
             d="m 129.37039,586.93305 -0.22696,17.93028 -2.04269,0.22697 0.22696,3.40448 h 12.48311 l 4.76628,-2.26966 3.17752,-2.49662 1.58876,-3.17752 0.45393,-3.40448 0.45393,-2.04269 v -2.72359 l -0.6809,-4.08538 -1.36179,-2.04269 -2.26966,-1.81572 -1.58876,-0.6809 -2.49662,-1.13483 -4.53931,0.6809 -5.67414,-0.22697 h -3.17752 -1.58876 v 2.72359 z"
             id="path137207" />
          <path
             style="fill:#ed3137;fill-opacity:1;stroke:#030303;stroke-width:0.4"
             d="m 133.90971,586.47912 0.68089,18.38421 h 1.81573 l 2.49662,-1.36179 2.72359,-1.81573 1.81572,-2.49662 v -2.95055 l -0.90786,-4.31235 -0.22697,-2.49662 -2.72358,-2.72359 -2.49663,-0.22696 z"
             id="path137263" />
          <path
             style="fill:#610000;fill-opacity:1;stroke:#030303;stroke-width:0.4;filter:url(#filter140363)"
             d="m 186.88849,301.86425 -2.72359,10.44042 0.90787,15.88759 -31.54822,32.91001 -0.90787,4.53932 1.13483,4.31234 4.76628,1.58876 11.57525,2.95055 -2.95056,17.70332 1.13483,2.95055 1.36179,2.95056 0.90787,2.26965 c 0,0 0,2.26966 -0.45393,3.17752 -0.45394,0.90786 -2.04269,3.17752 -2.04269,3.17752 l -1.81573,3.40448 1.81573,2.95056 0.90786,2.49662 1.58876,0.68089 0.90786,1.13483 0.90786,2.72359 v 1.58876 l -0.90786,2.95055 v 2.04269 l 0.45393,3.17752 2.26966,3.85842 2.95055,2.26965 3.40448,1.81573 6.12807,1.81572 10.44042,2.49662 c 0,0 27.46284,4.08538 28.3707,4.08538 0.90787,0 17.02242,79.8919 17.02242,79.8919 l -2.72358,5.44717 -31.32126,43.12346 -5.9011,-1.81572 -3.17752,2.72359 -3.63145,7.2629 -6.80897,11.34828 c 0,0 -10.89435,11.80221 -13.164,13.61793 -2.26966,1.81573 -17.24939,8.6247 -17.24939,8.6247 l 4.53931,6.35503 10.89435,6.35504 13.16401,5.44717 16.34152,3.17752 h 19.97297 l 26.78194,-2.72359 17.24939,-1.81572 14.97973,0.45393 23.15049,-1.81572 c 0,0 9.98649,-0.90787 12.71007,-0.45393 2.72359,0.45393 23.1505,-0.45394 25.42015,-0.45394 2.26966,0 19.06511,-3.17751 22.24263,-3.63145 3.17752,-0.45393 28.59767,-8.17076 28.59767,-8.17076 l 11.80221,-6.80897 0.90786,-12.71007 -7.2629,-14.07187 c 0,0 -4.53931,-14.97973 -4.99324,-17.70331 -0.45393,-2.72359 -5.44718,-17.70332 -5.44718,-17.70332 l -7.2629,-8.17076 c 0,0 -9.07862,-1.3618 -9.98648,-3.17752 -0.90787,-1.81573 -19.97298,-39.03808 -19.97298,-39.03808 l -15.88759,-38.58416 -9.07862,-14.97973 -10.89435,-13.164 -12.25614,-14.07187 -9.53256,-12.25614 -6.35504,-15.43366 8.6247,-6.80897 4.53931,-7.2629 v -3.17752 l -14.5258,-1.36179 -9.07862,-1.36179 -7.71683,-6.35504 -11.34828,-7.2629 -6.35504,-7.2629 c 0,0 -0.45393,-7.71683 0.45393,-9.53256 0.90786,-1.81572 2.72359,-5.9011 2.72359,-5.9011 l -10.44042,-4.08538 -3.63145,-9.53256 3.63145,-5.44717 0.90786,-8.62469 -5.44717,-7.2629 -10.89435,-4.08538 -8.17076,-5.90111 -1.3618,-5.90111 -6.35503,-2.72358 -4.53932,-7.2629 -2.26965,-6.35504 -1.81573,-4.08538 -5.9011,3.17752 -5.44718,5.9011 c 0,0 -0.90786,3.17752 -1.36179,4.99325 -0.45393,1.81572 -3.63145,14.07186 -4.53931,16.34152 -0.90786,2.26966 -1.13483,7.71683 -1.13483,7.71683 z"
             id="path140361"
             transform="matrix(1.0393218,0,0,0.999977,-16.311369,0.01036712)" />
          <path
             style="fill:#ffc5c5;fill-opacity:1;stroke:#030303;stroke-width:0.4"
             d="m 192.19196,301.86425 -2.72359,10.44042 0.90787,15.88759 -31.54822,32.91001 -0.90787,4.53932 1.13483,4.31234 4.76628,1.58876 11.57525,2.95055 -2.95056,17.70332 1.13483,2.95055 1.36179,2.95056 0.90787,2.26965 c 0,0 0,2.26966 -0.45393,3.17752 -0.45394,0.90786 -2.04269,3.17752 -2.04269,3.17752 l -1.81573,3.40448 1.81573,2.95056 0.90786,2.49662 1.58876,0.68089 0.90786,1.13483 0.90786,2.72359 v 1.58876 l -0.90786,2.95055 v 2.04269 l 0.45393,3.17752 2.26966,3.85842 2.95055,2.26965 3.40448,1.81573 6.12807,1.81572 10.44042,2.49662 c 0,0 27.46284,4.08538 28.3707,4.08538 0.90787,0 17.02242,79.8919 17.02242,79.8919 l -2.72358,5.44717 -31.32126,43.12346 -5.9011,-1.81572 -3.17752,2.72359 -3.63145,7.2629 -6.80897,11.34828 c 0,0 -10.89435,11.80221 -13.164,13.61793 -2.26966,1.81573 -17.24939,8.6247 -17.24939,8.6247 l 4.53931,6.35503 10.89435,6.35504 13.16401,5.44717 16.34152,3.17752 h 19.97297 l 26.78194,-2.72359 17.24939,-1.81572 14.97973,0.45393 23.15049,-1.81572 c 0,0 9.98649,-0.90787 12.71007,-0.45393 2.72359,0.45393 23.1505,-0.45394 25.42015,-0.45394 2.26966,0 19.06511,-3.17751 22.24263,-3.63145 3.17752,-0.45393 28.59767,-8.17076 28.59767,-8.17076 l 11.80221,-6.80897 0.90786,-12.71007 -7.2629,-14.07187 c 0,0 -4.53931,-14.97973 -4.99324,-17.70331 -0.45393,-2.72359 -5.44718,-17.70332 -5.44718,-17.70332 l -7.2629,-8.17076 c 0,0 -9.07862,-1.3618 -9.98648,-3.17752 -0.90787,-1.81573 -19.97298,-39.03808 -19.97298,-39.03808 l -15.88759,-38.58416 -9.07862,-14.97973 -10.89435,-13.164 -12.25614,-14.07187 -9.53256,-12.25614 -6.35504,-15.43366 8.6247,-6.80897 4.53931,-7.2629 v -3.17752 l -14.5258,-1.36179 -9.07862,-1.36179 -7.71683,-6.35504 -11.34828,-7.2629 -6.35504,-7.2629 c 0,0 -0.45393,-7.71683 0.45393,-9.53256 0.90786,-1.81572 2.72359,-5.9011 2.72359,-5.9011 l -10.44042,-4.08538 -3.63145,-9.53256 3.63145,-5.44717 0.90786,-8.62469 -5.44717,-7.2629 -10.89435,-4.08538 -8.17076,-5.90111 -1.3618,-5.90111 -6.35503,-2.72358 -4.53932,-7.2629 -2.26965,-6.35504 -1.81573,-4.08538 -5.9011,3.17752 -5.44718,5.9011 c 0,0 -0.90786,3.17752 -1.36179,4.99325 -0.45393,1.81572 -3.63145,14.07186 -4.53931,16.34152 -0.90786,2.26966 -1.13483,7.71683 -1.13483,7.71683 z"
             id="path140359" />
        </g>
        <g
           id="g1720"
           transform="matrix(0.00854714,0,0,0.00854714,45.558834,9.503749)"
           style="fill:#130a0a;fill-opacity:1">
          <path
             style="fill:#130a0a;fill-opacity:1;stroke:#030303;stroke-width:0.4"
             d="m 208.63559,263.20182 -5.7776,5.7776 -1.28391,1.92587 -3.20978,3.85173 v 5.13565 l -1.92587,7.06151 -1.28391,3.85174 -1.28391,5.7776 -2.56782,4.49369"
             id="path1694" />
          <path
             style="fill:#130a0a;fill-opacity:1;stroke:#030303;stroke-width:0.4"
             d="M 189.37692,310.70654 Z"
             id="path1696" />
          <path
             style="fill:#130a0a;fill-opacity:1;stroke:#030303;stroke-width:0.4"
             d="M 184.24128,318.41001 Z"
             id="path1698" />
          <path
             style="fill:#130a0a;fill-opacity:1;stroke:#030303;stroke-width:0.4"
             d="M 186.16714,326.75543 Z"
             id="path1700" />
          <rect
             style="fill:#130a0a;fill-opacity:1;stroke:#030303;stroke-width:1.901;stroke-dasharray:none"
             id="rect1702"
             width="429.41891"
             height="513.8501"
             x="63.550369"
             y="147.07372" />
          <path
             style="fill:#130a0a;fill-opacity:1;stroke:#030303;stroke-width:0.4;filter:url(#filter138741)"
             d="m 216.9415,301.86425 -2.72359,10.44042 0.90787,15.88759 -31.54822,32.91001 -0.90787,4.53932 1.13483,4.31234 4.76628,1.58876 11.57525,2.95055 -2.95056,17.70332 1.13483,2.95055 1.36179,2.95056 0.90787,2.26965 c 0,0 0,2.26966 -0.45393,3.17752 -0.45394,0.90786 -2.04269,3.17752 -2.04269,3.17752 l -1.81573,3.40448 1.81573,2.95056 0.90786,2.49662 1.58876,0.68089 0.90786,1.13483 0.90786,2.72359 v 1.58876 l -0.90786,2.95055 v 2.04269 l 0.45393,3.17752 2.26966,3.85842 2.95055,2.26965 3.40448,1.81573 6.12807,1.81572 10.44042,2.49662 c 0,0 27.46284,4.08538 28.3707,4.08538 0.90787,0 17.02242,79.8919 17.02242,79.8919 l -2.72358,5.44717 -31.32126,43.12346 -5.9011,-1.81572 -3.17752,2.72359 -3.63145,7.2629 -6.80897,11.34828 c 0,0 -10.89435,11.80221 -13.164,13.61793 -2.26966,1.81573 -17.24939,8.6247 -17.24939,8.6247 l 4.53931,6.35503 10.89435,6.35504 13.16401,5.44717 16.34152,3.17752 h 19.97297 l 26.78194,-2.72359 17.24939,-1.81572 14.97973,0.45393 23.15049,-1.81572 c 0,0 9.98649,-0.90787 12.71007,-0.45393 2.72359,0.45393 23.1505,-0.45394 25.42015,-0.45394 2.26966,0 19.06511,-3.17751 22.24263,-3.63145 3.17752,-0.45393 28.59767,-8.17076 28.59767,-8.17076 l 11.80221,-6.80897 0.90786,-12.71007 -7.2629,-14.07187 c 0,0 -4.53931,-14.97973 -4.99324,-17.70331 -0.45393,-2.72359 -5.44718,-17.70332 -5.44718,-17.70332 l -7.2629,-8.17076 c 0,0 -9.07862,-1.3618 -9.98648,-3.17752 -0.90787,-1.81573 -19.97298,-39.03808 -19.97298,-39.03808 l -15.88759,-38.58416 -9.07862,-14.97973 -10.89435,-13.164 -12.25614,-14.07187 -9.53256,-12.25614 -6.35504,-15.43366 8.6247,-6.80897 4.53931,-7.2629 v -3.17752 l -14.5258,-1.36179 -9.07862,-1.36179 -7.71683,-6.35504 -11.34828,-7.2629 -6.35504,-7.2629 c 0,0 -0.45393,-7.71683 0.45393,-9.53256 0.90786,-1.81572 2.72359,-5.9011 2.72359,-5.9011 l -10.44042,-4.08538 -3.63145,-9.53256 3.63145,-5.44717 0.90786,-8.62469 -5.44717,-7.2629 -10.89435,-4.08538 -8.17076,-5.90111 -1.3618,-5.90111 -6.35503,-2.72358 -4.53932,-7.2629 -2.26965,-6.35504 -1.81573,-4.08538 -5.9011,3.17752 -5.44718,5.9011 c 0,0 -0.90786,3.17752 -1.36179,4.99325 -0.45393,1.81572 -3.63145,14.07186 -4.53931,16.34152 -0.90786,2.26966 -1.13483,7.71683 -1.13483,7.71683 z"
             id="path1704" />
          <path
             style="fill:#130a0a;fill-opacity:1;stroke:#030303;stroke-width:0.4"
             d="m 117.56818,575.13084 -33.590907,49.70546 29.051597,0.6809 -0.45393,12.25614 -4.76628,4.31235 h -2.49662 l -0.22697,2.95055 20.88084,-0.22696 -0.45393,-3.40449 h -4.31235 l -1.81572,-2.72359 -0.22697,-12.93703 4.99324,0.22696 6.12808,-7.71683 -4.76628,1.13483 -5.67414,0.22696 1.13483,-44.03132 z"
             id="path1706" />
          <path
             style="fill:#130a0a;fill-opacity:1;stroke:#030303;stroke-width:0.4"
             d="m 192.19196,301.86425 -2.72359,10.44042 0.90787,15.88759 -31.54822,32.91001 -0.90787,4.53932 1.13483,4.31234 4.76628,1.58876 11.57525,2.95055 -2.95056,17.70332 1.13483,2.95055 1.36179,2.95056 0.90787,2.26965 c 0,0 0,2.26966 -0.45393,3.17752 -0.45394,0.90786 -2.04269,3.17752 -2.04269,3.17752 l -1.81573,3.40448 1.81573,2.95056 0.90786,2.49662 1.58876,0.68089 0.90786,1.13483 0.90786,2.72359 v 1.58876 l -0.90786,2.95055 v 2.04269 l 0.45393,3.17752 2.26966,3.85842 2.95055,2.26965 3.40448,1.81573 6.12807,1.81572 10.44042,2.49662 c 0,0 27.46284,4.08538 28.3707,4.08538 0.90787,0 17.02242,79.8919 17.02242,79.8919 l -2.72358,5.44717 -31.32126,43.12346 -5.9011,-1.81572 -3.17752,2.72359 -3.63145,7.2629 -6.80897,11.34828 c 0,0 -10.89435,11.80221 -13.164,13.61793 -2.26966,1.81573 -17.24939,8.6247 -17.24939,8.6247 l 4.53931,6.35503 10.89435,6.35504 13.16401,5.44717 16.34152,3.17752 h 19.97297 l 26.78194,-2.72359 17.24939,-1.81572 14.97973,0.45393 23.15049,-1.81572 c 0,0 9.98649,-0.90787 12.71007,-0.45393 2.72359,0.45393 23.1505,-0.45394 25.42015,-0.45394 2.26966,0 19.06511,-3.17751 22.24263,-3.63145 3.17752,-0.45393 28.59767,-8.17076 28.59767,-8.17076 l 11.80221,-6.80897 0.90786,-12.71007 -7.2629,-14.07187 c 0,0 -4.53931,-14.97973 -4.99324,-17.70331 -0.45393,-2.72359 -5.44718,-17.70332 -5.44718,-17.70332 l -7.2629,-8.17076 c 0,0 -9.07862,-1.3618 -9.98648,-3.17752 -0.90787,-1.81573 -19.97298,-39.03808 -19.97298,-39.03808 l -15.88759,-38.58416 -9.07862,-14.97973 -10.89435,-13.164 -12.25614,-14.07187 -9.53256,-12.25614 -6.35504,-15.43366 8.6247,-6.80897 4.53931,-7.2629 v -3.17752 l -14.5258,-1.36179 -9.07862,-1.36179 -7.71683,-6.35504 -11.34828,-7.2629 -6.35504,-7.2629 c 0,0 -0.45393,-7.71683 0.45393,-9.53256 0.90786,-1.81572 2.72359,-5.9011 2.72359,-5.9011 l -10.44042,-4.08538 -3.63145,-9.53256 3.63145,-5.44717 0.90786,-8.62469 -5.44717,-7.2629 -10.89435,-4.08538 -8.17076,-5.90111 -1.3618,-5.90111 -6.35503,-2.72358 -4.53932,-7.2629 -2.26965,-6.35504 -1.81573,-4.08538 -5.9011,3.17752 -5.44718,5.9011 c 0,0 -0.90786,3.17752 -1.36179,4.99325 -0.45393,1.81572 -3.63145,14.07186 -4.53931,16.34152 -0.90786,2.26966 -1.13483,7.71683 -1.13483,7.71683 z"
             id="path1708" />
          <path
             style="fill:#130a0a;fill-opacity:1;stroke:#030303;stroke-width:0.4;filter:url(#filter138737)"
             d="m 226.74893,266.00369 c -1.3618,-2.26966 -8.17077,-15.8876 -8.17077,-15.8876 l -0.45393,-11.34828 5.44718,-9.07862 11.80221,-5.90111 9.07862,-1.36179 10.89435,-0.90786 5.44718,1.81572 3.17751,-2.72358 0.90787,-4.08539 3.17752,-1.36179 h 2.72358 l 3.17752,-7.2629 -0.45393,-3.63145 7.71683,-20.4269 5.90111,-10.44042 6.80896,-7.71683 4.53932,-3.17752 c 0,0 2.26965,-4.08538 2.26965,0 0,4.08538 -5.44717,11.34828 -5.44717,11.34828 l -4.99325,11.34828 -0.90786,4.53931 4.53931,-1.36179 h 5.90111 v -4.53931 l 2.26966,-4.53931 2.72358,-1.81573 2.72359,5.44718 2.72359,4.99324 v 3.63145 l 5.9011,-8.62469 0.45393,-3.17752 0.90787,-4.99325 5.9011,-1.81572 4.08538,2.26965 1.81573,5.44718 -0.45393,4.08538 -3.17752,4.53931 3.63145,4.08538 c 0,0 2.72359,-2.72358 4.08538,0 1.36179,2.72359 1.81572,4.08538 1.81572,4.08538 0,0 5.90111,0.45394 8.17077,0.45394 2.26965,0 8.17076,0.45393 8.17076,0.45393 l -4.08538,4.99324 -6.35504,5.90111 -4.99324,3.63144 5.9011,4.08539 5.90111,-2.72359 14.5258,-2.26966 5.44717,-8.17076 2.72359,-4.99324 11.34828,3.63145 39.94594,29.50553 c 0,0 -26.78194,40.8538 -28.59766,41.76167 -1.81573,0.90786 0.90786,4.53931 0.90786,4.53931 l 18.61118,-20.88084 8.17076,-0.90786 7.2629,4.53931 3.17752,4.53931 8.17076,4.08539 -1.36179,4.99324 20.88083,-6.35504 h 6.35504 l -16.34152,12.25614 2.26965,4.53932 5.44718,4.99324 15.43366,-0.45393 10.89435,-0.90786 -49.93244,43.12346 -14.97973,12.71007 -2.26965,9.98649 2.26965,11.80221 -2.72358,19.06511 6.35503,8.6247 2.26966,8.17076 -0.45393,8.17076 -2.72359,11.34828 -4.53931,12.71007 -4.53931,7.2629 -13.16401,6.35504 -17.24938,2.26965 -11.34828,0.90787 -7.71683,3.63145 -16.79546,-20.42691 -7.2629,-8.62469 -11.80221,-15.88759 -3.63145,-9.07863 -4.53931,-9.07862 8.17076,-11.34828 4.53931,-6.35504 -13.61793,-2.26965 -9.98649,-0.90787 -9.53256,-6.35503 c 0,0 -6.35503,-4.53932 -8.17076,-6.80897 -1.81572,-2.26966 -6.35503,-5.44718 -6.35503,-5.44718 l -2.72359,-8.62469 0.90786,-6.35504 0.45393,-2.72358 -9.53255,-4.53931 -2.26966,-8.6247 2.26966,-5.44717 1.81572,-7.71683 -2.72358,-4.99325 -9.53256,-5.9011 -12.71007,-7.2629 -2.26966,-5.90111 -7.2629,-4.08538 -5.44717,-14.5258 -2.26966,-2.26965 z"
             id="path1710" />
          <path
             style="fill:#130a0a;fill-opacity:1;stroke:#030303;stroke-width:0.4"
             d="m 201.99939,266.00369 c -1.3618,-2.26966 -8.17077,-15.8876 -8.17077,-15.8876 l -0.45393,-11.34828 5.44718,-9.07862 11.80221,-5.90111 9.07862,-1.36179 10.89435,-0.90786 5.44718,1.81572 3.17751,-2.72358 0.90787,-4.08539 3.17752,-1.36179 h 2.72358 l 3.17752,-7.2629 -0.45393,-3.63145 7.71683,-20.4269 5.90111,-10.44042 6.80896,-7.71683 4.53932,-3.17752 c 0,0 2.26965,-4.08538 2.26965,0 0,4.08538 -5.44717,11.34828 -5.44717,11.34828 l -4.99325,11.34828 -0.90786,4.53931 4.53931,-1.36179 h 5.90111 v -4.53931 l 2.26966,-4.53931 2.72358,-1.81573 2.72359,5.44718 2.72359,4.99324 v 3.63145 l 5.9011,-8.62469 0.45393,-3.17752 0.90787,-4.99325 5.9011,-1.81572 4.08538,2.26965 1.81573,5.44718 -0.45393,4.08538 -3.17752,4.53931 3.63145,4.08538 c 0,0 2.72359,-2.72358 4.08538,0 1.36179,2.72359 1.81572,4.08538 1.81572,4.08538 0,0 5.90111,0.45394 8.17077,0.45394 2.26965,0 8.17076,0.45393 8.17076,0.45393 l -4.08538,4.99324 -6.35504,5.90111 -4.99324,3.63144 5.9011,4.08539 5.90111,-2.72359 14.5258,-2.26966 5.44717,-8.17076 2.72359,-4.99324 11.34828,3.63145 39.94594,29.50553 c 0,0 -26.78194,40.8538 -28.59766,41.76167 -1.81573,0.90786 0.90786,4.53931 0.90786,4.53931 l 18.61118,-20.88084 8.17076,-0.90786 7.2629,4.53931 3.17752,4.53931 8.17076,4.08539 -1.36179,4.99324 20.88083,-6.35504 h 6.35504 l -16.34152,12.25614 2.26965,4.53932 5.44718,4.99324 15.43366,-0.45393 10.89435,-0.90786 -49.93244,43.12346 -14.97973,12.71007 -2.26965,9.98649 2.26965,11.80221 -2.72358,19.06511 6.35503,8.6247 2.26966,8.17076 -0.45393,8.17076 -2.72359,11.34828 -4.53931,12.71007 -4.53931,7.2629 -13.16401,6.35504 -17.24938,2.26965 -11.34828,0.90787 -7.71683,3.63145 -16.79546,-20.42691 -7.2629,-8.62469 -11.80221,-15.88759 -3.63145,-9.07863 -4.53931,-9.07862 8.17076,-11.34828 4.53931,-6.35504 -13.61793,-2.26965 -9.98649,-0.90787 -9.53256,-6.35503 c 0,0 -6.35503,-4.53932 -8.17076,-6.80897 -1.81572,-2.26966 -6.35503,-5.44718 -6.35503,-5.44718 l -2.72359,-8.62469 0.90786,-6.35504 0.45393,-2.72358 -9.53255,-4.53931 -2.26966,-8.6247 2.26966,-5.44717 1.81572,-7.71683 -2.72358,-4.99325 -9.53256,-5.9011 -12.71007,-7.2629 -2.26966,-5.90111 -7.2629,-4.08538 -5.44717,-14.5258 -2.26966,-2.26965 z"
             id="path1712" />
          <path
             style="fill:#130a0a;fill-opacity:1;stroke:#030303;stroke-width:0.4"
             d="m 94.190725,618.02733 17.476355,-27.46283 0.45393,28.59766 z"
             id="path1714" />
          <path
             style="fill:#130a0a;fill-opacity:1;stroke:#030303;stroke-width:0.4"
             d="m 129.37039,586.93305 -0.22696,17.93028 -2.04269,0.22697 0.22696,3.40448 h 12.48311 l 4.76628,-2.26966 3.17752,-2.49662 1.58876,-3.17752 0.45393,-3.40448 0.45393,-2.04269 v -2.72359 l -0.6809,-4.08538 -1.36179,-2.04269 -2.26966,-1.81572 -1.58876,-0.6809 -2.49662,-1.13483 -4.53931,0.6809 -5.67414,-0.22697 h -3.17752 -1.58876 v 2.72359 z"
             id="path1716" />
          <path
             style="fill:#130a0a;fill-opacity:1;stroke:#030303;stroke-width:0.4"
             d="m 133.90971,586.47912 0.68089,18.38421 h 1.81573 l 2.49662,-1.36179 2.72359,-1.81573 1.81572,-2.49662 v -2.95055 l -0.90786,-4.31235 -0.22697,-2.49662 -2.72358,-2.72359 -2.49663,-0.22696 z"
             id="path1718" />
        </g>
        <g
           id="g1748"
           transform="matrix(0.00783711,0,0,0.00783711,45.762536,9.787218)"
           style="fill:#f9f5f5;fill-opacity:1">
          <path
             style="fill:#f9f5f5;fill-opacity:1;stroke:#030303;stroke-width:0.4"
             d="m 208.63559,263.20182 -5.7776,5.7776 -1.28391,1.92587 -3.20978,3.85173 v 5.13565 l -1.92587,7.06151 -1.28391,3.85174 -1.28391,5.7776 -2.56782,4.49369"
             id="path1722" />
          <path
             style="fill:#f9f5f5;fill-opacity:1;stroke:#030303;stroke-width:0.4"
             d="M 189.37692,310.70654 Z"
             id="path1724" />
          <path
             style="fill:#f9f5f5;fill-opacity:1;stroke:#030303;stroke-width:0.4"
             d="M 184.24128,318.41001 Z"
             id="path1726" />
          <path
             style="fill:#f9f5f5;fill-opacity:1;stroke:#030303;stroke-width:0.4"
             d="M 186.16714,326.75543 Z"
             id="path1728" />
          <rect
             style="fill:#f9f5f5;fill-opacity:1;stroke:#030303;stroke-width:1.901;stroke-dasharray:none"
             id="rect1730"
             width="429.41891"
             height="513.8501"
             x="63.550369"
             y="147.07372" />
          <path
             style="fill:#f9f5f5;fill-opacity:1;stroke:#030303;stroke-width:0.4;filter:url(#filter138741)"
             d="m 216.9415,301.86425 -2.72359,10.44042 0.90787,15.88759 -31.54822,32.91001 -0.90787,4.53932 1.13483,4.31234 4.76628,1.58876 11.57525,2.95055 -2.95056,17.70332 1.13483,2.95055 1.36179,2.95056 0.90787,2.26965 c 0,0 0,2.26966 -0.45393,3.17752 -0.45394,0.90786 -2.04269,3.17752 -2.04269,3.17752 l -1.81573,3.40448 1.81573,2.95056 0.90786,2.49662 1.58876,0.68089 0.90786,1.13483 0.90786,2.72359 v 1.58876 l -0.90786,2.95055 v 2.04269 l 0.45393,3.17752 2.26966,3.85842 2.95055,2.26965 3.40448,1.81573 6.12807,1.81572 10.44042,2.49662 c 0,0 27.46284,4.08538 28.3707,4.08538 0.90787,0 17.02242,79.8919 17.02242,79.8919 l -2.72358,5.44717 -31.32126,43.12346 -5.9011,-1.81572 -3.17752,2.72359 -3.63145,7.2629 -6.80897,11.34828 c 0,0 -10.89435,11.80221 -13.164,13.61793 -2.26966,1.81573 -17.24939,8.6247 -17.24939,8.6247 l 4.53931,6.35503 10.89435,6.35504 13.16401,5.44717 16.34152,3.17752 h 19.97297 l 26.78194,-2.72359 17.24939,-1.81572 14.97973,0.45393 23.15049,-1.81572 c 0,0 9.98649,-0.90787 12.71007,-0.45393 2.72359,0.45393 23.1505,-0.45394 25.42015,-0.45394 2.26966,0 19.06511,-3.17751 22.24263,-3.63145 3.17752,-0.45393 28.59767,-8.17076 28.59767,-8.17076 l 11.80221,-6.80897 0.90786,-12.71007 -7.2629,-14.07187 c 0,0 -4.53931,-14.97973 -4.99324,-17.70331 -0.45393,-2.72359 -5.44718,-17.70332 -5.44718,-17.70332 l -7.2629,-8.17076 c 0,0 -9.07862,-1.3618 -9.98648,-3.17752 -0.90787,-1.81573 -19.97298,-39.03808 -19.97298,-39.03808 l -15.88759,-38.58416 -9.07862,-14.97973 -10.89435,-13.164 -12.25614,-14.07187 -9.53256,-12.25614 -6.35504,-15.43366 8.6247,-6.80897 4.53931,-7.2629 v -3.17752 l -14.5258,-1.36179 -9.07862,-1.36179 -7.71683,-6.35504 -11.34828,-7.2629 -6.35504,-7.2629 c 0,0 -0.45393,-7.71683 0.45393,-9.53256 0.90786,-1.81572 2.72359,-5.9011 2.72359,-5.9011 l -10.44042,-4.08538 -3.63145,-9.53256 3.63145,-5.44717 0.90786,-8.62469 -5.44717,-7.2629 -10.89435,-4.08538 -8.17076,-5.90111 -1.3618,-5.90111 -6.35503,-2.72358 -4.53932,-7.2629 -2.26965,-6.35504 -1.81573,-4.08538 -5.9011,3.17752 -5.44718,5.9011 c 0,0 -0.90786,3.17752 -1.36179,4.99325 -0.45393,1.81572 -3.63145,14.07186 -4.53931,16.34152 -0.90786,2.26966 -1.13483,7.71683 -1.13483,7.71683 z"
             id="path1732" />
          <path
             style="fill:#f9f5f5;fill-opacity:1;stroke:#030303;stroke-width:0.4"
             d="m 117.56818,575.13084 -33.590907,49.70546 29.051597,0.6809 -0.45393,12.25614 -4.76628,4.31235 h -2.49662 l -0.22697,2.95055 20.88084,-0.22696 -0.45393,-3.40449 h -4.31235 l -1.81572,-2.72359 -0.22697,-12.93703 4.99324,0.22696 6.12808,-7.71683 -4.76628,1.13483 -5.67414,0.22696 1.13483,-44.03132 z"
             id="path1734" />
          <path
             style="fill:#f9f5f5;fill-opacity:1;stroke:#030303;stroke-width:0.4"
             d="m 192.19196,301.86425 -2.72359,10.44042 0.90787,15.88759 -31.54822,32.91001 -0.90787,4.53932 1.13483,4.31234 4.76628,1.58876 11.57525,2.95055 -2.95056,17.70332 1.13483,2.95055 1.36179,2.95056 0.90787,2.26965 c 0,0 0,2.26966 -0.45393,3.17752 -0.45394,0.90786 -2.04269,3.17752 -2.04269,3.17752 l -1.81573,3.40448 1.81573,2.95056 0.90786,2.49662 1.58876,0.68089 0.90786,1.13483 0.90786,2.72359 v 1.58876 l -0.90786,2.95055 v 2.04269 l 0.45393,3.17752 2.26966,3.85842 2.95055,2.26965 3.40448,1.81573 6.12807,1.81572 10.44042,2.49662 c 0,0 27.46284,4.08538 28.3707,4.08538 0.90787,0 17.02242,79.8919 17.02242,79.8919 l -2.72358,5.44717 -31.32126,43.12346 -5.9011,-1.81572 -3.17752,2.72359 -3.63145,7.2629 -6.80897,11.34828 c 0,0 -10.89435,11.80221 -13.164,13.61793 -2.26966,1.81573 -17.24939,8.6247 -17.24939,8.6247 l 4.53931,6.35503 10.89435,6.35504 13.16401,5.44717 16.34152,3.17752 h 19.97297 l 26.78194,-2.72359 17.24939,-1.81572 14.97973,0.45393 23.15049,-1.81572 c 0,0 9.98649,-0.90787 12.71007,-0.45393 2.72359,0.45393 23.1505,-0.45394 25.42015,-0.45394 2.26966,0 19.06511,-3.17751 22.24263,-3.63145 3.17752,-0.45393 28.59767,-8.17076 28.59767,-8.17076 l 11.80221,-6.80897 0.90786,-12.71007 -7.2629,-14.07187 c 0,0 -4.53931,-14.97973 -4.99324,-17.70331 -0.45393,-2.72359 -5.44718,-17.70332 -5.44718,-17.70332 l -7.2629,-8.17076 c 0,0 -9.07862,-1.3618 -9.98648,-3.17752 -0.90787,-1.81573 -19.97298,-39.03808 -19.97298,-39.03808 l -15.88759,-38.58416 -9.07862,-14.97973 -10.89435,-13.164 -12.25614,-14.07187 -9.53256,-12.25614 -6.35504,-15.43366 8.6247,-6.80897 4.53931,-7.2629 v -3.17752 l -14.5258,-1.36179 -9.07862,-1.36179 -7.71683,-6.35504 -11.34828,-7.2629 -6.35504,-7.2629 c 0,0 -0.45393,-7.71683 0.45393,-9.53256 0.90786,-1.81572 2.72359,-5.9011 2.72359,-5.9011 l -10.44042,-4.08538 -3.63145,-9.53256 3.63145,-5.44717 0.90786,-8.62469 -5.44717,-7.2629 -10.89435,-4.08538 -8.17076,-5.90111 -1.3618,-5.90111 -6.35503,-2.72358 -4.53932,-7.2629 -2.26965,-6.35504 -1.81573,-4.08538 -5.9011,3.17752 -5.44718,5.9011 c 0,0 -0.90786,3.17752 -1.36179,4.99325 -0.45393,1.81572 -3.63145,14.07186 -4.53931,16.34152 -0.90786,2.26966 -1.13483,7.71683 -1.13483,7.71683 z"
             id="path1736" />
          <path
             style="fill:#f9f5f5;fill-opacity:1;stroke:#030303;stroke-width:0.4;filter:url(#filter138737)"
             d="m 226.74893,266.00369 c -1.3618,-2.26966 -8.17077,-15.8876 -8.17077,-15.8876 l -0.45393,-11.34828 5.44718,-9.07862 11.80221,-5.90111 9.07862,-1.36179 10.89435,-0.90786 5.44718,1.81572 3.17751,-2.72358 0.90787,-4.08539 3.17752,-1.36179 h 2.72358 l 3.17752,-7.2629 -0.45393,-3.63145 7.71683,-20.4269 5.90111,-10.44042 6.80896,-7.71683 4.53932,-3.17752 c 0,0 2.26965,-4.08538 2.26965,0 0,4.08538 -5.44717,11.34828 -5.44717,11.34828 l -4.99325,11.34828 -0.90786,4.53931 4.53931,-1.36179 h 5.90111 v -4.53931 l 2.26966,-4.53931 2.72358,-1.81573 2.72359,5.44718 2.72359,4.99324 v 3.63145 l 5.9011,-8.62469 0.45393,-3.17752 0.90787,-4.99325 5.9011,-1.81572 4.08538,2.26965 1.81573,5.44718 -0.45393,4.08538 -3.17752,4.53931 3.63145,4.08538 c 0,0 2.72359,-2.72358 4.08538,0 1.36179,2.72359 1.81572,4.08538 1.81572,4.08538 0,0 5.90111,0.45394 8.17077,0.45394 2.26965,0 8.17076,0.45393 8.17076,0.45393 l -4.08538,4.99324 -6.35504,5.90111 -4.99324,3.63144 5.9011,4.08539 5.90111,-2.72359 14.5258,-2.26966 5.44717,-8.17076 2.72359,-4.99324 11.34828,3.63145 39.94594,29.50553 c 0,0 -26.78194,40.8538 -28.59766,41.76167 -1.81573,0.90786 0.90786,4.53931 0.90786,4.53931 l 18.61118,-20.88084 8.17076,-0.90786 7.2629,4.53931 3.17752,4.53931 8.17076,4.08539 -1.36179,4.99324 20.88083,-6.35504 h 6.35504 l -16.34152,12.25614 2.26965,4.53932 5.44718,4.99324 15.43366,-0.45393 10.89435,-0.90786 -49.93244,43.12346 -14.97973,12.71007 -2.26965,9.98649 2.26965,11.80221 -2.72358,19.06511 6.35503,8.6247 2.26966,8.17076 -0.45393,8.17076 -2.72359,11.34828 -4.53931,12.71007 -4.53931,7.2629 -13.16401,6.35504 -17.24938,2.26965 -11.34828,0.90787 -7.71683,3.63145 -16.79546,-20.42691 -7.2629,-8.62469 -11.80221,-15.88759 -3.63145,-9.07863 -4.53931,-9.07862 8.17076,-11.34828 4.53931,-6.35504 -13.61793,-2.26965 -9.98649,-0.90787 -9.53256,-6.35503 c 0,0 -6.35503,-4.53932 -8.17076,-6.80897 -1.81572,-2.26966 -6.35503,-5.44718 -6.35503,-5.44718 l -2.72359,-8.62469 0.90786,-6.35504 0.45393,-2.72358 -9.53255,-4.53931 -2.26966,-8.6247 2.26966,-5.44717 1.81572,-7.71683 -2.72358,-4.99325 -9.53256,-5.9011 -12.71007,-7.2629 -2.26966,-5.90111 -7.2629,-4.08538 -5.44717,-14.5258 -2.26966,-2.26965 z"
             id="path1738" />
          <path
             style="fill:#f9f5f5;fill-opacity:1;stroke:#030303;stroke-width:0.4"
             d="m 201.99939,266.00369 c -1.3618,-2.26966 -8.17077,-15.8876 -8.17077,-15.8876 l -0.45393,-11.34828 5.44718,-9.07862 11.80221,-5.90111 9.07862,-1.36179 10.89435,-0.90786 5.44718,1.81572 3.17751,-2.72358 0.90787,-4.08539 3.17752,-1.36179 h 2.72358 l 3.17752,-7.2629 -0.45393,-3.63145 7.71683,-20.4269 5.90111,-10.44042 6.80896,-7.71683 4.53932,-3.17752 c 0,0 2.26965,-4.08538 2.26965,0 0,4.08538 -5.44717,11.34828 -5.44717,11.34828 l -4.99325,11.34828 -0.90786,4.53931 4.53931,-1.36179 h 5.90111 v -4.53931 l 2.26966,-4.53931 2.72358,-1.81573 2.72359,5.44718 2.72359,4.99324 v 3.63145 l 5.9011,-8.62469 0.45393,-3.17752 0.90787,-4.99325 5.9011,-1.81572 4.08538,2.26965 1.81573,5.44718 -0.45393,4.08538 -3.17752,4.53931 3.63145,4.08538 c 0,0 2.72359,-2.72358 4.08538,0 1.36179,2.72359 1.81572,4.08538 1.81572,4.08538 0,0 5.90111,0.45394 8.17077,0.45394 2.26965,0 8.17076,0.45393 8.17076,0.45393 l -4.08538,4.99324 -6.35504,5.90111 -4.99324,3.63144 5.9011,4.08539 5.90111,-2.72359 14.5258,-2.26966 5.44717,-8.17076 2.72359,-4.99324 11.34828,3.63145 39.94594,29.50553 c 0,0 -26.78194,40.8538 -28.59766,41.76167 -1.81573,0.90786 0.90786,4.53931 0.90786,4.53931 l 18.61118,-20.88084 8.17076,-0.90786 7.2629,4.53931 3.17752,4.53931 8.17076,4.08539 -1.36179,4.99324 20.88083,-6.35504 h 6.35504 l -16.34152,12.25614 2.26965,4.53932 5.44718,4.99324 15.43366,-0.45393 10.89435,-0.90786 -49.93244,43.12346 -14.97973,12.71007 -2.26965,9.98649 2.26965,11.80221 -2.72358,19.06511 6.35503,8.6247 2.26966,8.17076 -0.45393,8.17076 -2.72359,11.34828 -4.53931,12.71007 -4.53931,7.2629 -13.16401,6.35504 -17.24938,2.26965 -11.34828,0.90787 -7.71683,3.63145 -16.79546,-20.42691 -7.2629,-8.62469 -11.80221,-15.88759 -3.63145,-9.07863 -4.53931,-9.07862 8.17076,-11.34828 4.53931,-6.35504 -13.61793,-2.26965 -9.98649,-0.90787 -9.53256,-6.35503 c 0,0 -6.35503,-4.53932 -8.17076,-6.80897 -1.81572,-2.26966 -6.35503,-5.44718 -6.35503,-5.44718 l -2.72359,-8.62469 0.90786,-6.35504 0.45393,-2.72358 -9.53255,-4.53931 -2.26966,-8.6247 2.26966,-5.44717 1.81572,-7.71683 -2.72358,-4.99325 -9.53256,-5.9011 -12.71007,-7.2629 -2.26966,-5.90111 -7.2629,-4.08538 -5.44717,-14.5258 -2.26966,-2.26965 z"
             id="path1740" />
          <path
             style="fill:#f9f5f5;fill-opacity:1;stroke:#030303;stroke-width:0.4"
             d="m 94.190725,618.02733 17.476355,-27.46283 0.45393,28.59766 z"
             id="path1742" />
          <path
             style="fill:#f9f5f5;fill-opacity:1;stroke:#030303;stroke-width:0.4"
             d="m 129.37039,586.93305 -0.22696,17.93028 -2.04269,0.22697 0.22696,3.40448 h 12.48311 l 4.76628,-2.26966 3.17752,-2.49662 1.58876,-3.17752 0.45393,-3.40448 0.45393,-2.04269 v -2.72359 l -0.6809,-4.08538 -1.36179,-2.04269 -2.26966,-1.81572 -1.58876,-0.6809 -2.49662,-1.13483 -4.53931,0.6809 -5.67414,-0.22697 h -3.17752 -1.58876 v 2.72359 z"
             id="path1744" />
          <path
             style="fill:#f9f5f5;fill-opacity:1;stroke:#030303;stroke-width:0.4"
             d="m 133.90971,586.47912 0.68089,18.38421 h 1.81573 l 2.49662,-1.36179 2.72359,-1.81573 1.81572,-2.49662 v -2.95055 l -0.90786,-4.31235 -0.22697,-2.49662 -2.72358,-2.72359 -2.49663,-0.22696 z"
             id="path1746" />
        </g>
        <g
           id="g1780"
           transform="matrix(0.00763425,0,0,0.00763425,45.820737,9.868209)">
          <path
             style="fill:#ffb3b3;stroke:#030303;stroke-width:0.4"
             d="m 208.63559,263.20182 -5.7776,5.7776 -1.28391,1.92587 -3.20978,3.85173 v 5.13565 l -1.92587,7.06151 -1.28391,3.85174 -1.28391,5.7776 -2.56782,4.49369"
             id="path1750" />
          <path
             style="fill:#ffb3b3;stroke:#030303;stroke-width:0.4"
             d="M 189.37692,310.70654 Z"
             id="path1752" />
          <path
             style="fill:#ffb3b3;stroke:#030303;stroke-width:0.4"
             d="M 184.24128,318.41001 Z"
             id="path1754" />
          <path
             style="fill:#ffb3b3;stroke:#030303;stroke-width:0.4"
             d="M 186.16714,326.75543 Z"
             id="path1756" />
          <rect
             style="fill:#90abf4;fill-opacity:1;stroke:#030303;stroke-width:1.901;stroke-dasharray:none"
             id="rect1758"
             width="429.41891"
             height="513.8501"
             x="63.550369"
             y="147.07372" />
          <path
             style="fill:#130a0a;fill-opacity:1;stroke:#030303;stroke-width:0.4;filter:url(#filter138741)"
             d="m 216.9415,301.86425 -2.72359,10.44042 0.90787,15.88759 -31.54822,32.91001 -0.90787,4.53932 1.13483,4.31234 4.76628,1.58876 11.57525,2.95055 -2.95056,17.70332 1.13483,2.95055 1.36179,2.95056 0.90787,2.26965 c 0,0 0,2.26966 -0.45393,3.17752 -0.45394,0.90786 -2.04269,3.17752 -2.04269,3.17752 l -1.81573,3.40448 1.81573,2.95056 0.90786,2.49662 1.58876,0.68089 0.90786,1.13483 0.90786,2.72359 v 1.58876 l -0.90786,2.95055 v 2.04269 l 0.45393,3.17752 2.26966,3.85842 2.95055,2.26965 3.40448,1.81573 6.12807,1.81572 10.44042,2.49662 c 0,0 27.46284,4.08538 28.3707,4.08538 0.90787,0 17.02242,79.8919 17.02242,79.8919 l -2.72358,5.44717 -31.32126,43.12346 -5.9011,-1.81572 -3.17752,2.72359 -3.63145,7.2629 -6.80897,11.34828 c 0,0 -10.89435,11.80221 -13.164,13.61793 -2.26966,1.81573 -17.24939,8.6247 -17.24939,8.6247 l 4.53931,6.35503 10.89435,6.35504 13.16401,5.44717 16.34152,3.17752 h 19.97297 l 26.78194,-2.72359 17.24939,-1.81572 14.97973,0.45393 23.15049,-1.81572 c 0,0 9.98649,-0.90787 12.71007,-0.45393 2.72359,0.45393 23.1505,-0.45394 25.42015,-0.45394 2.26966,0 19.06511,-3.17751 22.24263,-3.63145 3.17752,-0.45393 28.59767,-8.17076 28.59767,-8.17076 l 11.80221,-6.80897 0.90786,-12.71007 -7.2629,-14.07187 c 0,0 -4.53931,-14.97973 -4.99324,-17.70331 -0.45393,-2.72359 -5.44718,-17.70332 -5.44718,-17.70332 l -7.2629,-8.17076 c 0,0 -9.07862,-1.3618 -9.98648,-3.17752 -0.90787,-1.81573 -19.97298,-39.03808 -19.97298,-39.03808 l -15.88759,-38.58416 -9.07862,-14.97973 -10.89435,-13.164 -12.25614,-14.07187 -9.53256,-12.25614 -6.35504,-15.43366 8.6247,-6.80897 4.53931,-7.2629 v -3.17752 l -14.5258,-1.36179 -9.07862,-1.36179 -7.71683,-6.35504 -11.34828,-7.2629 -6.35504,-7.2629 c 0,0 -0.45393,-7.71683 0.45393,-9.53256 0.90786,-1.81572 2.72359,-5.9011 2.72359,-5.9011 l -10.44042,-4.08538 -3.63145,-9.53256 3.63145,-5.44717 0.90786,-8.62469 -5.44717,-7.2629 -10.89435,-4.08538 -8.17076,-5.90111 -1.3618,-5.90111 -6.35503,-2.72358 -4.53932,-7.2629 -2.26965,-6.35504 -1.81573,-4.08538 -5.9011,3.17752 -5.44718,5.9011 c 0,0 -0.90786,3.17752 -1.36179,4.99325 -0.45393,1.81572 -3.63145,14.07186 -4.53931,16.34152 -0.90786,2.26966 -1.13483,7.71683 -1.13483,7.71683 z"
             id="path1760" />
          <path
             style="fill:#ffffff;fill-opacity:0.445596;stroke:#030303;stroke-width:0.4"
             d="m 117.56818,575.13084 -33.590907,49.70546 29.051597,0.6809 -0.45393,12.25614 -4.76628,4.31235 h -2.49662 l -0.22697,2.95055 20.88084,-0.22696 -0.45393,-3.40449 h -4.31235 l -1.81572,-2.72359 -0.22697,-12.93703 4.99324,0.22696 6.12808,-7.71683 -4.76628,1.13483 -5.67414,0.22696 1.13483,-44.03132 z"
             id="path1762" />
          <path
             style="fill:#ffc5c5;fill-opacity:1;stroke:#030303;stroke-width:0.4"
             d="m 192.19196,301.86425 -2.72359,10.44042 0.90787,15.88759 -31.54822,32.91001 -0.90787,4.53932 1.13483,4.31234 4.76628,1.58876 11.57525,2.95055 -2.95056,17.70332 1.13483,2.95055 1.36179,2.95056 0.90787,2.26965 c 0,0 0,2.26966 -0.45393,3.17752 -0.45394,0.90786 -2.04269,3.17752 -2.04269,3.17752 l -1.81573,3.40448 1.81573,2.95056 0.90786,2.49662 1.58876,0.68089 0.90786,1.13483 0.90786,2.72359 v 1.58876 l -0.90786,2.95055 v 2.04269 l 0.45393,3.17752 2.26966,3.85842 2.95055,2.26965 3.40448,1.81573 6.12807,1.81572 10.44042,2.49662 c 0,0 27.46284,4.08538 28.3707,4.08538 0.90787,0 17.02242,79.8919 17.02242,79.8919 l -2.72358,5.44717 -31.32126,43.12346 -5.9011,-1.81572 -3.17752,2.72359 -3.63145,7.2629 -6.80897,11.34828 c 0,0 -10.89435,11.80221 -13.164,13.61793 -2.26966,1.81573 -17.24939,8.6247 -17.24939,8.6247 l 4.53931,6.35503 10.89435,6.35504 13.16401,5.44717 16.34152,3.17752 h 19.97297 l 26.78194,-2.72359 17.24939,-1.81572 14.97973,0.45393 23.15049,-1.81572 c 0,0 9.98649,-0.90787 12.71007,-0.45393 2.72359,0.45393 23.1505,-0.45394 25.42015,-0.45394 2.26966,0 19.06511,-3.17751 22.24263,-3.63145 3.17752,-0.45393 28.59767,-8.17076 28.59767,-8.17076 l 11.80221,-6.80897 0.90786,-12.71007 -7.2629,-14.07187 c 0,0 -4.53931,-14.97973 -4.99324,-17.70331 -0.45393,-2.72359 -5.44718,-17.70332 -5.44718,-17.70332 l -7.2629,-8.17076 c 0,0 -9.07862,-1.3618 -9.98648,-3.17752 -0.90787,-1.81573 -19.97298,-39.03808 -19.97298,-39.03808 l -15.88759,-38.58416 -9.07862,-14.97973 -10.89435,-13.164 -12.25614,-14.07187 -9.53256,-12.25614 -6.35504,-15.43366 8.6247,-6.80897 4.53931,-7.2629 v -3.17752 l -14.5258,-1.36179 -9.07862,-1.36179 -7.71683,-6.35504 -11.34828,-7.2629 -6.35504,-7.2629 c 0,0 -0.45393,-7.71683 0.45393,-9.53256 0.90786,-1.81572 2.72359,-5.9011 2.72359,-5.9011 l -10.44042,-4.08538 -3.63145,-9.53256 3.63145,-5.44717 0.90786,-8.62469 -5.44717,-7.2629 -10.89435,-4.08538 -8.17076,-5.90111 -1.3618,-5.90111 -6.35503,-2.72358 -4.53932,-7.2629 -2.26965,-6.35504 -1.81573,-4.08538 -5.9011,3.17752 -5.44718,5.9011 c 0,0 -0.90786,3.17752 -1.36179,4.99325 -0.45393,1.81572 -3.63145,14.07186 -4.53931,16.34152 -0.90786,2.26966 -1.13483,7.71683 -1.13483,7.71683 z"
             id="path1764" />
          <path
             style="fill:#130a0a;fill-opacity:1;stroke:#030303;stroke-width:0.4;filter:url(#filter138737)"
             d="m 226.74893,266.00369 c -1.3618,-2.26966 -8.17077,-15.8876 -8.17077,-15.8876 l -0.45393,-11.34828 5.44718,-9.07862 11.80221,-5.90111 9.07862,-1.36179 10.89435,-0.90786 5.44718,1.81572 3.17751,-2.72358 0.90787,-4.08539 3.17752,-1.36179 h 2.72358 l 3.17752,-7.2629 -0.45393,-3.63145 7.71683,-20.4269 5.90111,-10.44042 6.80896,-7.71683 4.53932,-3.17752 c 0,0 2.26965,-4.08538 2.26965,0 0,4.08538 -5.44717,11.34828 -5.44717,11.34828 l -4.99325,11.34828 -0.90786,4.53931 4.53931,-1.36179 h 5.90111 v -4.53931 l 2.26966,-4.53931 2.72358,-1.81573 2.72359,5.44718 2.72359,4.99324 v 3.63145 l 5.9011,-8.62469 0.45393,-3.17752 0.90787,-4.99325 5.9011,-1.81572 4.08538,2.26965 1.81573,5.44718 -0.45393,4.08538 -3.17752,4.53931 3.63145,4.08538 c 0,0 2.72359,-2.72358 4.08538,0 1.36179,2.72359 1.81572,4.08538 1.81572,4.08538 0,0 5.90111,0.45394 8.17077,0.45394 2.26965,0 8.17076,0.45393 8.17076,0.45393 l -4.08538,4.99324 -6.35504,5.90111 -4.99324,3.63144 5.9011,4.08539 5.90111,-2.72359 14.5258,-2.26966 5.44717,-8.17076 2.72359,-4.99324 11.34828,3.63145 39.94594,29.50553 c 0,0 -26.78194,40.8538 -28.59766,41.76167 -1.81573,0.90786 0.90786,4.53931 0.90786,4.53931 l 18.61118,-20.88084 8.17076,-0.90786 7.2629,4.53931 3.17752,4.53931 8.17076,4.08539 -1.36179,4.99324 20.88083,-6.35504 h 6.35504 l -16.34152,12.25614 2.26965,4.53932 5.44718,4.99324 15.43366,-0.45393 10.89435,-0.90786 -49.93244,43.12346 -14.97973,12.71007 -2.26965,9.98649 2.26965,11.80221 -2.72358,19.06511 6.35503,8.6247 2.26966,8.17076 -0.45393,8.17076 -2.72359,11.34828 -4.53931,12.71007 -4.53931,7.2629 -13.16401,6.35504 -17.24938,2.26965 -11.34828,0.90787 -7.71683,3.63145 -16.79546,-20.42691 -7.2629,-8.62469 -11.80221,-15.88759 -3.63145,-9.07863 -4.53931,-9.07862 8.17076,-11.34828 4.53931,-6.35504 -13.61793,-2.26965 -9.98649,-0.90787 -9.53256,-6.35503 c 0,0 -6.35503,-4.53932 -8.17076,-6.80897 -1.81572,-2.26966 -6.35503,-5.44718 -6.35503,-5.44718 l -2.72359,-8.62469 0.90786,-6.35504 0.45393,-2.72358 -9.53255,-4.53931 -2.26966,-8.6247 2.26966,-5.44717 1.81572,-7.71683 -2.72358,-4.99325 -9.53256,-5.9011 -12.71007,-7.2629 -2.26966,-5.90111 -7.2629,-4.08538 -5.44717,-14.5258 -2.26966,-2.26965 z"
             id="path1766" />
          <path
             style="fill:#d4defd;fill-opacity:1;stroke:#030303;stroke-width:0.4"
             d="m 201.99939,266.00369 c -1.3618,-2.26966 -8.17077,-15.8876 -8.17077,-15.8876 l -0.45393,-11.34828 5.44718,-9.07862 11.80221,-5.90111 9.07862,-1.36179 10.89435,-0.90786 5.44718,1.81572 3.17751,-2.72358 0.90787,-4.08539 3.17752,-1.36179 h 2.72358 l 3.17752,-7.2629 -0.45393,-3.63145 7.71683,-20.4269 5.90111,-10.44042 6.80896,-7.71683 4.53932,-3.17752 c 0,0 2.26965,-4.08538 2.26965,0 0,4.08538 -5.44717,11.34828 -5.44717,11.34828 l -4.99325,11.34828 -0.90786,4.53931 4.53931,-1.36179 h 5.90111 v -4.53931 l 2.26966,-4.53931 2.72358,-1.81573 2.72359,5.44718 2.72359,4.99324 v 3.63145 l 5.9011,-8.62469 0.45393,-3.17752 0.90787,-4.99325 5.9011,-1.81572 4.08538,2.26965 1.81573,5.44718 -0.45393,4.08538 -3.17752,4.53931 3.63145,4.08538 c 0,0 2.72359,-2.72358 4.08538,0 1.36179,2.72359 1.81572,4.08538 1.81572,4.08538 0,0 5.90111,0.45394 8.17077,0.45394 2.26965,0 8.17076,0.45393 8.17076,0.45393 l -4.08538,4.99324 -6.35504,5.90111 -4.99324,3.63144 5.9011,4.08539 5.90111,-2.72359 14.5258,-2.26966 5.44717,-8.17076 2.72359,-4.99324 11.34828,3.63145 39.94594,29.50553 c 0,0 -26.78194,40.8538 -28.59766,41.76167 -1.81573,0.90786 0.90786,4.53931 0.90786,4.53931 l 18.61118,-20.88084 8.17076,-0.90786 7.2629,4.53931 3.17752,4.53931 8.17076,4.08539 -1.36179,4.99324 20.88083,-6.35504 h 6.35504 l -16.34152,12.25614 2.26965,4.53932 5.44718,4.99324 15.43366,-0.45393 10.89435,-0.90786 -49.93244,43.12346 -14.97973,12.71007 -2.26965,9.98649 2.26965,11.80221 -2.72358,19.06511 6.35503,8.6247 2.26966,8.17076 -0.45393,8.17076 -2.72359,11.34828 -4.53931,12.71007 -4.53931,7.2629 -13.16401,6.35504 -17.24938,2.26965 -11.34828,0.90787 -7.71683,3.63145 -16.79546,-20.42691 -7.2629,-8.62469 -11.80221,-15.88759 -3.63145,-9.07863 -4.53931,-9.07862 8.17076,-11.34828 4.53931,-6.35504 -13.61793,-2.26965 -9.98649,-0.90787 -9.53256,-6.35503 c 0,0 -6.35503,-4.53932 -8.17076,-6.80897 -1.81572,-2.26966 -6.35503,-5.44718 -6.35503,-5.44718 l -2.72359,-8.62469 0.90786,-6.35504 0.45393,-2.72358 -9.53255,-4.53931 -2.26966,-8.6247 2.26966,-5.44717 1.81572,-7.71683 -2.72358,-4.99325 -9.53256,-5.9011 -12.71007,-7.2629 -2.26966,-5.90111 -7.2629,-4.08538 -5.44717,-14.5258 -2.26966,-2.26965 z"
             id="path1768" />
          <path
             style="fill:#ed3137;fill-opacity:1;stroke:#030303;stroke-width:0.4"
             d="m 94.190725,618.02733 17.476355,-27.46283 0.45393,28.59766 z"
             id="path1770" />
          <path
             style="fill:#c2c2c2;fill-opacity:0.595855;stroke:#030303;stroke-width:0.4"
             d="m 129.37039,586.93305 -0.22696,17.93028 -2.04269,0.22697 0.22696,3.40448 h 12.48311 l 4.76628,-2.26966 3.17752,-2.49662 1.58876,-3.17752 0.45393,-3.40448 0.45393,-2.04269 v -2.72359 l -0.6809,-4.08538 -1.36179,-2.04269 -2.26966,-1.81572 -1.58876,-0.6809 -2.49662,-1.13483 -4.53931,0.6809 -5.67414,-0.22697 h -3.17752 -1.58876 v 2.72359 z"
             id="path1772" />
          <path
             style="fill:#ed3137;fill-opacity:1;stroke:#030303;stroke-width:0.4"
             d="m 133.90971,586.47912 0.68089,18.38421 h 1.81573 l 2.49662,-1.36179 2.72359,-1.81573 1.81572,-2.49662 v -2.95055 l -0.90786,-4.31235 -0.22697,-2.49662 -2.72358,-2.72359 -2.49663,-0.22696 z"
             id="path1774" />
          <path
             style="fill:#610000;fill-opacity:1;stroke:#030303;stroke-width:0.4;filter:url(#filter140363)"
             d="m 186.88849,301.86425 -2.72359,10.44042 0.90787,15.88759 -31.54822,32.91001 -0.90787,4.53932 1.13483,4.31234 4.76628,1.58876 11.57525,2.95055 -2.95056,17.70332 1.13483,2.95055 1.36179,2.95056 0.90787,2.26965 c 0,0 0,2.26966 -0.45393,3.17752 -0.45394,0.90786 -2.04269,3.17752 -2.04269,3.17752 l -1.81573,3.40448 1.81573,2.95056 0.90786,2.49662 1.58876,0.68089 0.90786,1.13483 0.90786,2.72359 v 1.58876 l -0.90786,2.95055 v 2.04269 l 0.45393,3.17752 2.26966,3.85842 2.95055,2.26965 3.40448,1.81573 6.12807,1.81572 10.44042,2.49662 c 0,0 27.46284,4.08538 28.3707,4.08538 0.90787,0 17.02242,79.8919 17.02242,79.8919 l -2.72358,5.44717 -31.32126,43.12346 -5.9011,-1.81572 -3.17752,2.72359 -3.63145,7.2629 -6.80897,11.34828 c 0,0 -10.89435,11.80221 -13.164,13.61793 -2.26966,1.81573 -17.24939,8.6247 -17.24939,8.6247 l 4.53931,6.35503 10.89435,6.35504 13.16401,5.44717 16.34152,3.17752 h 19.97297 l 26.78194,-2.72359 17.24939,-1.81572 14.97973,0.45393 23.15049,-1.81572 c 0,0 9.98649,-0.90787 12.71007,-0.45393 2.72359,0.45393 23.1505,-0.45394 25.42015,-0.45394 2.26966,0 19.06511,-3.17751 22.24263,-3.63145 3.17752,-0.45393 28.59767,-8.17076 28.59767,-8.17076 l 11.80221,-6.80897 0.90786,-12.71007 -7.2629,-14.07187 c 0,0 -4.53931,-14.97973 -4.99324,-17.70331 -0.45393,-2.72359 -5.44718,-17.70332 -5.44718,-17.70332 l -7.2629,-8.17076 c 0,0 -9.07862,-1.3618 -9.98648,-3.17752 -0.90787,-1.81573 -19.97298,-39.03808 -19.97298,-39.03808 l -15.88759,-38.58416 -9.07862,-14.97973 -10.89435,-13.164 -12.25614,-14.07187 -9.53256,-12.25614 -6.35504,-15.43366 8.6247,-6.80897 4.53931,-7.2629 v -3.17752 l -14.5258,-1.36179 -9.07862,-1.36179 -7.71683,-6.35504 -11.34828,-7.2629 -6.35504,-7.2629 c 0,0 -0.45393,-7.71683 0.45393,-9.53256 0.90786,-1.81572 2.72359,-5.9011 2.72359,-5.9011 l -10.44042,-4.08538 -3.63145,-9.53256 3.63145,-5.44717 0.90786,-8.62469 -5.44717,-7.2629 -10.89435,-4.08538 -8.17076,-5.90111 -1.3618,-5.90111 -6.35503,-2.72358 -4.53932,-7.2629 -2.26965,-6.35504 -1.81573,-4.08538 -5.9011,3.17752 -5.44718,5.9011 c 0,0 -0.90786,3.17752 -1.36179,4.99325 -0.45393,1.81572 -3.63145,14.07186 -4.53931,16.34152 -0.90786,2.26966 -1.13483,7.71683 -1.13483,7.71683 z"
             id="path1776"
             transform="matrix(1.0393218,0,0,0.999977,-16.311369,0.01036712)" />
          <path
             style="fill:#ffebeb;fill-opacity:1;stroke:#030303;stroke-width:0.4"
             d="m 192.19196,301.86425 -2.72359,10.44042 0.90787,15.88759 -31.54822,32.91001 -0.90787,4.53932 1.13483,4.31234 4.76628,1.58876 11.57525,2.95055 -2.95056,17.70332 1.13483,2.95055 1.36179,2.95056 0.90787,2.26965 c 0,0 0,2.26966 -0.45393,3.17752 -0.45394,0.90786 -2.04269,3.17752 -2.04269,3.17752 l -1.81573,3.40448 1.81573,2.95056 0.90786,2.49662 1.58876,0.68089 0.90786,1.13483 0.90786,2.72359 v 1.58876 l -0.90786,2.95055 v 2.04269 l 0.45393,3.17752 2.26966,3.85842 2.95055,2.26965 3.40448,1.81573 6.12807,1.81572 10.44042,2.49662 c 0,0 27.46284,4.08538 28.3707,4.08538 0.90787,0 17.02242,79.8919 17.02242,79.8919 l -2.72358,5.44717 -31.32126,43.12346 -5.9011,-1.81572 -3.17752,2.72359 -3.63145,7.2629 -6.80897,11.34828 c 0,0 -10.89435,11.80221 -13.164,13.61793 -2.26966,1.81573 -17.24939,8.6247 -17.24939,8.6247 l 4.53931,6.35503 10.89435,6.35504 13.16401,5.44717 16.34152,3.17752 h 19.97297 l 26.78194,-2.72359 17.24939,-1.81572 14.97973,0.45393 23.15049,-1.81572 c 0,0 9.98649,-0.90787 12.71007,-0.45393 2.72359,0.45393 23.1505,-0.45394 25.42015,-0.45394 2.26966,0 19.06511,-3.17751 22.24263,-3.63145 3.17752,-0.45393 28.59767,-8.17076 28.59767,-8.17076 l 11.80221,-6.80897 0.90786,-12.71007 -7.2629,-14.07187 c 0,0 -4.53931,-14.97973 -4.99324,-17.70331 -0.45393,-2.72359 -5.44718,-17.70332 -5.44718,-17.70332 l -7.2629,-8.17076 c 0,0 -9.07862,-1.3618 -9.98648,-3.17752 -0.90787,-1.81573 -19.97298,-39.03808 -19.97298,-39.03808 l -15.88759,-38.58416 -9.07862,-14.97973 -10.89435,-13.164 -12.25614,-14.07187 -9.53256,-12.25614 -6.35504,-15.43366 8.6247,-6.80897 4.53931,-7.2629 v -3.17752 l -14.5258,-1.36179 -9.07862,-1.36179 -7.71683,-6.35504 -11.34828,-7.2629 -6.35504,-7.2629 c 0,0 -0.45393,-7.71683 0.45393,-9.53256 0.90786,-1.81572 2.72359,-5.9011 2.72359,-5.9011 l -10.44042,-4.08538 -3.63145,-9.53256 3.63145,-5.44717 0.90786,-8.62469 -5.44717,-7.2629 -10.89435,-4.08538 -8.17076,-5.90111 -1.3618,-5.90111 -6.35503,-2.72358 -4.53932,-7.2629 -2.26965,-6.35504 -1.81573,-4.08538 -5.9011,3.17752 -5.44718,5.9011 c 0,0 -0.90786,3.17752 -1.36179,4.99325 -0.45393,1.81572 -3.63145,14.07186 -4.53931,16.34152 -0.90786,2.26966 -1.13483,7.71683 -1.13483,7.71683 z"
             id="path1778" />
        </g>
      </g>
    </g>
  </g>
</svg>
