<svg width="641" height="551" viewBox="0 0 641 551" fill="none" xmlns="http://www.w3.org/2000/svg">
<g filter="url(#filter0_d_262_1423)">
<path d="M103.578 124.584L220.923 347.538L584.51 310.188L605.182 147.569L103.578 124.584Z" fill="#D5D5D5" fill-opacity="0.6"/>
<path d="M517.985 528.562C497.965 528.562 481.735 513.223 481.735 494.302C481.735 475.381 497.965 460.043 517.985 460.043C538.005 460.043 554.234 475.381 554.234 494.302C554.234 513.223 538.005 528.562 517.985 528.562Z" fill="black" fill-opacity="0.393782"/>
<path d="M517.986 516.127C505.232 516.127 494.894 506.356 494.894 494.302C494.894 482.249 505.232 472.478 517.986 472.478C530.739 472.478 541.078 482.249 541.078 494.302C541.078 506.356 530.739 516.127 517.986 516.127Z" fill="white"/>
<path d="M269.653 340.916C184.209 429.046 183.45 429.727 183.45 429.727L186.108 432.789L189.146 434.491L193.703 435.512L563.105 435.707L565.32 436.489L566.595 437.632L567.401 438.654L568.072 439.917L568.878 441.602L568.945 443.166L568.609 444.85L568.408 446.053L568.005 447.015L567.401 447.797L566.126 448.94L564.38 449.903C564.38 449.903 563.239 450.264 562.97 450.384C562.702 450.504 561.628 450.324 561.628 450.324H544.174L535.178 472.7L535.447 500.851L535.044 502.054L534.641 502.776L533.433 503.498L532.359 504.34L530.613 505.062L528.062 505.784L526.586 506.145L524.169 506.506L522.155 506.746L519.873 506.626H516.919L513.965 506.506L510.474 506.386L508.326 506.145L506.312 505.784L503.627 504.942L502.15 504.1L500.942 503.017L500.002 501.934L499.33 500.13V498.325L499.733 472.219L490.872 450.203L261.299 450.143L253.893 468.178L252.754 499.483L252.375 501.354L251.805 502.375L250.666 503.396L249.526 504.417L247.628 505.097L245.919 505.778L244.21 506.288L242.121 506.628L237.944 506.798H235.286L225.792 506.628L222.754 505.948L221.425 505.608L219.906 504.927L217.248 502.375L216.868 501.354L216.298 499.483L215.729 497.611L215.539 468.518L207.754 450.483H170.348L167.69 449.803L166.361 449.122L164.652 448.612L162.943 447.761L161.045 447.081L159.905 445.72L158.576 444.358L158.007 442.827L157.627 441.126V438.914V436.702L158.197 434.491L160.285 431.768L161.994 429.216L163.323 427.345L164.462 426.154L246.678 342.489L270.128 340.065L269.653 340.916Z" fill="black" stroke="#030303" stroke-width="0.157294"/>
<path d="M543.898 447.101H491.135L498.922 468.926L499.324 500.013L499.593 501.408L499.996 502.297L501.339 503.946L502.681 504.834L504.158 505.723L506.306 506.23L507.649 506.484L509.663 506.738H512.079L514.496 506.992H515.704H516.644H518.524H519.732L520.806 507.118L522.283 506.992L524.162 506.738L526.176 506.23L527.787 505.976L530.07 505.342L531.009 505.215L532.084 504.707L533.56 503.565L534.366 502.677L535.171 502.043L535.977 500.393L534.903 470.067L543.898 447.101Z" fill="#FF3535" stroke="#030303" stroke-width="0.879854"/>
<path d="M517.813 502.665C512.989 502.665 509.079 498.969 509.079 494.411C509.079 489.852 512.989 486.156 517.813 486.156C522.637 486.156 526.547 489.852 526.547 494.411C526.547 498.969 522.637 502.665 517.813 502.665Z" fill="white"/>
<path d="M517.623 499.345C514.687 499.345 512.307 497.096 512.307 494.321C512.307 491.546 514.687 489.296 517.623 489.296C520.559 489.296 522.939 491.546 522.939 494.321C522.939 497.096 520.559 499.345 517.623 499.345Z" fill="#100000"/>
<path d="M517.624 497.103C515.946 497.103 514.586 495.817 514.586 494.231C514.586 492.646 515.946 491.36 517.624 491.36C519.302 491.36 520.662 492.646 520.662 494.231C520.662 495.817 519.302 497.103 517.624 497.103Z" fill="white"/>
<path d="M517.813 502.665C512.989 502.665 509.079 498.969 509.079 494.411C509.079 489.852 512.989 486.156 517.813 486.156C522.637 486.156 526.547 489.852 526.547 494.411C526.547 498.969 522.637 502.665 517.813 502.665Z" fill="white"/>
<path d="M517.623 499.345C514.687 499.345 512.307 497.096 512.307 494.321C512.307 491.546 514.687 489.296 517.623 489.296C520.559 489.296 522.939 491.546 522.939 494.321C522.939 497.096 520.559 499.345 517.623 499.345Z" fill="#100000"/>
<path d="M517.624 497.103C515.946 497.103 514.586 495.817 514.586 494.231C514.586 492.646 515.946 491.36 517.624 491.36C519.302 491.36 520.662 492.646 520.662 494.231C520.662 495.817 519.302 497.103 517.624 497.103Z" fill="white"/>
<path d="M517.813 502.665C512.989 502.665 509.079 498.969 509.079 494.411C509.079 489.852 512.989 486.156 517.813 486.156C522.637 486.156 526.547 489.852 526.547 494.411C526.547 498.969 522.637 502.665 517.813 502.665Z" fill="white"/>
<path d="M517.623 499.345C514.687 499.345 512.307 497.096 512.307 494.321C512.307 491.546 514.687 489.296 517.623 489.296C520.559 489.296 522.939 491.546 522.939 494.321C522.939 497.096 520.559 499.345 517.623 499.345Z" fill="#100000"/>
<path d="M517.624 497.103C515.946 497.103 514.586 495.817 514.586 494.231C514.586 492.646 515.946 491.36 517.624 491.36C519.302 491.36 520.662 492.646 520.662 494.231C520.662 495.817 519.302 497.103 517.624 497.103Z" fill="white"/>
<path d="M517.813 502.665C512.989 502.665 509.079 498.969 509.079 494.411C509.079 489.852 512.989 486.156 517.813 486.156C522.637 486.156 526.547 489.852 526.547 494.411C526.547 498.969 522.637 502.665 517.813 502.665Z" fill="white" stroke="#030303" stroke-width="0.405966"/>
<path d="M517.623 499.345C514.687 499.345 512.307 497.096 512.307 494.321C512.307 491.546 514.687 489.296 517.623 489.296C520.559 489.296 522.939 491.546 522.939 494.321C522.939 497.096 520.559 499.345 517.623 499.345Z" fill="#100000"/>
<path d="M517.624 497.103C515.946 497.103 514.586 495.817 514.586 494.231C514.586 492.646 515.946 491.36 517.624 491.36C519.302 491.36 520.662 492.646 520.662 494.231C520.662 495.817 519.302 497.103 517.624 497.103Z" fill="white"/>
<path d="M517.985 531C496.541 531 479.156 514.57 479.156 494.303C479.156 474.035 496.541 457.605 517.985 457.605C539.43 457.605 556.814 474.035 556.814 494.303C556.814 514.57 539.43 531 517.985 531Z" fill="black"/>
<path d="M517.986 516.127C505.232 516.127 494.894 506.356 494.894 494.302C494.894 482.249 505.232 472.478 517.986 472.478C530.739 472.478 541.078 482.249 541.078 494.302C541.078 506.356 530.739 516.127 517.986 516.127Z" fill="white"/>
<path fill-rule="evenodd" clip-rule="evenodd" d="M524.184 461.866C531.689 463.672 538.356 467.867 543.121 473.783C547.886 479.699 550.474 486.995 550.474 494.506C550.468 500.88 548.598 507.122 545.081 512.502C541.565 517.883 536.546 522.182 530.61 524.898C537.093 522.459 542.655 518.242 546.579 512.789C550.503 507.336 552.609 500.897 552.626 494.302C552.625 486.611 549.783 479.162 544.59 473.24C539.397 467.318 532.18 463.295 524.184 461.866V461.866Z" fill="#C8C8C8"/>
<path d="M543.898 447.101H491.135L498.922 468.926L499.324 500.013L499.593 501.408L499.996 502.297L501.339 503.946L502.681 504.834L504.158 505.723L506.306 506.23L507.649 506.484L509.663 506.738H512.079L514.496 506.992H515.704H516.644H518.524H519.732L520.806 507.118L522.283 506.992L524.162 506.738L526.176 506.23L527.787 505.976L530.07 505.342L531.009 505.215L532.084 504.707L533.56 503.565L534.366 502.677L535.171 502.043L535.977 500.393L534.903 470.067L543.898 447.101Z" fill="#FF3535" stroke="#030303" stroke-width="0.879854"/>
<path d="M517.813 502.665C512.989 502.665 509.079 498.969 509.079 494.411C509.079 489.852 512.989 486.156 517.813 486.156C522.637 486.156 526.547 489.852 526.547 494.411C526.547 498.969 522.637 502.665 517.813 502.665Z" fill="white"/>
<path d="M517.623 499.345C514.687 499.345 512.307 497.096 512.307 494.321C512.307 491.546 514.687 489.296 517.623 489.296C520.559 489.296 522.939 491.546 522.939 494.321C522.939 497.096 520.559 499.345 517.623 499.345Z" fill="#100000"/>
<path d="M517.624 497.103C515.946 497.103 514.586 495.817 514.586 494.231C514.586 492.646 515.946 491.36 517.624 491.36C519.302 491.36 520.662 492.646 520.662 494.231C520.662 495.817 519.302 497.103 517.624 497.103Z" fill="white"/>
<path d="M517.813 502.665C512.989 502.665 509.079 498.969 509.079 494.411C509.079 489.852 512.989 486.156 517.813 486.156C522.637 486.156 526.547 489.852 526.547 494.411C526.547 498.969 522.637 502.665 517.813 502.665Z" fill="white"/>
<path d="M517.623 499.345C514.687 499.345 512.307 497.096 512.307 494.321C512.307 491.546 514.687 489.296 517.623 489.296C520.559 489.296 522.939 491.546 522.939 494.321C522.939 497.096 520.559 499.345 517.623 499.345Z" fill="#100000"/>
<path d="M517.624 497.103C515.946 497.103 514.586 495.817 514.586 494.231C514.586 492.646 515.946 491.36 517.624 491.36C519.302 491.36 520.662 492.646 520.662 494.231C520.662 495.817 519.302 497.103 517.624 497.103Z" fill="white"/>
<path d="M517.813 502.665C512.989 502.665 509.079 498.969 509.079 494.411C509.079 489.852 512.989 486.156 517.813 486.156C522.637 486.156 526.547 489.852 526.547 494.411C526.547 498.969 522.637 502.665 517.813 502.665Z" fill="white"/>
<path d="M517.623 499.345C514.687 499.345 512.307 497.096 512.307 494.321C512.307 491.546 514.687 489.296 517.623 489.296C520.559 489.296 522.939 491.546 522.939 494.321C522.939 497.096 520.559 499.345 517.623 499.345Z" fill="#100000"/>
<path d="M517.624 497.103C515.946 497.103 514.586 495.817 514.586 494.231C514.586 492.646 515.946 491.36 517.624 491.36C519.302 491.36 520.662 492.646 520.662 494.231C520.662 495.817 519.302 497.103 517.624 497.103Z" fill="white"/>
<path d="M517.813 502.665C512.989 502.665 509.079 498.969 509.079 494.411C509.079 489.852 512.989 486.156 517.813 486.156C522.637 486.156 526.547 489.852 526.547 494.411C526.547 498.969 522.637 502.665 517.813 502.665Z" fill="white" stroke="#030303" stroke-width="0.405966"/>
<path d="M517.623 499.345C514.687 499.345 512.307 497.096 512.307 494.321C512.307 491.546 514.687 489.296 517.623 489.296C520.559 489.296 522.939 491.546 522.939 494.321C522.939 497.096 520.559 499.345 517.623 499.345Z" fill="#100000"/>
<path d="M517.624 497.103C515.946 497.103 514.586 495.817 514.586 494.231C514.586 492.646 515.946 491.36 517.624 491.36C519.302 491.36 520.662 492.646 520.662 494.231C520.662 495.817 519.302 497.103 517.624 497.103Z" fill="white"/>
<path d="M234.974 530.77C213.664 530.77 196.388 514.443 196.388 494.303C196.388 474.162 213.664 457.835 234.974 457.835C256.285 457.835 273.561 474.162 273.561 494.303C273.561 514.443 256.285 530.77 234.974 530.77Z" fill="black"/>
<path fill-rule="evenodd" clip-rule="evenodd" d="M241.462 461.866C248.968 463.672 255.634 467.867 260.399 473.783C265.164 479.699 267.753 486.995 267.752 494.506C267.747 500.88 265.877 507.122 262.36 512.502C258.843 517.883 253.825 522.182 247.889 524.898C254.372 522.459 259.934 518.242 263.858 512.789C267.782 507.336 269.888 500.897 269.904 494.302C269.904 486.611 267.062 479.162 261.869 473.24C256.676 467.318 249.459 463.295 241.462 461.866Z" fill="#C8C8C8"/>
<path d="M234.972 516.127C222.219 516.127 211.88 506.356 211.88 494.302C211.88 482.249 222.219 472.478 234.972 472.478C247.726 472.478 258.064 482.249 258.064 494.302C258.064 506.356 247.726 516.127 234.972 516.127Z" fill="white"/>
<path d="M260.882 447.101H208.119L215.906 468.926L216.309 500.013L216.578 501.408L216.98 502.297L218.323 503.946L219.665 504.834L221.142 505.723L223.29 506.23L224.633 506.484L226.647 506.738H229.064L231.48 506.992H232.688H233.628H235.508H236.716L237.79 507.118L239.267 506.992L241.147 506.738L243.161 506.23L244.772 505.976L247.054 505.342L247.994 505.215L249.068 504.707L250.545 503.565L251.35 502.677L252.156 502.043L252.961 500.393L251.887 470.067L260.882 447.101Z" fill="#FF3535" stroke="#030303" stroke-width="0.879854"/>
<path d="M234.799 502.665C229.976 502.665 226.065 498.969 226.065 494.411C226.065 489.852 229.976 486.156 234.799 486.156C239.623 486.156 243.533 489.852 243.533 494.411C243.533 498.969 239.623 502.665 234.799 502.665Z" fill="white"/>
<path d="M234.611 499.345C231.675 499.345 229.295 497.096 229.295 494.321C229.295 491.546 231.675 489.296 234.611 489.296C237.548 489.296 239.928 491.546 239.928 494.321C239.928 497.096 237.548 499.345 234.611 499.345Z" fill="#100000"/>
<path d="M234.611 497.103C232.933 497.103 231.573 495.817 231.573 494.231C231.573 492.646 232.933 491.36 234.611 491.36C236.288 491.36 237.648 492.646 237.648 494.231C237.648 495.817 236.288 497.103 234.611 497.103Z" fill="white"/>
<path d="M234.799 502.665C229.976 502.665 226.065 498.969 226.065 494.411C226.065 489.852 229.976 486.156 234.799 486.156C239.623 486.156 243.533 489.852 243.533 494.411C243.533 498.969 239.623 502.665 234.799 502.665Z" fill="white"/>
<path d="M234.611 499.345C231.675 499.345 229.295 497.096 229.295 494.321C229.295 491.546 231.675 489.296 234.611 489.296C237.548 489.296 239.928 491.546 239.928 494.321C239.928 497.096 237.548 499.345 234.611 499.345Z" fill="#100000"/>
<path d="M234.611 497.103C232.933 497.103 231.573 495.817 231.573 494.231C231.573 492.646 232.933 491.36 234.611 491.36C236.288 491.36 237.648 492.646 237.648 494.231C237.648 495.817 236.288 497.103 234.611 497.103Z" fill="white"/>
<path d="M234.799 502.665C229.976 502.665 226.065 498.969 226.065 494.411C226.065 489.852 229.976 486.156 234.799 486.156C239.623 486.156 243.533 489.852 243.533 494.411C243.533 498.969 239.623 502.665 234.799 502.665Z" fill="white"/>
<path d="M234.611 499.345C231.675 499.345 229.295 497.096 229.295 494.321C229.295 491.546 231.675 489.296 234.611 489.296C237.548 489.296 239.928 491.546 239.928 494.321C239.928 497.096 237.548 499.345 234.611 499.345Z" fill="#100000"/>
<path d="M234.611 497.103C232.933 497.103 231.573 495.817 231.573 494.231C231.573 492.646 232.933 491.36 234.611 491.36C236.288 491.36 237.648 492.646 237.648 494.231C237.648 495.817 236.288 497.103 234.611 497.103Z" fill="white"/>
<path d="M234.799 502.665C229.976 502.665 226.065 498.969 226.065 494.411C226.065 489.852 229.976 486.156 234.799 486.156C239.623 486.156 243.533 489.852 243.533 494.411C243.533 498.969 239.623 502.665 234.799 502.665Z" fill="white" stroke="#030303" stroke-width="0.405966"/>
<path d="M234.611 499.345C231.675 499.345 229.295 497.096 229.295 494.321C229.295 491.546 231.675 489.296 234.611 489.296C237.548 489.296 239.928 491.546 239.928 494.321C239.928 497.096 237.548 499.345 234.611 499.345Z" fill="#100000"/>
<path d="M234.611 497.103C232.933 497.103 231.573 495.817 231.573 494.231C231.573 492.646 232.933 491.36 234.611 491.36C236.288 491.36 237.648 492.646 237.648 494.231C237.648 495.817 236.288 497.103 234.611 497.103Z" fill="white"/>
<path d="M89.4818 110.853L617.012 131.129L616.342 147.469L88.8118 127.193L89.4818 110.853Z" fill="#FF3535"/>
<path d="M545.376 142.066H558.533V311.587H545.376V142.066Z" fill="#FF3535"/>
<path d="M504.026 141.051H517.184V314.124H504.026V141.051Z" fill="#FF3535"/>
<path d="M463.476 139.528H476.633V321.737H463.476V139.528Z" fill="#FF3535"/>
<path d="M422.665 138.005H435.285V325.036H422.665V138.005Z" fill="#FF3535"/>
<path d="M381.852 136.483H394.74V330.112H381.852V136.483Z" fill="#FF3535"/>
<path d="M341.033 134.706H352.848V333.797H341.033V134.706Z" fill="#FF3535"/>
<path d="M300.032 132.434H312.184V341.308H300.032V132.434Z" fill="#FF3535"/>
<path d="M149.047 199.419H594.514V214.138H149.047V199.419Z" fill="#FF3535"/>
<path d="M180.796 264.864H589.773V278.861H180.796V264.864Z" fill="#FF3535"/>
<path d="M214.621 347.621L591.016 305.673L592.026 317.41L215.632 359.357L214.621 347.621Z" fill="#FF3535"/>
<path d="M598.529 140.034L614.744 141.851L592.79 316.84L576.575 315.023L598.529 140.034Z" fill="#FF3535"/>
<path d="M242.903 128.556L257.646 127.233L279.32 343.032L264.577 344.354L242.903 128.556Z" fill="#FF3535"/>
<path d="M159.36 128.095L173.072 123.742L247.797 344.929L234.085 349.282L159.36 128.095Z" fill="#FF3535"/>
<path d="M93.9351 123.529L109.469 116.54L231.963 349.136L216.429 356.125L93.9351 123.529Z" fill="#FF3535"/>
<path d="M96.1147 111.081L95.545 106.415L94.4058 102.647L93.2666 99.5963L91.3679 94.0335L88.5198 88.1119L84.9124 79.4985L80.7353 73.0385L78.0771 69.0908L74.2797 64.4252L71.6216 61.5541L65.166 55.453L74.8493 41.0974L77.8872 43.0713L79.2163 43.9685L80.5454 44.6863L81.4947 45.763L83.5833 47.1985L84.5326 48.2752L85.6718 49.3519L86.8111 50.2491L88.5198 52.0435L89.2793 52.9408L89.849 54.1969L91.1781 55.2735L92.697 56.5297L93.8362 57.9652L95.1652 60.298L96.4944 62.4513L99.912 67.6552L102.57 72.5002L104.659 77.1657L109.026 87.0352L109.785 89.5474L110.545 91.3419L111.114 94.5719L112.633 98.1608L114.532 104.262L114.912 106.595L115.101 107.671L115.481 108.748L115.861 109.825L116.051 111.081L116.43 111.799L96.1147 111.081Z" fill="url(#paint0_linear_262_1423)"/>
<path d="M80.2833 43.1399L79.0302 41.6375L79.2391 39.2766L79.448 35.4134L78.8215 32.4086L78.4039 29.1893L77.7773 27.2577L75.6889 24.8968L73.3915 22.7505L69.6323 20.175L65.4553 17.1703L60.4428 14.1655L38.9315 0.214824L36.0076 0L33.5014 0.429153L30.5776 0.643976L29.1156 1.07313L26.8183 2.36088L24.9387 3.64864L22.6413 5.36564L21.1794 7.29727L18.4644 9.87278L16.5847 11.8044L15.3316 13.0922L13.8697 15.8823L13.0342 18.0286L11.9901 20.6041L11.1546 22.7503L10.5281 25.1112C10.5281 25.1112 10.5281 26.399 10.5281 27.4721C10.5281 28.5452 11.7811 32.8377 11.7811 32.8377L12.1988 34.5547L13.6607 37.5594C13.6607 37.5594 -18.2931 16.0969 15.5404 39.2764C49.3738 62.456 50.418 62.456 50.418 62.456L53.5508 62.8852L55.8482 63.1L58.9809 62.8852L60.6517 62.0267L64.8286 60.7389L67.7525 59.8804L69.2145 59.6656L80.2833 43.1399Z" fill="black"/>
<path d="M545.376 142.066H558.533V311.587H545.376V142.066Z" fill="#FF3535" stroke="#030303" stroke-width="0.624564"/>
<path d="M504.026 141.051H517.184V314.124H504.026V141.051Z" fill="#FF3535" stroke="#030303" stroke-width="0.624564"/>
<path d="M463.476 139.528H476.633V321.737H463.476V139.528Z" fill="#FF3535" stroke="#030303" stroke-width="0.624564"/>
<path d="M422.665 138.005H435.285V325.036H422.665V138.005Z" fill="#FF3535" stroke="#030303" stroke-width="0.624564"/>
<path d="M381.852 136.483H394.74V330.112H381.852V136.483Z" fill="#FF3535" stroke="#030303" stroke-width="0.624564"/>
<path d="M341.033 134.706H352.848V333.797H341.033V134.706Z" fill="#FF3535" stroke="#030303" stroke-width="0.624564"/>
<path d="M300.032 132.434H312.184V341.308H300.032V132.434Z" fill="#FF3535" stroke="#030303" stroke-width="0.624564"/>
<path d="M242.903 128.556L257.646 127.233L279.32 343.032L264.577 344.354L242.903 128.556Z" fill="#FF3535" stroke="#030303" stroke-width="0.624564"/>
<path d="M159.36 128.095L173.072 123.742L247.797 344.929L234.085 349.282L159.36 128.095Z" fill="#FF3535" stroke="#030303" stroke-width="0.624598"/>
<path d="M149.235 192.701H594.326V213.96H149.235V192.701Z" fill="#FF3535" stroke="#030303" stroke-width="1.05"/>
<path d="M181.009 257.594H589.564V278.662H181.009V257.594Z" fill="#FF3535" stroke="#030303" stroke-width="1.166"/>
<path d="M93.9351 123.529L109.469 116.54L231.963 349.136L216.429 356.125L93.9351 123.529Z" fill="#FF3535" stroke="#030303" stroke-width="1.02508"/>
<path d="M598.529 140.034L614.744 141.851L592.79 316.84L576.575 315.023L598.529 140.034Z" fill="#FF3535" stroke="#030303" stroke-width="0.925"/>
<path d="M216.956 336.11L595.023 297.145L593.871 318.274L215.803 357.24L216.956 336.11Z" fill="#FF3535" stroke="#030303" stroke-width="1.14132"/>
<path d="M96.1147 111.081L95.545 106.415L94.4058 102.647L93.2666 99.5963L91.3679 94.0335L88.5198 88.1119L84.9124 79.4985L80.7353 73.0385L78.0771 69.0908L74.2797 64.4252L71.6216 61.5541L65.166 55.453L74.8493 41.0974L77.8872 43.0713L79.2163 43.9685L80.5454 44.6863L81.4947 45.763L83.5833 47.1985L84.5326 48.2752L85.6718 49.3519L86.8111 50.2491L88.5198 52.0435L89.2793 52.9408L89.849 54.1969L91.1781 55.2735L92.697 56.5297L93.8362 57.9652L95.1652 60.298L96.4944 62.4513L99.912 67.6552L102.57 72.5002L104.659 77.1657L109.026 87.0352L109.785 89.5474L110.545 91.3419L111.114 94.5719L112.633 98.1608L114.532 104.262L114.912 106.595L115.101 107.671L115.481 108.748L115.861 109.825L116.051 111.081L116.43 111.799L96.1147 111.081Z" fill="#FF3535" stroke="#030303" stroke-width="0.624564"/>
<path d="M89.47 104.467L619.764 131.979L619.396 160.175L89.1019 132.663L89.47 104.467Z" fill="#FF3535" stroke="#030303" stroke-width="1.22255"/>
<path d="M190.957 422.267L188.377 427.142V428.361V430.393" fill="#E4E4E4"/>
<path d="M189.664 423.485L188.374 426.33V427.955L189.234 430.393L561.119 430.799L564.558 435.269L564.988 437.707L184.075 439.332L175.477 432.831L176.336 427.549L189.664 423.485Z" fill="#E4E4E4" stroke="#020202" stroke-width="4"/>
<path d="M32.2175 4.33838L29.738 4.79559L26.8566 5.01727L25.4125 5.47449L24.9629 5.74466L26.189 5.59226L29.7516 6.00098L55.3846 23.9224L61.3654 27.8018L66.3312 31.6397L70.7998 34.9372L73.5109 37.6458L74.4918 38.8304L74.4781 38.7612L74.0626 35.339L73.4427 33.2884L71.3855 30.7807L69.1171 28.5015L65.4048 25.7651L61.2836 22.5716L56.3314 19.3849L35.0989 4.56699L32.2175 4.33838Z" fill="#F5F5F5"/>
<path d="M109.568 113.838L600.461 137.431L599.313 144.911L109.626 120.159L109.568 113.838Z" fill="url(#paint1_radial_262_1423)" stroke="#030303" stroke-width="0.6"/>
<path d="M73.9739 47.5862L72.6113 49.4294L73.2901 49.8458L74.4365 50.4096L75.256 51.2553L77.056 52.3872L77.8755 53.233L78.8559 54.0787L79.8364 54.7856L81.3096 56.1995L81.9682 56.9021L82.4559 57.8909L83.6023 58.741L84.9145 59.7298L85.895 60.8574L87.0413 62.692L88.1877 64.3877L91.134 68.4819L93.4267 72.2941L95.2267 75.9676L98.9926 83.7308L99.6462 85.7085L100.3 87.1223L100.793 89.6638L102.1 92.4872L103.739 97.2883L104.066 99.1228L104.227 99.9686L104.553 100.819L104.885 101.664L105.046 102.653L105.288 103.07L109.823 103.217L109.496 102.653L109.33 101.664L109.003 100.819L108.676 99.9685L108.51 99.1228L108.184 97.2883L106.549 92.4872L105.237 89.6638L104.75 87.1223L104.091 85.7085L103.437 83.7308L99.6714 75.9676L97.8714 72.2941L95.5787 68.4819L92.6323 64.3877L91.486 62.692L90.3447 60.8574L89.3592 59.7298L88.0519 58.741L86.9056 57.8909L86.4129 56.9021L85.7592 56.1995L84.286 54.7856L83.3056 54.0787L82.3202 53.233L81.5056 52.3872L79.7006 51.2553L78.8861 50.4096L77.7398 49.8458L76.5934 49.1388L73.9739 47.5862Z" fill="#FFE1E1" stroke="#030303" stroke-width="0.514421"/>
<path d="M224.92 339.784L577.458 303.621V308.497L225.35 343.44L224.92 339.784Z" fill="#FFFBFB" stroke="#030303" stroke-width="0.4"/>
<path d="M160.123 198.71L584.51 197.561L585.118 203.882H160.731L160.123 198.71Z" fill="#F0F0F0" stroke="#030303" stroke-width="0.4"/>
<path d="M191.387 262.583L577.459 262.177L576.599 265.427L192.247 265.833L191.387 262.583Z" fill="white" stroke="#030303" stroke-width="0.3"/>
<path d="M536.209 448.929L527.21 470.496L528.289 498.974L527.478 500.522L526.673 501.117L525.869 501.955L524.393 503.027L523.32 503.503L522.381 503.622L520.095 504.217L518.485 504.455L516.474 504.932L514.59 505.17H515.266L516.339 505.289L517.815 505.17L519.699 504.932L521.711 504.455L523.32 504.217L525.606 503.622L526.545 503.503L527.618 503.027L529.094 501.955L529.898 501.117L530.703 500.522L531.508 498.974L530.435 470.496L539.434 448.929H536.209Z" fill="#FFDEDE"/>
<path d="M253.185 448.929L244.187 470.496L245.265 498.974L244.455 500.522L243.65 501.117L242.845 501.955L241.37 503.027L240.297 503.503L239.358 503.622L237.072 504.217L235.462 504.455L233.45 504.932L231.566 505.17H232.243L233.316 505.289L234.791 505.17L236.675 504.932L238.687 504.455L240.297 504.217L242.583 503.622L243.522 503.503L244.595 503.027L246.07 501.955L246.875 501.117L247.68 500.522L248.485 498.974L247.412 470.496L256.41 448.929H253.185Z" fill="#FFDEDE"/>
<path d="M203.152 434.694H552.712L552.29 435.438H204.841L203.152 434.694Z" fill="#FBFBFB" stroke="#E4E4E4" stroke-width="1.48784"/>
</g>
<defs>
<filter id="filter0_d_262_1423" x="0" y="0" width="640.383" height="551" filterUnits="userSpaceOnUse" color-interpolation-filters="sRGB">
<feFlood flood-opacity="0" result="BackgroundImageFix"/>
<feColorMatrix in="SourceAlpha" type="matrix" values="0 0 0 0 0 0 0 0 0 0 0 0 0 0 0 0 0 0 127 0" result="hardAlpha"/>
<feOffset dx="10" dy="10"/>
<feGaussianBlur stdDeviation="5"/>
<feComposite in2="hardAlpha" operator="out"/>
<feColorMatrix type="matrix" values="0 0 0 0 0 0 0 0 0 0 0 0 0 0 0 0 0 0 0.94 0"/>
<feBlend mode="normal" in2="BackgroundImageFix" result="effect1_dropShadow_262_1423"/>
<feBlend mode="normal" in="SourceGraphic" in2="effect1_dropShadow_262_1423" result="shape"/>
</filter>
<linearGradient id="paint0_linear_262_1423" x1="116.431" y1="76.448" x2="65.1661" y2="76.448" gradientUnits="userSpaceOnUse">
<stop/>
<stop offset="1"/>
</linearGradient>
<radialGradient id="paint1_radial_262_1423" cx="0" cy="0" r="1" gradientUnits="userSpaceOnUse" gradientTransform="translate(355.015 129.374) scale(245.446 15.5361)">
<stop stop-color="white"/>
<stop offset="1" stop-color="#EFEFEF"/>
</radialGradient>
</defs>
</svg>
