<?xml version="1.0" encoding="UTF-8" standalone="no"?>
<!-- Created with Inkscape (http://www.inkscape.org/) -->

<svg
   version="1.1"
   id="svg39498"
   width="721.74622"
   height="603.88318"
   viewBox="0 0 721.74622 603.88318"
   sodipodi:docname="finances_icon.svg"
   inkscape:version="1.2.1 (9c6d41e410, 2022-07-14)"
   xmlns:inkscape="http://www.inkscape.org/namespaces/inkscape"
   xmlns:sodipodi="http://sodipodi.sourceforge.net/DTD/sodipodi-0.dtd"
   xmlns:xlink="http://www.w3.org/1999/xlink"
   xmlns="http://www.w3.org/2000/svg"
   xmlns:svg="http://www.w3.org/2000/svg">
  <defs
     id="defs39502">
    <linearGradient
       inkscape:collect="always"
       id="linearGradient72048">
      <stop
         style="stop-color:#770000;stop-opacity:1;"
         offset="0.73311895"
         id="stop72044" />
      <stop
         style="stop-color:#971313;stop-opacity:0.97484279;"
         offset="1"
         id="stop72046" />
    </linearGradient>
    <linearGradient
       inkscape:collect="always"
       id="linearGradient49387">
      <stop
         style="stop-color:#ff0b0b;stop-opacity:1;"
         offset="0.73311895"
         id="stop49383" />
      <stop
         style="stop-color:#971313;stop-opacity:0.97484279;"
         offset="1"
         id="stop49385" />
    </linearGradient>
    <filter
       inkscape:collect="always"
       style="color-interpolation-filters:sRGB"
       id="filter47248"
       x="-0.027750061"
       y="-0.15798063"
       width="1.0555001"
       height="1.3159613">
      <feGaussianBlur
         inkscape:collect="always"
         stdDeviation="1.7953308"
         id="feGaussianBlur47250" />
    </filter>
    <filter
       inkscape:collect="always"
       style="color-interpolation-filters:sRGB"
       id="filter47252"
       x="-0.027750061"
       y="-0.15798063"
       width="1.0555001"
       height="1.3159613">
      <feGaussianBlur
         inkscape:collect="always"
         stdDeviation="1.7953308"
         id="feGaussianBlur47254" />
    </filter>
    <filter
       inkscape:collect="always"
       style="color-interpolation-filters:sRGB"
       id="filter47256"
       x="-0.027750061"
       y="-0.15798063"
       width="1.0555001"
       height="1.3159613">
      <feGaussianBlur
         inkscape:collect="always"
         stdDeviation="1.7953308"
         id="feGaussianBlur47258" />
    </filter>
    <filter
       inkscape:collect="always"
       style="color-interpolation-filters:sRGB"
       id="filter47260"
       x="-0.027750061"
       y="-0.15798063"
       width="1.0555001"
       height="1.3159613">
      <feGaussianBlur
         inkscape:collect="always"
         stdDeviation="1.7953308"
         id="feGaussianBlur47262" />
    </filter>
    <filter
       inkscape:collect="always"
       style="color-interpolation-filters:sRGB"
       id="filter47264"
       x="-0.027750061"
       y="-0.15798063"
       width="1.0555001"
       height="1.3159613">
      <feGaussianBlur
         inkscape:collect="always"
         stdDeviation="1.7953308"
         id="feGaussianBlur47266" />
    </filter>
    <filter
       inkscape:collect="always"
       style="color-interpolation-filters:sRGB"
       id="filter47270"
       x="-0.044087056"
       y="-0.25098688"
       width="1.0881741"
       height="1.5019738">
      <feGaussianBlur
         inkscape:collect="always"
         stdDeviation="2.8522766"
         id="feGaussianBlur47272" />
    </filter>
    <filter
       inkscape:collect="always"
       style="color-interpolation-filters:sRGB"
       id="filter49373"
       x="-0.033211314"
       y="-0.026489574"
       width="1.0664226"
       height="1.0529791">
      <feGaussianBlur
         inkscape:collect="always"
         stdDeviation="6.1101384"
         id="feGaussianBlur49375" />
    </filter>
    <radialGradient
       inkscape:collect="always"
       xlink:href="#linearGradient49387"
       id="radialGradient49389"
       cx="486.33765"
       cy="401.0834"
       fx="486.33765"
       fy="401.0834"
       r="217.42368"
       gradientTransform="matrix(1,0,0,1.2730647,50.075325,-109.52171)"
       gradientUnits="userSpaceOnUse" />
    <radialGradient
       inkscape:collect="always"
       xlink:href="#linearGradient72048"
       id="radialGradient72040"
       gradientUnits="userSpaceOnUse"
       gradientTransform="matrix(0.91285484,0,0,1.1621233,92.457296,-65.024949)"
       cx="486.33765"
       cy="401.0834"
       fx="486.33765"
       fy="401.0834"
       r="217.42368" />
  </defs>
  <sodipodi:namedview
     id="namedview39500"
     pagecolor="#ffffff"
     bordercolor="#000000"
     borderopacity="0.25"
     inkscape:showpageshadow="2"
     inkscape:pageopacity="0.0"
     inkscape:pagecheckerboard="0"
     inkscape:deskcolor="#d1d1d1"
     showgrid="false"
     inkscape:zoom="0.73888686"
     inkscape:cx="57.518955"
     inkscape:cy="351.88066"
     inkscape:window-width="1920"
     inkscape:window-height="1017"
     inkscape:window-x="-8"
     inkscape:window-y="-8"
     inkscape:window-maximized="1"
     inkscape:current-layer="g39504" />
  <g
     inkscape:groupmode="layer"
     inkscape:label="Image"
     id="g39504"
     transform="translate(-167.42918,-99.141811)">
    <path
       style="fill:#6a5b5b;fill-opacity:1;stroke:none;stroke-width:1.006;stroke-dasharray:none;stroke-opacity:1"
       d="m 365.41454,665.1898 -52.10541,4.73685 -25.71436,3.38347 -6.09024,2.70677 -8.79701,4.06016 0.67669,2.70678 h 5.41355 l 16.91734,1.35339 c 0,0 35.86476,2.70677 38.57153,2.70677 2.70678,0 284.21131,4.06016 289.62486,4.06016 5.41355,0 75.11298,-0.67669 75.11298,-0.67669 0,0 28.42114,-0.6767 32.4813,-0.6767 4.06016,0 63.60919,-2.70677 63.60919,-2.70677 l 51.42872,-2.70677 28.42113,-5.41355 13.53387,-3.38347 0.67669,-2.03008 -6.09024,-2.70678 -8.12032,-2.70677 z"
       id="path48213" />
    <path
       style="opacity:0.981343;mix-blend-mode:normal;fill:#180000;fill-opacity:1;stroke:none;stroke-width:1.806;stroke-opacity:1;filter:url(#filter49373)"
       d="m 445.957,233.6414 -26.7957,16.26881 -10.52688,8.61291 -8.61291,7.65591 -8.6129,7.65592 -8.6129,7.65591 -10.52689,13.39785 -8.6129,11.48387 -9.56989,11.48387 -5.74194,9.56989 -6.69892,10.52688 -8.61291,16.26882 -9.56989,16.26882 -5.74193,13.39785 -6.69893,13.39785 -5.74193,16.26882 -7.65592,22.01075 -4.78494,15.31183 -1.91398,17.2258 -3.82796,17.22581 -1.91398,27.75269 -1.91398,21.05376 v 20.09677 l 1.91398,12.44086 1.91398,14.35484 2.87097,10.52689 7.65591,18.18279 12.44086,19.13979 11.48387,12.44086 8.61291,7.65591 11.48387,8.6129 10.52688,7.65592 5.72905,3.30767 3.84084,1.95577 4.5457,2.39247 5.38307,1.79436 4.18682,1.43548 3.58871,1.07661 c 0,0 4.30646,1.43549 4.90457,1.67474 0.59812,0.23924 3.58871,0.71774 3.58871,0.71774 l 7.41667,1.79435 4.78495,1.07661 5.86156,1.19624 7.05779,1.43549 7.89516,1.43548 5.50269,0.71774 4.0672,0.35887 4.5457,0.23925 4.5457,0.23925 5.50269,0.47849 8.6129,0.71774 3.11022,0.35887 15.05812,0.74986 15.56395,0.33835 16.74817,0.67669 14.04139,-0.50752 14.37974,-0.16917 10.65793,-0.84587 21.65419,-1.69173 7.95115,-0.84587 7.10528,-1.01504 27.06775,-2.87595 23.68427,-2.70677 34.51137,-6.09025 20.97751,-8.12032 11.50379,-5.41355 7.44363,-8.79701 6.76693,-11.5038 6.09024,-16.91733 2.70678,-10.8271 0.67669,-16.91734 0.6767,-20.30081 2.03008,-15.56395 v -16.91734 l 0.67669,-10.15041 V 527.821 509.55027 l -2.36843,-17.59403 -4.06016,-17.25569 -4.73685,-21.31585 -3.38347,-14.21056 -4.73686,-15.22561 -3.72181,-13.19552 -10.15041,-24.02263 -8.12032,-17.59403 -8.45867,-17.59403 -8.45867,-13.87222 -9.47371,-14.21057 -9.47371,-13.53387 -11.16544,-13.87222 -13.53387,-14.88726 -10.15041,-10.48875 -9.13536,-9.13536 -10.48875,-8.79702 -13.19553,-9.13536 -13.19552,-7.44363 -6.42859,-3.38347 -5.7519,-4.73685 -4.39851,-4.06016 -0.33834,-0.6767 -0.33835,-3.04512 1.01504,-4.06016 3.04512,-5.41355 9.30454,-11.84214 6.93611,-9.64288 5.24437,-8.2895 7.44363,-10.31957 5.24438,-7.61281 5.41355,-7.10528 3.89099,-4.39851 0.50752,-1.52256 0.67669,-2.5376 -0.50752,-2.19925 -0.84587,-2.5376 -0.84586,-2.53761 -1.52256,-1.18421 -3.38347,-0.50752 -4.22934,-0.16917 -4.22933,1.01504 -10.31958,1.35338 -8.2895,1.18422 -8.79701,1.35339 -7.95115,0.50752 -6.25942,0.67669 -12.35622,1.12431 -6.10081,0.23924 -5.98118,0.11963 -6.34006,0.11962 h -6.69892 l -6.93817,0.11962 c 0,0 -5.26344,-0.23924 -5.86156,-0.23924 -0.59812,0 -11.6035,-0.59812 -11.6035,-0.59812 l -6.22043,-0.23925 -6.22043,-0.23925 -6.93817,-0.83736 -7.41667,-0.83737 c 0,0 -7.77553,-0.95699 -8.37365,-0.95699 -0.59812,0 -8.73253,-1.19623 -8.73253,-1.19623 l -18.66129,-3.22984 -2.63172,1.19624 -3.11021,2.15322 -1.07662,2.15323 -0.11962,2.87096 -0.11962,3.11022 0.47849,2.5121 46.41398,62.56317 2.27285,4.0672 v 4.5457 l 0.11962,3.82796 -0.23925,1.91398 -9.80914,4.0672 z"
       id="path49371" />
    <path
       style="fill:#4c4141;fill-opacity:1;stroke:none;stroke-width:1.006;stroke-dasharray:none;stroke-opacity:1"
       d="m 304.51212,647.59577 -52.10541,4.73685 -25.71436,3.38347 -6.09024,2.70677 -8.79701,4.06016 0.67669,2.70678 h 5.41355 l 16.91734,1.35339 c 0,0 35.86476,2.70677 38.57153,2.70677 2.70678,0 284.21131,4.06016 289.62486,4.06016 5.41355,0 75.11298,-0.67669 75.11298,-0.67669 0,0 28.42114,-0.6767 32.4813,-0.6767 4.06016,0 63.60919,-2.70677 63.60919,-2.70677 l 51.42872,-2.70677 28.42113,-5.41355 13.53387,-3.38347 0.67669,-2.03008 -6.09024,-2.70678 -8.12032,-2.70677 z"
       id="path70524" />
    <path
       style="opacity:0.847015;fill:#000000;fill-opacity:1;stroke:none;stroke-width:1.35529;stroke-opacity:1"
       d="m 290.58592,285.98585 -18.50452,13.26659 -7.26963,7.02351 -5.94788,6.24309 -5.94789,6.2431 -5.94788,6.24309 -7.26963,10.92545 -5.94789,9.36466 -6.60875,9.36464 -3.96527,7.80387 -4.62612,8.58427 -5.94788,13.2666 -6.60876,13.2666 -3.96525,10.92542 -4.62614,10.92543 -3.96524,13.2666 -5.28702,17.94891 -3.30438,12.48621 -1.32175,14.04698 -2.6435,14.04698 -1.32175,22.63125 -1.32176,17.16852 v 16.38816 l 1.32176,10.14503 1.32175,11.70581 1.98263,8.58429 5.287,14.82736 8.59138,15.60775 7.93052,10.14504 5.94788,6.24311 7.93051,7.02349 7.26963,6.24312 3.95636,2.69726 2.65241,1.59486 3.13915,1.95097 3.71743,1.46323 2.89133,1.17057 2.47828,0.87793 c 0,0 2.97395,1.1706 3.38699,1.36568 0.41305,0.19509 2.47829,0.58531 2.47829,0.58531 l 5.12178,1.46321 3.30439,0.87794 4.04787,0.97548 4.87395,1.1706 5.45223,1.17056 3.80003,0.58531 2.80871,0.29264 3.13916,0.1951 3.13917,0.19508 3.80004,0.3902 5.94788,0.58529 2.14785,0.29264 10.39881,0.61149 10.74811,0.27591 11.56592,0.55182 9.69668,-0.41388 9.93034,-0.13794 7.36014,-0.68978 14.95389,-1.37953 5.4909,-0.68979 4.90675,-0.82773 18.69239,-2.34522 16.35584,-2.20725 23.8328,-4.96637 14.48661,-6.62181 7.94427,-4.41455 5.1404,-7.17361 4.67309,-9.38091 4.20578,-13.79543 1.86926,-8.82908 0.4673,-13.79544 0.46732,-16.55453 1.40193,-12.69181 v -13.79543 l 0.4673,-8.27726 v -4.41455 -14.89905 l -1.63559,-14.34726 -2.80386,-14.07136 -3.27116,-17.38224 -2.33655,-11.58818 -3.27117,-12.41589 -2.5702,-10.76043 -7.00964,-19.58954 -5.60773,-14.34725 -5.84136,-14.34725 -5.84138,-11.31225 -6.54233,-11.58818 -6.54234,-11.03635 -7.71061,-11.31224 -9.3462,-12.14 -7.00965,-8.55317 -6.30867,-7.44954 -7.24331,-7.17364 -9.11254,-7.44954 -9.11254,-6.06998 -4.43944,-2.7591 -3.97214,-3.86272 -3.03751,-3.31089 -0.23365,-0.55182 -0.23367,-2.48319 0.70098,-3.3109 2.10289,-4.41454 6.42552,-9.6568 4.78992,-7.86341 3.62164,-6.75976 5.14041,-8.41521 3.62166,-6.20795 3.73847,-5.79408 2.68704,-3.58681 0.35048,-1.2416 0.4673,-2.06932 -0.35047,-1.7934 -0.58415,-2.06932 -0.58413,-2.06932 -1.05144,-0.96568 -2.33655,-0.41386 -2.92069,-0.13795 -2.92069,0.82772 -7.12647,1.10365 -5.72455,0.96568 -6.07502,1.10364 -5.49089,0.41385 -4.32261,0.55181 -8.53294,0.91684 -4.21308,0.1951 -4.13048,0.0975 -4.37831,0.0975 h -4.62613 l -4.79135,0.0975 c 0,0 -3.63481,-0.19509 -4.04786,-0.19509 -0.41305,0 -8.01313,-0.48775 -8.01313,-0.48775 l -4.29569,-0.1951 -4.29568,-0.19509 -4.79135,-0.68284 -5.12179,-0.68283 c 0,0 -5.36961,-0.78041 -5.78266,-0.78041 -0.41305,0 -6.0305,-0.97547 -6.0305,-0.97547 l -12.88708,-2.63381 -1.81741,0.97548 -2.14784,1.75588 -0.74349,1.75588 -0.0826,2.34115 -0.0826,2.53626 0.33043,2.04853 32.05249,51.01785 1.56958,3.31664 v 3.70684 l 0.0826,3.12155 -0.16522,1.56078 -6.77397,3.31664 z"
       id="path69732" />
    <path
       style="opacity:0.869403;fill:#000000;fill-opacity:1;stroke:none;stroke-width:1.36719;stroke-opacity:1"
       d="m 674.52091,251.86888 -19.32585,12.92697 -7.59228,6.84371 -6.2119,6.08328 -6.21186,6.08329 -6.21187,6.08328 -7.59231,10.64575 -6.21188,9.12493 -6.90207,9.12492 -4.14126,7.60411 -4.83145,8.36451 -6.21188,12.92699 -6.9021,12.92698 -4.14124,10.64575 -4.83146,10.64575 -4.14125,12.92698 -5.52167,17.48945 -3.45105,12.16657 -1.38041,13.68739 -2.76083,13.68739 -1.38043,22.05191 -1.38041,16.72903 v 15.96862 l 1.38041,9.88534 1.38043,11.40616 2.07062,8.36453 5.52167,14.4478 8.97271,15.20821 8.28251,9.88534 6.21186,6.08328 8.28252,6.8437 7.59229,6.08329 4.13195,2.62823 2.77014,1.55402 3.27849,1.90103 3.88242,1.42577 3.01964,1.14062 2.5883,0.85546 c 0,0 3.10595,1.14062 3.53733,1.33072 0.43136,0.1901 2.58827,0.57031 2.58827,0.57031 l 5.34912,1.42576 3.45104,0.85546 4.22753,0.95052 5.09029,1.14062 5.69421,1.14061 3.9687,0.57031 2.93339,0.28515 3.27849,0.19011 3.27851,0.1901 3.96869,0.3802 6.21185,0.57031 2.2432,0.28515 10.86035,0.59583 11.22518,0.26885 12.07927,0.53769 10.12706,-0.40327 10.3711,-0.13442 7.6868,-0.67212 15.61764,-1.34422 5.73459,-0.67212 5.12453,-0.80654 19.52206,-2.28519 17.0818,-2.15076 24.89059,-4.83923 15.12959,-6.4523 8.29687,-4.30153 5.36857,-6.98998 4.8805,-9.14077 4.39247,-13.44228 1.9522,-8.60306 0.48805,-13.44229 0.48805,-16.13075 1.46417,-12.3669 V 497.9869 l 0.48804,-8.06538 v -4.30153 -14.51767 l -1.70819,-13.97998 -2.9283,-13.71113 -3.41634,-16.93729 -2.44027,-11.29152 -3.41637,-12.09806 -2.68427,-10.48498 -7.32078,-19.08806 -5.85661,-13.97997 -6.10063,-13.97998 -6.10064,-11.02268 -6.83272,-11.29152 -6.83271,-10.75383 -8.05285,-11.02268 -9.76102,-11.82922 -7.32076,-8.33421 -6.5887,-7.25884 -7.56478,-6.98999 -9.51702,-7.25883 -9.51697,-5.91461 -4.63651,-2.68846 -4.14843,-3.76384 -3.17234,-3.22614 -0.24401,-0.5377 -0.24404,-2.41961 0.73208,-3.22615 2.19624,-4.30153 6.7107,-9.40961 5.00252,-7.6621 3.78241,-6.58672 5.36855,-8.19979 3.78241,-6.04904 3.90441,-5.64576 2.80629,-3.49499 0.36604,-1.20981 0.48805,-2.01634 -0.36605,-1.7475 -0.61005,-2.01634 -0.61007,-2.01635 -1.09812,-0.94096 -2.44024,-0.40326 -3.05034,-0.13442 -3.05031,0.80653 -7.44279,1.07538 -5.97862,0.94097 -6.34467,1.07538 -5.7346,0.40327 -4.51447,0.53769 -8.91167,0.89336 -4.40007,0.1901 -4.31382,0.0951 -4.57264,0.095 h -4.83144 l -5.00403,0.0951 c 0,0 -3.79613,-0.1901 -4.22752,-0.1901 -0.43137,0 -8.36878,-0.47526 -8.36878,-0.47526 l -4.48635,-0.1901 -4.48635,-0.1901 -5.00402,-0.66536 -5.34911,-0.66536 c 0,0 -5.60795,-0.76041 -6.03932,-0.76041 -0.43139,0 -6.29817,-0.95051 -6.29817,-0.95051 l -13.45906,-2.56639 -1.89807,0.95052 -2.24316,1.71092 -0.77649,1.71092 -0.0863,2.28123 -0.0863,2.47134 0.3451,1.99608 33.47511,49.71184 1.63925,3.23175 v 3.61195 l 0.0863,3.04164 -0.17255,1.52082 -7.07463,3.23175 z"
       id="path69734" />
    <path
       style="opacity:0.981343;fill:url(#radialGradient49389);fill-opacity:1;stroke:none;stroke-width:1.79225;stroke-opacity:1"
       d="m 479.20926,220.10753 -26.38917,16.26881 -10.36717,8.61291 -8.48224,7.65591 -8.48223,7.65592 -8.48223,7.65591 -10.36718,13.39785 -8.48223,11.48387 -9.4247,11.48387 -5.65483,9.56989 -6.59728,10.52688 -8.48224,16.26882 -9.4247,16.26882 -5.65482,13.39785 -6.5973,13.39785 -5.65481,16.26882 -7.53977,22.01075 -4.71235,15.31183 -1.88494,17.2258 -3.76988,17.22581 -1.88494,27.75269 -1.88495,21.05376 v 20.09677 l 1.88495,12.44086 1.88494,14.35484 2.82741,10.52689 7.53976,18.18279 12.25211,19.13979 11.30965,12.44086 8.48223,7.65591 11.30965,8.6129 10.36717,7.65592 5.64213,3.30767 3.78257,1.95577 4.47673,2.39247 5.3014,1.79436 4.1233,1.43548 3.53427,1.07661 c 0,0 4.24112,1.43549 4.83016,1.67474 0.58904,0.23924 3.53426,0.71774 3.53426,0.71774 l 7.30415,1.79435 4.71235,1.07661 5.77264,1.19624 6.95071,1.43549 7.77538,1.43548 5.4192,0.71774 4.0055,0.35887 4.47673,0.23925 4.47674,0.23925 5.4192,0.47849 8.48223,0.71774 3.06304,0.35887 14.82966,0.74986 15.32782,0.33835 16.49408,0.67669 13.82836,-0.50752 14.16158,-0.16917 10.49623,-0.84587 21.32566,-1.69173 7.83052,-0.84587 6.99748,-1.01504 26.65709,-2.87595 23.32495,-2.70677 33.98778,-6.09025 20.65925,-8.12032 11.32926,-5.41355 7.3307,-8.79701 6.66426,-11.5038 5.99784,-16.91733 2.66572,-10.8271 0.66642,-16.91734 0.66644,-20.30081 1.99928,-15.56395 v -16.91734 l 0.66642,-10.15041 v -5.41354 -18.27073 l -2.3325,-17.59403 -3.99856,-17.25569 -4.66498,-21.31585 -3.33214,-14.21056 -4.665,-15.22561 -3.66534,-13.19552 -9.99641,-24.02263 -7.99713,-17.59403 -8.33033,-17.59403 -8.33034,-13.87222 -9.32998,-14.21057 -9.32998,-13.53387 -10.99605,-13.87222 -13.32854,-14.88726 -9.99641,-10.48875 -8.99676,-9.13536 -10.32962,-8.79702 -12.99534,-9.13536 -12.99532,-7.44363 -6.33106,-3.38347 -5.66463,-4.73685 -4.33178,-4.06016 -0.33321,-0.6767 -0.33322,-3.04512 0.99964,-4.06016 2.99893,-5.41355 9.16337,-11.84214 6.83088,-9.64288 5.16481,-8.2895 7.33069,-10.31957 5.16482,-7.61281 5.33142,-7.10528 3.83196,-4.39851 0.49982,-1.52256 0.66642,-2.5376 -0.49982,-2.19925 -0.83304,-2.5376 -0.83303,-2.53761 -1.49946,-1.18421 -3.33213,-0.50752 -4.16518,-0.16917 -4.16516,1.01504 -10.16302,1.35338 -8.16373,1.18422 -8.66355,1.35339 -7.83052,0.50752 -6.16445,0.67669 -12.16876,1.12431 -6.00825,0.23924 -5.89044,0.11963 -6.24387,0.11962 h -6.59729 l -6.83291,0.11962 c 0,0 -5.18358,-0.23924 -5.77263,-0.23924 -0.58904,0 -11.42746,-0.59812 -11.42746,-0.59812 l -6.12605,-0.23925 -6.12606,-0.23925 -6.83291,-0.83736 -7.30414,-0.83737 c 0,0 -7.65757,-0.95699 -8.24661,-0.95699 -0.58905,0 -8.60005,-1.19623 -8.60005,-1.19623 l -18.37817,-3.22984 -2.59179,1.19624 -3.06302,2.15322 -1.06029,2.15323 -0.1178,2.87096 -0.11781,3.11022 0.47123,2.5121 45.70981,62.56317 2.23837,4.0672 v 4.5457 l 0.1178,3.82796 -0.23562,1.91398 -9.66032,4.0672 z"
       id="path39679" />
    <path
       style="fill:#000000;fill-opacity:1;stroke:none;stroke-width:1.806"
       d="m 489.41864,201.48552 -3.38347,0.33834 -1.69173,0.16918 -2.03008,0.67669 -2.70678,1.86091 -2.03008,2.19925 -0.84586,2.5376 v 3.55264 l 0.16917,2.36843 1.01504,2.70678 1.18421,1.52256 1.69174,2.36842 2.70677,1.52256 74.94382,-0.33834 8.79701,38.23318 1.52256,2.36843 1.86091,1.35339 2.70678,1.18421 3.89098,0.6767 h 2.19926 l 1.86091,-0.6767 2.03008,-1.18421 2.36842,-2.5376 1.52256,-1.69174 1.18422,-2.36842 -7.27446,-36.71063 2.03008,-1.69173 2.36843,-1.18422 1.69173,-2.5376 1.01505,-2.70677 v -3.72182 l -0.6767,-3.04512 -1.35339,-1.86091 -1.18421,-1.8609 -2.5376,-1.52256 -2.87595,-0.50752 -1.69173,-0.16918 -2.19926,-5.41355 -3.04512,-2.19925 -2.19925,-0.67669 -2.87595,-0.6767 -2.87595,-0.16917 -2.70677,0.33835 -2.03008,1.18421 -1.86091,1.35339 -1.35339,1.8609 -0.67669,1.01504 -0.50752,2.36843 v 1.35339 z"
       id="path40044" />
    <path
       style="fill:#efec01;fill-opacity:1;stroke:none;stroke-width:1.806;stroke-opacity:1"
       d="m 711.54331,378.61006 -3.38347,1.69174 -4.06016,1.69173 -3.38347,2.36843 -2.70678,2.03008 -4.73685,3.38347 -3.72182,2.36842 -2.70677,3.38347 -4.73685,3.72182 -3.04513,3.38346 -3.38346,4.39851 -4.39851,5.0752 -2.36843,6.76694 -1.35339,4.73686 -1.69173,4.3985 -2.36843,6.42859 c 0,0 -1.35339,5.0752 -1.35339,6.76694 0,1.69173 -0.67669,6.09024 -0.67669,6.09024 l 0.33835,6.76694 0.43023,6.13081 0.35887,2.51209 0.4785,3.22984 0.71774,3.58871 1.19623,3.58871 1.19624,2.87097 1.07661,3.22984 1.91398,3.34946 c 0,0 2.75135,5.14382 3.22984,5.50269 0.4785,0.35887 2.75135,4.18682 2.75135,4.18682 l 2.51209,3.34947 3.34946,3.94758 2.5121,2.39247 4.42608,3.82796 4.13272,2.93558 3.89098,2.36843 3.2143,1.86091 3.38347,1.52256 2.5376,1.18421 3.21429,1.18422 3.89099,1.35338 2.70677,0.84587 4.56769,0.84587 4.90603,1.01504 5.0752,0.50752 5.24437,0.50752 h 9.30454 l 3.55264,-0.50752 5.58272,-0.84587 5.92107,-1.52256 5.92107,-2.70677 7.27446,-3.55264 5.24437,-3.38347 6.76694,-5.7519 4.90603,-5.24437 4.06016,-4.90603 5.58272,-7.10528 2.70677,-4.06017 2.19926,-3.89098 1.94549,-5.66731 1.09963,-3.72182 1.77632,-4.99061 0.50752,-3.38347 0.67669,-4.39851 0.16918,-2.36843 0.33834,-2.79136 0.0846,-3.21429 -0.25376,-2.45302 -0.42293,-5.6673 -0.33835,-3.72182 -1.01504,-3.8064 -1.35339,-2.79136 -1.43797,-5.41355 -1.52256,-3.55264 -1.60715,-3.55264 -2.36843,-4.4831 -2.03008,-3.04512 -1.8609,-3.8064 -1.43798,-1.35339 -2.19925,-2.62219 -2.87595,-2.70677 -2.79136,-2.96053 -2.87595,-2.96054 -3.12971,-2.45301 -4.48309,-3.89099 -2.96054,-1.69174 -2.62218,-1.2688 -3.12971,-1.35338 -3.04512,-1.52256 -4.73686,-2.11467 -3.55264,-1.01504 -3.63723,-0.93046 -3.46805,-0.84586 -3.89099,-0.0846 -4.14475,-0.0846 c 0,0 -3.21429,-0.25376 -3.72181,-0.25376 -0.50752,0 -4.14475,0 -4.14475,0 0,0 -4.31392,0.0846 -4.73686,0.16918 -0.42293,0.0846 -2.96053,0.25376 -3.38346,0.25376 -0.42294,0 -2.70678,0.16917 -2.70678,0.16917 l -2.70677,0.50752 -2.45302,0.25376 c 0,0 -2.11466,0.76128 -2.70677,0.84587 -0.59211,0.0846 -1.69174,0.33835 -1.69174,0.33835 z"
       id="path40131" />
    <path
       style="fill:#040300;fill-opacity:1;stroke:none;stroke-width:1.506;stroke-dasharray:none;stroke-opacity:1;filter:url(#filter47264)"
       d="m 675.15591,523.47312 0.95699,26.55645 154.31452,0.71774 V 525.3871 Z"
       id="path47238"
       transform="matrix(0.95618933,0,0,1,33.902687,0)" />
    <path
       style="opacity:0.63806;fill:#ef9f00;fill-opacity:1;stroke:none;stroke-width:1.806;stroke-opacity:1"
       d="m 749.60732,376.07246 11.09105,2.97184 1.78281,0.82062 1.19624,0.53831 1.07661,0.5383 1.37568,0.77756 1.85416,0.65793 1.55511,0.71774 1.13642,0.53831 2.45229,1.25604 1.61492,0.83737 1.49529,0.77755 1.37568,1.13643 1.97379,1.61492 1.73454,1.5551 1.79436,1.4953 2.81115,2.45229 1.85417,2.09341 1.67473,1.79435 1.67473,1.55511 1.97379,2.15323 1.85417,2.21304 1.49529,1.79435 1.31586,2.57191 1.28596,2.06351 0.71774,1.13642 0.95699,1.67473 0.74765,1.31586 0.5084,1.28596 0.86727,1.67473 0.59812,1.34576 0.77755,1.46539 0.77755,1.79436 0.41869,1.07661 2.75753,8.28091 1.09963,3.99672 0.38064,3.76411 0.25376,3.46805 0.3532,4.32523 -0.0299,2.12332 -0.14953,2.21303 -0.20934,2.33266 -0.20934,2.33267 -0.32897,2.36256 -0.82179,4.73822 -0.6344,2.45302 -1.3111,3.89098 -1.56485,4.39851 -2.91824,6.89382 -2.45302,4.01787 -1.94549,2.62218 -2.28384,2.70678 -2.07237,2.83365 -2.11467,2.45302 -2.36843,2.62218 -2.70677,2.83366 -5.24438,4.86373 -2.91824,2.32614 -2.36843,1.73403 -3.34117,2.11466 -2.62219,1.60715 -4.42184,2.16023 -4.42608,1.85416 -3.82795,1.43549 -4.60551,1.13642 -4.48589,0.71775 -3.46909,0.47849 -2.0336,0.0598 5.02419,-0.11962 8.49328,0.23925 h 3.58871 l 6.22043,-1.43549 4.90457,-1.43548 c 0,0 5.26344,-2.0336 5.74194,-2.27285 0.47849,-0.23925 4.78494,-2.39248 4.78494,-2.39248 l 5.14382,-3.22983 5.98118,-3.70834 5.38307,-4.90457 4.5457,-4.18683 3.22984,-3.82795 3.58871,-3.94758 3.22983,-5.26344 2.75135,-5.50269 2.75134,-7.41667 2.39248,-7.77554 0.71774,-4.18682 0.81766,-9.45022 -0.21954,-6.69898 -0.71775,-8.19422 -0.77755,-4.0672 -1.19624,-4.12702 -1.37567,-3.58871 -1.19623,-2.81115 -2.15323,-4.72514 -2.75134,-5.32325 -1.97379,-2.81116 -1.91398,-2.63172 -2.69153,-3.70833 -2.21304,-2.33266 -2.5121,-3.05041 c 0,0 -2.0336,-2.09341 -2.21304,-2.33266 -0.17943,-0.23924 -2.67101,-1.35691 -2.67101,-1.35691 l -3.13073,-3.06916 -2.33267,-1.79436 -2.69153,-1.67473 -3.5289,-2.45228 -4.00739,-1.73455 -4.0672,-1.97379 -4.96438,-1.91397 -6.75874,-1.79436 -4.42608,-0.65793 -3.28965,-0.23925 -2.69153,-0.0598 -1.49529,-0.11962 h -0.77756 z"
       id="path40133"
       sodipodi:nodetypes="cccccccccccccccccccccccccccccccccccccccccccccccccccccccccccccccccccccccccsccccccccccccccccccccccccccsccccccccccccccc" />
    <path
       style="fill:#040300;fill-opacity:1;stroke:none;stroke-width:1.806;stroke-opacity:1;filter:url(#filter47260)"
       d="m 687.59677,583.28495 0.95699,26.55645 154.31452,0.71774 v -25.36021 z"
       id="path47240"
       transform="matrix(0.95618933,0,0,1,33.902687,0)" />
    <path
       style="fill:#ef9f00;fill-opacity:1;stroke:none;stroke-width:1.506;stroke-dasharray:none;stroke-opacity:1"
       d="m 666.54301,523.47312 0.95699,26.55645 154.31452,0.71774 V 525.3871 Z"
       id="path40189" />
    <path
       style="fill:#000000;fill-opacity:1;stroke:none;stroke-width:1.806;stroke-opacity:1;filter:url(#filter47270)"
       d="m 553.13978,643.57528 0.95699,26.55645 154.31452,0.71774 v -25.36021 z"
       id="path47268" />
    <path
       style="fill:#040300;fill-opacity:1;stroke:none;stroke-width:1.806;stroke-opacity:1;filter:url(#filter47256)"
       d="m 678.50537,613.90861 0.95699,26.55645 154.31452,0.71774 v -25.36021 z"
       id="path47242"
       transform="matrix(0.95618933,0,0,1,33.902687,0)" />
    <path
       style="fill:#efec01;fill-opacity:1;stroke:none;stroke-width:1.92656;stroke-opacity:1"
       d="m 696.63315,523.59274 -0.13614,26.43683 38.79659,0.11962 0.27226,-25.47983 -0.0681,-0.41869 z"
       id="path40245" />
    <path
       style="fill:#040300;fill-opacity:1;stroke:none;stroke-width:1.806;stroke-opacity:1;filter:url(#filter47252)"
       d="m 723.48386,643.57528 0.95699,26.55645 154.31452,0.71774 v -25.36021 z"
       id="path47244"
       transform="matrix(0.95618933,0,0,1,33.902687,0)" />
    <path
       style="fill:#efee00;fill-opacity:1;stroke:none;stroke-width:1.806;stroke-opacity:1"
       d="m 742.53394,550.29872 h 6.13071 l 0.0122,-25.86119 h -6.21712 z"
       id="path40247" />
    <path
       style="opacity:0.966418;fill:#040300;fill-opacity:1;stroke:none;stroke-width:1.806;stroke-opacity:1;filter:url(#filter47248)"
       d="m 668.93548,553.13979 0.95699,26.55645 154.31452,0.71774 v -25.36021 z"
       id="path47246"
       transform="matrix(0.95618933,0,0,1,33.902687,0)" />
    <path
       style="fill:#ef9f00;fill-opacity:1;stroke:none;stroke-width:1.806;stroke-opacity:1"
       d="m 678.98387,583.28495 0.95699,26.55645 154.31452,0.71774 v -25.36021 z"
       id="path40249" />
    <path
       style="fill:#efee00;fill-opacity:1;stroke:none;stroke-width:1.806;stroke-opacity:1"
       d="m 713.79436,583.40457 -0.11963,26.43683 34.09274,0.11962 0.23925,-25.47983 -0.0598,-0.41869 z"
       id="path40251" />
    <path
       style="fill:#efee00;fill-opacity:1;stroke:none;stroke-width:1.806;stroke-opacity:1"
       d="m 754.9748,610.11055 h 6.13071 l 0.0122,-25.86119 h -6.21712 z"
       id="path40253" />
    <path
       style="fill:#ef9f00;fill-opacity:1;stroke:none;stroke-width:1.766;stroke-opacity:1"
       d="m 674.44672,613.90861 0.91506,26.55645 147.5539,0.71774 v -25.36021 z"
       id="path40255" />
    <path
       style="fill:#efee00;fill-opacity:1;stroke:none;stroke-width:1.806;stroke-opacity:1"
       d="m 704.70296,614.02823 -0.11963,26.43683 34.09274,0.11962 0.23925,-25.47983 -0.0598,-0.41869 z"
       id="path40257" />
    <path
       style="fill:#efee00;fill-opacity:1;stroke:none;stroke-width:1.806;stroke-opacity:1"
       d="m 745.8834,640.73421 h 6.13071 l 0.0122,-25.86119 h -6.21712 z"
       id="path40259" />
    <path
       style="fill:#ef9f00;fill-opacity:1;stroke:none;stroke-width:1.806;stroke-opacity:1"
       d="m 714.87096,643.57528 0.95699,26.55645 154.31452,0.71774 v -25.36021 z"
       id="path40261" />
    <path
       style="fill:#efee00;fill-opacity:1;stroke:none;stroke-width:1.806;stroke-opacity:1"
       d="m 749.68145,643.6949 -0.11963,26.43683 34.09274,0.11962 0.23925,-25.47983 -0.0598,-0.41869 z"
       id="path40263" />
    <path
       style="fill:#efee00;fill-opacity:1;stroke:none;stroke-width:1.806;stroke-opacity:1"
       d="m 790.86189,670.40088 h 6.13071 l 0.0122,-25.86119 h -6.21712 z"
       id="path40265" />
    <path
       style="fill:#ef9f00;fill-opacity:1;stroke:none;stroke-width:1.806;stroke-opacity:1"
       d="m 547.39784,643.57528 0.95699,26.55645 154.31452,0.71774 v -25.36021 z"
       id="path40267" />
    <path
       style="fill:#efee00;fill-opacity:1;stroke:none;stroke-width:1.806;stroke-opacity:1"
       d="m 582.20833,643.6949 -0.11963,26.43683 34.09274,0.11962 0.23925,-25.47983 -0.0598,-0.41869 z"
       id="path40269" />
    <path
       style="fill:#efee00;fill-opacity:1;stroke:none;stroke-width:1.806;stroke-opacity:1"
       d="m 623.38877,670.40088 h 6.13071 l 0.0122,-25.86119 h -6.21712 z"
       id="path40271" />
    <path
       style="fill:#ef9f00;fill-opacity:1;stroke:none;stroke-width:1.806;stroke-opacity:1"
       d="m 513.76307,613.43012 0.95699,26.55645 154.31452,0.71774 V 615.3441 Z"
       id="path40273" />
    <path
       style="fill:#efee00;fill-opacity:1;stroke:none;stroke-width:1.806;stroke-opacity:1"
       d="m 548.23521,613.54974 -0.11963,26.43683 34.09274,0.11962 0.23925,-25.47983 -0.0598,-0.41869 z"
       id="path40275" />
    <path
       style="fill:#efee00;fill-opacity:1;stroke:none;stroke-width:1.806;stroke-opacity:1"
       d="m 589.41565,640.25572 h 6.13071 l 0.0122,-25.86119 h -6.21712 z"
       id="path40277" />
    <path
       style="opacity:0.966418;fill:#ef9f00;fill-opacity:1;stroke:none;stroke-width:1.806;stroke-opacity:1"
       d="m 660.32258,553.13979 0.95699,26.55645 154.31452,0.71774 v -25.36021 z"
       id="path41731" />
    <path
       style="fill:#efee00;fill-opacity:1;stroke:none;stroke-width:1.806;stroke-opacity:1"
       d="m 695.13307,553.25941 -0.11963,26.43683 34.09274,0.11962 0.23925,-25.47983 -0.0598,-0.41869 z"
       id="path41733" />
    <path
       style="fill:#efee00;fill-opacity:1;stroke:none;stroke-width:1.806;stroke-opacity:1"
       d="m 736.31351,579.96539 h 6.13071 l 0.0122,-25.86119 h -6.21712 z"
       id="path41735" />
    <path
       style="fill:#000000;fill-opacity:1;stroke:none;stroke-width:1.006;stroke-dasharray:none;stroke-opacity:1"
       d="m 752.4328,421.55376 -3.58871,-1.19623 -5.98119,-1.43549 -5.26344,-0.23924 -2.63172,0.47849 -1.60106,0.47332 -1.18422,0.42293 -1.01504,0.50752 -0.76128,0.6767 -1.01504,0.67669 -0.42293,0.50752 -0.76128,0.76128 -0.76128,1.18422 -0.16918,1.09962 c 0,0 -0.33834,0.84587 -0.33834,1.18422 0,0.33834 -0.16918,2.19925 -0.16918,2.19925 l 0.16918,1.60715 0.33834,1.52256 0.50752,1.2688 c 0,0 0.42294,0.93045 0.6767,1.35339 0.25376,0.42293 0.93045,1.35338 0.93045,1.35338 l 0.84587,0.93046 1.35338,1.01504 1.9455,1.01504 2.45301,1.09963 1.77632,1.01504 2.45302,0.93045 c 0,0 2.28384,1.09963 2.62219,1.2688 0.33834,0.16917 2.79136,1.18421 2.79136,1.18421 l 2.03008,1.18422 1.94549,1.2688 c 0,0 1.69174,1.01504 2.03008,1.2688 0.33835,0.25376 2.62219,2.45301 2.62219,2.45301 0,0 1.18421,1.09963 1.52256,1.52256 0.33835,0.42294 1.94549,2.96054 1.94549,2.96054 l 1.26881,3.97557 0.16917,3.46806 -0.0846,4.31392 -0.67669,2.19925 -0.59211,1.69174 -0.59211,1.60714 -1.43797,2.45302 -1.60715,2.19925 -2.28384,1.86091 -1.77632,1.18421 -1.69173,1.43798 c 0,0 -1.9455,1.09962 -2.28384,1.35338 -0.33835,0.25376 -2.96054,1.09963 -2.96054,1.09963 l -1.43797,0.33835 -1.18422,0.16917 -0.42293,0.0846 V 496.101 l -8.20491,0.0846 -0.16917,-11.33461 -2.36843,-0.0846 -1.77632,-0.0846 -1.77632,-0.33834 -2.28384,-0.33835 -2.03008,-0.6767 -2.19926,-0.84586 -2.5376,-1.01504 -1.35338,-0.6767 -1.77633,-0.67669 -0.42293,-0.16917 3.38347,-9.30454 2.5376,1.35339 1.86091,1.01504 2.79136,1.09962 2.11467,0.6767 1.52256,0.25376 1.43797,0.25376 2.03008,0.25376 1.52256,0.0846 h 1.43798 l 1.69173,-0.16918 2.28384,-0.42293 2.03008,-0.50752 1.77632,-0.6767 1.69174,-0.67669 1.35338,-0.84587 1.2688,-1.69173 0.6767,-1.35339 0.33834,-1.35338 0.0846,-1.52256 v -1.60715 l -0.16917,-1.77632 -0.0846,-1.35339 -0.59211,-1.69173 -1.60714,-2.96054 -1.52256,-1.01504 -1.35339,-0.93045 -1.77632,-0.6767 -2.19926,-1.18421 -2.36842,-0.93045 -2.70678,-1.35339 -5.43796,-2.82147 -2.15323,-1.4953 -1.97379,-1.37567 -1.55511,-1.07661 -1.79435,-1.85417 -1.31586,-1.43549 -1.31586,-1.79435 -1.61492,-2.39247 -0.59812,-0.83737 -0.35887,-1.19624 -0.35887,-1.43548 -0.0598,-1.19624 0.23924,-5.5625 0.4785,-1.31586 0.53831,-1.61492 0.71774,-1.43548 0.65793,-1.85417 0.65793,-1.19623 0.77755,-1.13643 0.71774,-0.89717 0.95699,-0.89718 1.0168,-0.83737 1.31586,-0.71774 1.79436,-1.0168 1.91398,-0.89718 c 0,0 1.19623,-0.65793 1.43548,-0.77755 0.23925,-0.11963 2.21304,-0.65793 2.21304,-0.65793 l 2.33266,-0.71774 0.59812,-0.17944 -0.17944,-11.60349 8.67272,-0.0598 0.41868,10.94557 1.4953,0.35887 1.91398,0.41868 3.22983,0.65793 1.85417,0.41869 c 0,0 1.43548,0.35887 1.91398,0.5383 0.47849,0.17944 2.09341,0.89718 2.09341,0.89718 l 1.67473,0.77755 -2.5719,8.13441 z"
       id="path43792" />
    <path
       id="path48062"
       style="fill:#000000;fill-opacity:1;stroke:none;stroke-width:1.006;stroke-dasharray:none;stroke-opacity:1"
       d="m 546.63392,312.93555 -26.31836,0.35937 0.47852,16.7461 -1.09375,0.18554 -7.78125,0.67578 -5.83789,1.17383 -5.38281,1.19531 -5.26367,1.67383 -3.70899,1.19727 -3.82812,1.55469 -3.82813,1.3164 -2.99023,1.55469 -4.06641,2.63281 -3.58984,1.91211 -2.39258,2.27344 -4.66406,3.70898 -3.58985,2.99024 -2.15234,2.63086 -2.1543,2.63281 -1.67383,2.39258 -2.27343,3.34961 -1.79493,3.34961 -1.91406,3.82812 -1.31445,3.34961 -0.95703,3.58789 -1.67578,6.2207 -0.47852,4.30665 -0.23828,4.66406 v 4.30664 l 0.47851,5.14453 0.95704,5.80078 1.01562,4.12695 1.79492,4.36719 1.91407,3.70899 2.15429,3.70703 2.21289,3.34961 2.63086,3.16992 2.63086,2.87109 3.23047,2.99024 2.63281,2.39257 3.82813,3.11133 3.94726,2.51172 3.22852,2.0332 4.66601,2.27344 4.06641,2.03321 4.1875,1.43554 5.38281,1.91406 4.1875,1.55469 2.8711,0.95703 3.34961,0.83789 3.94726,0.7168 3.94727,1.31641 3.34961,0.71875 2.15234,0.71679 -0.36719,78.21289 -3.38281,-0.16796 -3.89062,-1.18555 -5.58399,-2.0293 -3.21289,-2.03125 -5.75195,-3.89062 -4.23047,-4.39844 -3.04492,-3.7207 -2.875,-4.90625 -2.36914,-5.41407 -2.19922,-4.90625 -2.70703,-12.01172 -0.50782,-4.05859 -39.92382,6.93555 0.50781,8.11914 1.35351,7.7832 2.0293,6.59766 2.0293,6.08984 2.87695,5.41406 3.04492,5.07422 3.38281,5.24414 3.89063,3.72266 3.72266,3.72266 4.56836,3.7207 4.39843,3.55273 4.73633,2.53711 5.41406,2.53907 c 0,0 4.39753,2.02884 5.07422,2.36718 0.67669,0.33835 6.42969,2.19922 6.42969,2.19922 l 7.27344,1.52344 3.4414,0.92187 4.00196,0.76954 3.21484,0.50781 2.36914,0.16797 1.85938,0.16992 2.53906,0.50781 1.01367,0.16992 0.8457,16.57813 26.39258,-0.16992 -0.16992,-17.76172 8.31836,-0.41602 3.64844,-0.53906 5.92187,-1.25586 5.20313,-1.55469 6.16211,-2.09375 7.47656,-3.34961 3.94726,-2.27148 5.50586,-2.90039 6.9375,-4.90625 4.82032,-4.3125 5.24414,-5.92188 4.48437,-5.75195 3.55274,-6.17383 2.53711,-6.42969 1.86132,-7.02148 1.18164,-6.82422 c 0,0 0.65821,-5.20411 0.65821,-5.44336 0,-0.23925 0.17968,-4.96387 0.17969,-5.20312 0,-0.23925 -0.41797,-4.36719 -0.41797,-4.36719 l -0.44922,-4.66406 -0.50781,-3.11133 -0.89844,-2.8711 -0.95703,-2.92968 -1.31446,-3.41016 -1.3164,-2.99023 -2.8711,-5.20313 -4.42578,-5.86133 -4.90429,-6.10156 -4.30665,-3.58789 -4.66601,-3.34961 -4.54492,-2.99219 -7.41797,-4.0664 -7.29688,-3.10938 -8.85156,-3.11133 -8.37305,-2.0332 -5.5039,-0.83789 -3.94727,-0.83594 -4.54492,-0.83789 v -71.53515 l 5.74219,1.91406 4.78515,1.67383 4.30469,3.11133 3.34961,2.87109 3.58984,3.58789 3.82813,5.50195 2.39258,6.46094 2.15234,6.9375 0.95703,3.82813 40.91211,-5.74219 -1.91406,-8.13477 -4.06836,-11.24414 -3.82812,-7.41601 -4.78321,-7.17774 -7.65625,-6.9375 -8.13476,-6.69922 -8.85157,-4.54687 -3.4707,-1.67383 -6.81836,-2.63281 -5.14258,-1.31446 -8.13476,-1.79492 -5.26367,-0.59765 -3.94727,-0.47852 z m -26.4375,47.84961 0.95703,66.03125 -8.61328,-2.39258 -7.41601,-3.82617 -6.22071,-3.34961 -5.26367,-4.78516 -3.10937,-3.82812 -2.63281,-8.13477 -0.7168,-14.83398 7.17773,-12.20118 9.33008,-7.17773 7.41602,-3.58789 z M 547.2765,466.75 l 0.84571,0.33789 3.38281,0.8457 4.06054,1.1836 5.41407,1.86133 4.5664,2.19921 3.89258,2.19922 4.39844,3.21485 4.5664,4.06054 1.86133,4.39844 1.35352,3.21289 1.01562,3.72266 0.84571,4.22851 0.16797,4.73828 -0.16797,4.39844 -0.84571,4.06055 -1.18554,3.04492 -1.85938,4.05859 -2.19922,4.06055 -2.53906,2.70703 -3.21289,3.21485 -3.04688,2.36718 -3.7207,2.70704 -4.39844,2.53906 -4.23046,1.85937 -4.22852,1.69336 -4.73633,0.16797 z" />
    <path
       id="path72038"
       style="opacity:0.981343;fill:url(#radialGradient72040);fill-opacity:1;stroke:none;stroke-width:1.63606;stroke-opacity:1"
       d="M 457.84715 148.40939 L 455.47996 149.50314 L 452.68504 151.46798 L 451.71629 153.43283 L 451.60887 156.05392 L 451.50145 158.89376 L 451.93113 161.18673 L 493.6577 218.29806 L 495.70066 222.01095 L 495.70066 226.15939 L 495.80809 229.65353 L 495.59324 231.40158 L 486.77488 235.11447 L 484.1948 235.87814 L 460.10496 250.7297 L 450.64012 258.59298 L 442.89793 265.58126 L 435.15574 272.56955 L 427.4116 279.55783 L 417.94871 291.7883 L 410.20457 302.27267 L 401.60105 312.75509 L 396.43895 321.49142 L 390.41746 331.1008 L 382.67527 345.9504 L 374.07176 360.80197 L 368.90965 373.03244 L 362.88621 385.2629 L 357.7241 400.11447 L 350.84129 420.20626 L 346.54051 434.18478 L 344.8198 449.90939 L 341.3784 465.634 L 339.6577 490.96798 L 337.93699 510.18673 L 337.93699 528.53244 L 339.6577 539.8879 L 341.3784 552.99337 L 343.95848 562.60275 L 350.84129 579.2004 L 362.02684 596.67306 L 372.35105 608.02853 L 380.09324 615.01681 L 384.07176 618.04611 L 382.24168 615.64376 L 372.35301 597.20236 L 366.26902 579.68283 L 363.98582 569.54025 L 362.46629 555.71017 L 360.9448 543.72384 L 360.9448 524.36056 L 362.46629 504.0754 L 363.98582 477.33517 L 367.02879 460.73751 L 368.55027 444.14181 L 372.35301 429.3879 L 378.43895 408.18087 L 383.00145 392.50509 L 388.32566 379.59689 L 392.89012 366.68869 L 400.49559 351.0129 L 407.34129 335.33712 L 412.66551 325.19455 L 417.22996 315.97384 L 424.83543 304.90939 L 431.68113 293.84494 L 440.04832 280.93673 L 446.89207 273.55978 L 453.73777 266.18283 L 460.58348 258.80783 L 468.95066 250.509 L 490.24754 234.83322 L 492.52879 234.02658 L 500.32566 230.10861 L 500.51512 228.2629 L 500.42137 224.5754 L 500.42137 220.1965 L 498.61473 216.27658 L 461.7241 155.99728 L 461.3452 153.57736 L 461.43895 150.58126 L 461.49168 149.05001 L 457.84715 148.40939 z " />
  </g>
</svg>
