<?xml version="1.0" encoding="UTF-8" standalone="no"?>
<!-- Created with Inkscape (http://www.inkscape.org/) -->

<svg
   version="1.1"
   id="svg1049"
   width="585.83118"
   height="511.53549"
   viewBox="0 0 585.83117 511.5355"
   sodipodi:docname="glasses_icon.svg"
   inkscape:version="1.2.1 (9c6d41e410, 2022-07-14)"
   xmlns:inkscape="http://www.inkscape.org/namespaces/inkscape"
   xmlns:sodipodi="http://sodipodi.sourceforge.net/DTD/sodipodi-0.dtd"
   xmlns:xlink="http://www.w3.org/1999/xlink"
   xmlns="http://www.w3.org/2000/svg"
   xmlns:svg="http://www.w3.org/2000/svg">
  <defs
     id="defs1053">
    <linearGradient
       inkscape:collect="always"
       id="linearGradient9558">
      <stop
         style="stop-color:#f7f7f7;stop-opacity:0.39622647;"
         offset="0"
         id="stop9554" />
      <stop
         style="stop-color:#b4b4b4;stop-opacity:1;"
         offset="1"
         id="stop9556" />
    </linearGradient>
    <linearGradient
       inkscape:collect="always"
       id="linearGradient7066">
      <stop
         style="stop-color:#ffffff;stop-opacity:0.96855348;"
         offset="0.6141479"
         id="stop7062" />
      <stop
         style="stop-color:#bd0000;stop-opacity:1;"
         offset="0.74919617"
         id="stop7064" />
    </linearGradient>
    <linearGradient
       inkscape:collect="always"
       id="linearGradient6896">
      <stop
         style="stop-color:#ffffff;stop-opacity:1;"
         offset="0"
         id="stop6892" />
      <stop
         style="stop-color:#000000;stop-opacity:1;"
         offset="0.25723472"
         id="stop6894" />
    </linearGradient>
    <linearGradient
       inkscape:collect="always"
       id="linearGradient6781">
      <stop
         style="stop-color:#ffffff;stop-opacity:0.96855348;"
         offset="0.53376204"
         id="stop6777" />
      <stop
         style="stop-color:#bd0000;stop-opacity:1;"
         offset="0.74919617"
         id="stop6779" />
    </linearGradient>
    <linearGradient
       inkscape:collect="always"
       id="linearGradient6753">
      <stop
         style="stop-color:#1d1d1d;stop-opacity:0.90566039;"
         offset="0"
         id="stop6751" />
      <stop
         style="stop-color:#1e1e1e;stop-opacity:1;"
         offset="1"
         id="stop6749" />
    </linearGradient>
    <linearGradient
       inkscape:collect="always"
       id="linearGradient5497">
      <stop
         style="stop-color:#ffffff;stop-opacity:1;"
         offset="0"
         id="stop5495" />
      <stop
         style="stop-color:#c0c0c0;stop-opacity:1;"
         offset="1"
         id="stop5493" />
    </linearGradient>
    <linearGradient
       inkscape:collect="always"
       id="linearGradient5485">
      <stop
         style="stop-color:#ffffff;stop-opacity:1;"
         offset="0"
         id="stop5481" />
      <stop
         style="stop-color:#ffffff;stop-opacity:1;"
         offset="1"
         id="stop5483" />
    </linearGradient>
    <linearGradient
       inkscape:collect="always"
       id="linearGradient5469">
      <stop
         style="stop-color:#e5e5e5;stop-opacity:1;"
         offset="0"
         id="stop5467" />
      <stop
         style="stop-color:#b4b4b4;stop-opacity:1;"
         offset="1"
         id="stop5465" />
    </linearGradient>
    <linearGradient
       inkscape:collect="always"
       id="linearGradient5241">
      <stop
         style="stop-color:#e15353;stop-opacity:0;"
         offset="0.72025722"
         id="stop5239" />
      <stop
         style="stop-color:#e15353;stop-opacity:1;"
         offset="1"
         id="stop5237" />
    </linearGradient>
    <linearGradient
       inkscape:collect="always"
       id="linearGradient5203">
      <stop
         style="stop-color:#ffffff;stop-opacity:1;"
         offset="0"
         id="stop5199" />
      <stop
         style="stop-color:#f2f2f2;stop-opacity:1;"
         offset="1"
         id="stop5201" />
    </linearGradient>
    <linearGradient
       inkscape:collect="always"
       id="linearGradient5175">
      <stop
         style="stop-color:#ffffff;stop-opacity:1;"
         offset="0"
         id="stop5171" />
      <stop
         style="stop-color:#000000;stop-opacity:1;"
         offset="1"
         id="stop5173" />
    </linearGradient>
    <linearGradient
       inkscape:collect="always"
       id="linearGradient4423">
      <stop
         style="stop-color:#262626;stop-opacity:1;"
         offset="0"
         id="stop4419" />
      <stop
         style="stop-color:#262626;stop-opacity:0;"
         offset="1"
         id="stop4421" />
    </linearGradient>
    <linearGradient
       inkscape:collect="always"
       id="linearGradient3610">
      <stop
         style="stop-color:#ec5f67;stop-opacity:1;"
         offset="0"
         id="stop3608" />
      <stop
         style="stop-color:#4d0910;stop-opacity:1;"
         offset="1"
         id="stop3606" />
    </linearGradient>
    <linearGradient
       inkscape:collect="always"
       id="linearGradient3600">
      <stop
         style="stop-color:#ff2f37;stop-opacity:1;"
         offset="0"
         id="stop3598" />
      <stop
         style="stop-color:#9a000a;stop-opacity:1;"
         offset="1"
         id="stop3596" />
    </linearGradient>
    <linearGradient
       inkscape:collect="always"
       id="linearGradient3590">
      <stop
         style="stop-color:#efefef;stop-opacity:0;"
         offset="0"
         id="stop3588" />
      <stop
         style="stop-color:#bda1a1;stop-opacity:1;"
         offset="1"
         id="stop3586" />
    </linearGradient>
    <linearGradient
       inkscape:collect="always"
       xlink:href="#linearGradient3590"
       id="linearGradient3592"
       x1="155.58315"
       y1="205.03017"
       x2="415.16376"
       y2="205.03017"
       gradientUnits="userSpaceOnUse" />
    <linearGradient
       inkscape:collect="always"
       xlink:href="#linearGradient3600"
       id="linearGradient3602"
       x1="163.60391"
       y1="283.45944"
       x2="411.87653"
       y2="283.45944"
       gradientUnits="userSpaceOnUse" />
    <linearGradient
       inkscape:collect="always"
       xlink:href="#linearGradient3610"
       id="linearGradient3612"
       x1="174.5957"
       y1="289.05859"
       x2="401.09766"
       y2="289.05859"
       gradientUnits="userSpaceOnUse" />
    <linearGradient
       inkscape:collect="always"
       xlink:href="#linearGradient4423"
       id="linearGradient4425"
       x1="163.60391"
       y1="283.45944"
       x2="411.87653"
       y2="283.45944"
       gradientUnits="userSpaceOnUse" />
    <linearGradient
       inkscape:collect="always"
       xlink:href="#linearGradient5203"
       id="linearGradient5186"
       gradientUnits="userSpaceOnUse"
       gradientTransform="translate(1.5922489)"
       x1="210.35381"
       y1="423.89484"
       x2="281.77249"
       y2="423.89484" />
    <linearGradient
       inkscape:collect="always"
       xlink:href="#linearGradient5175"
       id="linearGradient5209"
       x1="209.83344"
       y1="423.89484"
       x2="281.25211"
       y2="423.89484"
       gradientUnits="userSpaceOnUse" />
    <radialGradient
       inkscape:collect="always"
       xlink:href="#linearGradient5241"
       id="radialGradient5243"
       cx="245.54279"
       cy="423.89484"
       fx="245.54279"
       fy="423.89484"
       r="35.709347"
       gradientTransform="matrix(1,0,0,2.4965966,0,-634.02614)"
       gradientUnits="userSpaceOnUse" />
    <linearGradient
       inkscape:collect="always"
       xlink:href="#linearGradient9558"
       id="linearGradient5473"
       x1="242.03883"
       y1="17.072237"
       x2="409.3812"
       y2="17.072237"
       gradientUnits="userSpaceOnUse" />
    <linearGradient
       inkscape:collect="always"
       xlink:href="#linearGradient5485"
       id="linearGradient5479"
       gradientUnits="userSpaceOnUse"
       x1="242.03883"
       y1="17.072237"
       x2="409.3812"
       y2="17.072237"
       gradientTransform="matrix(0.9516724,0,0,0.9516724,15.740783,0.82506012)" />
    <radialGradient
       inkscape:collect="always"
       xlink:href="#linearGradient5497"
       id="radialGradient5491"
       cx="326.1196"
       cy="14.054579"
       fx="326.1196"
       fy="14.054579"
       r="68.076096"
       gradientTransform="matrix(1,0,0,0.10767344,0,12.541274)"
       gradientUnits="userSpaceOnUse" />
    <radialGradient
       inkscape:collect="always"
       xlink:href="#linearGradient5497"
       id="radialGradient5503"
       gradientUnits="userSpaceOnUse"
       gradientTransform="matrix(1.0229936,0,0,0.11014924,-7.4986712,12.506478)"
       cx="326.1196"
       cy="14.054579"
       fx="326.1196"
       fy="14.054579"
       r="68.076096" />
    <linearGradient
       inkscape:collect="always"
       xlink:href="#linearGradient6753"
       id="linearGradient6755"
       x1="140.75421"
       y1="523.20691"
       x2="311.61346"
       y2="523.20691"
       gradientUnits="userSpaceOnUse" />
    <linearGradient
       inkscape:collect="always"
       xlink:href="#linearGradient7066"
       id="linearGradient6765"
       gradientUnits="userSpaceOnUse"
       x1="140.75421"
       y1="523.20691"
       x2="311.61346"
       y2="523.20691"
       gradientTransform="matrix(0.9366306,0,0,0.9366306,14.333133,33.155305)" />
    <linearGradient
       inkscape:collect="always"
       xlink:href="#linearGradient6896"
       id="linearGradient6773"
       x1="138.36855"
       y1="534.24078"
       x2="311.84274"
       y2="534.24078"
       gradientUnits="userSpaceOnUse" />
    <linearGradient
       inkscape:collect="always"
       xlink:href="#linearGradient3590"
       id="linearGradient7006"
       gradientUnits="userSpaceOnUse"
       x1="155.58315"
       y1="205.03017"
       x2="415.16376"
       y2="205.03017" />
    <linearGradient
       inkscape:collect="always"
       xlink:href="#linearGradient3600"
       id="linearGradient7008"
       gradientUnits="userSpaceOnUse"
       x1="163.60391"
       y1="283.45944"
       x2="411.87653"
       y2="283.45944" />
    <linearGradient
       inkscape:collect="always"
       xlink:href="#linearGradient4423"
       id="linearGradient7010"
       gradientUnits="userSpaceOnUse"
       x1="163.60391"
       y1="283.45944"
       x2="411.87653"
       y2="283.45944" />
    <linearGradient
       inkscape:collect="always"
       xlink:href="#linearGradient3610"
       id="linearGradient7012"
       gradientUnits="userSpaceOnUse"
       x1="174.5957"
       y1="289.05859"
       x2="401.09766"
       y2="289.05859" />
    <linearGradient
       inkscape:collect="always"
       xlink:href="#linearGradient5175"
       id="linearGradient7014"
       gradientUnits="userSpaceOnUse"
       x1="209.83344"
       y1="423.89484"
       x2="281.25211"
       y2="423.89484" />
    <linearGradient
       inkscape:collect="always"
       xlink:href="#linearGradient5203"
       id="linearGradient7016"
       gradientUnits="userSpaceOnUse"
       gradientTransform="translate(1.5922489)"
       x1="210.35381"
       y1="423.89484"
       x2="281.77249"
       y2="423.89484" />
    <radialGradient
       inkscape:collect="always"
       xlink:href="#linearGradient5241"
       id="radialGradient7018"
       gradientUnits="userSpaceOnUse"
       gradientTransform="matrix(1,0,0,2.4965966,0,-634.02614)"
       cx="245.54279"
       cy="423.89484"
       fx="245.54279"
       fy="423.89484"
       r="35.709347" />
    <linearGradient
       inkscape:collect="always"
       xlink:href="#linearGradient3590"
       id="linearGradient7020"
       gradientUnits="userSpaceOnUse"
       x1="155.58315"
       y1="205.03017"
       x2="415.16376"
       y2="205.03017" />
    <linearGradient
       inkscape:collect="always"
       xlink:href="#linearGradient3600"
       id="linearGradient7022"
       gradientUnits="userSpaceOnUse"
       x1="163.60391"
       y1="283.45944"
       x2="411.87653"
       y2="283.45944" />
    <linearGradient
       inkscape:collect="always"
       xlink:href="#linearGradient4423"
       id="linearGradient7024"
       gradientUnits="userSpaceOnUse"
       x1="163.60391"
       y1="283.45944"
       x2="411.87653"
       y2="283.45944" />
    <linearGradient
       inkscape:collect="always"
       xlink:href="#linearGradient3610"
       id="linearGradient7026"
       gradientUnits="userSpaceOnUse"
       x1="174.5957"
       y1="289.05859"
       x2="401.09766"
       y2="289.05859" />
    <linearGradient
       inkscape:collect="always"
       xlink:href="#linearGradient5175"
       id="linearGradient7028"
       gradientUnits="userSpaceOnUse"
       x1="209.83344"
       y1="423.89484"
       x2="281.25211"
       y2="423.89484" />
    <linearGradient
       inkscape:collect="always"
       xlink:href="#linearGradient5203"
       id="linearGradient7030"
       gradientUnits="userSpaceOnUse"
       gradientTransform="translate(1.5922489)"
       x1="210.35381"
       y1="423.89484"
       x2="281.77249"
       y2="423.89484" />
    <radialGradient
       inkscape:collect="always"
       xlink:href="#linearGradient5241"
       id="radialGradient7032"
       gradientUnits="userSpaceOnUse"
       gradientTransform="matrix(1,0,0,2.4965966,0,-634.02614)"
       cx="245.54279"
       cy="423.89484"
       fx="245.54279"
       fy="423.89484"
       r="35.709347" />
    <linearGradient
       inkscape:collect="always"
       xlink:href="#linearGradient5469"
       id="linearGradient7034"
       gradientUnits="userSpaceOnUse"
       x1="242.03883"
       y1="17.072237"
       x2="409.3812"
       y2="17.072237" />
    <linearGradient
       inkscape:collect="always"
       xlink:href="#linearGradient5485"
       id="linearGradient7036"
       gradientUnits="userSpaceOnUse"
       gradientTransform="matrix(0.9516724,0,0,0.9516724,15.740783,0.82506012)"
       x1="242.03883"
       y1="17.072237"
       x2="409.3812"
       y2="17.072237" />
    <radialGradient
       inkscape:collect="always"
       xlink:href="#linearGradient5497"
       id="radialGradient7038"
       gradientUnits="userSpaceOnUse"
       gradientTransform="matrix(1,0,0,0.10767344,0,12.541274)"
       cx="326.1196"
       cy="14.054579"
       fx="326.1196"
       fy="14.054579"
       r="68.076096" />
    <radialGradient
       inkscape:collect="always"
       xlink:href="#linearGradient5497"
       id="radialGradient7040"
       gradientUnits="userSpaceOnUse"
       gradientTransform="matrix(1.0229936,0,0,0.11014924,-7.4986712,12.506478)"
       cx="326.1196"
       cy="14.054579"
       fx="326.1196"
       fy="14.054579"
       r="68.076096" />
    <linearGradient
       inkscape:collect="always"
       xlink:href="#linearGradient6753"
       id="linearGradient7042"
       gradientUnits="userSpaceOnUse"
       x1="140.75421"
       y1="523.20691"
       x2="311.61346"
       y2="523.20691" />
    <linearGradient
       inkscape:collect="always"
       xlink:href="#linearGradient6896"
       id="linearGradient7044"
       gradientUnits="userSpaceOnUse"
       x1="138.36855"
       y1="534.24078"
       x2="311.84274"
       y2="534.24078" />
    <linearGradient
       inkscape:collect="always"
       xlink:href="#linearGradient6781"
       id="linearGradient7046"
       gradientUnits="userSpaceOnUse"
       gradientTransform="matrix(0.9366306,0,0,0.9366306,14.333133,33.155305)"
       x1="140.75421"
       y1="523.20691"
       x2="311.61346"
       y2="523.20691" />
    <linearGradient
       inkscape:collect="always"
       xlink:href="#linearGradient3590"
       id="linearGradient7048"
       gradientUnits="userSpaceOnUse"
       x1="155.58315"
       y1="205.03017"
       x2="415.16376"
       y2="205.03017" />
    <linearGradient
       inkscape:collect="always"
       xlink:href="#linearGradient3600"
       id="linearGradient7050"
       gradientUnits="userSpaceOnUse"
       x1="163.60391"
       y1="283.45944"
       x2="411.87653"
       y2="283.45944" />
    <linearGradient
       inkscape:collect="always"
       xlink:href="#linearGradient4423"
       id="linearGradient7052"
       gradientUnits="userSpaceOnUse"
       x1="163.60391"
       y1="283.45944"
       x2="411.87653"
       y2="283.45944" />
    <linearGradient
       inkscape:collect="always"
       xlink:href="#linearGradient3610"
       id="linearGradient7054"
       gradientUnits="userSpaceOnUse"
       x1="174.5957"
       y1="289.05859"
       x2="401.09766"
       y2="289.05859" />
    <linearGradient
       inkscape:collect="always"
       xlink:href="#linearGradient5175"
       id="linearGradient7056"
       gradientUnits="userSpaceOnUse"
       x1="209.83344"
       y1="423.89484"
       x2="281.25211"
       y2="423.89484" />
    <linearGradient
       inkscape:collect="always"
       xlink:href="#linearGradient5203"
       id="linearGradient7058"
       gradientUnits="userSpaceOnUse"
       gradientTransform="translate(1.5922489)"
       x1="210.35381"
       y1="423.89484"
       x2="281.77249"
       y2="423.89484" />
    <radialGradient
       inkscape:collect="always"
       xlink:href="#linearGradient5241"
       id="radialGradient7060"
       gradientUnits="userSpaceOnUse"
       gradientTransform="matrix(1,0,0,2.4965966,0,-634.02614)"
       cx="245.54279"
       cy="423.89484"
       fx="245.54279"
       fy="423.89484"
       r="35.709347" />
  </defs>
  <sodipodi:namedview
     id="namedview1051"
     pagecolor="#ffffff"
     bordercolor="#000000"
     borderopacity="0.25"
     inkscape:showpageshadow="2"
     inkscape:pageopacity="0.0"
     inkscape:pagecheckerboard="0"
     inkscape:deskcolor="#d1d1d1"
     showgrid="false"
     inkscape:zoom="0.6694079"
     inkscape:cx="175.52825"
     inkscape:cy="104.57002"
     inkscape:window-width="1920"
     inkscape:window-height="1017"
     inkscape:window-x="-8"
     inkscape:window-y="-8"
     inkscape:window-maximized="1"
     inkscape:current-layer="g5335" />
  <g
     inkscape:groupmode="layer"
     inkscape:label="Image"
     id="g1055"
     transform="translate(-120.52207,-60.097033)">
    <g
       id="g5335">
      <g
         id="g6944"
         transform="rotate(4.9904736,277.00865,311.02263)">
        <g
           id="g5313">
          <path
             style="opacity:0.604478;fill:url(#linearGradient7048);fill-opacity:1;stroke:#000000;stroke-width:2.069;stroke-dasharray:none"
             d="m 235.69364,69.632713 -32.4812,40.145317 -6.20428,11.31368 -3.64957,6.20427 -6.20428,10.2188 -4.37949,8.02907 -4.37949,7.6641 -2.91965,6.56924 -5.47437,12.04359 -4.37948,12.77351 -4.01454,11.67864 -5.1094,22.62735 -0.72991,11.67864 0.36495,12.77351 1.82479,12.7735 1.82479,8.39402 3.64957,7.29915 5.1094,10.94872 9.85385,12.0436 8.75898,9.12393 10.21881,6.56924 11.67864,6.20427 7.29914,3.64957 8.02906,4.37949 8.75898,2.55471 8.75898,3.64957 3.64957,1.82478 38.32052,7.48163 9.12394,0.18247 6.93419,0.36497 22.80984,-0.54744 11.67863,-1.27735 c 0,0 8.02907,-1.45983 8.75897,-1.64231 0.72992,-0.18248 6.02181,-2.18974 6.02181,-2.18974 l 7.84658,-2.91966 5.29188,-2.37222 6.93419,-2.91967 6.38675,-4.37948 4.56197,-4.19701 5.47436,-4.56198 5.74808,-7.57286 3.19338,-4.01453 1.82478,-3.74081 2.91967,-4.92693 2.64594,-6.20427 2.18974,-4.74445 3.28462,-9.67137 3.37586,-11.95235 2.0985,-13.13847 1.18611,-11.03996 0.82115,-23.53975 -0.82115,-18.70406 -3.9233,-28.83163 -4.56196,-23.99596 -5.01817,-21.62372 -2.73718,-10.03632 -2.37222,-6.11304 -0.91656,-1.33319 -12.77416,0.64516 -10.45157,-1.03225 -18.19351,-1.93548 -17.4193,-3.096764 -20.90318,-3.612894 -28.12896,-6.193532 -16.51608,-4.129021 -19.48382,-5.677404 -7.35482,-2.580639 -4.90322,-2.709671 -2.8387,-1.935478 z"
             id="path1821" />
          <path
             style="opacity:0.847015;fill:url(#linearGradient7050);fill-opacity:1;stroke:url(#linearGradient7052);stroke-width:1.374;stroke-dasharray:none;stroke-opacity:1"
             d="m 164.69649,248.83062 5.22856,20.99834 3.73468,6.63106 4.85509,9.20979 8.2163,11.78854 8.58977,8.47302 14.56527,10.31497 9.71017,4.78909 13.07139,4.05232 14.93874,4.78908 17.17954,4.4207 13.07139,2.94714 h 12.69792 l 14.56526,0.36839 18.29996,-0.36839 13.81832,-1.47357 11.57751,-2.57874 7.84285,-2.94713 4.85508,-2.57874 5.60203,-2.21036 c 0,0 5.22855,-3.31552 6.72243,-4.05231 1.49387,-0.73678 6.72243,-6.26266 6.72243,-6.26266 l 7.09589,-6.99945 4.48162,-6.26266 3.73469,-6.26265 3.73468,-6.63106 4.10815,-11.05175 3.73468,-11.42016 1.49388,-10.68336 2.24081,-13.99889 -0.37347,-5.15748 -4.85509,-1.47357 -7.0959,-2.57875 -25.76931,-2.21035 -26.88972,-0.36839 -19.79382,-0.73678 -19.42035,0.36838 -15.3122,0.3684 -17.92648,0.73679 -21.66117,0.73677 -19.42035,1.47357 -14.19179,0.73679 -16.80608,2.21035 -13.07139,1.10517 -14.1918,2.94713 -5.97549,1.47357 -4.10815,1.10519 z"
             id="path1823" />
          <path
             id="path1831"
             style="opacity:0.480687;fill:#efefef;fill-opacity:1;stroke:none;stroke-width:0.343945"
             d="m 238.14648,80.132812 -29.2832,36.195308 -5.7793,10.53516 -3.39843,5.7793 -5.77735,9.51562 -4.07812,7.47657 -4.07813,7.13671 -2.71875,6.11719 -5.09765,11.2168 -4.07813,11.89453 -3.73828,10.875 -4.75781,21.07227 -0.67969,10.875 0.33984,11.89453 1.69922,11.89453 1.69922,7.81836 3.39844,6.79687 4.75781,10.19532 3.69336,4.51367 -3.5293,-8.29102 -3.25195,-7.13281 -1.625,-8.19922 -1.625,-12.48047 -0.32617,-12.47851 0.65039,-11.41016 4.55273,-22.10742 3.57618,-11.41016 3.90039,-12.47851 4.87695,-11.76758 2.60156,-6.41797 3.90235,-7.48828 3.90039,-7.84375 5.52734,-9.98438 3.25195,-6.06054 5.52735,-11.05274 z m 148.96875,29.515628 -3.52343,0.17773 2.04297,5.77344 2.4375,9.80469 4.4707,21.125 4.06445,23.44531 3.4961,28.16797 0.73046,18.27344 -0.73046,22.99804 -1.0586,10.78516 -1.86914,12.83789 -3.00586,11.67578 -2.92773,9.44922 -1.94922,4.63477 -2.35742,6.0625 -1.50196,2.77929 1.68555,-2.11914 1.69922,-3.48437 2.71875,-4.58789 2.46484,-5.77735 2.03907,-4.41797 3.05859,-9.00586 3.14258,-11.13086 1.95508,-12.23437 1.10351,-10.28125 0.76563,-21.92188 -0.76563,-17.41601 -3.65234,-26.84961 -4.24805,-22.3457 -4.67383,-20.13672 -2.54883,-9.34571 -2.20898,-5.69336 z" />
          <path
             id="path1836"
             style="opacity:0.828326;fill:url(#linearGradient7054);fill-opacity:1;stroke:none;stroke-width:1.26172;stroke-dasharray:none;stroke-opacity:1"
             d="m 401.07617,244.92969 -6.88086,0.125 0.17774,2.44531 -1.93555,12.09375 -1.29102,9.22852 -3.22656,9.86328 -3.54883,9.54687 -3.22461,5.72852 -3.22656,5.41015 -3.87109,5.40821 -6.12891,6.04687 c 0,0 -4.51818,4.77373 -5.80859,5.41016 -1.29041,0.63644 -5.80664,3.5 -5.80664,3.5 l -4.83789,1.91015 -4.19336,2.22657 -6.77539,2.54492 -10,2.22851 -11.9375,1.27344 -15.80664,0.31836 -12.58203,-0.31836 h -10.96876 l -11.29101,-2.54687 -14.83984,-3.81836 -12.9043,-4.13672 -11.29102,-3.5 -8.38672,-4.13672 -12.58203,-8.91016 -7.41992,-7.32031 -7.09766,-10.18164 -4.19335,-7.95508 -3.22657,-5.72851 -4.51562,-18.13867 -0.27539,-4.61719 -6.58399,0.11914 0.15625,2.61133 4.80078,19.2832 3.42969,6.08789 4.45899,8.45703 7.54492,10.82617 7.88672,7.78125 13.375,9.47071 8.91601,4.39843 12.00391,3.72071 13.71875,4.39843 15.77539,4.0586 12.00195,2.70703 h 11.66211 l 13.375,0.33789 16.80274,-0.33789 12.68945,-1.35352 10.63281,-2.36718 7.20117,-2.70703 4.45899,-2.36719 5.14258,-2.03125 c 0,0 4.80204,-3.04413 6.17382,-3.72071 1.37179,-0.67655 6.17383,-5.75 6.17383,-5.75 l 6.51563,-6.42773 4.11523,-5.75195 3.42969,-5.75 3.42969,-6.08985 3.77148,-10.14843 3.42969,-10.48633 1.37109,-9.81055 2.0586,-12.85547 z" />
          <path
             id="path2104"
             style="opacity:0.381974;fill:#fefefe;fill-opacity:1;stroke:none;stroke-width:0.279165"
             d="m 334.09405,127.57504 0.76367,2.33398 1.82618,7.93945 3.3496,17.10157 3.04297,18.97851 2.61914,22.80469 0.54688,14.79297 -0.54688,18.61914 -0.79296,8.73047 -1.39844,10.39257 -2.25391,9.45313 -2.1914,7.65039 -1.46094,3.75195 -1.76563,4.90625 -1.94922,3.89649 -1.21679,2.95898 -2.13086,3.17578 -3.83594,5.99024 -3.65234,3.60742 -3.04492,3.32031 -4.26172,3.46289 -4.62696,2.3086 -3.53125,1.87695 -3.89648,1.71875 5.02344,-0.55078 c 0,0 6.06745,-1.10231 6.61914,-1.24024 0.5517,-0.13793 4.55273,-1.65625 4.55273,-1.65625 l 5.92969,-2.20507 4,-1.79493 5.24219,-2.20507 4.82617,-3.31055 3.44922,-3.17188 4.13672,-3.44921 4.3457,-5.72266 2.41211,-3.03516 1.38086,-2.82812 2.20703,-3.72266 1.99805,-4.68945 1.65625,-3.58594 2.48242,-7.31055 2.55078,-9.03515 1.58789,-9.92969 0.89648,-8.34375 0.61914,-17.79297 -0.61914,-14.13672 -2.96679,-21.79297 -3.44727,-18.13671 -3.79297,-16.34376 -2.06836,-7.58593 -1.79297,-4.6211 -0.69336,-1.00781 -9.65624,0.48828 -7.89844,-0.78125 z" />
          <path
             id="path3561"
             style="opacity:0.214592;fill:#fefefe;fill-opacity:1;stroke:#000000;stroke-width:0.221776"
             d="m 365.88273,127.54836 0.50094,2.24554 1.19793,7.63852 2.19726,16.4534 1.9961,18.2592 1.7181,21.94037 0.35874,14.23229 -0.35874,17.91344 -0.52017,8.39958 -0.91734,9.99868 -1.47851,9.09484 -1.4375,7.36043 -0.95835,3.60974 -1.1582,4.7203 -1.27864,3.74881 -0.79818,2.84683 -1.3978,3.05541 -2.51628,5.7632 -2.39584,3.4707 -1.99739,3.19446 -2.79558,3.33165 -3.03518,2.2211 -2.3164,1.80581 -2.556,1.65361 3.29525,-0.52991 c 0,0 3.9801,-1.06053 4.342,-1.19323 0.36189,-0.1327 2.98647,-1.59348 2.98647,-1.59348 l 3.88973,-2.12149 2.62389,-1.7269 3.43875,-2.12151 3.16586,-3.18506 2.26259,-3.05166 2.71359,-3.31848 2.85067,-5.50576 1.58229,-2.92013 0.90581,-2.72093 1.44775,-3.58157 1.31067,-4.51172 1.08646,-3.45002 1.62841,-7.03347 1.67325,-8.6927 1.04161,-9.55335 0.58807,-8.0275 0.40614,-17.11861 -0.40614,-13.60091 -1.94614,-20.96699 -2.26132,-17.4493 -2.4881,-15.72431 -1.35679,-7.29841 -1.17614,-4.44595 -0.45483,-0.96962 -6.33425,0.46977 -5.18118,-0.75163 z" />
          <path
             style="opacity:0.757463;fill:url(#linearGradient7056);fill-opacity:1;stroke:none;stroke-width:1.374;stroke-dasharray:none;stroke-opacity:1"
             d="m 244.01695,335.11649 37.23517,7.92238 -15.84475,40.14004 -5.80975,23.23897 -11.3554,55.45663 -1.05632,3.16895 1.84856,43.0449 -0.54747,1.97061 -0.93366,0.84029 -1.21376,0.74693 -1.12039,0.5602 -1.12039,0.18673 -1.21376,0.2801 -1.68059,-0.18673 c 0,0 -2.61425,-0.0934 -3.17445,-0.0934 -0.5602,0 -3.36118,-0.2801 -3.36118,-0.2801 l -3.08108,-0.18673 c 0,0 -5.32187,-1.21376 -5.69533,-1.21376 -0.37347,0 -3.54791,-0.65356 -3.54791,-0.65356 l -2.89435,-0.93366 -2.98772,-1.30713 -1.21376,-0.74693 -1.86732,-1.12039 -1.21376,-1.30712 -0.93366,-1.68059 -0.46683,-1.21376 -0.5602,-0.8403 -0.37346,-0.84029 7.74938,-12.69779 11.11057,-25.02211 15.31204,-80.85504 0.2801,-45.93612 z"
             id="path5165" />
          <path
             id="path5153"
             style="opacity:0.757463;fill:#565656;fill-opacity:1;stroke:none;stroke-width:1.374;stroke-dasharray:none;stroke-opacity:1"
             d="m 244.53711,335.11719 0.26953,0.4414 -0.004,0.72657 31.74219,6.7539 -15.8457,40.14063 -5.81055,23.23828 -11.35547,55.45703 -1.05468,3.16797 1.84765,43.04492 -0.54687,1.9707 -0.9336,0.83985 -1.21484,0.74804 -1.11914,0.56055 -1.1211,0.18555 -0.0957,0.0215 c 0.96976,0.0257 2.42969,0.0723 2.42969,0.0723 l 1.68164,0.1875 1.21289,-0.28125 1.12109,-0.18555 1.11915,-0.56055 1.21484,-0.74804 0.93359,-0.83985 0.54688,-1.9707 -1.84766,-43.04492 1.05469,-3.16797 11.35547,-55.45703 5.81054,-23.23828 15.84571,-40.14063 z" />
          <path
             id="path5184"
             style="opacity:0.757463;fill:url(#linearGradient7058);fill-opacity:1;stroke:none;stroke-width:1.374;stroke-dasharray:none;stroke-opacity:1"
             d="m 246.12891,335.11719 0.26953,0.4414 -0.28125,45.93555 -15.31055,80.85547 -11.11133,25.02148 -7.75,12.69727 0.375,0.83984 0.5586,0.8418 0.46679,1.21289 0.9336,1.68164 1.21484,1.30664 1.86719,1.11914 1.21289,0.74805 2.98828,1.30664 2.89453,0.93359 c 0,0 3.17536,0.6543 3.54883,0.6543 0.37346,0 5.69531,1.21289 5.69531,1.21289 l 3.08008,0.1875 c 0,0 2.80113,0.2793 3.36133,0.2793 0.5602,0 3.17383,0.0937 3.17383,0.0937 l 1.68164,0.1875 1.18359,-0.27539 c -0.0599,-9e-4 -0.18819,-0.006 -0.22852,-0.006 -0.56019,0 -3.36132,-0.2793 -3.36132,-0.2793 l -3.08203,-0.1875 c 0,0 -5.32186,-1.21289 -5.69532,-1.21289 -0.37347,0 -3.54687,-0.6543 -3.54687,-0.6543 l -2.89453,-0.93359 -2.98828,-1.30664 -1.21289,-0.74805 -1.86915,-1.11914 -1.21289,-1.30664 -0.93359,-1.68164 -0.4668,-1.21289 -0.56054,-0.8418 -0.37305,-0.83984 7.75,-12.69727 11.10937,-25.02148 15.3125,-80.85547 0.27344,-45.08398 z" />
          <path
             id="path5213"
             style="opacity:0.287313;fill:url(#radialGradient7060);fill-opacity:1;stroke:none;stroke-width:1.37689;stroke-dasharray:none;stroke-opacity:1"
             d="m 244.01758,335.11719 0.26758,0.4414 -0.2793,46.13086 -15.3125,81.19532 -1.30469,2.95117 h 19.80664 l -0.01,-0.2461 1.05664,-3.18164 11.35547,-55.68945 5.81054,-23.33789 15.84375,-40.30859 z" />
        </g>
        <path
           style="opacity:0.604478;fill:url(#linearGradient3592);fill-opacity:1;stroke:#000000;stroke-width:2.069;stroke-dasharray:none"
           d="m 235.69364,69.632713 -32.4812,40.145317 -6.20428,11.31368 -3.64957,6.20427 -6.20428,10.2188 -4.37949,8.02907 -4.37949,7.6641 -2.91965,6.56924 -5.47437,12.04359 -4.37948,12.77351 -4.01454,11.67864 -5.1094,22.62735 -0.72991,11.67864 0.36495,12.77351 1.82479,12.7735 1.82479,8.39402 3.64957,7.29915 5.1094,10.94872 9.85385,12.0436 8.75898,9.12393 10.21881,6.56924 11.67864,6.20427 7.29914,3.64957 8.02906,4.37949 8.75898,2.55471 8.75898,3.64957 3.64957,1.82478 38.32052,7.48163 9.12394,0.18247 6.93419,0.36497 22.80984,-0.54744 11.67863,-1.27735 c 0,0 8.02907,-1.45983 8.75897,-1.64231 0.72992,-0.18248 6.02181,-2.18974 6.02181,-2.18974 l 7.84658,-2.91966 5.29188,-2.37222 6.93419,-2.91967 6.38675,-4.37948 4.56197,-4.19701 5.47436,-4.56198 5.74808,-7.57286 3.19338,-4.01453 1.82478,-3.74081 2.91967,-4.92693 2.64594,-6.20427 2.18974,-4.74445 3.28462,-9.67137 3.37586,-11.95235 2.0985,-13.13847 1.18611,-11.03996 0.82115,-23.53975 -0.82115,-18.70406 -3.9233,-28.83163 -4.56196,-23.99596 -5.01817,-21.62372 -2.73718,-10.03632 -2.37222,-6.11304 -0.91656,-1.33319 -12.77416,0.64516 -10.45157,-1.03225 -18.19351,-1.93548 -17.4193,-3.096764 -20.90318,-3.612894 -28.12896,-6.193532 -16.51608,-4.129021 -19.48382,-5.677404 -7.35482,-2.580639 -4.90322,-2.709671 -2.8387,-1.935478 z"
           id="path5315" />
        <path
           style="opacity:0.847015;fill:url(#linearGradient3602);fill-opacity:1;stroke:url(#linearGradient4425);stroke-width:1.374;stroke-dasharray:none;stroke-opacity:1"
           d="m 164.69649,248.83062 5.22856,20.99834 3.73468,6.63106 4.85509,9.20979 8.2163,11.78854 8.58977,8.47302 14.56527,10.31497 9.71017,4.78909 13.07139,4.05232 14.93874,4.78908 17.17954,4.4207 13.07139,2.94714 h 12.69792 l 14.56526,0.36839 18.29996,-0.36839 13.81832,-1.47357 11.57751,-2.57874 7.84285,-2.94713 4.85508,-2.57874 5.60203,-2.21036 c 0,0 5.22855,-3.31552 6.72243,-4.05231 1.49387,-0.73678 6.72243,-6.26266 6.72243,-6.26266 l 7.09589,-6.99945 4.48162,-6.26266 3.73469,-6.26265 3.73468,-6.63106 4.10815,-11.05175 3.73468,-11.42016 1.49388,-10.68336 2.24081,-13.99889 -0.37347,-5.15748 -4.85509,-1.47357 -7.0959,-2.57875 -25.76931,-2.21035 -26.88972,-0.36839 -19.79382,-0.73678 -19.42035,0.36838 -15.3122,0.3684 -17.92648,0.73679 -21.66117,0.73677 -19.42035,1.47357 -14.19179,0.73679 -16.80608,2.21035 -13.07139,1.10517 -14.1918,2.94713 -5.97549,1.47357 -4.10815,1.10519 z"
           id="path5317" />
        <path
           id="path5319"
           style="opacity:0.480687;fill:#d0d0d0;fill-opacity:1;stroke:none;stroke-width:0.343945"
           d="m 238.14648,80.132812 -29.2832,36.195308 -5.7793,10.53516 -3.39843,5.7793 -5.77735,9.51562 -4.07812,7.47657 -4.07813,7.13671 -2.71875,6.11719 -5.09765,11.2168 -4.07813,11.89453 -3.73828,10.875 -4.75781,21.07227 -0.67969,10.875 0.33984,11.89453 1.69922,11.89453 1.69922,7.81836 3.39844,6.79687 4.75781,10.19532 3.69336,4.51367 -3.5293,-8.29102 -3.25195,-7.13281 -1.625,-8.19922 -1.625,-12.48047 -0.32617,-12.47851 0.65039,-11.41016 4.55273,-22.10742 3.57618,-11.41016 3.90039,-12.47851 4.87695,-11.76758 2.60156,-6.41797 3.90235,-7.48828 3.90039,-7.84375 5.52734,-9.98438 3.25195,-6.06054 5.52735,-11.05274 z m 148.96875,29.515628 -3.52343,0.17773 2.04297,5.77344 2.4375,9.80469 4.4707,21.125 4.06445,23.44531 3.4961,28.16797 0.73046,18.27344 -0.73046,22.99804 -1.0586,10.78516 -1.86914,12.83789 -3.00586,11.67578 -2.92773,9.44922 -1.94922,4.63477 -2.35742,6.0625 -1.50196,2.77929 1.68555,-2.11914 1.69922,-3.48437 2.71875,-4.58789 2.46484,-5.77735 2.03907,-4.41797 3.05859,-9.00586 3.14258,-11.13086 1.95508,-12.23437 1.10351,-10.28125 0.76563,-21.92188 -0.76563,-17.41601 -3.65234,-26.84961 -4.24805,-22.3457 -4.67383,-20.13672 -2.54883,-9.34571 -2.20898,-5.69336 z" />
        <path
           id="path5321"
           style="opacity:0.828326;fill:url(#linearGradient3612);fill-opacity:1;stroke:none;stroke-width:1.26172;stroke-dasharray:none;stroke-opacity:1"
           d="m 401.07617,244.92969 -6.88086,0.125 0.17774,2.44531 -1.93555,12.09375 -1.29102,9.22852 -3.22656,9.86328 -3.54883,9.54687 -3.22461,5.72852 -3.22656,5.41015 -3.87109,5.40821 -6.12891,6.04687 c 0,0 -4.51818,4.77373 -5.80859,5.41016 -1.29041,0.63644 -5.80664,3.5 -5.80664,3.5 l -4.83789,1.91015 -4.19336,2.22657 -6.77539,2.54492 -10,2.22851 -11.9375,1.27344 -15.80664,0.31836 -12.58203,-0.31836 h -10.96876 l -11.29101,-2.54687 -14.83984,-3.81836 -12.9043,-4.13672 -11.29102,-3.5 -8.38672,-4.13672 -12.58203,-8.91016 -7.41992,-7.32031 -7.09766,-10.18164 -4.19335,-7.95508 -3.22657,-5.72851 -4.51562,-18.13867 -0.27539,-4.61719 -6.58399,0.11914 0.15625,2.61133 4.80078,19.2832 3.42969,6.08789 4.45899,8.45703 7.54492,10.82617 7.88672,7.78125 13.375,9.47071 8.91601,4.39843 12.00391,3.72071 13.71875,4.39843 15.77539,4.0586 12.00195,2.70703 h 11.66211 l 13.375,0.33789 16.80274,-0.33789 12.68945,-1.35352 10.63281,-2.36718 7.20117,-2.70703 4.45899,-2.36719 5.14258,-2.03125 c 0,0 4.80204,-3.04413 6.17382,-3.72071 1.37179,-0.67655 6.17383,-5.75 6.17383,-5.75 l 6.51563,-6.42773 4.11523,-5.75195 3.42969,-5.75 3.42969,-6.08985 3.77148,-10.14843 3.42969,-10.48633 1.37109,-9.81055 2.0586,-12.85547 z" />
        <path
           id="path5323"
           style="opacity:0.381974;fill:#fefefe;fill-opacity:1;stroke:none;stroke-width:0.279165"
           d="m 334.09405,127.57504 0.76367,2.33398 1.82618,7.93945 3.3496,17.10157 3.04297,18.97851 2.61914,22.80469 0.54688,14.79297 -0.54688,18.61914 -0.79296,8.73047 -1.39844,10.39257 -2.25391,9.45313 -2.1914,7.65039 -1.46094,3.75195 -1.76563,4.90625 -1.94922,3.89649 -1.21679,2.95898 -2.13086,3.17578 -3.83594,5.99024 -3.65234,3.60742 -3.04492,3.32031 -4.26172,3.46289 -4.62696,2.3086 -3.53125,1.87695 -3.89648,1.71875 5.02344,-0.55078 c 0,0 6.06745,-1.10231 6.61914,-1.24024 0.5517,-0.13793 4.55273,-1.65625 4.55273,-1.65625 l 5.92969,-2.20507 4,-1.79493 5.24219,-2.20507 4.82617,-3.31055 3.44922,-3.17188 4.13672,-3.44921 4.3457,-5.72266 2.41211,-3.03516 1.38086,-2.82812 2.20703,-3.72266 1.99805,-4.68945 1.65625,-3.58594 2.48242,-7.31055 2.55078,-9.03515 1.58789,-9.92969 0.89648,-8.34375 0.61914,-17.79297 -0.61914,-14.13672 -2.96679,-21.79297 -3.44727,-18.13671 -3.79297,-16.34376 -2.06836,-7.58593 -1.79297,-4.6211 -0.69336,-1.00781 -9.65624,0.48828 -7.89844,-0.78125 z" />
        <path
           id="path5325"
           style="opacity:0.214592;fill:#fefefe;fill-opacity:1;stroke:#000000;stroke-width:0.221776"
           d="m 365.88273,127.54836 0.50094,2.24554 1.19793,7.63852 2.19726,16.4534 1.9961,18.2592 1.7181,21.94037 0.35874,14.23229 -0.35874,17.91344 -0.52017,8.39958 -0.91734,9.99868 -1.47851,9.09484 -1.4375,7.36043 -0.95835,3.60974 -1.1582,4.7203 -1.27864,3.74881 -0.79818,2.84683 -1.3978,3.05541 -2.51628,5.7632 -2.39584,3.4707 -1.99739,3.19446 -2.79558,3.33165 -3.03518,2.2211 -2.3164,1.80581 -2.556,1.65361 3.29525,-0.52991 c 0,0 3.9801,-1.06053 4.342,-1.19323 0.36189,-0.1327 2.98647,-1.59348 2.98647,-1.59348 l 3.88973,-2.12149 2.62389,-1.7269 3.43875,-2.12151 3.16586,-3.18506 2.26259,-3.05166 2.71359,-3.31848 2.85067,-5.50576 1.58229,-2.92013 0.90581,-2.72093 1.44775,-3.58157 1.31067,-4.51172 1.08646,-3.45002 1.62841,-7.03347 1.67325,-8.6927 1.04161,-9.55335 0.58807,-8.0275 0.40614,-17.11861 -0.40614,-13.60091 -1.94614,-20.96699 -2.26132,-17.4493 -2.4881,-15.72431 -1.35679,-7.29841 -1.17614,-4.44595 -0.45483,-0.96962 -6.33425,0.46977 -5.18118,-0.75163 z" />
        <path
           style="opacity:0.757463;fill:url(#linearGradient5209);fill-opacity:1;stroke:none;stroke-width:1.374;stroke-dasharray:none;stroke-opacity:1"
           d="m 244.01695,335.11649 37.23517,7.92238 -15.84475,40.14004 -5.80975,23.23897 -11.3554,55.45663 -1.05632,3.16895 1.84856,43.0449 -0.54747,1.97061 -0.93366,0.84029 -1.21376,0.74693 -1.12039,0.5602 -1.12039,0.18673 -1.21376,0.2801 -1.68059,-0.18673 c 0,0 -2.61425,-0.0934 -3.17445,-0.0934 -0.5602,0 -3.36118,-0.2801 -3.36118,-0.2801 l -3.08108,-0.18673 c 0,0 -5.32187,-1.21376 -5.69533,-1.21376 -0.37347,0 -3.54791,-0.65356 -3.54791,-0.65356 l -2.89435,-0.93366 -2.98772,-1.30713 -1.21376,-0.74693 -1.86732,-1.12039 -1.21376,-1.30712 -0.93366,-1.68059 -0.46683,-1.21376 -0.5602,-0.8403 -0.37346,-0.84029 7.74938,-12.69779 11.11057,-25.02211 15.31204,-80.85504 0.2801,-45.93612 z"
           id="path5327" />
        <path
           id="path5329"
           style="opacity:0.757463;fill:#565656;fill-opacity:1;stroke:none;stroke-width:1.374;stroke-dasharray:none;stroke-opacity:1"
           d="m 244.53711,335.11719 0.26953,0.4414 -0.004,0.72657 31.74219,6.7539 -15.8457,40.14063 -5.81055,23.23828 -11.35547,55.45703 -1.05468,3.16797 1.84765,43.04492 -0.54687,1.9707 -0.9336,0.83985 -1.21484,0.74804 -1.11914,0.56055 -1.1211,0.18555 -0.0957,0.0215 c 0.96976,0.0257 2.42969,0.0723 2.42969,0.0723 l 1.68164,0.1875 1.21289,-0.28125 1.12109,-0.18555 1.11915,-0.56055 1.21484,-0.74804 0.93359,-0.83985 0.54688,-1.9707 -1.84766,-43.04492 1.05469,-3.16797 11.35547,-55.45703 5.81054,-23.23828 15.84571,-40.14063 z" />
        <path
           id="path5331"
           style="opacity:0.757463;fill:url(#linearGradient5186);fill-opacity:1;stroke:none;stroke-width:1.374;stroke-dasharray:none;stroke-opacity:1"
           d="m 246.12891,335.11719 0.26953,0.4414 -0.28125,45.93555 -15.31055,80.85547 -11.11133,25.02148 -7.75,12.69727 0.375,0.83984 0.5586,0.8418 0.46679,1.21289 0.9336,1.68164 1.21484,1.30664 1.86719,1.11914 1.21289,0.74805 2.98828,1.30664 2.89453,0.93359 c 0,0 3.17536,0.6543 3.54883,0.6543 0.37346,0 5.69531,1.21289 5.69531,1.21289 l 3.08008,0.1875 c 0,0 2.80113,0.2793 3.36133,0.2793 0.5602,0 3.17383,0.0937 3.17383,0.0937 l 1.68164,0.1875 1.18359,-0.27539 c -0.0599,-9e-4 -0.18819,-0.006 -0.22852,-0.006 -0.56019,0 -3.36132,-0.2793 -3.36132,-0.2793 l -3.08203,-0.1875 c 0,0 -5.32186,-1.21289 -5.69532,-1.21289 -0.37347,0 -3.54687,-0.6543 -3.54687,-0.6543 l -2.89453,-0.93359 -2.98828,-1.30664 -1.21289,-0.74805 -1.86915,-1.11914 -1.21289,-1.30664 -0.93359,-1.68164 -0.4668,-1.21289 -0.56054,-0.8418 -0.37305,-0.83984 7.75,-12.69727 11.10937,-25.02148 15.3125,-80.85547 0.27344,-45.08398 z" />
        <path
           id="path5333"
           style="opacity:0.287313;fill:url(#radialGradient5243);fill-opacity:1;stroke:none;stroke-width:1.37689;stroke-dasharray:none;stroke-opacity:1"
           d="m 244.01758,335.11719 0.26758,0.4414 -0.2793,46.13086 -15.3125,81.19532 -1.30469,2.95117 h 19.80664 l -0.01,-0.2461 1.05664,-3.18164 11.35547,-55.68945 5.81054,-23.33789 15.84375,-40.30859 z" />
        <path
           id="path5409"
           style="opacity:0.735075;fill:#fefefe;fill-opacity:1;stroke:none;stroke-width:0.221776"
           d="m 241.22206,111.80322 -1.04123,2.05164 -3.05158,7.10422 -6.20194,15.39734 -6.45407,17.19673 -7.096,20.83216 -3.87081,13.7005 -4.08693,17.44468 -1.57536,8.26691 -1.58641,9.91456 -0.81895,9.17776 -0.42935,7.48719 0.0349,3.73462 -0.0464,4.8601 0.31082,3.94866 0.0686,2.95581 0.59791,3.30633 1.01128,6.20674 1.46209,3.95576 1.14441,3.5895 1.88382,3.91999 2.39087,2.90333 1.79726,2.32303 2.0671,2.23489 -3.06151,-1.32916 c 0,0 -3.59367,-2.0128 -3.91146,-2.23096 -0.31778,-0.21815 -2.49905,-2.28319 -2.49905,-2.28319 l -3.24348,-3.01836 -2.11473,-2.32271 -2.80653,-2.90674 -2.27885,-3.86964 -1.43673,-3.51679 -1.80763,-3.88694 -1.39898,-6.04009 -0.81015,-3.22093 -0.20404,-2.86048 -0.51607,-3.82848 -0.15299,-4.69576 -0.19858,-3.61158 0.16342,-7.21767 0.53076,-8.83635 1.35576,-9.51385 1.41745,-7.92322 3.84426,-16.68633 3.76043,-13.07704 7.07598,-19.8326 6.51055,-16.3464 6.30324,-14.61895 3.1213,-6.73537 2.24013,-4.01641 0.6807,-0.82684 6.0208,2.0232 5.20598,0.55438 z" />
        <ellipse
           style="opacity:0.511194;fill:url(#linearGradient5473);fill-opacity:1;fill-rule:evenodd;stroke:#000000;stroke-width:1.83103;stroke-dasharray:none;stroke-opacity:1"
           id="path5463"
           cx="325.71002"
           cy="17.072237"
           rx="82.755669"
           ry="11.85936"
           transform="matrix(0.97887183,0.20447478,-0.2122981,0.97720495,0,0)" />
        <ellipse
           style="opacity:0.16791;fill:url(#linearGradient5479);fill-opacity:1;fill-rule:evenodd;stroke:none;stroke-width:1.74254;stroke-dasharray:none;stroke-opacity:1"
           id="ellipse5477"
           cx="325.71002"
           cy="17.072237"
           rx="78.756287"
           ry="11.286225"
           transform="matrix(0.97887183,0.20447478,-0.2122981,0.97720495,0,0)" />
        <ellipse
           style="opacity:0.391791;fill:url(#radialGradient5491);fill-opacity:1;fill-rule:evenodd;stroke:none;stroke-width:1.30561;stroke-dasharray:none;stroke-opacity:1"
           id="ellipse5487"
           cx="326.1196"
           cy="14.054579"
           rx="68.076096"
           ry="7.3299875"
           transform="matrix(0.97634533,0.21621701,-0.34991353,0.936782,0,0)" />
        <ellipse
           style="opacity:0.0746268;fill:url(#radialGradient5503);fill-opacity:1;fill-rule:evenodd;stroke:none;stroke-width:1.33563;stroke-dasharray:none;stroke-opacity:1"
           id="ellipse5501"
           cx="326.1196"
           cy="14.054579"
           rx="69.641411"
           ry="7.4985304"
           transform="matrix(0.97634533,0.21621701,-0.34991353,0.936782,0,0)" />
        <path
           style="opacity:0.937;fill:url(#linearGradient6755);fill-opacity:1;stroke:#000000;stroke-width:0.231;stroke-dasharray:none;stroke-opacity:1"
           d="m 209.14005,500.0688 -5.2285,-0.37347 -8.75703,-0.32158 -5.0175,-0.39612 -4.88547,-0.26408 -6.9981,-0.26408 -4.09322,0.26408 -5.54567,0.26408 h -6.20586 l -8.18645,1.05632 -3.96119,0.52816 -5.28158,1.71651 -2.11264,1.3204 -2.11263,1.58447 0.39612,1.58448 0.79224,1.45243 1.45243,1.84856 1.18836,2.11263 1.32039,1.58448 1.58448,1.58447 2.77283,1.45244 1.98059,1.18835 1.84856,1.45244 1.71651,1.18836 2.50876,0.66019 c 0,0 2.11263,0.6602 2.77283,0.92428 0.66019,0.26408 4.48934,1.98059 4.48934,1.98059 l 9.11074,3.16896 7.39421,2.50875 6.46994,2.64079 10.82725,3.03691 9.37481,2.37671 13.86416,3.30099 12.0156,2.90487 11.09133,1.84856 c 0,0 7.92237,1.18835 8.58257,1.32039 0.6602,0.13204 2.64079,-0.13204 2.64079,-0.13204 l 3.69711,-0.26407 c 0,0 4.22527,0.52815 5.01751,0.52815 0.79223,0 7.79033,0.39612 7.79033,0.39612 0,0 5.41363,0.13204 5.94178,0.13204 0.52816,0 5.67771,-0.13204 5.67771,-0.13204 l 7.26217,-0.13204 1.58448,-0.13204 6.60198,-0.66019 3.30099,-0.52816 1.98059,-0.6602 3.03691,-1.45244 0.92428,-0.66019 1.45244,-1.05632 0.39612,-1.71652 c 0,0 -0.13204,-2.11263 -0.52816,-3.03691 -0.39612,-0.92427 -2.24468,-3.16895 -2.24468,-3.16895 l -3.82914,-3.03691 -4.22527,-2.50875 -6.07382,-3.16895 -6.20586,-3.30099 -6.86606,-2.50875 -6.07382,-2.50875 -7.39422,-1.71652 c 0,0 -4.35731,-2.11263 -5.14955,-2.24467 -0.79223,-0.13204 -6.07382,-2.11264 -6.07382,-2.11264 l -5.28158,-1.84855 -1.71652,-0.6602 -0.66019,-0.26408 v 1.45244 l -1.58448,1.05631 -2.37671,1.05632 -1.71652,0.13204 -0.92427,0.26408 -1.45244,0.26408 -1.71651,-0.13204 -3.16895,-0.26408 -3.56507,-0.26408 -3.82915,-0.52816 -3.56507,-0.79223 c 0,0 -3.56507,-0.6602 -4.09323,-0.79224 -0.52816,-0.13204 -2.77283,-0.79224 -2.77283,-0.79224 l -2.11263,-1.05632 -1.05632,-0.66019 -1.84855,-1.45244 -1.45244,-1.05632 -0.92428,-1.45243 -1.05631,-1.58448 -0.26408,-0.92427 z"
           id="path5559" />
        <path
           style="opacity:0.937;fill:url(#linearGradient6773);fill-opacity:1;stroke:#000000;stroke-width:0.731;stroke-dasharray:none;stroke-opacity:1"
           d="m 140.4226,508.65848 -2.05405,5.41523 v 3.92138 l 0.5602,2.61425 1.30712,1.86732 2.24079,2.05405 2.42752,2.05406 2.98771,2.05405 2.98772,1.68059 2.80098,1.49386 3.36118,1.86732 2.98771,1.12039 4.29484,1.30713 c 0,0 2.42752,1.12039 3.17445,1.49386 0.74693,0.37346 4.10811,1.68059 4.10811,1.68059 l 2.80098,0.93366 3.73465,1.30712 2.05405,0.5602 4.29484,1.86732 3.54791,1.12039 4.10811,0.74693 3.36118,1.1204 5.60197,1.49385 5.97543,1.86732 3.73464,0.37347 6.72236,1.68059 5.60196,1.12039 c 0,0 4.85504,1.1204 5.60197,1.1204 0.74693,0 5.60196,0.93366 5.60196,0.93366 l 6.53563,0.93366 4.10811,0.74693 11.0172,1.49385 11.0172,0.93366 3.36118,-0.18673 4.29484,0.37347 4.29484,-0.18674 h 3.92137 l 7.65602,-0.18673 4.48158,-0.93366 2.98771,-0.18673 3.54791,-0.74693 3.36118,-1.12039 4.10811,-2.42752 1.12039,-1.12039 1.68059,-6.16217 v -2.05405 l -8.58968,2.98771 -3.73464,0.74693 -3.17445,0.5602 -4.10811,0.74693 -3.73464,0.18673 h -3.92138 l -2.98771,-0.18673 h -11.95086 l -2.61425,-0.37347 -3.17445,0.18674 -1.68059,-0.18674 -2.24079,-0.18673 -4.29484,-0.37346 -3.54791,-0.18673 -3.54791,-0.37347 -4.48157,-0.74693 -5.97543,-1.12039 -17.55283,-2.98772 -17.36609,-4.48157 -20.54054,-5.41523 -20.35381,-8.58968 -11.95086,-5.7887 -6.16216,-4.48157 -1.86732,-2.42752 -0.5602,-1.68059 z"
           id="path6759" />
        <path
           id="path6785"
           style="opacity:0.164179;fill:url(#linearGradient6765);fill-opacity:1;stroke:none;stroke-width:1.71497;stroke-dasharray:none;stroke-opacity:1"
           d="m 247.82617,509.66406 v 1.36133 l -1.48437,0.98828 -2.22461,0.99024 -1.60938,0.12304 -0.86523,0.24805 -1.35938,0.24805 -1.60937,-0.125 -2.9668,-0.2461 -3.33984,-0.24804 -3.58594,-0.49414 -3.33984,-0.74219 c 0,0 -2.18818,-0.41281 -3.23047,-0.625 v 28.79492 l 0.63281,0.15039 11.25586,2.7207 10.38867,1.73243 c 0,0 7.41875,1.11265 8.03711,1.23632 C 253.14376,545.90102 255,545.6543 255,545.6543 l 3.46289,-0.24805 c 0,0 3.95718,0.49414 4.69922,0.49414 0.74202,0 7.29687,0.37109 7.29687,0.37109 0,0 5.06978,0.12305 5.56446,0.12305 0.49469,0 5.31836,-0.12305 5.31836,-0.12305 l 6.80273,-0.12304 1.48242,-0.12305 6.1836,-0.61914 3.09179,-0.49414 1.85547,-0.61914 2.84571,-1.35938 0.86523,-0.61914 1.35937,-0.99023 0.3711,-1.60742 c 0,0 -0.12313,-1.97804 -0.49414,-2.84375 -0.37102,-0.8657 -2.10156,-2.96875 -2.10156,-2.96875 l -3.5879,-2.84375 -3.95703,-2.34961 -5.68945,-2.96875 -5.8125,-3.0918 -6.42969,-2.34961 -5.68945,-2.34961 -6.92578,-1.60742 c 0,0 -4.08218,-1.97985 -4.82422,-2.10352 C 259.94548,514.11655 255,512.26172 255,512.26172 l -4.94727,-1.73047 -1.60742,-0.61914 z" />
      </g>
      <g
         id="g7004"
         transform="matrix(-0.98784802,0.15542292,0.15542292,0.98784802,762.16496,-26.598151)">
        <g
           id="g8698">
          <g
             id="g6966">
            <path
               style="opacity:0.604478;fill:url(#linearGradient7006);fill-opacity:1;stroke:#000000;stroke-width:2.069;stroke-dasharray:none"
               d="m 235.69364,69.632713 -32.4812,40.145317 -6.20428,11.31368 -3.64957,6.20427 -6.20428,10.2188 -4.37949,8.02907 -4.37949,7.6641 -2.91965,6.56924 -5.47437,12.04359 -4.37948,12.77351 -4.01454,11.67864 -5.1094,22.62735 -0.72991,11.67864 0.36495,12.77351 1.82479,12.7735 1.82479,8.39402 3.64957,7.29915 5.1094,10.94872 9.85385,12.0436 8.75898,9.12393 10.21881,6.56924 11.67864,6.20427 7.29914,3.64957 8.02906,4.37949 8.75898,2.55471 8.75898,3.64957 3.64957,1.82478 38.32052,7.48163 9.12394,0.18247 6.93419,0.36497 22.80984,-0.54744 11.67863,-1.27735 c 0,0 8.02907,-1.45983 8.75897,-1.64231 0.72992,-0.18248 6.02181,-2.18974 6.02181,-2.18974 l 7.84658,-2.91966 5.29188,-2.37222 6.93419,-2.91967 6.38675,-4.37948 4.56197,-4.19701 5.47436,-4.56198 5.74808,-7.57286 3.19338,-4.01453 1.82478,-3.74081 2.91967,-4.92693 2.64594,-6.20427 2.18974,-4.74445 3.28462,-9.67137 3.37586,-11.95235 2.0985,-13.13847 1.18611,-11.03996 0.82115,-23.53975 -0.82115,-18.70406 -3.9233,-28.83163 -4.56196,-23.99596 -5.01817,-21.62372 -2.73718,-10.03632 -2.37222,-6.11304 -0.91656,-1.33319 -12.77416,0.64516 -10.45157,-1.03225 -18.19351,-1.93548 -17.4193,-3.096764 -20.90318,-3.612894 -28.12896,-6.193532 -16.51608,-4.129021 -19.48382,-5.677404 -7.35482,-2.580639 -4.90322,-2.709671 -2.8387,-1.935478 z"
               id="path6946" />
            <path
               style="opacity:0.847015;fill:url(#linearGradient7008);fill-opacity:1;stroke:url(#linearGradient7010);stroke-width:1.374;stroke-dasharray:none;stroke-opacity:1"
               d="m 164.69649,248.83062 5.22856,20.99834 3.73468,6.63106 4.85509,9.20979 8.2163,11.78854 8.58977,8.47302 14.56527,10.31497 9.71017,4.78909 13.07139,4.05232 14.93874,4.78908 17.17954,4.4207 13.07139,2.94714 h 12.69792 l 14.56526,0.36839 18.29996,-0.36839 13.81832,-1.47357 11.57751,-2.57874 7.84285,-2.94713 4.85508,-2.57874 5.60203,-2.21036 c 0,0 5.22855,-3.31552 6.72243,-4.05231 1.49387,-0.73678 6.72243,-6.26266 6.72243,-6.26266 l 7.09589,-6.99945 4.48162,-6.26266 3.73469,-6.26265 3.73468,-6.63106 4.10815,-11.05175 3.73468,-11.42016 1.49388,-10.68336 2.24081,-13.99889 -0.37347,-5.15748 -4.85509,-1.47357 -7.0959,-2.57875 -25.76931,-2.21035 -26.88972,-0.36839 -19.79382,-0.73678 -19.42035,0.36838 -15.3122,0.3684 -17.92648,0.73679 -21.66117,0.73677 -19.42035,1.47357 -14.19179,0.73679 -16.80608,2.21035 -13.07139,1.10517 -14.1918,2.94713 -5.97549,1.47357 -4.10815,1.10519 z"
               id="path6948" />
            <path
               id="path6950"
               style="opacity:0.480687;fill:#efefef;fill-opacity:1;stroke:none;stroke-width:0.343945"
               d="m 238.14648,80.132812 -29.2832,36.195308 -5.7793,10.53516 -3.39843,5.7793 -5.77735,9.51562 -4.07812,7.47657 -4.07813,7.13671 -2.71875,6.11719 -5.09765,11.2168 -4.07813,11.89453 -3.73828,10.875 -4.75781,21.07227 -0.67969,10.875 0.33984,11.89453 1.69922,11.89453 1.69922,7.81836 3.39844,6.79687 4.75781,10.19532 3.69336,4.51367 -3.5293,-8.29102 -3.25195,-7.13281 -1.625,-8.19922 -1.625,-12.48047 -0.32617,-12.47851 0.65039,-11.41016 4.55273,-22.10742 3.57618,-11.41016 3.90039,-12.47851 4.87695,-11.76758 2.60156,-6.41797 3.90235,-7.48828 3.90039,-7.84375 5.52734,-9.98438 3.25195,-6.06054 5.52735,-11.05274 z m 148.96875,29.515628 -3.52343,0.17773 2.04297,5.77344 2.4375,9.80469 4.4707,21.125 4.06445,23.44531 3.4961,28.16797 0.73046,18.27344 -0.73046,22.99804 -1.0586,10.78516 -1.86914,12.83789 -3.00586,11.67578 -2.92773,9.44922 -1.94922,4.63477 -2.35742,6.0625 -1.50196,2.77929 1.68555,-2.11914 1.69922,-3.48437 2.71875,-4.58789 2.46484,-5.77735 2.03907,-4.41797 3.05859,-9.00586 3.14258,-11.13086 1.95508,-12.23437 1.10351,-10.28125 0.76563,-21.92188 -0.76563,-17.41601 -3.65234,-26.84961 -4.24805,-22.3457 -4.67383,-20.13672 -2.54883,-9.34571 -2.20898,-5.69336 z" />
            <path
               id="path6952"
               style="opacity:0.828326;fill:url(#linearGradient7012);fill-opacity:1;stroke:none;stroke-width:1.26172;stroke-dasharray:none;stroke-opacity:1"
               d="m 401.07617,244.92969 -6.88086,0.125 0.17774,2.44531 -1.93555,12.09375 -1.29102,9.22852 -3.22656,9.86328 -3.54883,9.54687 -3.22461,5.72852 -3.22656,5.41015 -3.87109,5.40821 -6.12891,6.04687 c 0,0 -4.51818,4.77373 -5.80859,5.41016 -1.29041,0.63644 -5.80664,3.5 -5.80664,3.5 l -4.83789,1.91015 -4.19336,2.22657 -6.77539,2.54492 -10,2.22851 -11.9375,1.27344 -15.80664,0.31836 -12.58203,-0.31836 h -10.96876 l -11.29101,-2.54687 -14.83984,-3.81836 -12.9043,-4.13672 -11.29102,-3.5 -8.38672,-4.13672 -12.58203,-8.91016 -7.41992,-7.32031 -7.09766,-10.18164 -4.19335,-7.95508 -3.22657,-5.72851 -4.51562,-18.13867 -0.27539,-4.61719 -6.58399,0.11914 0.15625,2.61133 4.80078,19.2832 3.42969,6.08789 4.45899,8.45703 7.54492,10.82617 7.88672,7.78125 13.375,9.47071 8.91601,4.39843 12.00391,3.72071 13.71875,4.39843 15.77539,4.0586 12.00195,2.70703 h 11.66211 l 13.375,0.33789 16.80274,-0.33789 12.68945,-1.35352 10.63281,-2.36718 7.20117,-2.70703 4.45899,-2.36719 5.14258,-2.03125 c 0,0 4.80204,-3.04413 6.17382,-3.72071 1.37179,-0.67655 6.17383,-5.75 6.17383,-5.75 l 6.51563,-6.42773 4.11523,-5.75195 3.42969,-5.75 3.42969,-6.08985 3.77148,-10.14843 3.42969,-10.48633 1.37109,-9.81055 2.0586,-12.85547 z" />
            <path
               id="path6954"
               style="opacity:0.381974;fill:#fefefe;fill-opacity:1;stroke:none;stroke-width:0.279165"
               d="m 334.09405,127.57504 0.76367,2.33398 1.82618,7.93945 3.3496,17.10157 3.04297,18.97851 2.61914,22.80469 0.54688,14.79297 -0.54688,18.61914 -0.79296,8.73047 -1.39844,10.39257 -2.25391,9.45313 -2.1914,7.65039 -1.46094,3.75195 -1.76563,4.90625 -1.94922,3.89649 -1.21679,2.95898 -2.13086,3.17578 -3.83594,5.99024 -3.65234,3.60742 -3.04492,3.32031 -4.26172,3.46289 -4.62696,2.3086 -3.53125,1.87695 -3.89648,1.71875 5.02344,-0.55078 c 0,0 6.06745,-1.10231 6.61914,-1.24024 0.5517,-0.13793 4.55273,-1.65625 4.55273,-1.65625 l 5.92969,-2.20507 4,-1.79493 5.24219,-2.20507 4.82617,-3.31055 3.44922,-3.17188 4.13672,-3.44921 4.3457,-5.72266 2.41211,-3.03516 1.38086,-2.82812 2.20703,-3.72266 1.99805,-4.68945 1.65625,-3.58594 2.48242,-7.31055 2.55078,-9.03515 1.58789,-9.92969 0.89648,-8.34375 0.61914,-17.79297 -0.61914,-14.13672 -2.96679,-21.79297 -3.44727,-18.13671 -3.79297,-16.34376 -2.06836,-7.58593 -1.79297,-4.6211 -0.69336,-1.00781 -9.65624,0.48828 -7.89844,-0.78125 z" />
            <path
               id="path6956"
               style="opacity:0.214592;fill:#fefefe;fill-opacity:1;stroke:#000000;stroke-width:0.221776"
               d="m 365.88273,127.54836 0.50094,2.24554 1.19793,7.63852 2.19726,16.4534 1.9961,18.2592 1.7181,21.94037 0.35874,14.23229 -0.35874,17.91344 -0.52017,8.39958 -0.91734,9.99868 -1.47851,9.09484 -1.4375,7.36043 -0.95835,3.60974 -1.1582,4.7203 -1.27864,3.74881 -0.79818,2.84683 -1.3978,3.05541 -2.51628,5.7632 -2.39584,3.4707 -1.99739,3.19446 -2.79558,3.33165 -3.03518,2.2211 -2.3164,1.80581 -2.556,1.65361 3.29525,-0.52991 c 0,0 3.9801,-1.06053 4.342,-1.19323 0.36189,-0.1327 2.98647,-1.59348 2.98647,-1.59348 l 3.88973,-2.12149 2.62389,-1.7269 3.43875,-2.12151 3.16586,-3.18506 2.26259,-3.05166 2.71359,-3.31848 2.85067,-5.50576 1.58229,-2.92013 0.90581,-2.72093 1.44775,-3.58157 1.31067,-4.51172 1.08646,-3.45002 1.62841,-7.03347 1.67325,-8.6927 1.04161,-9.55335 0.58807,-8.0275 0.40614,-17.11861 -0.40614,-13.60091 -1.94614,-20.96699 -2.26132,-17.4493 -2.4881,-15.72431 -1.35679,-7.29841 -1.17614,-4.44595 -0.45483,-0.96962 -6.33425,0.46977 -5.18118,-0.75163 z" />
            <path
               style="opacity:0.757463;fill:url(#linearGradient7014);fill-opacity:1;stroke:none;stroke-width:1.374;stroke-dasharray:none;stroke-opacity:1"
               d="m 244.01695,335.11649 37.23517,7.92238 -15.84475,40.14004 -5.80975,23.23897 -11.3554,55.45663 -1.05632,3.16895 1.84856,43.0449 -0.54747,1.97061 -0.93366,0.84029 -1.21376,0.74693 -1.12039,0.5602 -1.12039,0.18673 -1.21376,0.2801 -1.68059,-0.18673 c 0,0 -2.61425,-0.0934 -3.17445,-0.0934 -0.5602,0 -3.36118,-0.2801 -3.36118,-0.2801 l -3.08108,-0.18673 c 0,0 -5.32187,-1.21376 -5.69533,-1.21376 -0.37347,0 -3.54791,-0.65356 -3.54791,-0.65356 l -2.89435,-0.93366 -2.98772,-1.30713 -1.21376,-0.74693 -1.86732,-1.12039 -1.21376,-1.30712 -0.93366,-1.68059 -0.46683,-1.21376 -0.5602,-0.8403 -0.37346,-0.84029 7.74938,-12.69779 11.11057,-25.02211 15.31204,-80.85504 0.2801,-45.93612 z"
               id="path6958" />
            <path
               id="path6960"
               style="opacity:0.757463;fill:#565656;fill-opacity:1;stroke:none;stroke-width:1.374;stroke-dasharray:none;stroke-opacity:1"
               d="m 244.53711,335.11719 0.26953,0.4414 -0.004,0.72657 31.74219,6.7539 -15.8457,40.14063 -5.81055,23.23828 -11.35547,55.45703 -1.05468,3.16797 1.84765,43.04492 -0.54687,1.9707 -0.9336,0.83985 -1.21484,0.74804 -1.11914,0.56055 -1.1211,0.18555 -0.0957,0.0215 c 0.96976,0.0257 2.42969,0.0723 2.42969,0.0723 l 1.68164,0.1875 1.21289,-0.28125 1.12109,-0.18555 1.11915,-0.56055 1.21484,-0.74804 0.93359,-0.83985 0.54688,-1.9707 -1.84766,-43.04492 1.05469,-3.16797 11.35547,-55.45703 5.81054,-23.23828 15.84571,-40.14063 z" />
            <path
               id="path6962"
               style="opacity:0.757463;fill:url(#linearGradient7016);fill-opacity:1;stroke:none;stroke-width:1.374;stroke-dasharray:none;stroke-opacity:1"
               d="m 246.12891,335.11719 0.26953,0.4414 -0.28125,45.93555 -15.31055,80.85547 -11.11133,25.02148 -7.75,12.69727 0.375,0.83984 0.5586,0.8418 0.46679,1.21289 0.9336,1.68164 1.21484,1.30664 1.86719,1.11914 1.21289,0.74805 2.98828,1.30664 2.89453,0.93359 c 0,0 3.17536,0.6543 3.54883,0.6543 0.37346,0 5.69531,1.21289 5.69531,1.21289 l 3.08008,0.1875 c 0,0 2.80113,0.2793 3.36133,0.2793 0.5602,0 3.17383,0.0937 3.17383,0.0937 l 1.68164,0.1875 1.18359,-0.27539 c -0.0599,-9e-4 -0.18819,-0.006 -0.22852,-0.006 -0.56019,0 -3.36132,-0.2793 -3.36132,-0.2793 l -3.08203,-0.1875 c 0,0 -5.32186,-1.21289 -5.69532,-1.21289 -0.37347,0 -3.54687,-0.6543 -3.54687,-0.6543 l -2.89453,-0.93359 -2.98828,-1.30664 -1.21289,-0.74805 -1.86915,-1.11914 -1.21289,-1.30664 -0.93359,-1.68164 -0.4668,-1.21289 -0.56054,-0.8418 -0.37305,-0.83984 7.75,-12.69727 11.10937,-25.02148 15.3125,-80.85547 0.27344,-45.08398 z" />
            <path
               id="path6964"
               style="opacity:0.287313;fill:url(#radialGradient7018);fill-opacity:1;stroke:none;stroke-width:1.37689;stroke-dasharray:none;stroke-opacity:1"
               d="m 244.01758,335.11719 0.26758,0.4414 -0.2793,46.13086 -15.3125,81.19532 -1.30469,2.95117 h 19.80664 l -0.01,-0.2461 1.05664,-3.18164 11.35547,-55.68945 5.81054,-23.33789 15.84375,-40.30859 z" />
          </g>
          <path
             style="opacity:0.604478;fill:url(#linearGradient7020);fill-opacity:1;stroke:#000000;stroke-width:2.069;stroke-dasharray:none"
             d="m 235.69364,69.632713 -32.4812,40.145317 -6.20428,11.31368 -3.64957,6.20427 -6.20428,10.2188 -4.37949,8.02907 -4.37949,7.6641 -2.91965,6.56924 -5.47437,12.04359 -4.37948,12.77351 -4.01454,11.67864 -5.1094,22.62735 -0.72991,11.67864 0.36495,12.77351 1.82479,12.7735 1.82479,8.39402 3.64957,7.29915 5.1094,10.94872 9.85385,12.0436 8.75898,9.12393 10.21881,6.56924 11.67864,6.20427 7.29914,3.64957 8.02906,4.37949 8.75898,2.55471 8.75898,3.64957 3.64957,1.82478 38.32052,7.48163 9.12394,0.18247 6.93419,0.36497 22.80984,-0.54744 11.67863,-1.27735 c 0,0 8.02907,-1.45983 8.75897,-1.64231 0.72992,-0.18248 6.02181,-2.18974 6.02181,-2.18974 l 7.84658,-2.91966 5.29188,-2.37222 6.93419,-2.91967 6.38675,-4.37948 4.56197,-4.19701 5.47436,-4.56198 5.74808,-7.57286 3.19338,-4.01453 1.82478,-3.74081 2.91967,-4.92693 2.64594,-6.20427 2.18974,-4.74445 3.28462,-9.67137 3.37586,-11.95235 2.0985,-13.13847 1.18611,-11.03996 0.82115,-23.53975 -0.82115,-18.70406 -3.9233,-28.83163 -4.56196,-23.99596 -5.01817,-21.62372 -2.73718,-10.03632 -2.37222,-6.11304 -0.91656,-1.33319 -12.77416,0.64516 -10.45157,-1.03225 -18.19351,-1.93548 -17.4193,-3.096764 -20.90318,-3.612894 -28.12896,-6.193532 -16.51608,-4.129021 -19.48382,-5.677404 -7.35482,-2.580639 -4.90322,-2.709671 -2.8387,-1.935478 z"
             id="path6968" />
          <path
             style="opacity:0.847015;fill:url(#linearGradient7022);fill-opacity:1;stroke:url(#linearGradient7024);stroke-width:1.374;stroke-dasharray:none;stroke-opacity:1"
             d="m 164.69649,248.83062 5.22856,20.99834 3.73468,6.63106 4.85509,9.20979 8.2163,11.78854 8.58977,8.47302 14.56527,10.31497 9.71017,4.78909 13.07139,4.05232 14.93874,4.78908 17.17954,4.4207 13.07139,2.94714 h 12.69792 l 14.56526,0.36839 18.29996,-0.36839 13.81832,-1.47357 11.57751,-2.57874 7.84285,-2.94713 4.85508,-2.57874 5.60203,-2.21036 c 0,0 5.22855,-3.31552 6.72243,-4.05231 1.49387,-0.73678 6.72243,-6.26266 6.72243,-6.26266 l 7.09589,-6.99945 4.48162,-6.26266 3.73469,-6.26265 3.73468,-6.63106 4.10815,-11.05175 3.73468,-11.42016 1.49388,-10.68336 2.24081,-13.99889 -0.37347,-5.15748 -4.85509,-1.47357 -7.0959,-2.57875 -25.76931,-2.21035 -26.88972,-0.36839 -19.79382,-0.73678 -19.42035,0.36838 -15.3122,0.3684 -17.92648,0.73679 -21.66117,0.73677 -19.42035,1.47357 -14.19179,0.73679 -16.80608,2.21035 -13.07139,1.10517 -14.1918,2.94713 -5.97549,1.47357 -4.10815,1.10519 z"
             id="path6970" />
          <path
             id="path6972"
             style="opacity:0.480687;fill:#d0d0d0;fill-opacity:1;stroke:none;stroke-width:0.343945"
             d="m 238.14648,80.132812 -29.2832,36.195308 -5.7793,10.53516 -3.39843,5.7793 -5.77735,9.51562 -4.07812,7.47657 -4.07813,7.13671 -2.71875,6.11719 -5.09765,11.2168 -4.07813,11.89453 -3.73828,10.875 -4.75781,21.07227 -0.67969,10.875 0.33984,11.89453 1.69922,11.89453 1.69922,7.81836 3.39844,6.79687 4.75781,10.19532 3.69336,4.51367 -3.5293,-8.29102 -3.25195,-7.13281 -1.625,-8.19922 -1.625,-12.48047 -0.32617,-12.47851 0.65039,-11.41016 4.55273,-22.10742 3.57618,-11.41016 3.90039,-12.47851 4.87695,-11.76758 2.60156,-6.41797 3.90235,-7.48828 3.90039,-7.84375 5.52734,-9.98438 3.25195,-6.06054 5.52735,-11.05274 z m 148.96875,29.515628 -3.52343,0.17773 2.04297,5.77344 2.4375,9.80469 4.4707,21.125 4.06445,23.44531 3.4961,28.16797 0.73046,18.27344 -0.73046,22.99804 -1.0586,10.78516 -1.86914,12.83789 -3.00586,11.67578 -2.92773,9.44922 -1.94922,4.63477 -2.35742,6.0625 -1.50196,2.77929 1.68555,-2.11914 1.69922,-3.48437 2.71875,-4.58789 2.46484,-5.77735 2.03907,-4.41797 3.05859,-9.00586 3.14258,-11.13086 1.95508,-12.23437 1.10351,-10.28125 0.76563,-21.92188 -0.76563,-17.41601 -3.65234,-26.84961 -4.24805,-22.3457 -4.67383,-20.13672 -2.54883,-9.34571 -2.20898,-5.69336 z" />
          <path
             id="path6974"
             style="opacity:0.828326;fill:url(#linearGradient7026);fill-opacity:1;stroke:none;stroke-width:1.26172;stroke-dasharray:none;stroke-opacity:1"
             d="m 401.07617,244.92969 -6.88086,0.125 0.17774,2.44531 -1.93555,12.09375 -1.29102,9.22852 -3.22656,9.86328 -3.54883,9.54687 -3.22461,5.72852 -3.22656,5.41015 -3.87109,5.40821 -6.12891,6.04687 c 0,0 -4.51818,4.77373 -5.80859,5.41016 -1.29041,0.63644 -5.80664,3.5 -5.80664,3.5 l -4.83789,1.91015 -4.19336,2.22657 -6.77539,2.54492 -10,2.22851 -11.9375,1.27344 -15.80664,0.31836 -12.58203,-0.31836 h -10.96876 l -11.29101,-2.54687 -14.83984,-3.81836 -12.9043,-4.13672 -11.29102,-3.5 -8.38672,-4.13672 -12.58203,-8.91016 -7.41992,-7.32031 -7.09766,-10.18164 -4.19335,-7.95508 -3.22657,-5.72851 -4.51562,-18.13867 -0.27539,-4.61719 -6.58399,0.11914 0.15625,2.61133 4.80078,19.2832 3.42969,6.08789 4.45899,8.45703 7.54492,10.82617 7.88672,7.78125 13.375,9.47071 8.91601,4.39843 12.00391,3.72071 13.71875,4.39843 15.77539,4.0586 12.00195,2.70703 h 11.66211 l 13.375,0.33789 16.80274,-0.33789 12.68945,-1.35352 10.63281,-2.36718 7.20117,-2.70703 4.45899,-2.36719 5.14258,-2.03125 c 0,0 4.80204,-3.04413 6.17382,-3.72071 1.37179,-0.67655 6.17383,-5.75 6.17383,-5.75 l 6.51563,-6.42773 4.11523,-5.75195 3.42969,-5.75 3.42969,-6.08985 3.77148,-10.14843 3.42969,-10.48633 1.37109,-9.81055 2.0586,-12.85547 z" />
          <path
             id="path6976"
             style="opacity:0.381974;fill:#fefefe;fill-opacity:1;stroke:none;stroke-width:0.279165"
             d="m 334.09405,127.57504 0.76367,2.33398 1.82618,7.93945 3.3496,17.10157 3.04297,18.97851 2.61914,22.80469 0.54688,14.79297 -0.54688,18.61914 -0.79296,8.73047 -1.39844,10.39257 -2.25391,9.45313 -2.1914,7.65039 -1.46094,3.75195 -1.76563,4.90625 -1.94922,3.89649 -1.21679,2.95898 -2.13086,3.17578 -3.83594,5.99024 -3.65234,3.60742 -3.04492,3.32031 -4.26172,3.46289 -4.62696,2.3086 -3.53125,1.87695 -3.89648,1.71875 5.02344,-0.55078 c 0,0 6.06745,-1.10231 6.61914,-1.24024 0.5517,-0.13793 4.55273,-1.65625 4.55273,-1.65625 l 5.92969,-2.20507 4,-1.79493 5.24219,-2.20507 4.82617,-3.31055 3.44922,-3.17188 4.13672,-3.44921 4.3457,-5.72266 2.41211,-3.03516 1.38086,-2.82812 2.20703,-3.72266 1.99805,-4.68945 1.65625,-3.58594 2.48242,-7.31055 2.55078,-9.03515 1.58789,-9.92969 0.89648,-8.34375 0.61914,-17.79297 -0.61914,-14.13672 -2.96679,-21.79297 -3.44727,-18.13671 -3.79297,-16.34376 -2.06836,-7.58593 -1.79297,-4.6211 -0.69336,-1.00781 -9.65624,0.48828 -7.89844,-0.78125 z" />
          <path
             id="path6978"
             style="opacity:0.214592;fill:#fefefe;fill-opacity:1;stroke:#000000;stroke-width:0.221776"
             d="m 365.88273,127.54836 0.50094,2.24554 1.19793,7.63852 2.19726,16.4534 1.9961,18.2592 1.7181,21.94037 0.35874,14.23229 -0.35874,17.91344 -0.52017,8.39958 -0.91734,9.99868 -1.47851,9.09484 -1.4375,7.36043 -0.95835,3.60974 -1.1582,4.7203 -1.27864,3.74881 -0.79818,2.84683 -1.3978,3.05541 -2.51628,5.7632 -2.39584,3.4707 -1.99739,3.19446 -2.79558,3.33165 -3.03518,2.2211 -2.3164,1.80581 -2.556,1.65361 3.29525,-0.52991 c 0,0 3.9801,-1.06053 4.342,-1.19323 0.36189,-0.1327 2.98647,-1.59348 2.98647,-1.59348 l 3.88973,-2.12149 2.62389,-1.7269 3.43875,-2.12151 3.16586,-3.18506 2.26259,-3.05166 2.71359,-3.31848 2.85067,-5.50576 1.58229,-2.92013 0.90581,-2.72093 1.44775,-3.58157 1.31067,-4.51172 1.08646,-3.45002 1.62841,-7.03347 1.67325,-8.6927 1.04161,-9.55335 0.58807,-8.0275 0.40614,-17.11861 -0.40614,-13.60091 -1.94614,-20.96699 -2.26132,-17.4493 -2.4881,-15.72431 -1.35679,-7.29841 -1.17614,-4.44595 -0.45483,-0.96962 -6.33425,0.46977 -5.18118,-0.75163 z" />
          <path
             style="opacity:0.757463;fill:url(#linearGradient7028);fill-opacity:1;stroke:none;stroke-width:1.374;stroke-dasharray:none;stroke-opacity:1"
             d="m 244.01695,335.11649 37.23517,7.92238 -15.84475,40.14004 -5.80975,23.23897 -11.3554,55.45663 -1.05632,3.16895 1.84856,43.0449 -0.54747,1.97061 -0.93366,0.84029 -1.21376,0.74693 -1.12039,0.5602 -1.12039,0.18673 -1.21376,0.2801 -1.68059,-0.18673 c 0,0 -2.61425,-0.0934 -3.17445,-0.0934 -0.5602,0 -3.36118,-0.2801 -3.36118,-0.2801 l -3.08108,-0.18673 c 0,0 -5.32187,-1.21376 -5.69533,-1.21376 -0.37347,0 -3.54791,-0.65356 -3.54791,-0.65356 l -2.89435,-0.93366 -2.98772,-1.30713 -1.21376,-0.74693 -1.86732,-1.12039 -1.21376,-1.30712 -0.93366,-1.68059 -0.46683,-1.21376 -0.5602,-0.8403 -0.37346,-0.84029 7.74938,-12.69779 11.11057,-25.02211 15.31204,-80.85504 0.2801,-45.93612 z"
             id="path6980" />
          <path
             id="path6982"
             style="opacity:0.757463;fill:#565656;fill-opacity:1;stroke:none;stroke-width:1.374;stroke-dasharray:none;stroke-opacity:1"
             d="m 244.53711,335.11719 0.26953,0.4414 -0.004,0.72657 31.74219,6.7539 -15.8457,40.14063 -5.81055,23.23828 -11.35547,55.45703 -1.05468,3.16797 1.84765,43.04492 -0.54687,1.9707 -0.9336,0.83985 -1.21484,0.74804 -1.11914,0.56055 -1.1211,0.18555 -0.0957,0.0215 c 0.96976,0.0257 2.42969,0.0723 2.42969,0.0723 l 1.68164,0.1875 1.21289,-0.28125 1.12109,-0.18555 1.11915,-0.56055 1.21484,-0.74804 0.93359,-0.83985 0.54688,-1.9707 -1.84766,-43.04492 1.05469,-3.16797 11.35547,-55.45703 5.81054,-23.23828 15.84571,-40.14063 z" />
          <path
             id="path6984"
             style="opacity:0.757463;fill:url(#linearGradient7030);fill-opacity:1;stroke:none;stroke-width:1.374;stroke-dasharray:none;stroke-opacity:1"
             d="m 246.12891,335.11719 0.26953,0.4414 -0.28125,45.93555 -15.31055,80.85547 -11.11133,25.02148 -7.75,12.69727 0.375,0.83984 0.5586,0.8418 0.46679,1.21289 0.9336,1.68164 1.21484,1.30664 1.86719,1.11914 1.21289,0.74805 2.98828,1.30664 2.89453,0.93359 c 0,0 3.17536,0.6543 3.54883,0.6543 0.37346,0 5.69531,1.21289 5.69531,1.21289 l 3.08008,0.1875 c 0,0 2.80113,0.2793 3.36133,0.2793 0.5602,0 3.17383,0.0937 3.17383,0.0937 l 1.68164,0.1875 1.18359,-0.27539 c -0.0599,-9e-4 -0.18819,-0.006 -0.22852,-0.006 -0.56019,0 -3.36132,-0.2793 -3.36132,-0.2793 l -3.08203,-0.1875 c 0,0 -5.32186,-1.21289 -5.69532,-1.21289 -0.37347,0 -3.54687,-0.6543 -3.54687,-0.6543 l -2.89453,-0.93359 -2.98828,-1.30664 -1.21289,-0.74805 -1.86915,-1.11914 -1.21289,-1.30664 -0.93359,-1.68164 -0.4668,-1.21289 -0.56054,-0.8418 -0.37305,-0.83984 7.75,-12.69727 11.10937,-25.02148 15.3125,-80.85547 0.27344,-45.08398 z" />
          <path
             id="path6986"
             style="opacity:0.287313;fill:url(#radialGradient7032);fill-opacity:1;stroke:none;stroke-width:1.37689;stroke-dasharray:none;stroke-opacity:1"
             d="m 244.01758,335.11719 0.26758,0.4414 -0.2793,46.13086 -15.3125,81.19532 -1.30469,2.95117 h 19.80664 l -0.01,-0.2461 1.05664,-3.18164 11.35547,-55.68945 5.81054,-23.33789 15.84375,-40.30859 z" />
          <path
             id="path6988"
             style="opacity:0.735075;fill:#fefefe;fill-opacity:1;stroke:none;stroke-width:0.221776"
             d="m 241.22206,111.80322 -1.04123,2.05164 -3.05158,7.10422 -6.20194,15.39734 -6.45407,17.19673 -7.096,20.83216 -3.87081,13.7005 -4.08693,17.44468 -1.57536,8.26691 -1.58641,9.91456 -0.81895,9.17776 -0.42935,7.48719 0.0349,3.73462 -0.0464,4.8601 0.31082,3.94866 0.0686,2.95581 0.59791,3.30633 1.01128,6.20674 1.46209,3.95576 1.14441,3.5895 1.88382,3.91999 2.39087,2.90333 1.79726,2.32303 2.0671,2.23489 -3.06151,-1.32916 c 0,0 -3.59367,-2.0128 -3.91146,-2.23096 -0.31778,-0.21815 -2.49905,-2.28319 -2.49905,-2.28319 l -3.24348,-3.01836 -2.11473,-2.32271 -2.80653,-2.90674 -2.27885,-3.86964 -1.43673,-3.51679 -1.80763,-3.88694 -1.39898,-6.04009 -0.81015,-3.22093 -0.20404,-2.86048 -0.51607,-3.82848 -0.15299,-4.69576 -0.19858,-3.61158 0.16342,-7.21767 0.53076,-8.83635 1.35576,-9.51385 1.41745,-7.92322 3.84426,-16.68633 3.76043,-13.07704 7.07598,-19.8326 6.51055,-16.3464 6.30324,-14.61895 3.1213,-6.73537 2.24013,-4.01641 0.6807,-0.82684 6.0208,2.0232 5.20598,0.55438 z" />
          <ellipse
             style="opacity:0.376866;fill:url(#linearGradient7034);fill-opacity:1;fill-rule:evenodd;stroke:#000000;stroke-width:1.83103;stroke-dasharray:none;stroke-opacity:1"
             id="ellipse6990"
             cx="325.71002"
             cy="17.072237"
             rx="82.755669"
             ry="11.85936"
             transform="matrix(0.97887183,0.20447478,-0.2122981,0.97720495,0,0)" />
          <ellipse
             style="opacity:0.134328;fill:url(#linearGradient7036);fill-opacity:1;fill-rule:evenodd;stroke:none;stroke-width:1.74254;stroke-dasharray:none;stroke-opacity:1"
             id="ellipse6992"
             cx="325.71002"
             cy="17.072237"
             rx="78.756287"
             ry="11.286225"
             transform="matrix(0.97887183,0.20447478,-0.2122981,0.97720495,0,0)" />
          <ellipse
             style="opacity:0.391791;fill:url(#radialGradient7038);fill-opacity:1;fill-rule:evenodd;stroke:none;stroke-width:1.30561;stroke-dasharray:none;stroke-opacity:1"
             id="ellipse6994"
             cx="326.1196"
             cy="14.054579"
             rx="68.076096"
             ry="7.3299875"
             transform="matrix(0.97634533,0.21621701,-0.34991353,0.936782,0,0)" />
          <ellipse
             style="opacity:0.134328;fill:url(#radialGradient7040);fill-opacity:1;fill-rule:evenodd;stroke:none;stroke-width:1.33563;stroke-dasharray:none;stroke-opacity:1"
             id="ellipse6996"
             cx="326.1196"
             cy="14.054579"
             rx="69.641411"
             ry="7.4985304"
             transform="matrix(0.97634533,0.21621701,-0.34991353,0.936782,0,0)" />
          <path
             style="opacity:0.937;fill:url(#linearGradient7042);fill-opacity:1;stroke:#000000;stroke-width:0.231;stroke-dasharray:none;stroke-opacity:1"
             d="m 209.14005,500.0688 -5.2285,-0.37347 -8.75703,-0.32158 -5.0175,-0.39612 -4.88547,-0.26408 -6.9981,-0.26408 -4.09322,0.26408 -5.54567,0.26408 h -6.20586 l -8.18645,1.05632 -3.96119,0.52816 -5.28158,1.71651 -2.11264,1.3204 -2.11263,1.58447 0.39612,1.58448 0.79224,1.45243 1.45243,1.84856 1.18836,2.11263 1.32039,1.58448 1.58448,1.58447 2.77283,1.45244 1.98059,1.18835 1.84856,1.45244 1.71651,1.18836 2.50876,0.66019 c 0,0 2.11263,0.6602 2.77283,0.92428 0.66019,0.26408 4.48934,1.98059 4.48934,1.98059 l 9.11074,3.16896 7.39421,2.50875 6.46994,2.64079 10.82725,3.03691 9.37481,2.37671 13.86416,3.30099 12.0156,2.90487 11.09133,1.84856 c 0,0 7.92237,1.18835 8.58257,1.32039 0.6602,0.13204 2.64079,-0.13204 2.64079,-0.13204 l 3.69711,-0.26407 c 0,0 4.22527,0.52815 5.01751,0.52815 0.79223,0 7.79033,0.39612 7.79033,0.39612 0,0 5.41363,0.13204 5.94178,0.13204 0.52816,0 5.67771,-0.13204 5.67771,-0.13204 l 7.26217,-0.13204 1.58448,-0.13204 6.60198,-0.66019 3.30099,-0.52816 1.98059,-0.6602 3.03691,-1.45244 0.92428,-0.66019 1.45244,-1.05632 0.39612,-1.71652 c 0,0 -0.13204,-2.11263 -0.52816,-3.03691 -0.39612,-0.92427 -2.24468,-3.16895 -2.24468,-3.16895 l -3.82914,-3.03691 -4.22527,-2.50875 -6.07382,-3.16895 -6.20586,-3.30099 -6.86606,-2.50875 -6.07382,-2.50875 -7.39422,-1.71652 c 0,0 -4.35731,-2.11263 -5.14955,-2.24467 -0.79223,-0.13204 -6.07382,-2.11264 -6.07382,-2.11264 l -5.28158,-1.84855 -1.71652,-0.6602 -0.66019,-0.26408 v 1.45244 l -1.58448,1.05631 -2.37671,1.05632 -1.71652,0.13204 -0.92427,0.26408 -1.45244,0.26408 -1.71651,-0.13204 -3.16895,-0.26408 -3.56507,-0.26408 -3.82915,-0.52816 -3.56507,-0.79223 c 0,0 -3.56507,-0.6602 -4.09323,-0.79224 -0.52816,-0.13204 -2.77283,-0.79224 -2.77283,-0.79224 l -2.11263,-1.05632 -1.05632,-0.66019 -1.84855,-1.45244 -1.45244,-1.05632 -0.92428,-1.45243 -1.05631,-1.58448 -0.26408,-0.92427 z"
             id="path6998" />
          <path
             style="opacity:0.937;fill:url(#linearGradient7044);fill-opacity:1;stroke:#000000;stroke-width:0.731;stroke-dasharray:none;stroke-opacity:1"
             d="m 140.4226,508.65848 -2.05405,5.41523 v 3.92138 l 0.5602,2.61425 1.30712,1.86732 2.24079,2.05405 2.42752,2.05406 2.98771,2.05405 2.98772,1.68059 2.80098,1.49386 3.36118,1.86732 2.98771,1.12039 4.29484,1.30713 c 0,0 2.42752,1.12039 3.17445,1.49386 0.74693,0.37346 4.10811,1.68059 4.10811,1.68059 l 2.80098,0.93366 3.73465,1.30712 2.05405,0.5602 4.29484,1.86732 3.54791,1.12039 4.10811,0.74693 3.36118,1.1204 5.60197,1.49385 5.97543,1.86732 3.73464,0.37347 6.72236,1.68059 5.60196,1.12039 c 0,0 4.85504,1.1204 5.60197,1.1204 0.74693,0 5.60196,0.93366 5.60196,0.93366 l 6.53563,0.93366 4.10811,0.74693 11.0172,1.49385 11.0172,0.93366 3.36118,-0.18673 4.29484,0.37347 4.29484,-0.18674 h 3.92137 l 7.65602,-0.18673 4.48158,-0.93366 2.98771,-0.18673 3.54791,-0.74693 3.36118,-1.12039 4.10811,-2.42752 1.12039,-1.12039 1.68059,-6.16217 v -2.05405 l -8.58968,2.98771 -3.73464,0.74693 -3.17445,0.5602 -4.10811,0.74693 -3.73464,0.18673 h -3.92138 l -2.98771,-0.18673 h -11.95086 l -2.61425,-0.37347 -3.17445,0.18674 -1.68059,-0.18674 -2.24079,-0.18673 -4.29484,-0.37346 -3.54791,-0.18673 -3.54791,-0.37347 -4.48157,-0.74693 -5.97543,-1.12039 -17.55283,-2.98772 -17.36609,-4.48157 -20.54054,-5.41523 -20.35381,-8.58968 -11.95086,-5.7887 -6.16216,-4.48157 -1.86732,-2.42752 -0.5602,-1.68059 z"
             id="path7000" />
          <path
             id="path7002"
             style="opacity:0.164179;fill:url(#linearGradient7046);fill-opacity:1;stroke:none;stroke-width:1.71497;stroke-dasharray:none;stroke-opacity:1"
             d="m 247.82617,509.66406 v 1.36133 l -1.48437,0.98828 -2.22461,0.99024 -1.60938,0.12304 -0.86523,0.24805 -1.35938,0.24805 -1.60937,-0.125 -2.9668,-0.2461 -3.33984,-0.24804 -3.58594,-0.49414 -3.33984,-0.74219 c 0,0 -2.18818,-0.41281 -3.23047,-0.625 v 28.79492 l 0.63281,0.15039 11.25586,2.7207 10.38867,1.73243 c 0,0 7.41875,1.11265 8.03711,1.23632 C 253.14376,545.90102 255,545.6543 255,545.6543 l 3.46289,-0.24805 c 0,0 3.95718,0.49414 4.69922,0.49414 0.74202,0 7.29687,0.37109 7.29687,0.37109 0,0 5.06978,0.12305 5.56446,0.12305 0.49469,0 5.31836,-0.12305 5.31836,-0.12305 l 6.80273,-0.12304 1.48242,-0.12305 6.1836,-0.61914 3.09179,-0.49414 1.85547,-0.61914 2.84571,-1.35938 0.86523,-0.61914 1.35937,-0.99023 0.3711,-1.60742 c 0,0 -0.12313,-1.97804 -0.49414,-2.84375 -0.37102,-0.8657 -2.10156,-2.96875 -2.10156,-2.96875 l -3.5879,-2.84375 -3.95703,-2.34961 -5.68945,-2.96875 -5.8125,-3.0918 -6.42969,-2.34961 -5.68945,-2.34961 -6.92578,-1.60742 c 0,0 -4.08218,-1.97985 -4.82422,-2.10352 C 259.94548,514.11655 255,512.26172 255,512.26172 l -4.94727,-1.73047 -1.60742,-0.61914 z" />
        </g>
      </g>
    </g>
  </g>
</svg>
