<svg width="416" height="409" viewBox="0 0 416 409" fill="none" xmlns="http://www.w3.org/2000/svg">
<path d="M374.395 136.402H36.5293V369.725H374.395V136.402Z" fill="#00112B"/>
<path d="M413.284 149.765L0 150.231L205.68 0L413.284 149.765Z" fill="#00112B"/>
<path d="M412.082 267.438L204.179 93.7178L7.55176 267.457L412.082 267.438Z" fill="#00112B"/>
<path d="M413.285 368.73H7.99512V398.931H413.285V368.73Z" fill="#00112B"/>
<path d="M204.686 23.6153L358.308 133.472L53.4244 134.268L204.686 23.6153Z" fill="#E9DDAF"/>
<path d="M215.617 156.768H53.501V244.573H215.617V156.768Z" fill="#CD87DE"/>
<path d="M354.269 156.768H230.549V244.013H354.269V156.768Z" fill="#FFCCAA"/>
<path d="M255.079 259.113H56.3447V360.341H255.079V259.113Z" fill="#5FD38D"/>
<path d="M199.262 406.201H198.551V408.438H199.262V406.201Z" fill="#AAFFCC"/>
<path d="M357.112 259.672H272.499V359.781H357.112V259.672Z" fill="#FF5555"/>
</svg>
