<?xml version="1.0" encoding="UTF-8" standalone="no"?>
<!-- Created with Inkscape (http://www.inkscape.org/) -->

<svg
   version="1.1"
   id="svg12378"
   width="798.48071"
   height="784.4104"
   viewBox="0 0 798.48071 784.4104"
   sodipodi:docname="school_icon.svg"
   inkscape:version="1.2.1 (9c6d41e410, 2022-07-14)"
   xmlns:inkscape="http://www.inkscape.org/namespaces/inkscape"
   xmlns:sodipodi="http://sodipodi.sourceforge.net/DTD/sodipodi-0.dtd"
   xmlns:xlink="http://www.w3.org/1999/xlink"
   xmlns="http://www.w3.org/2000/svg"
   xmlns:svg="http://www.w3.org/2000/svg">
  <defs
     id="defs12382">
    <linearGradient
       inkscape:collect="always"
       id="linearGradient14670">
      <stop
         style="stop-color:#1b1b1b;stop-opacity:1;"
         offset="0"
         id="stop14668" />
      <stop
         style="stop-color:#000000;stop-opacity:1;"
         offset="1"
         id="stop14666" />
    </linearGradient>
    <linearGradient
       inkscape:collect="always"
       id="linearGradient13054">
      <stop
         style="stop-color:#f9f8de;stop-opacity:1;"
         offset="0"
         id="stop13052" />
      <stop
         style="stop-color:#bfba24;stop-opacity:1;"
         offset="1"
         id="stop13050" />
    </linearGradient>
    <linearGradient
       inkscape:collect="always"
       id="linearGradient13044">
      <stop
         style="stop-color:#5b5b5b;stop-opacity:1;"
         offset="0"
         id="stop13040" />
      <stop
         style="stop-color:#303030;stop-opacity:1;"
         offset="1"
         id="stop13042" />
    </linearGradient>
    <linearGradient
       inkscape:collect="always"
       id="linearGradient12846">
      <stop
         style="stop-color:#dcdcdc;stop-opacity:1;"
         offset="0.04501602"
         id="stop12844" />
      <stop
         style="stop-color:#202020;stop-opacity:1;"
         offset="0.3762058"
         id="stop12842" />
    </linearGradient>
    <linearGradient
       inkscape:collect="always"
       id="linearGradient12836">
      <stop
         style="stop-color:#bdbdbd;stop-opacity:1;"
         offset="0"
         id="stop12832" />
      <stop
         style="stop-color:#000000;stop-opacity:0.60377359;"
         offset="1"
         id="stop12834" />
    </linearGradient>
    <radialGradient
       inkscape:collect="always"
       xlink:href="#linearGradient12836"
       id="radialGradient12838"
       cx="443.61508"
       cy="362.38959"
       fx="443.61508"
       fy="362.38959"
       r="204.78481"
       gradientTransform="matrix(1,0,0,0.54476424,0,164.9727)"
       gradientUnits="userSpaceOnUse" />
    <radialGradient
       inkscape:collect="always"
       xlink:href="#linearGradient12846"
       id="radialGradient12866"
       cx="447.62949"
       cy="254.59892"
       fx="447.62949"
       fy="254.59892"
       r="350.85519"
       gradientTransform="matrix(1,0,0,0.29409737,0,179.72205)"
       gradientUnits="userSpaceOnUse" />
    <radialGradient
       inkscape:collect="always"
       xlink:href="#linearGradient13044"
       id="radialGradient13046"
       cx="446.95963"
       cy="192.17406"
       fx="446.95963"
       fy="192.17406"
       r="351.95959"
       gradientTransform="matrix(1,0,0,0.43013844,0,109.51261)"
       gradientUnits="userSpaceOnUse" />
    <radialGradient
       inkscape:collect="always"
       xlink:href="#linearGradient13054"
       id="radialGradient13056"
       cx="306.70596"
       cy="266.46603"
       fx="306.70596"
       fy="266.46603"
       r="132.47646"
       gradientTransform="matrix(1,0,0,1.1494432,0,-39.821541)"
       gradientUnits="userSpaceOnUse" />
    <radialGradient
       inkscape:collect="always"
       xlink:href="#linearGradient14670"
       id="radialGradient14672"
       cx="443.61508"
       cy="362.38959"
       fx="443.61508"
       fy="362.38959"
       r="204.78481"
       gradientTransform="matrix(1,0,0,0.54476424,0,164.9727)"
       gradientUnits="userSpaceOnUse" />
    <radialGradient
       inkscape:collect="always"
       xlink:href="#linearGradient12846"
       id="radialGradient1111"
       gradientUnits="userSpaceOnUse"
       gradientTransform="matrix(1,0,0,0.29409737,0,179.72205)"
       cx="447.62949"
       cy="254.59892"
       fx="447.62949"
       fy="254.59892"
       r="350.85519" />
  </defs>
  <sodipodi:namedview
     id="namedview12380"
     pagecolor="#ffffff"
     bordercolor="#000000"
     borderopacity="0.25"
     inkscape:showpageshadow="2"
     inkscape:pageopacity="0.0"
     inkscape:pagecheckerboard="0"
     inkscape:deskcolor="#d1d1d1"
     showgrid="false"
     inkscape:zoom="0.48222749"
     inkscape:cx="751.7199"
     inkscape:cy="294.46683"
     inkscape:window-width="1920"
     inkscape:window-height="1017"
     inkscape:window-x="-8"
     inkscape:window-y="-8"
     inkscape:window-maximized="1"
     inkscape:current-layer="g12384" />
  <g
     inkscape:groupmode="layer"
     inkscape:label="Image"
     id="g12384"
     transform="translate(-11.039129,-40.78272)">
    <g
       id="g1109">
      <path
         style="opacity:0.376866;fill:url(#radialGradient12838);fill-opacity:1;stroke:#000000;stroke-width:0.731"
         d="m 648.0344,251.43735 v 111.46191 l -34.19014,27.14571 -20.34539,13.74688 -34.45886,19.61222 -65.2378,34.62664 -26.4398,10.88698 -9.3317,3.36978 -2.59213,0.77764 -3.11057,0.51843 h -8.55405 l -4.40664,-0.51843 -5.7027,-1.55528 -6.99877,-2.33293 -8.29484,-3.36977 -8.29484,-3.629 -160.79931,-87.71297 -3.29925,-2.93267 -2.56609,-2.74937 -2.56609,-4.03242 -0.91645,-2.74938 -0.54988,-2.56609 -0.18329,-2.1995 0.18329,-102.46012 171.47471,96.45903 5.96192,3.11057 3.8882,1.03685 3.36978,1.03686 3.62899,0.25921 5.44349,0.51843 6.48035,-0.51843 3.62899,-0.51842 4.14742,-0.51843 5.18427,-1.29607 3.11057,-1.29607 4.40663,-2.07371 z"
         id="path12807" />
      <path
         style="opacity:1;fill:url(#radialGradient1111);fill-opacity:1;stroke:#000000;stroke-width:0.731"
         d="m 97.144658,173.76063 316.361662,178.89281 5.13217,2.56608 5.13217,1.46634 5.49875,0.73316 h 3.66584 l 4.03242,-0.36658 5.86534,-0.36658 4.03242,-0.73317 5.86533,-1.46634 6.23192,-1.46633 4.76559,-2.93267 334.3909,-179.00627 v -19.05221 l -338.79239,184.6898 -6.48034,3.11057 -4.40664,1.29607 -5.7027,0.77764 -3.88821,0.77764 -4.40663,0.25921 -4.66585,-0.51842 -4.40663,-0.51843 -4.40663,-0.51843 -3.88821,-1.03685 -3.36978,-1.29607 -5.7027,-2.07371 -6.48035,-3.629 L 97.464374,159.67568 Z"
         id="path12840" />
      <path
         style="opacity:0.947761;fill:url(#radialGradient13046);fill-opacity:1;stroke:#000000;stroke-width:0.731"
         d="m 433.14619,343.19902 -12.18304,-1.8145 -7.25799,-2.59214 -7.77641,-3.11056 -5.70271,-3.11057 -303.798522,-173.414 -1.036855,-4.66585 1.036855,-1.55528 3.628992,-3.62899 7.77641,-3.11057 329.71991,-103.685503 4.82195,-0.857994 3.11596,-0.32076 2.06203,-0.183292 c 0,0 1.87874,0.09165 2.10786,0.09165 0.22911,0 2.56608,0 2.56608,0 l 3.02432,0.137469 2.29114,0.229114 1.37469,0.412407 335.05489,104.436119 2.20331,2.07371 1.42568,1.29607 0.64803,0.90725 0.25922,1.29607 -345.40234,188.05958 -6.7901,1.75077 -5.13217,0.36658 -3.29925,0.54988 -2.3828,0.36658 z"
         id="path13038" />
      <path
         style="opacity:1;fill:#741515;fill-opacity:1;stroke:#000000;stroke-width:0.731"
         d="M 237.95823,364.17244 87.614251,450.23141 535.53563,566.8776 l 18.66339,-2.07371 211,-219.29484 v -6.22113 L 647.93654,322.41029 v 53.52121 l -32.25936,25.84414 -21.99502,15.02993 -100.6272,54.62096 -36.84165,14.29676 -2.93267,0.54987 -4.03242,-0.18329 -7.33167,0.18329 -4.03242,-0.91645 -6.23192,-1.09976 -181.82548,-96.13655 -3.3909,-2.84102 -2.29114,-2.74938 -2.10786,-2.93267 -1.46633,-2.1995 -1.09975,-3.48254 -0.36659,-3.48255 -0.0916,-2.74937 0.0916,-2.19951 0.0916,-2.1995 z"
         id="path14676" />
      <path
         style="opacity:1;fill:#db3a3a;fill-opacity:1;stroke:#000000;stroke-width:0.731"
         d="M 237.95823,350.97543 87.614251,437.0344 535.53563,553.68059 l 18.66339,-2.07371 211,-219.29484 v -6.22113 L 647.93654,309.21328 v 53.52121 l -32.25936,25.84414 -21.99502,15.02993 -100.6272,54.62096 -36.84165,14.29676 -2.93267,0.54987 -4.03242,-0.18329 -7.33167,0.18329 -4.03242,-0.91645 -6.23192,-1.09976 -181.82548,-96.13655 -3.3909,-2.84102 -2.29114,-2.74938 -2.10786,-2.93267 -1.46633,-2.1995 -1.09975,-3.48254 -0.36659,-3.48255 -0.0916,-2.74937 0.0916,-2.19951 0.0916,-2.1995 z"
         id="path13114" />
      <path
         style="opacity:1;fill:#e8e8e8;fill-opacity:1;stroke:#000000;stroke-width:0.731"
         d="m 765.19902,332.70086 0.38882,6.22113 -208.53747,218.38759 -17.62654,4.14742 -438.07125,-113.53562 -9.072482,10.10933 -5.443489,8.81327 -2.332923,6.22113 -2.07371,5.18428 -1.296069,11.4054 -0.518428,7.77641 2.592138,13.21991 3.306116,9.07281 2.932669,6.69015 9.531174,15.02993 432.151414,119.29187 15.55283,-3.36978 210.09275,-234.32923 2.78668,-77.5318 5.86534,-6.41522 z"
         id="path13170" />
      <path
         style="opacity:1;fill:#ac1d1d;fill-opacity:1;stroke:#000000;stroke-width:0.731"
         d="m 755.08968,425.36978 6.73956,1.8145 -0.51843,3.8882 -207.11179,240.03194 -18.14497,3.36978 -447.921372,-124.4226 -6.20124,-12.82331 -6.598505,-15.39652 -4.582295,-17.41272 -1.466335,-9.53117 -0.366584,-8.24813 0.366584,-9.16459 2.01621,-11.1808 1.797767,-6.96758 5.702703,-10.62776 7.257985,-9.3317 1.036855,-2.33292 15.293607,3.8882 -0.77764,7.25799 -9.072478,9.59091 -4.406634,7.25798 -2.851351,5.44349 -1.814496,3.88821 -1.555283,5.18428 -0.259214,4.40663 -1.296069,6.73956 0.518428,5.7027 0.518427,5.18427 1.555283,7.25799 1.296069,6.48034 2.851351,5.96192 2.592138,5.18428 4.406634,6.99877 2.592137,6.22113 0.518428,1.55528 433.24133,120.07851 16.12968,-3.29925 z"
         id="path13280" />
      <path
         style="opacity:1;fill:#46509c;fill-opacity:1;stroke:#000000;stroke-width:0.731"
         d="m 757.16339,417.85258 50.54668,5.18428 1.03686,5.18427 -252.273,257.29023 -24.92769,4.399 L 29.326689,572.6036 82.11473,541.07741 l 7.331672,9.53118 443.566168,123.90526 20.52869,-3.66584 209.68582,-242.67835 -7.33167,-2.1995 z"
         id="path13606" />
      <path
         style="opacity:1;fill:#e8e8e8;fill-opacity:1;stroke:#000000;stroke-width:0.731"
         d="m 808.74693,428.73956 0.25921,7.5172 -253.51105,256.36241 -23.32924,3.8882 -487.062656,-111.72113 -8.813268,10.88698 -4.665847,8.29484 -3.110565,8.29484 -2.592138,8.81327 -2.07371,8.29484 1.555282,9.33169 1.555283,10.88698 2.07371,7.25799 1.555283,4.66584 2.592137,6.22113 4.665848,8.29484 2.592137,3.629 v 3.62899 l 483.692874,127.01474 16.58968,-4.66585 1.82385,-1.35191 253.50171,-269.78568 4.01781,-89.16953 8.94287,-9.07248 z"
         id="path13662" />
      <path
         style="opacity:1;fill:#1e2343;fill-opacity:1;stroke:#000000;stroke-width:0.731"
         d="m 808.48772,428.35074 -252.01379,256.79404 -24.7444,4.21571 -502.956803,-116.7573 -7.517199,10.62777 -2.592137,4.92506 -1.814497,5.44349 -1.555282,5.96192 -2.592138,7.51719 -0.777641,10.88698 -0.518428,8.55406 1.036855,14.77518 1.036855,8.03563 2.851352,11.4054 4.14742,11.40541 4.665848,9.33169 3.369779,5.44349 2.332923,4.66585 9.331696,-7.5172 0.259213,-5.18427 -6.739557,-10.36855 -3.369779,-6.99878 -2.592138,-8.55405 -2.332924,-10.36855 -1.296068,-12.44226 -0.259214,-3.62899 2.592137,-6.22113 1.555283,-6.48035 3.369779,-10.10933 2.851351,-5.44349 3.110565,-4.14742 4.406634,-5.70271 3.369779,-3.36977 487.176216,110.36366 23.82793,-3.66584 253.03434,-255.50878 z"
         id="path13718" />
      <path
         style="opacity:1;fill:#1c203f;fill-opacity:1;stroke:#000000;stroke-width:0.731"
         d="m 31.105651,691.64711 9.461302,-8.29484 483.563267,126.94994 16.8489,-5.18427 253.44625,-268.61026 7.582,0.32402 0.64804,6.93396 -251.56696,276.38667 -23.84766,4.66585 z"
         id="path13828" />
      <path
         style="opacity:1;fill:url(#radialGradient12866);fill-opacity:1;stroke:#000000;stroke-width:0.731"
         d="m 97.144658,173.76063 316.361662,178.89281 5.13217,2.56608 5.13217,1.46634 5.49875,0.73316 h 3.66584 l 4.03242,-0.36658 5.86534,-0.36658 4.03242,-0.73317 5.86533,-1.46634 6.23192,-1.46633 4.76559,-2.93267 334.3909,-179.00627 v -19.05221 l -338.79239,184.6898 -6.48034,3.11057 -4.40664,1.29607 -5.7027,0.77764 -3.88821,0.77764 -4.40663,0.25921 -4.66585,-0.51842 -4.40663,-0.51843 -4.40663,-0.51843 -3.88821,-1.03685 -3.36978,-1.29607 -5.7027,-2.07371 -6.48035,-3.629 L 97.464374,159.67568 Z"
         id="path14658" />
      <path
         style="opacity:0.884328;fill:url(#radialGradient14672);fill-opacity:1;stroke:#000000;stroke-width:0.731"
         d="m 648.0344,251.43735 v 111.46191 l -34.19014,27.14571 -20.34539,13.74688 -34.45886,19.61222 -65.2378,34.62664 -26.4398,10.88698 -9.3317,3.36978 -2.59213,0.77764 -3.11057,0.51843 h -8.55405 l -4.40664,-0.51843 -5.7027,-1.55528 -6.99877,-2.33293 -8.29484,-3.36977 -8.29484,-3.629 -160.79931,-87.71297 -3.29925,-2.93267 -2.56609,-2.74937 -2.56609,-4.03242 -0.91645,-2.74938 -0.54988,-2.56609 -0.18329,-2.1995 0.18329,-102.46012 171.47471,96.45903 5.96192,3.11057 3.8882,1.03685 3.36978,1.03686 3.62899,0.25921 5.44349,0.51843 6.48035,-0.51843 3.62899,-0.51842 4.14742,-0.51843 5.18427,-1.29607 3.11057,-1.29607 4.40663,-2.07371 z"
         id="path14662" />
      <path
         style="opacity:1;fill:url(#radialGradient13056);fill-opacity:1;stroke:#000000;stroke-width:0.731"
         d="m 428.22113,117.16462 -68.95086,19.18182 -49.25061,17.62653 -30.58723,14.51597 -25.40295,12.96069 -21.77395,14.51597 -8.29484,8.94288 -5.18428,5.18427 -3.24017,5.83231 -1.29607,3.24017 -1.68489,4.40664 -2.33292,16.46007 -4.14742,29.55037 -1.55528,52.87961 -2.07371,1.03685 -4.66585,5.44349 -1.8145,5.7027 v 5.44349 l 1.55528,3.88821 1.8145,2.85135 1.8145,1.8145 1.29607,1.81449 1.29606,3.11057 -6.73955,22.29238 -22.29239,31.10565 8.55406,8.29484 21.25553,3.11057 26.18059,-3.62899 0.77764,-25.92138 -12.18305,-38.88206 2.33292,-1.55529 3.36978,-2.85135 2.07371,-2.33292 2.07371,-2.33293 0.25922,-3.8882 v -2.33293 l -1.55529,-3.11056 -2.85135,-3.62899 -2.59213,-2.85136 -1.8145,-2.07371 -1.55528,-0.25921 4.92506,-90.4656 1.03685,-3.11057 2.10101,-5.34566 5.86534,-7.88155 5.86533,-6.04863 7.33168,-6.23192 5.68204,-4.39901 7.14838,-5.49875 8.24813,-4.94888 7.33168,-3.66583 14.66334,-8.06484 23.46135,-10.44764 32.99253,-12.46384 22.54489,-8.06484 29.1434,-8.24813 34.82544,-11.1808 4.03242,-1.83292 2.56609,-2.74938 -0.36659,-3.29925 -1.09975,-1.83292 -1.64962,-1.83292 -2.3828,-0.54987 h -2.1995 l -2.74938,0.73317 c 0,0 -1.09975,0.73316 -2.1995,1.28304 -1.09975,0.54987 2.06768,0.59103 2.06768,0.59103 z"
         id="path13048" />
    </g>
  </g>
</svg>
