<?xml version="1.0" encoding="UTF-8" standalone="no"?>
<!-- Created with Inkscape (http://www.inkscape.org/) -->

<svg
   width="222.21312mm"
   height="328.11557mm"
   viewBox="0 0 222.21312 328.11557"
   version="1.1"
   id="svg41624"
   inkscape:version="1.2.1 (9c6d41e410, 2022-07-14)"
   sodipodi:docname="avatar_22.svg"
   xmlns:inkscape="http://www.inkscape.org/namespaces/inkscape"
   xmlns:sodipodi="http://sodipodi.sourceforge.net/DTD/sodipodi-0.dtd"
   xmlns:xlink="http://www.w3.org/1999/xlink"
   xmlns="http://www.w3.org/2000/svg"
   xmlns:svg="http://www.w3.org/2000/svg">
  <sodipodi:namedview
     id="namedview41626"
     pagecolor="#ffffff"
     bordercolor="#000000"
     borderopacity="0.25"
     inkscape:showpageshadow="2"
     inkscape:pageopacity="0.0"
     inkscape:pagecheckerboard="0"
     inkscape:deskcolor="#d1d1d1"
     inkscape:document-units="mm"
     showgrid="false"
     inkscape:zoom="0.51708603"
     inkscape:cx="207.89577"
     inkscape:cy="703.94476"
     inkscape:window-width="1920"
     inkscape:window-height="1017"
     inkscape:window-x="-8"
     inkscape:window-y="-8"
     inkscape:window-maximized="1"
     inkscape:current-layer="g47530" />
  <defs
     id="defs41621">
    <linearGradient
       inkscape:collect="always"
       id="linearGradient49676">
      <stop
         style="stop-color:#94ffd3;stop-opacity:1;"
         offset="0"
         id="stop49674" />
      <stop
         style="stop-color:#00f08a;stop-opacity:1;"
         offset="1"
         id="stop49672" />
    </linearGradient>
    <inkscape:path-effect
       effect="fillet_chamfer"
       id="path-effect29288"
       is_visible="true"
       lpeversion="1"
       nodesatellites_param="F,0,0,1,0,0,0,1 @ F,0,1,1,0,1.2545445,0,1 @ F,0,0,1,0,1.2545445,0,1 @ F,0,0,1,0,0,0,1"
       unit="px"
       method="auto"
       mode="F"
       radius="0"
       chamfer_steps="1"
       flexible="false"
       use_knot_distance="true"
       apply_no_radius="true"
       apply_with_radius="true"
       only_selected="false"
       hide_knots="false" />
    <inkscape:path-effect
       effect="fillet_chamfer"
       id="path-effect29216"
       is_visible="true"
       lpeversion="1"
       nodesatellites_param="F,0,0,1,0,0,0,1 @ F,0,1,1,0,1.2545445,0,1 @ F,0,0,1,0,1.2545445,0,1 @ F,0,0,1,0,0,0,1"
       unit="px"
       method="auto"
       mode="F"
       radius="0"
       chamfer_steps="1"
       flexible="false"
       use_knot_distance="true"
       apply_no_radius="true"
       apply_with_radius="true"
       only_selected="false"
       hide_knots="false" />
    <linearGradient
       inkscape:collect="always"
       xlink:href="#linearGradient34099"
       id="linearGradient34101"
       x1="172.97903"
       y1="26.675632"
       x2="196.81383"
       y2="26.675632"
       gradientUnits="userSpaceOnUse" />
    <linearGradient
       id="linearGradient34099"
       inkscape:swatch="solid">
      <stop
         style="stop-color:#000000;stop-opacity:1;"
         offset="0"
         id="stop34097" />
    </linearGradient>
    <linearGradient
       inkscape:collect="always"
       xlink:href="#linearGradient34099"
       id="linearGradient34103"
       x1="177.63631"
       y1="26.675632"
       x2="201.47108"
       y2="26.675632"
       gradientUnits="userSpaceOnUse" />
    <inkscape:path-effect
       effect="fillet_chamfer"
       id="path-effect16060-6"
       is_visible="true"
       lpeversion="1"
       nodesatellites_param="F,0,0,1,0,0,0,1 @ F,0,1,1,0,1.2545445,0,1 @ F,0,0,1,0,1.2545445,0,1 @ F,0,0,1,0,0,0,1"
       unit="px"
       method="auto"
       mode="F"
       radius="0"
       chamfer_steps="1"
       flexible="false"
       use_knot_distance="true"
       apply_no_radius="true"
       apply_with_radius="true"
       only_selected="false"
       hide_knots="false" />
    <linearGradient
       inkscape:collect="always"
       xlink:href="#linearGradient34099"
       id="linearGradient34107"
       gradientUnits="userSpaceOnUse"
       x1="172.97903"
       y1="26.675632"
       x2="196.81383"
       y2="26.675632"
       gradientTransform="matrix(0.90691414,0.1748947,-0.1748947,0.90691414,21.634102,-30.978697)" />
    <linearGradient
       inkscape:collect="always"
       xlink:href="#linearGradient34099"
       id="linearGradient34117"
       gradientUnits="userSpaceOnUse"
       gradientTransform="matrix(-0.90691414,0.1748947,0.1748947,0.90691414,352.96487,-30.978697)"
       x1="172.97903"
       y1="26.675632"
       x2="196.81383"
       y2="26.675632" />
    <linearGradient
       inkscape:collect="always"
       xlink:href="#linearGradient34099"
       id="linearGradient29290"
       gradientUnits="userSpaceOnUse"
       x1="172.97903"
       y1="26.675632"
       x2="196.81383"
       y2="26.675632" />
    <linearGradient
       inkscape:collect="always"
       xlink:href="#linearGradient34099"
       id="linearGradient29292"
       gradientUnits="userSpaceOnUse"
       x1="177.63631"
       y1="26.675632"
       x2="201.47108"
       y2="26.675632" />
    <linearGradient
       inkscape:collect="always"
       xlink:href="#linearGradient34099"
       id="linearGradient29294"
       gradientUnits="userSpaceOnUse"
       gradientTransform="matrix(0.90691414,0.1748947,-0.1748947,0.90691414,21.634102,-30.978697)"
       x1="172.97903"
       y1="26.675632"
       x2="196.81383"
       y2="26.675632" />
    <linearGradient
       inkscape:collect="always"
       xlink:href="#linearGradient34099"
       id="linearGradient29296"
       gradientUnits="userSpaceOnUse"
       gradientTransform="matrix(-0.90691414,0.1748947,0.1748947,0.90691414,352.96487,-30.978697)"
       x1="172.97903"
       y1="26.675632"
       x2="196.81383"
       y2="26.675632" />
    <filter
       inkscape:collect="always"
       style="color-interpolation-filters:sRGB"
       id="filter29298"
       x="-0.042669726"
       y="-0.021619529"
       width="1.0771849"
       height="1.0483477">
      <feGaussianBlur
         inkscape:collect="always"
         stdDeviation="0.40378476"
         id="feGaussianBlur29300" />
    </filter>
    <linearGradient
       inkscape:collect="always"
       xlink:href="#linearGradient34099"
       id="linearGradient29302"
       gradientUnits="userSpaceOnUse"
       x1="172.97903"
       y1="26.675632"
       x2="196.81383"
       y2="26.675632" />
    <linearGradient
       inkscape:collect="always"
       xlink:href="#linearGradient34099"
       id="linearGradient29304"
       gradientUnits="userSpaceOnUse"
       x1="177.63631"
       y1="26.675632"
       x2="201.47108"
       y2="26.675632" />
    <linearGradient
       inkscape:collect="always"
       xlink:href="#linearGradient34099"
       id="linearGradient29306"
       gradientUnits="userSpaceOnUse"
       gradientTransform="matrix(0.90691414,0.1748947,-0.1748947,0.90691414,21.634102,-30.978697)"
       x1="172.97903"
       y1="26.675632"
       x2="196.81383"
       y2="26.675632" />
    <linearGradient
       inkscape:collect="always"
       xlink:href="#linearGradient34099"
       id="linearGradient29308"
       gradientUnits="userSpaceOnUse"
       gradientTransform="matrix(-0.90691414,0.1748947,0.1748947,0.90691414,352.96487,-30.978697)"
       x1="172.97903"
       y1="26.675632"
       x2="196.81383"
       y2="26.675632" />
    <linearGradient
       inkscape:collect="always"
       xlink:href="#linearGradient49676"
       id="linearGradient49678"
       x1="172.23048"
       y1="49.00774"
       x2="201.66586"
       y2="49.00774"
       gradientUnits="userSpaceOnUse" />
  </defs>
  <g
     inkscape:label="Layer 1"
     inkscape:groupmode="layer"
     id="layer1"
     transform="translate(-49.101117,-54.10355)">
    <g
       id="g29210"
       transform="matrix(6.9215283,0,0,6.6949274,-1142.997,-16.894625)">
      <g
         id="g29208">
        <g
           id="g30698"
           transform="matrix(0.86184034,0,0,0.86184034,26.752347,5.0035815)">
          <g
             id="g47530"
             transform="matrix(1.0253323,0,0,1.0253323,-4.7696299,-0.88940476)">
            <g
               id="g37249"
               transform="translate(-1.4748669e-6)">
              <g
                 id="g39312">
                <g
                   id="g35130">
                  <g
                     id="g15581"
                     transform="matrix(0.74515537,0,0,0.72537808,154.10695,-47.415229)"
                     style="fill:#ffb98a;fill-opacity:1">
                    <rect
                       style="fill:#ffb98a;fill-opacity:1;stroke-width:0.103571"
                       id="rect15577"
                       width="9.1565714"
                       height="13.924938"
                       x="100.16856"
                       y="-39.610909"
                       ry="4.7970176"
                       transform="matrix(0,1,-0.99989952,-0.0141759,0,0)"
                       inkscape:transform-center-x="-0.18754404"
                       inkscape:transform-center-y="0.0026622334" />
                    <rect
                       style="fill:#ffb98a;fill-opacity:1;stroke-width:0.103571"
                       id="rect15579"
                       width="9.1565714"
                       height="13.924938"
                       x="99.666679"
                       y="-62.500305"
                       ry="4.7970176"
                       transform="matrix(0,1,-0.99989952,-0.0141759,0,0)"
                       inkscape:transform-center-x="-0.18754404"
                       inkscape:transform-center-y="0.0026622334" />
                  </g>
                  <ellipse
                     style="fill:#ff885e;fill-opacity:0.809524;fill-rule:evenodd;stroke-width:0.202456"
                     id="ellipse16064"
                     cx="197.24867"
                     cy="28.686632"
                     rx="2.4239106"
                     ry="2.411911" />
                  <ellipse
                     style="fill:#ff885e;fill-opacity:0.809524;fill-rule:evenodd;stroke-width:0.202456"
                     id="path16062"
                     cx="176.78773"
                     cy="28.759666"
                     rx="2.4239106"
                     ry="2.411911" />
                  <path
                     id="path15595"
                     style="fill:#ff4e4e;fill-opacity:1;stroke-width:0.0938925"
                     d="m 186.78435,35.936153 c -1.34709,0 -2.53241,0.665505 -3.2472,1.687236 0.84017,0.542228 1.8424,0.856469 2.92115,0.856469 h 1.61417 c 1.14455,0 2.20303,-0.35386 3.07319,-0.958343 -0.72096,-0.963808 -1.8715,-1.585362 -3.17321,-1.585362 z" />
                  <rect
                     style="fill:#d38d5f;fill-opacity:1;stroke-width:0.122339"
                     id="rect15569"
                     width="11.879038"
                     height="14.975878"
                     x="180.14755"
                     y="30.368179"
                     ry="5.1590557"
                     transform="matrix(1,0,0.02305587,0.99973418,0,0)" />
                  <path
                     id="path15571"
                     style="fill:#eb05b1;fill-opacity:1;stroke:#000000;stroke-width:0.560884;stroke-dasharray:none;stroke-opacity:1"
                     d="m 181.09911,39.650654 c -4.75796,0 -8.58819,3.830625 -8.58819,8.588583 v 9.486196 c 0,0.215118 0.008,0.428331 0.0233,0.639393 h 28.8279 c 0.0154,-0.211062 0.0233,-0.424275 0.0233,-0.639393 v -9.486196 c 0,-4.757958 -3.83024,-8.588583 -8.58819,-8.588583 z" />
                  <rect
                     style="fill:#db7c3b;fill-opacity:0.848485;stroke:#030303;stroke-width:0.322043;stroke-dasharray:none;stroke-opacity:1"
                     id="rect15575"
                     width="11.879038"
                     height="14.975878"
                     x="180.21104"
                     y="29.696018"
                     ry="5.1590557"
                     transform="matrix(1,0,0.02305587,0.99973418,0,0)" />
                  <rect
                     style="fill:#ffb380;stroke:#000000;stroke-width:0.0302857;stroke-dasharray:none;stroke-opacity:1"
                     id="rect15591"
                     width="19.550095"
                     height="24.676035"
                     x="177.37683"
                     y="16.60343"
                     ry="8.5006742" />
                  <ellipse
                     style="fill:#522200;fill-opacity:1;stroke-width:0.0646041"
                     id="ellipse15605"
                     cx="186.22969"
                     cy="30.907547"
                     rx="0.62372512"
                     ry="0.42840937" />
                  <ellipse
                     style="fill:#e3e3e3;fill-opacity:1;stroke:#030303;stroke-width:0.120663;stroke-opacity:1"
                     id="ellipse16193"
                     cx="-183.26579"
                     cy="25.901789"
                     rx="2.5539098"
                     ry="1.4755706"
                     transform="scale(-1,1)" />
                  <ellipse
                     style="fill:#522200;fill-opacity:1;stroke-width:0.0646041"
                     id="ellipse16268"
                     cx="188.43579"
                     cy="30.907547"
                     rx="0.62372512"
                     ry="0.42840937" />
                  <ellipse
                     style="fill:#2a9fff;fill-opacity:1;fill-rule:evenodd;stroke-width:0.211351"
                     id="path37288"
                     cx="183.24939"
                     cy="25.698929"
                     rx="1.3286624"
                     ry="1.1515075" />
                  <circle
                     style="fill:#000000;fill-opacity:1;fill-rule:evenodd;stroke-width:0.121622"
                     id="path37772"
                     cx="183.24312"
                     cy="25.674843"
                     r="0.71361023" />
                  <circle
                     style="fill:#fff4f4;fill-opacity:1;fill-rule:evenodd;stroke-width:0.364513"
                     id="circle37774"
                     cx="-183.02342"
                     cy="25.41256"
                     r="0.17283729"
                     transform="scale(-1,1)" />
                  <path
                     id="path15593-4"
                     style="fill:#47001f;fill-opacity:1;stroke-width:0.0739751"
                     d="m 183.5125,34.957534 c 0.0609,0.893923 0.49466,1.682195 1.14773,2.211167 0.91158,0.387264 0.90452,0.416585 1.67771,0.416587 l 1.76924,4e-6 c 0.74559,10e-7 0.71855,-0.05198 1.48731,-0.473281 0.61521,-0.527792 1.02131,-1.291892 1.08005,-2.154475 z"
                     sodipodi:nodetypes="ccssccc" />
                  <ellipse
                     style="fill:#e3e3e3;fill-opacity:1;stroke:#030303;stroke-width:0.120663;stroke-opacity:1"
                     id="ellipse275"
                     cx="-191.57433"
                     cy="25.859398"
                     rx="2.5539098"
                     ry="1.4755706"
                     transform="scale(-1,1)" />
                  <ellipse
                     style="fill:#2a9fff;fill-opacity:1;fill-rule:evenodd;stroke-width:0.211351"
                     id="ellipse277"
                     cx="191.55794"
                     cy="25.656538"
                     rx="1.3286624"
                     ry="1.1515075" />
                  <circle
                     style="fill:#000000;fill-opacity:1;fill-rule:evenodd;stroke-width:0.121622"
                     id="circle279"
                     cx="191.55167"
                     cy="25.63245"
                     r="0.71361023" />
                  <circle
                     style="fill:#fff4f4;fill-opacity:1;fill-rule:evenodd;stroke-width:0.364513"
                     id="circle281"
                     cx="-191.33195"
                     cy="25.370169"
                     r="0.17283729"
                     transform="scale(-1,1)" />
                  <path
                     id="rect33858"
                     style="fill:#ffcd04;fill-opacity:1;stroke:url(#linearGradient34101);stroke-width:0.0902229;stroke-dasharray:none;stroke-opacity:1"
                     d="m 183.46941,11.781242 c -5.80147,0 -10.47172,4.670844 -10.47172,10.472302 v 9.454106 c 0,4.533235 2.85157,8.375646 6.86626,9.839068 -1.4435,-1.680292 -2.31445,-3.86783 -2.31445,-6.266907 v -8.676 c 0,-5.323591 4.28531,-9.609492 9.6089,-9.609492 h 2.88168 c 2.63109,0 5.0081,1.047449 6.74008,2.749074 -1.11909,-4.581153 -5.23539,-7.962151 -10.17088,-7.962151 z" />
                  <path
                     id="path34058"
                     style="fill:#ffcc00;fill-opacity:1;stroke:url(#linearGradient34103);stroke-width:0.0902229;stroke-dasharray:none;stroke-opacity:1"
                     d="m 190.98072,11.781242 c 5.80147,0 10.47172,4.670844 10.47172,10.472302 v 9.454106 c 0,4.533235 -2.85157,8.375646 -6.86626,9.839068 1.4435,-1.680292 2.31445,-3.86783 2.31445,-6.266907 v -8.676 c 0,-5.323591 -4.28531,-9.609492 -9.6089,-9.609492 h -2.88168 c -2.63109,0 -5.0081,1.047449 -6.74008,2.749074 1.11909,-4.581153 5.23539,-7.962151 10.17088,-7.962151 z" />
                  <path
                     id="path34081"
                     style="fill:#47001f;fill-opacity:1;stroke-width:0.0739751"
                     d="m 183.5125,34.957534 c 0.0609,0.893923 0.49466,1.682195 1.14773,2.211167 0.91158,0.387264 0.90452,0.416585 1.67771,0.416587 l 1.76924,4e-6 c 0.74559,10e-7 0.71855,-0.05198 1.48731,-0.473281 0.61521,-0.527792 1.02131,-1.291892 1.08005,-2.154475 z"
                     sodipodi:nodetypes="ccssccc" />
                  <path
                     id="path34083"
                     style="fill:#ff5b7f;fill-opacity:1;stroke-width:0.0906254"
                     d="m 182.79114,34.567411 c 0.0732,1.116673 0.5943,2.101369 1.37893,2.762151 1.09521,0.483764 1.08672,0.520391 2.01567,0.520394 l 2.12563,5e-6 c 0.89578,10e-7 0.8633,-0.06493 1.78692,-0.591214 0.73914,-0.659309 1.22704,-1.61381 1.29761,-2.691333 z"
                     sodipodi:nodetypes="ccssccc" />
                  <path
                     id="path34085"
                     style="fill:#1a0300;fill-opacity:1;stroke-width:0.0712181"
                     d="m 183.64596,35.006502 c 0.0586,0.860607 0.47622,1.6195 1.10496,2.128758 0.87761,0.37283 0.87081,0.401059 1.61518,0.401061 l 1.7033,3e-6 c 0.7178,2e-6 0.69178,-0.05004 1.43188,-0.455641 0.59229,-0.508122 0.98325,-1.243744 1.0398,-2.074179 z"
                     sodipodi:nodetypes="ccssccc" />
                  <path
                     id="path34087"
                     style="fill:#ffffff;stroke-width:0.0863856"
                     d="m 185.59621,36.610971 c -0.38769,-10e-7 -0.76518,0.14089 -1.02784,0.363802 0.0586,0.05592 0.11939,0.109665 0.18241,0.160714 0.87761,0.372829 0.87104,0.401007 1.61541,0.401009 h 1.70325 c 0.7178,2e-6 0.69186,-0.05019 1.43196,-0.455786 0.031,-0.0266 0.0611,-0.05434 0.091,-0.08217 -0.24644,-0.235925 -0.61717,-0.387572 -1.01751,-0.387573 z" />
                  <path
                     id="path16056-9"
                     style="fill:#ffffff;stroke-width:0.0783268"
                     d="m 184.2348,35.017186 c 0.0306,0.464825 0.6908,0.833514 1.38366,0.833512 l 2.97881,-5e-6 c 0.69286,-2e-6 1.29674,-0.372361 1.32184,-0.833519 z"
                     sodipodi:nodetypes="ccccc"
                     inkscape:original-d="m 184.2348,35.017186 c 0.0162,0.24605 0.0605,0.559642 0.12912,0.833515 l 5.48789,-1.1e-5 c 0.0687,-0.273875 0.0511,-0.53583 0.0673,-0.833516 z"
                     inkscape:path-effect="#path-effect16060-6" />
                  <path
                     id="path34105"
                     style="fill:#ffe168;fill-opacity:1;stroke:url(#linearGradient34107);stroke-width:0.083332;stroke-dasharray:none;stroke-opacity:1"
                     d="m 185.96462,11.793704 c -5.26143,-1.014646 -10.31385,2.404607 -11.32849,7.666032 l -1.65348,8.574062 c -0.79284,4.111255 1.12128,8.094716 4.50631,10.124062 -1.01526,-1.776341 -1.42255,-3.912574 -1.00296,-6.088332 l 1.51739,-7.868387 c 0.93106,-4.828039 5.56705,-7.965506 10.39509,-7.034438 l 2.61344,0.503991 c 2.38616,0.460162 4.35872,1.825836 5.63187,3.671977 -0.2137,-4.350435 -3.35551,-8.13663 -7.83157,-8.99982 z" />
                  <path
                     id="path34113"
                     style="fill:#ffe168;fill-opacity:1;stroke:url(#linearGradient34117);stroke-width:0.083332;stroke-dasharray:none;stroke-opacity:1"
                     d="m 188.63435,11.793704 c 5.26143,-1.014646 10.31385,2.404607 11.32849,7.666032 l 1.65348,8.574062 c 0.79284,4.111255 -1.12128,8.094716 -4.50631,10.124062 1.01526,-1.776341 1.42255,-3.912574 1.00296,-6.088332 l -1.51739,-7.868387 c -0.93106,-4.828039 -5.56705,-7.965506 -10.39509,-7.034438 l -2.61344,0.503991 c -2.38616,0.460162 -4.35872,1.825836 -5.63187,3.671977 0.2137,-4.350435 3.35551,-8.13663 7.83157,-8.99982 z" />
                  <path
                     id="rect33801"
                     style="fill:#ffcc00;fill-opacity:1;stroke:#000000;stroke-width:0.0371118;stroke-dasharray:none;stroke-opacity:1"
                     d="m 185.93767,11.996413 c -4.37769,0 -7.97424,4.685642 -8.55659,10.809159 h 4.16409 c 0.81623,-1.116703 1.79824,-2.436677 1.88567,-2.427759 0.0794,0.0081 0.66648,1.252676 1.20561,2.427759 h 3.63441 c 0.0382,-0.460162 0.0696,-0.836253 0.0723,-0.868681 0.009,-0.104097 0.28375,-3.420494 0.30696,-3.436482 0.0232,-0.01599 0.48314,2.794402 0.49765,2.882511 0.007,0.0426 0.11926,0.724092 0.23202,1.422652 h 2.23346 c 0.46345,-1.022435 1.06315,-2.319995 1.13585,-2.327506 0.0804,-0.0083 1.1238,1.407681 1.79369,2.327506 h 2.54196 c -0.58234,-6.123541 -4.17891,-10.809159 -8.55658,-10.809159 z" />
                </g>
              </g>
            </g>
            <g
               id="g29284"
               transform="translate(1.529805)"
               style="opacity:1;mix-blend-mode:normal;fill:#050505;fill-opacity:0.958549;filter:url(#filter29298)">
              <g
                 id="g29282"
                 style="fill:#050505;fill-opacity:0.958549">
                <g
                   id="g29280"
                   style="fill:#050505;fill-opacity:0.958549">
                  <g
                     id="g29222"
                     transform="matrix(0.74515537,0,0,0.72537808,154.10695,-47.415229)"
                     style="fill:#050505;fill-opacity:0.958549">
                    <rect
                       style="fill:#050505;fill-opacity:0.958549;stroke-width:0.103571"
                       id="rect29218"
                       width="9.1565714"
                       height="13.924938"
                       x="100.16856"
                       y="-39.610909"
                       ry="4.7970176"
                       transform="matrix(0,1,-0.99989952,-0.0141759,0,0)"
                       inkscape:transform-center-x="-0.18754404"
                       inkscape:transform-center-y="0.0026622334" />
                    <rect
                       style="fill:#050505;fill-opacity:0.958549;stroke-width:0.103571"
                       id="rect29220"
                       width="9.1565714"
                       height="13.924938"
                       x="99.666679"
                       y="-62.500305"
                       ry="4.7970176"
                       transform="matrix(0,1,-0.99989952,-0.0141759,0,0)"
                       inkscape:transform-center-x="-0.18754404"
                       inkscape:transform-center-y="0.0026622334" />
                  </g>
                  <ellipse
                     style="fill:#050505;fill-opacity:0.958549;fill-rule:evenodd;stroke-width:0.202456"
                     id="ellipse29224"
                     cx="197.24867"
                     cy="28.686632"
                     rx="2.4239106"
                     ry="2.411911" />
                  <ellipse
                     style="fill:#050505;fill-opacity:0.958549;fill-rule:evenodd;stroke-width:0.202456"
                     id="ellipse29226"
                     cx="176.78773"
                     cy="28.759666"
                     rx="2.4239106"
                     ry="2.411911" />
                  <path
                     id="path29228"
                     style="fill:#050505;fill-opacity:0.958549;stroke-width:0.0938925"
                     d="m 186.78435,35.936153 c -1.34709,0 -2.53241,0.665505 -3.2472,1.687236 0.84017,0.542228 1.8424,0.856469 2.92115,0.856469 h 1.61417 c 1.14455,0 2.20303,-0.35386 3.07319,-0.958343 -0.72096,-0.963808 -1.8715,-1.585362 -3.17321,-1.585362 z" />
                  <rect
                     style="fill:#050505;fill-opacity:0.958549;stroke-width:0.122339"
                     id="rect29230"
                     width="11.879038"
                     height="14.975878"
                     x="180.14755"
                     y="30.368179"
                     ry="5.1590557"
                     transform="matrix(1,0,0.02305587,0.99973418,0,0)" />
                  <path
                     id="path29232"
                     style="fill:#050505;fill-opacity:0.958549;stroke:#000000;stroke-width:0.560884;stroke-dasharray:none;stroke-opacity:1"
                     d="m 181.09911,39.650654 c -4.75796,0 -8.58819,3.830625 -8.58819,8.588583 v 9.486196 c 0,0.215118 0.008,0.428331 0.0233,0.639393 h 28.8279 c 0.0154,-0.211062 0.0233,-0.424275 0.0233,-0.639393 v -9.486196 c 0,-4.757958 -3.83024,-8.588583 -8.58819,-8.588583 z" />
                  <rect
                     style="fill:#050505;fill-opacity:0.958549;stroke:#030303;stroke-width:0.322043;stroke-dasharray:none;stroke-opacity:1"
                     id="rect29234"
                     width="11.879038"
                     height="14.975878"
                     x="180.21104"
                     y="29.696018"
                     ry="5.1590557"
                     transform="matrix(1,0,0.02305587,0.99973418,0,0)" />
                  <rect
                     style="fill:#050505;fill-opacity:0.958549;stroke:#000000;stroke-width:0.0302857;stroke-dasharray:none;stroke-opacity:1"
                     id="rect29236"
                     width="19.550095"
                     height="24.676035"
                     x="177.37683"
                     y="16.60343"
                     ry="8.5006742" />
                  <ellipse
                     style="fill:#050505;fill-opacity:0.958549;stroke-width:0.0646041"
                     id="ellipse29238"
                     cx="186.22969"
                     cy="30.907547"
                     rx="0.62372512"
                     ry="0.42840937" />
                  <ellipse
                     style="fill:#050505;fill-opacity:0.958549;stroke:#030303;stroke-width:0.120663;stroke-opacity:1"
                     id="ellipse29240"
                     cx="-183.26579"
                     cy="25.901789"
                     rx="2.5539098"
                     ry="1.4755706"
                     transform="scale(-1,1)" />
                  <ellipse
                     style="fill:#050505;fill-opacity:0.958549;stroke-width:0.0646041"
                     id="ellipse29242"
                     cx="188.43579"
                     cy="30.907547"
                     rx="0.62372512"
                     ry="0.42840937" />
                  <ellipse
                     style="fill:#050505;fill-opacity:0.958549;fill-rule:evenodd;stroke-width:0.211351"
                     id="ellipse29244"
                     cx="183.24939"
                     cy="25.698929"
                     rx="1.3286624"
                     ry="1.1515075" />
                  <circle
                     style="fill:#050505;fill-opacity:0.958549;fill-rule:evenodd;stroke-width:0.121622"
                     id="circle29246"
                     cx="183.24312"
                     cy="25.674843"
                     r="0.71361023" />
                  <circle
                     style="fill:#050505;fill-opacity:0.958549;fill-rule:evenodd;stroke-width:0.364513"
                     id="circle29248"
                     cx="-183.02342"
                     cy="25.41256"
                     r="0.17283729"
                     transform="scale(-1,1)" />
                  <path
                     id="path29250"
                     style="fill:#050505;fill-opacity:0.958549;stroke-width:0.0739751"
                     d="m 183.5125,34.957534 c 0.0609,0.893923 0.49466,1.682195 1.14773,2.211167 0.91158,0.387264 0.90452,0.416585 1.67771,0.416587 l 1.76924,4e-6 c 0.74559,10e-7 0.71855,-0.05198 1.48731,-0.473281 0.61521,-0.527792 1.02131,-1.291892 1.08005,-2.154475 z"
                     sodipodi:nodetypes="ccssccc" />
                  <ellipse
                     style="fill:#050505;fill-opacity:0.958549;stroke:#030303;stroke-width:0.120663;stroke-opacity:1"
                     id="ellipse29252"
                     cx="-191.57433"
                     cy="25.859398"
                     rx="2.5539098"
                     ry="1.4755706"
                     transform="scale(-1,1)" />
                  <ellipse
                     style="fill:#050505;fill-opacity:0.958549;fill-rule:evenodd;stroke-width:0.211351"
                     id="ellipse29254"
                     cx="191.55794"
                     cy="25.656538"
                     rx="1.3286624"
                     ry="1.1515075" />
                  <circle
                     style="fill:#050505;fill-opacity:0.958549;fill-rule:evenodd;stroke-width:0.121622"
                     id="circle29256"
                     cx="191.55167"
                     cy="25.63245"
                     r="0.71361023" />
                  <circle
                     style="fill:#050505;fill-opacity:0.958549;fill-rule:evenodd;stroke-width:0.364513"
                     id="circle29258"
                     cx="-191.33195"
                     cy="25.370169"
                     r="0.17283729"
                     transform="scale(-1,1)" />
                  <path
                     id="path29260"
                     style="fill:#050505;fill-opacity:0.958549;stroke:url(#linearGradient29290);stroke-width:0.0902229;stroke-dasharray:none;stroke-opacity:1"
                     d="m 183.46941,11.781242 c -5.80147,0 -10.47172,4.670844 -10.47172,10.472302 v 9.454106 c 0,4.533235 2.85157,8.375646 6.86626,9.839068 -1.4435,-1.680292 -2.31445,-3.86783 -2.31445,-6.266907 v -8.676 c 0,-5.323591 4.28531,-9.609492 9.6089,-9.609492 h 2.88168 c 2.63109,0 5.0081,1.047449 6.74008,2.749074 -1.11909,-4.581153 -5.23539,-7.962151 -10.17088,-7.962151 z" />
                  <path
                     id="path29262"
                     style="fill:#050505;fill-opacity:0.958549;stroke:url(#linearGradient29292);stroke-width:0.0902229;stroke-dasharray:none;stroke-opacity:1"
                     d="m 190.98072,11.781242 c 5.80147,0 10.47172,4.670844 10.47172,10.472302 v 9.454106 c 0,4.533235 -2.85157,8.375646 -6.86626,9.839068 1.4435,-1.680292 2.31445,-3.86783 2.31445,-6.266907 v -8.676 c 0,-5.323591 -4.28531,-9.609492 -9.6089,-9.609492 h -2.88168 c -2.63109,0 -5.0081,1.047449 -6.74008,2.749074 1.11909,-4.581153 5.23539,-7.962151 10.17088,-7.962151 z" />
                  <path
                     id="path29264"
                     style="fill:#050505;fill-opacity:0.958549;stroke-width:0.0739751"
                     d="m 183.5125,34.957534 c 0.0609,0.893923 0.49466,1.682195 1.14773,2.211167 0.91158,0.387264 0.90452,0.416585 1.67771,0.416587 l 1.76924,4e-6 c 0.74559,10e-7 0.71855,-0.05198 1.48731,-0.473281 0.61521,-0.527792 1.02131,-1.291892 1.08005,-2.154475 z"
                     sodipodi:nodetypes="ccssccc" />
                  <path
                     id="path29266"
                     style="fill:#050505;fill-opacity:0.958549;stroke-width:0.0906254"
                     d="m 182.79114,34.567411 c 0.0732,1.116673 0.5943,2.101369 1.37893,2.762151 1.09521,0.483764 1.08672,0.520391 2.01567,0.520394 l 2.12563,5e-6 c 0.89578,10e-7 0.8633,-0.06493 1.78692,-0.591214 0.73914,-0.659309 1.22704,-1.61381 1.29761,-2.691333 z"
                     sodipodi:nodetypes="ccssccc" />
                  <path
                     id="path29268"
                     style="fill:#050505;fill-opacity:0.958549;stroke-width:0.0712181"
                     d="m 183.64596,35.006502 c 0.0586,0.860607 0.47622,1.6195 1.10496,2.128758 0.87761,0.37283 0.87081,0.401059 1.61518,0.401061 l 1.7033,3e-6 c 0.7178,2e-6 0.69178,-0.05004 1.43188,-0.455641 0.59229,-0.508122 0.98325,-1.243744 1.0398,-2.074179 z"
                     sodipodi:nodetypes="ccssccc" />
                  <path
                     id="path29270"
                     style="fill:#050505;fill-opacity:0.958549;stroke-width:0.0863856"
                     d="m 185.59621,36.610971 c -0.38769,-10e-7 -0.76518,0.14089 -1.02784,0.363802 0.0586,0.05592 0.11939,0.109665 0.18241,0.160714 0.87761,0.372829 0.87104,0.401007 1.61541,0.401009 h 1.70325 c 0.7178,2e-6 0.69186,-0.05019 1.43196,-0.455786 0.031,-0.0266 0.0611,-0.05434 0.091,-0.08217 -0.24644,-0.235925 -0.61717,-0.387572 -1.01751,-0.387573 z" />
                  <path
                     id="path29272"
                     style="fill:#050505;fill-opacity:0.958549;stroke-width:0.0783268"
                     d="m 184.2348,35.017186 c 0.0306,0.464825 0.6908,0.833514 1.38366,0.833512 l 2.97881,-5e-6 c 0.69286,-2e-6 1.29674,-0.372361 1.32184,-0.833519 z"
                     sodipodi:nodetypes="ccccc"
                     inkscape:original-d="m 184.2348,35.017186 c 0.0162,0.24605 0.0605,0.559642 0.12912,0.833515 l 5.48789,-1.1e-5 c 0.0687,-0.273875 0.0511,-0.53583 0.0673,-0.833516 z"
                     inkscape:path-effect="#path-effect29288" />
                  <path
                     id="path29274"
                     style="fill:#050505;fill-opacity:0.958549;stroke:url(#linearGradient29294);stroke-width:0.083332;stroke-dasharray:none;stroke-opacity:1"
                     d="m 185.96462,11.793704 c -5.26143,-1.014646 -10.31385,2.404607 -11.32849,7.666032 l -1.65348,8.574062 c -0.79284,4.111255 1.12128,8.094716 4.50631,10.124062 -1.01526,-1.776341 -1.42255,-3.912574 -1.00296,-6.088332 l 1.51739,-7.868387 c 0.93106,-4.828039 5.56705,-7.965506 10.39509,-7.034438 l 2.61344,0.503991 c 2.38616,0.460162 4.35872,1.825836 5.63187,3.671977 -0.2137,-4.350435 -3.35551,-8.13663 -7.83157,-8.99982 z" />
                  <path
                     id="path29276"
                     style="fill:#050505;fill-opacity:0.958549;stroke:url(#linearGradient29296);stroke-width:0.083332;stroke-dasharray:none;stroke-opacity:1"
                     d="m 188.63435,11.793704 c 5.26143,-1.014646 10.31385,2.404607 11.32849,7.666032 l 1.65348,8.574062 c 0.79284,4.111255 -1.12128,8.094716 -4.50631,10.124062 1.01526,-1.776341 1.42255,-3.912574 1.00296,-6.088332 l -1.51739,-7.868387 c -0.93106,-4.828039 -5.56705,-7.965506 -10.39509,-7.034438 l -2.61344,0.503991 c -2.38616,0.460162 -4.35872,1.825836 -5.63187,3.671977 0.2137,-4.350435 3.35551,-8.13663 7.83157,-8.99982 z" />
                  <path
                     id="path29278"
                     style="fill:#050505;fill-opacity:0.958549;stroke:#000000;stroke-width:0.0371118;stroke-dasharray:none;stroke-opacity:1"
                     d="m 185.93767,11.996413 c -4.37769,0 -7.97424,4.685642 -8.55659,10.809159 h 4.16409 c 0.81623,-1.116703 1.79824,-2.436677 1.88567,-2.427759 0.0794,0.0081 0.66648,1.252676 1.20561,2.427759 h 3.63441 c 0.0382,-0.460162 0.0696,-0.836253 0.0723,-0.868681 0.009,-0.104097 0.28375,-3.420494 0.30696,-3.436482 0.0232,-0.01599 0.48314,2.794402 0.49765,2.882511 0.007,0.0426 0.11926,0.724092 0.23202,1.422652 h 2.23346 c 0.46345,-1.022435 1.06315,-2.319995 1.13585,-2.327506 0.0804,-0.0083 1.1238,1.407681 1.79369,2.327506 h 2.54196 c -0.58234,-6.123541 -4.17891,-10.809159 -8.55658,-10.809159 z" />
                </g>
              </g>
            </g>
            <g
               id="g29150"
               transform="matrix(0.74515537,0,0,0.72537808,154.10695,-47.415229)"
               style="fill:#ffb98a;fill-opacity:1">
              <rect
                 style="fill:#ffb98a;fill-opacity:1;stroke-width:0.103571"
                 id="rect29146"
                 width="9.1565714"
                 height="13.924938"
                 x="100.16856"
                 y="-39.610909"
                 ry="4.7970176"
                 transform="matrix(0,1,-0.99989952,-0.0141759,0,0)"
                 inkscape:transform-center-x="-0.18754404"
                 inkscape:transform-center-y="0.0026622334" />
              <rect
                 style="fill:#ffb98a;fill-opacity:1;stroke-width:0.103571"
                 id="rect29148"
                 width="9.1565714"
                 height="13.924938"
                 x="99.666679"
                 y="-62.500305"
                 ry="4.7970176"
                 transform="matrix(0,1,-0.99989952,-0.0141759,0,0)"
                 inkscape:transform-center-x="-0.18754404"
                 inkscape:transform-center-y="0.0026622334" />
            </g>
            <ellipse
               style="fill:#ff885e;fill-opacity:0.809524;fill-rule:evenodd;stroke-width:0.202456"
               id="ellipse29152"
               cx="197.24867"
               cy="28.686632"
               rx="2.4239106"
               ry="2.411911" />
            <ellipse
               style="fill:#ff885e;fill-opacity:0.809524;fill-rule:evenodd;stroke-width:0.202456"
               id="ellipse29154"
               cx="176.78773"
               cy="28.759666"
               rx="2.4239106"
               ry="2.411911" />
            <path
               id="path29156"
               style="fill:#ff4e4e;fill-opacity:1;stroke-width:0.0938925"
               d="m 186.78435,35.936153 c -1.34709,0 -2.53241,0.665505 -3.2472,1.687236 0.84017,0.542228 1.8424,0.856469 2.92115,0.856469 h 1.61417 c 1.14455,0 2.20303,-0.35386 3.07319,-0.958343 -0.72096,-0.963808 -1.8715,-1.585362 -3.17321,-1.585362 z" />
            <rect
               style="fill:#d38d5f;fill-opacity:1;stroke-width:0.122339"
               id="rect29158"
               width="11.879038"
               height="14.975878"
               x="180.14755"
               y="30.368179"
               ry="5.1590557"
               transform="matrix(1,0,0.02305587,0.99973418,0,0)" />
            <path
               id="path29160"
               style="fill:url(#linearGradient49678);fill-opacity:1;stroke:#000000;stroke-width:0.560884;stroke-dasharray:none;stroke-opacity:1"
               d="m 181.09911,39.650654 c -4.75796,0 -8.58819,3.830625 -8.58819,8.588583 v 9.486196 c 0,0.215118 0.008,0.428331 0.0233,0.639393 h 28.8279 c 0.0154,-0.211062 0.0233,-0.424275 0.0233,-0.639393 v -9.486196 c 0,-4.757958 -3.83024,-8.588583 -8.58819,-8.588583 z" />
            <rect
               style="fill:#db7c3b;fill-opacity:0.848485;stroke:#030303;stroke-width:0.322043;stroke-dasharray:none;stroke-opacity:1"
               id="rect29162"
               width="11.879038"
               height="14.975878"
               x="180.21104"
               y="29.696018"
               ry="5.1590557"
               transform="matrix(1,0,0.02305587,0.99973418,0,0)" />
            <rect
               style="fill:#ffb380;stroke:#000000;stroke-width:0.0743321;stroke-dasharray:none;stroke-opacity:1"
               id="rect29164"
               width="19.550095"
               height="24.676035"
               x="177.37683"
               y="16.60343"
               ry="8.5006742" />
            <ellipse
               style="fill:#522200;fill-opacity:1;stroke-width:0.0646041"
               id="ellipse29166"
               cx="186.22969"
               cy="30.907547"
               rx="0.62372512"
               ry="0.42840937" />
            <ellipse
               style="fill:#ff9149;fill-opacity:1;stroke:#030303;stroke-width:0;stroke-dasharray:none;stroke-opacity:1"
               id="ellipse29345"
               cx="-183.26579"
               cy="26.951157"
               rx="2.5539098"
               ry="1.4755706"
               transform="scale(-1,1)" />
            <ellipse
               style="fill:#e3e3e3;fill-opacity:1;stroke:#030303;stroke-width:0.120663;stroke-opacity:1"
               id="ellipse29168"
               cx="-183.26579"
               cy="25.901789"
               rx="2.5539098"
               ry="1.4755706"
               transform="scale(-1,1)" />
            <ellipse
               style="fill:#522200;fill-opacity:1;stroke-width:0.0646041"
               id="ellipse29170"
               cx="188.43579"
               cy="30.907547"
               rx="0.62372512"
               ry="0.42840937" />
            <ellipse
               style="fill:#2a9fff;fill-opacity:1;fill-rule:evenodd;stroke-width:0.211351"
               id="ellipse29172"
               cx="183.24939"
               cy="25.698929"
               rx="1.3286624"
               ry="1.1515075" />
            <circle
               style="fill:#000000;fill-opacity:1;fill-rule:evenodd;stroke-width:0.121622"
               id="circle29174"
               cx="183.24312"
               cy="25.674843"
               r="0.71361023" />
            <circle
               style="fill:#fff4f4;fill-opacity:1;fill-rule:evenodd;stroke-width:0.364513"
               id="circle29176"
               cx="-183.02342"
               cy="25.41256"
               r="0.17283729"
               transform="scale(-1,1)" />
            <path
               id="path29178"
               style="fill:#47001f;fill-opacity:1;stroke-width:0.0739751"
               d="m 183.5125,34.957534 c 0.0609,0.893923 0.49466,1.682195 1.14773,2.211167 0.91158,0.387264 0.90452,0.416585 1.67771,0.416587 l 1.76924,4e-6 c 0.74559,10e-7 0.71855,-0.05198 1.48731,-0.473281 0.61521,-0.527792 1.02131,-1.291892 1.08005,-2.154475 z"
               sodipodi:nodetypes="ccssccc" />
            <ellipse
               style="fill:#ff9149;fill-opacity:1;stroke:#030303;stroke-width:0;stroke-dasharray:none;stroke-opacity:1"
               id="ellipse29485"
               cx="-191.60341"
               cy="26.951157"
               rx="2.5539098"
               ry="1.4755706"
               transform="scale(-1,1)" />
            <ellipse
               style="fill:#e3e3e3;fill-opacity:1;stroke:#030303;stroke-width:0.120663;stroke-opacity:1"
               id="ellipse29180"
               cx="-191.57433"
               cy="25.859398"
               rx="2.5539098"
               ry="1.4755706"
               transform="scale(-1,1)" />
            <ellipse
               style="fill:#2a9fff;fill-opacity:1;fill-rule:evenodd;stroke-width:0.211351"
               id="ellipse29182"
               cx="191.55794"
               cy="25.656538"
               rx="1.3286624"
               ry="1.1515075" />
            <circle
               style="fill:#000000;fill-opacity:1;fill-rule:evenodd;stroke-width:0.121622"
               id="circle29184"
               cx="191.55167"
               cy="25.63245"
               r="0.71361023" />
            <circle
               style="fill:#fff4f4;fill-opacity:1;fill-rule:evenodd;stroke-width:0.364513"
               id="circle29186"
               cx="-191.33195"
               cy="25.370169"
               r="0.17283729"
               transform="scale(-1,1)" />
            <path
               id="path29188"
               style="fill:#ff8c00;fill-opacity:1;stroke:url(#linearGradient29302);stroke-width:0.0902229;stroke-dasharray:none;stroke-opacity:1"
               d="m 183.46941,11.781242 c -5.80147,0 -10.47172,4.670844 -10.47172,10.472302 v 9.454106 c 0,4.533235 2.85157,8.375646 6.86626,9.839068 -1.4435,-1.680292 -2.31445,-3.86783 -2.31445,-6.266907 v -8.676 c 0,-5.323591 4.28531,-9.609492 9.6089,-9.609492 h 2.88168 c 2.63109,0 5.0081,1.047449 6.74008,2.749074 -1.11909,-4.581153 -5.23539,-7.962151 -10.17088,-7.962151 z" />
            <path
               id="path29190"
               style="fill:#ff8c00;fill-opacity:1;stroke:url(#linearGradient29304);stroke-width:0.0902229;stroke-dasharray:none;stroke-opacity:1"
               d="m 190.98072,11.781242 c 5.80147,0 10.47172,4.670844 10.47172,10.472302 v 9.454106 c 0,4.533235 -2.85157,8.375646 -6.86626,9.839068 1.4435,-1.680292 2.31445,-3.86783 2.31445,-6.266907 v -8.676 c 0,-5.323591 -4.28531,-9.609492 -9.6089,-9.609492 h -2.88168 c -2.63109,0 -5.0081,1.047449 -6.74008,2.749074 1.11909,-4.581153 5.23539,-7.962151 10.17088,-7.962151 z" />
            <path
               id="path29192"
               style="fill:#47001f;fill-opacity:1;stroke-width:0.0739751"
               d="m 183.5125,34.957534 c 0.0609,0.893923 0.49466,1.682195 1.14773,2.211167 0.91158,0.387264 0.90452,0.416585 1.67771,0.416587 l 1.76924,4e-6 c 0.74559,10e-7 0.71855,-0.05198 1.48731,-0.473281 0.61521,-0.527792 1.02131,-1.291892 1.08005,-2.154475 z"
               sodipodi:nodetypes="ccssccc" />
            <path
               id="path29194"
               style="fill:#ff5b7f;fill-opacity:1;stroke-width:0.0906254"
               d="m 182.79114,34.567411 c 0.0732,1.116673 0.5943,2.101369 1.37893,2.762151 1.09521,0.483764 1.08672,0.520391 2.01567,0.520394 l 2.12563,5e-6 c 0.89578,10e-7 0.8633,-0.06493 1.78692,-0.591214 0.73914,-0.659309 1.22704,-1.61381 1.29761,-2.691333 z"
               sodipodi:nodetypes="ccssccc" />
            <path
               id="path29196"
               style="fill:#1a0300;fill-opacity:1;stroke-width:0.0712181"
               d="m 183.64596,35.006502 c 0.0586,0.860607 0.47622,1.6195 1.10496,2.128758 0.87761,0.37283 0.87081,0.401059 1.61518,0.401061 l 1.7033,3e-6 c 0.7178,2e-6 0.69178,-0.05004 1.43188,-0.455641 0.59229,-0.508122 0.98325,-1.243744 1.0398,-2.074179 z"
               sodipodi:nodetypes="ccssccc" />
            <path
               id="path29198"
               style="fill:#ffffff;stroke-width:0.0863856"
               d="m 185.59621,36.610971 c -0.38769,-10e-7 -0.76518,0.14089 -1.02784,0.363802 0.0586,0.05592 0.11939,0.109665 0.18241,0.160714 0.87761,0.372829 0.87104,0.401007 1.61541,0.401009 h 1.70325 c 0.7178,2e-6 0.69186,-0.05019 1.43196,-0.455786 0.031,-0.0266 0.0611,-0.05434 0.091,-0.08217 -0.24644,-0.235925 -0.61717,-0.387572 -1.01751,-0.387573 z" />
            <path
               id="path29200"
               style="fill:#ffffff;stroke-width:0.0783268"
               d="m 184.2348,35.017186 c 0.0306,0.464825 0.6908,0.833514 1.38366,0.833512 l 2.97881,-5e-6 c 0.69286,-2e-6 1.29674,-0.372361 1.32184,-0.833519 z"
               sodipodi:nodetypes="ccccc"
               inkscape:original-d="m 184.2348,35.017186 c 0.0162,0.24605 0.0605,0.559642 0.12912,0.833515 l 5.48789,-1.1e-5 c 0.0687,-0.273875 0.0511,-0.53583 0.0673,-0.833516 z"
               inkscape:path-effect="#path-effect29216" />
            <path
               id="path29202"
               style="fill:#ffc278;fill-opacity:1;stroke:url(#linearGradient29306);stroke-width:0.083332;stroke-dasharray:none;stroke-opacity:1"
               d="m 185.96462,11.793704 c -5.26143,-1.014646 -10.31385,2.404607 -11.32849,7.666032 l -1.65348,8.574062 c -0.79284,4.111255 1.12128,8.094716 4.50631,10.124062 -1.01526,-1.776341 -1.42255,-3.912574 -1.00296,-6.088332 l 1.51739,-7.868387 c 0.93106,-4.828039 5.56705,-7.965506 10.39509,-7.034438 l 2.61344,0.503991 c 2.38616,0.460162 4.35872,1.825836 5.63187,3.671977 -0.2137,-4.350435 -3.35551,-8.13663 -7.83157,-8.99982 z" />
            <path
               id="path29204"
               style="fill:#ffc278;fill-opacity:1;stroke:url(#linearGradient29308);stroke-width:0.083332;stroke-dasharray:none;stroke-opacity:1"
               d="m 188.63435,11.793704 c 5.26143,-1.014646 10.31385,2.404607 11.32849,7.666032 l 1.65348,8.574062 c 0.79284,4.111255 -1.12128,8.094716 -4.50631,10.124062 1.01526,-1.776341 1.42255,-3.912574 1.00296,-6.088332 l -1.51739,-7.868387 c -0.93106,-4.828039 -5.56705,-7.965506 -10.39509,-7.034438 l -2.61344,0.503991 c -2.38616,0.460162 -4.35872,1.825836 -5.63187,3.671977 0.2137,-4.350435 3.35551,-8.13663 7.83157,-8.99982 z" />
            <path
               id="path29206"
               style="fill:#ff8c00;fill-opacity:1;stroke:#000000;stroke-width:0.0371118;stroke-dasharray:none;stroke-opacity:1"
               d="m 185.93767,11.996413 c -4.37769,0 -7.97424,4.685642 -8.55659,10.809159 h 4.16409 c 0.81623,-1.116703 1.79824,-2.436677 1.88567,-2.427759 0.0794,0.0081 0.66648,1.252676 1.20561,2.427759 h 3.63441 c 0.0382,-0.460162 0.0696,-0.836253 0.0723,-0.868681 0.009,-0.104097 0.28375,-3.420494 0.30696,-3.436482 0.0232,-0.01599 0.48314,2.794402 0.49765,2.882511 0.007,0.0426 0.11926,0.724092 0.23202,1.422652 h 2.23346 c 0.46345,-1.022435 1.06315,-2.319995 1.13585,-2.327506 0.0804,-0.0083 1.1238,1.407681 1.79369,2.327506 h 2.54196 c -0.58234,-6.123541 -4.17891,-10.809159 -8.55658,-10.809159 z" />
          </g>
        </g>
      </g>
    </g>
  </g>
</svg>
