<?xml version="1.0" encoding="UTF-8" standalone="no"?>
<!-- Created with Inkscape (http://www.inkscape.org/) -->

<svg
   width="29.435385mm"
   height="48.101379mm"
   viewBox="0 0 29.435385 48.101379"
   version="1.1"
   id="svg34454"
   inkscape:version="1.2.1 (9c6d41e410, 2022-07-14)"
   sodipodi:docname="avatar_16.svg"
   xmlns:inkscape="http://www.inkscape.org/namespaces/inkscape"
   xmlns:sodipodi="http://sodipodi.sourceforge.net/DTD/sodipodi-0.dtd"
   xmlns="http://www.w3.org/2000/svg"
   xmlns:svg="http://www.w3.org/2000/svg">
  <sodipodi:namedview
     id="namedview34456"
     pagecolor="#ffffff"
     bordercolor="#000000"
     borderopacity="0.25"
     inkscape:showpageshadow="2"
     inkscape:pageopacity="0.0"
     inkscape:pagecheckerboard="0"
     inkscape:deskcolor="#d1d1d1"
     inkscape:document-units="mm"
     showgrid="false"
     inkscape:zoom="2.9825757"
     inkscape:cx="2.1793244"
     inkscape:cy="118.68936"
     inkscape:window-width="1920"
     inkscape:window-height="1017"
     inkscape:window-x="-8"
     inkscape:window-y="-8"
     inkscape:window-maximized="1"
     inkscape:current-layer="g37249" />
  <defs
     id="defs34451">
    <inkscape:path-effect
       effect="fillet_chamfer"
       id="path-effect19959"
       is_visible="true"
       lpeversion="1"
       nodesatellites_param="F,0,0,1,0,0,0,1 @ F,0,1,1,0,1.2545445,0,1 @ F,0,0,1,0,1.2545445,0,1 @ F,0,0,1,0,0,0,1"
       unit="px"
       method="auto"
       mode="F"
       radius="0"
       chamfer_steps="1"
       flexible="false"
       use_knot_distance="true"
       apply_no_radius="true"
       apply_with_radius="true"
       only_selected="false"
       hide_knots="false" />
    <inkscape:path-effect
       effect="fillet_chamfer"
       id="path-effect16060"
       is_visible="true"
       lpeversion="1"
       nodesatellites_param="F,0,0,1,0,0,0,1 @ F,0,1,1,0,1.2545445,0,1 @ F,0,0,1,0,1.2545445,0,1 @ F,0,0,1,0,0,0,1"
       unit="px"
       method="auto"
       mode="F"
       radius="0"
       chamfer_steps="1"
       flexible="false"
       use_knot_distance="true"
       apply_no_radius="true"
       apply_with_radius="true"
       only_selected="false"
       hide_knots="false" />
    <inkscape:path-effect
       effect="fillet_chamfer"
       id="path-effect16060-6"
       is_visible="true"
       lpeversion="1"
       nodesatellites_param="F,0,0,1,0,0,0,1 @ F,0,1,1,0,1.2545445,0,1 @ F,0,0,1,0,1.2545445,0,1 @ F,0,0,1,0,0,0,1"
       unit="px"
       method="auto"
       mode="F"
       radius="0"
       chamfer_steps="1"
       flexible="false"
       use_knot_distance="true"
       apply_no_radius="true"
       apply_with_radius="true"
       only_selected="false"
       hide_knots="false" />
    <filter
       inkscape:collect="always"
       style="color-interpolation-filters:sRGB"
       id="filter20324"
       x="-0.026151888"
       y="-0.010347986"
       width="1.0514942"
       height="1.0265604">
      <feGaussianBlur
         inkscape:collect="always"
         stdDeviation="0.20618766"
         id="feGaussianBlur20326" />
    </filter>
  </defs>
  <g
     inkscape:label="Layer 1"
     inkscape:groupmode="layer"
     id="layer1"
     transform="translate(-92.443558,-116.82028)">
    <g
       id="g34449"
       transform="translate(-79.78692,106.27639)">
      <g
         id="g37249">
        <g
           id="g22068"
           transform="matrix(0.99194825,0,0,0.99194825,1.2434241,-0.87467808)">
          <g
             id="g19955"
             transform="matrix(0.89771133,0,0,0.89771133,19.743648,3.5386335)"
             style="fill:#000000;fill-opacity:0.986864;filter:url(#filter20324)">
            <g
               id="g19953"
               style="fill:#000000;fill-opacity:0.986864">
              <g
                 id="g19895"
                 transform="matrix(0.7860526,0,0,0.76518985,152.30384,-51.600281)"
                 style="fill:#000000;fill-opacity:0.986864">
                <rect
                   style="fill:#000000;fill-opacity:0.986864;stroke-width:0.103571"
                   id="rect19891"
                   width="9.1565714"
                   height="13.924938"
                   x="100.16856"
                   y="-39.610909"
                   ry="4.7970176"
                   transform="matrix(0,1,-0.99989952,-0.0141759,0,0)"
                   inkscape:transform-center-x="-0.18754404"
                   inkscape:transform-center-y="0.0026622334" />
                <rect
                   style="fill:#000000;fill-opacity:0.986864;stroke-width:0.103571"
                   id="rect19893"
                   width="9.1565714"
                   height="13.924938"
                   x="99.666679"
                   y="-62.500305"
                   ry="4.7970176"
                   transform="matrix(0,1,-0.99989952,-0.0141759,0,0)"
                   inkscape:transform-center-x="-0.18754404"
                   inkscape:transform-center-y="0.0026622334" />
              </g>
              <ellipse
                 style="fill:#000000;fill-opacity:0.986864;fill-rule:evenodd;stroke-width:0.202456"
                 id="ellipse19897"
                 cx="198.2523"
                 cy="28.686632"
                 rx="2.4239106"
                 ry="2.411911" />
              <ellipse
                 style="fill:#000000;fill-opacity:0.986864;fill-rule:evenodd;stroke-width:0.202456"
                 id="ellipse19899"
                 cx="175.7841"
                 cy="28.822393"
                 rx="2.4239106"
                 ry="2.411911" />
              <path
                 id="path19901"
                 style="fill:#000000;fill-opacity:0.986864;stroke-width:0.0938925"
                 d="m 186.78435,35.936153 c -1.34709,0 -2.53241,0.665505 -3.2472,1.687236 0.84017,0.542228 1.8424,0.856469 2.92115,0.856469 h 1.61417 c 1.14455,0 2.20303,-0.35386 3.07319,-0.958343 -0.72096,-0.963808 -1.8715,-1.585362 -3.17321,-1.585362 z" />
              <rect
                 style="fill:#000000;fill-opacity:0.986864;stroke-width:0.122339"
                 id="rect19903"
                 width="11.879038"
                 height="14.975878"
                 x="180.14755"
                 y="30.368179"
                 ry="5.1590557"
                 transform="matrix(1,0,0.02305587,0.99973418,0,0)" />
              <path
                 id="path19905"
                 style="fill:#000000;fill-opacity:0.986864;stroke:#030303;stroke-width:0.560884;stroke-dasharray:none;stroke-opacity:1"
                 d="m 181.09911,39.650654 c -4.75796,0 -8.58819,3.830625 -8.58819,8.588583 v 9.486196 c 0,0.215118 0.008,0.428331 0.0233,0.639393 h 28.8279 c 0.0154,-0.211062 0.0233,-0.424275 0.0233,-0.639393 v -9.486196 c 0,-4.757958 -3.83024,-8.588583 -8.58819,-8.588583 z" />
              <rect
                 style="fill:#000000;fill-opacity:0.986864;stroke:#030303;stroke-width:0.479009;stroke-dasharray:none;stroke-opacity:1"
                 id="rect19907"
                 width="9.1676617"
                 height="16.415394"
                 x="182.56805"
                 y="41.948257"
                 ry="0" />
              <rect
                 style="fill:#000000;fill-opacity:0.986864;stroke:#030303;stroke-width:0.322043;stroke-dasharray:none;stroke-opacity:1"
                 id="rect19909"
                 width="11.879038"
                 height="14.975878"
                 x="180.21104"
                 y="29.696018"
                 ry="5.1590557"
                 transform="matrix(1,0,0.02305587,0.99973418,0,0)" />
              <ellipse
                 style="fill:#000000;fill-opacity:0.986864;stroke-width:0.267083"
                 id="ellipse19911"
                 cx="-196.6033"
                 cy="18.278696"
                 rx="3.8661387"
                 ry="3.2094326"
                 transform="scale(-1,1)" />
              <path
                 id="path19913"
                 d="m 192.10221,20.427836 v 12.303757 h 0.13765 c 3.90223,0 7.14331,-3.115868 7.12945,-5.540334 l -0.0638,-11.167371 h -0.11507 c -3.91469,0 -7.08817,1.971715 -7.08817,4.403948 z"
                 style="fill:#000000;fill-opacity:0.986864;stroke-width:0.242303"
                 sodipodi:nodetypes="scsscss" />
              <ellipse
                 style="fill:#000000;fill-opacity:0.986864;stroke-width:0.246279"
                 id="ellipse19915"
                 cx="177.12677"
                 cy="15.861236"
                 rx="3.4078743"
                 ry="3.095886" />
              <path
                 id="path19917"
                 d="m 180.74217,20.527147 v 11.868459 h -0.1162 c -3.29434,0 -6.03054,-3.005627 -6.01883,-5.344323 l 0.0539,-10.772276 h 0.0971 c 3.30486,0 5.98398,1.901957 5.98398,4.24814 z"
                 style="fill:#000000;fill-opacity:0.986864;stroke-width:0.218658"
                 sodipodi:nodetypes="scsscss" />
              <rect
                 style="fill:#000000;fill-opacity:0.986864;stroke:#030303;stroke-width:0.138642;stroke-dasharray:none;stroke-opacity:1"
                 id="rect19919"
                 width="21.17848"
                 height="26.731375"
                 x="176.56264"
                 y="15.57576"
                 ry="9.2087202" />
              <path
                 id="path19921"
                 style="fill:#000000;fill-opacity:0.986864;stroke-width:0.166418"
                 d="m 180.02937,32.571598 -0.0219,1.759822 c -0.0553,4.469921 2.72554,8.069221 6.11092,8.069221 h 1.83206 c 3.38539,0 6.11092,-3.598958 6.11092,-8.069221 l -0.0715,-1.657584 z"
                 sodipodi:nodetypes="csssscc" />
              <path
                 id="path19923"
                 d="m 183.39683,13.302059 h 13.42369 v 0.07984 c 0,2.263399 -3.39949,4.143321 -6.04465,4.135281 l -12.18386,-0.03704 v -0.06675 c 0,-2.270631 2.15118,-4.11134 4.80482,-4.11134 z"
                 style="fill:#000000;fill-opacity:0.986864;stroke-width:0.192752"
                 sodipodi:nodetypes="scsscss"
                 inkscape:transform-center-x="-11.440388"
                 inkscape:transform-center-y="-2.4518104" />
              <path
                 id="path19925"
                 d="m 181.93921,12.604099 12.7147,-2.06021 0.0171,0.07954 c 0.48334,2.254883 -2.33515,4.649469 -4.84232,5.047426 l -11.54826,1.833027 -0.0142,-0.06649 c -0.48489,-2.262087 1.15961,-4.426025 3.67309,-4.833292 z"
                 style="fill:#000000;fill-opacity:0.986864;stroke-width:0.190463"
                 sodipodi:nodetypes="scsscss"
                 inkscape:transform-center-x="-10.226556"
                 inkscape:transform-center-y="-4.0317996" />
              <ellipse
                 style="fill:#000000;fill-opacity:0.986864;stroke-width:0.0646041"
                 id="ellipse19927"
                 cx="186.22969"
                 cy="30.907547"
                 rx="0.62372512"
                 ry="0.42840937" />
              <ellipse
                 style="fill:#000000;fill-opacity:0.986864;stroke:#030303;stroke-width:0.125942;stroke-dasharray:none;stroke-opacity:1"
                 id="ellipse19929"
                 cx="-183.60555"
                 cy="25.814062"
                 rx="2.6722517"
                 ry="1.5439448"
                 transform="scale(-1,1)" />
              <ellipse
                 style="fill:#000000;fill-opacity:0.986864;stroke-width:0.0646041"
                 id="ellipse19931"
                 cx="188.43579"
                 cy="30.907547"
                 rx="0.62372512"
                 ry="0.42840937" />
              <ellipse
                 style="fill:#000000;fill-opacity:0.986864;fill-rule:evenodd;stroke-width:0.221144"
                 id="ellipse19933"
                 cx="183.58839"
                 cy="25.601803"
                 rx="1.3902293"
                 ry="1.2048655" />
              <circle
                 style="fill:#000000;fill-opacity:0.986864;fill-rule:evenodd;stroke-width:0.127258"
                 id="circle19935"
                 cx="183.58183"
                 cy="25.576599"
                 r="0.74667716" />
              <circle
                 style="fill:#000000;fill-opacity:0.986864;fill-rule:evenodd;stroke-width:0.381404"
                 id="circle19937"
                 cx="-183.30759"
                 cy="25.279985"
                 r="0.18084614"
                 transform="scale(-1,1)" />
              <path
                 id="path19939"
                 style="fill:#000000;fill-opacity:0.986864;stroke-width:0.0739751"
                 d="m 183.5125,34.957534 c 0.0609,0.893923 0.49466,1.682195 1.14773,2.211167 0.54566,-0.466567 1.25487,-0.747726 2.03255,-0.747726 h 0.93759 c 0.74559,0 1.42822,0.258508 1.96412,0.691034 0.61521,-0.527792 1.02131,-1.291892 1.08005,-2.154475 z" />
              <path
                 id="path19941"
                 style="fill:#000000;fill-opacity:0.986864;stroke-width:0.0793165"
                 d="m 186.63236,36.142147 c -0.8451,0 -1.60927,0.332135 -2.1706,0.873324 0.5777,0.476362 1.319,0.762143 2.12979,0.762143 h 1.00358 c 0.81468,0 1.55916,-0.288504 2.1381,-0.768985 -0.56061,-0.537096 -1.32181,-0.866482 -2.16328,-0.866482 z" />
              <path
                 id="path19943"
                 style="fill:#000000;fill-opacity:0.986864;stroke-width:0.0783268"
                 d="m 184.28968,34.962299 c 0.0306,0.464825 0.6908,0.833514 1.38366,0.833512 l 2.97881,-5e-6 c 0.69286,-2e-6 1.29674,-0.372361 1.32184,-0.833519 z"
                 sodipodi:nodetypes="ccccc"
                 inkscape:original-d="m 184.28968,34.962299 c 0.0162,0.24605 0.0605,0.559642 0.12912,0.833515 l 5.48789,-1.1e-5 c 0.0687,-0.273875 0.0511,-0.53583 0.0673,-0.833516 z"
                 inkscape:path-effect="#path-effect19959" />
              <ellipse
                 style="fill:#000000;fill-opacity:0.986864;stroke:#030303;stroke-width:0.125942;stroke-dasharray:none;stroke-opacity:1"
                 id="ellipse19945"
                 cx="-191.23457"
                 cy="25.858416"
                 rx="2.6722517"
                 ry="1.5439448"
                 transform="scale(-1,1)" />
              <ellipse
                 style="fill:#000000;fill-opacity:0.986864;fill-rule:evenodd;stroke-width:0.221144"
                 id="ellipse19947"
                 cx="191.26178"
                 cy="25.646156"
                 rx="1.3902293"
                 ry="1.2048655" />
              <circle
                 style="fill:#000000;fill-opacity:0.986864;fill-rule:evenodd;stroke-width:0.127258"
                 id="circle19949"
                 cx="191.21086"
                 cy="25.620953"
                 r="0.74667716" />
              <circle
                 style="fill:#000000;fill-opacity:0.986864;fill-rule:evenodd;stroke-width:0.381404"
                 id="circle19951"
                 cx="-190.98097"
                 cy="25.346518"
                 r="0.18084614"
                 transform="scale(-1,1)" />
            </g>
          </g>
          <g
             id="g19889"
             transform="matrix(0.89771133,0,0,0.89771133,19.12268,3.5386335)">
            <g
               id="g39312">
              <g
                 id="g15581"
                 transform="matrix(0.7860526,0,0,0.76518985,152.30384,-51.600281)"
                 style="fill:#ffb98a;fill-opacity:1">
                <rect
                   style="fill:#ffb98a;fill-opacity:1;stroke-width:0.103571"
                   id="rect15577"
                   width="9.1565714"
                   height="13.924938"
                   x="100.16856"
                   y="-39.610909"
                   ry="4.7970176"
                   transform="matrix(0,1,-0.99989952,-0.0141759,0,0)"
                   inkscape:transform-center-x="-0.18754404"
                   inkscape:transform-center-y="0.0026622334" />
                <rect
                   style="fill:#ffb98a;fill-opacity:1;stroke-width:0.103571"
                   id="rect15579"
                   width="9.1565714"
                   height="13.924938"
                   x="99.666679"
                   y="-62.500305"
                   ry="4.7970176"
                   transform="matrix(0,1,-0.99989952,-0.0141759,0,0)"
                   inkscape:transform-center-x="-0.18754404"
                   inkscape:transform-center-y="0.0026622334" />
              </g>
              <ellipse
                 style="fill:#ff885e;fill-opacity:0.809524;fill-rule:evenodd;stroke-width:0.202456"
                 id="ellipse16064"
                 cx="198.2523"
                 cy="28.686632"
                 rx="2.4239106"
                 ry="2.411911" />
              <ellipse
                 style="fill:#ff885e;fill-opacity:0.809524;fill-rule:evenodd;stroke-width:0.202456"
                 id="path16062"
                 cx="175.7841"
                 cy="28.822393"
                 rx="2.4239106"
                 ry="2.411911" />
              <path
                 id="path15595"
                 style="fill:#ff4e4e;fill-opacity:1;stroke-width:0.0938925"
                 d="m 186.78435,35.936153 c -1.34709,0 -2.53241,0.665505 -3.2472,1.687236 0.84017,0.542228 1.8424,0.856469 2.92115,0.856469 h 1.61417 c 1.14455,0 2.20303,-0.35386 3.07319,-0.958343 -0.72096,-0.963808 -1.8715,-1.585362 -3.17321,-1.585362 z" />
              <rect
                 style="fill:#d38d5f;fill-opacity:1;stroke-width:0.122339"
                 id="rect15569"
                 width="11.879038"
                 height="14.975878"
                 x="180.14755"
                 y="30.368179"
                 ry="5.1590557"
                 transform="matrix(1,0,0.02305587,0.99973418,0,0)" />
              <path
                 id="path15571"
                 style="fill:#00182a;fill-opacity:1;stroke:#030303;stroke-width:0.560884;stroke-dasharray:none;stroke-opacity:1"
                 d="m 181.09911,39.650654 c -4.75796,0 -8.58819,3.830625 -8.58819,8.588583 v 9.486196 c 0,0.215118 0.008,0.428331 0.0233,0.639393 h 28.8279 c 0.0154,-0.211062 0.0233,-0.424275 0.0233,-0.639393 v -9.486196 c 0,-4.757958 -3.83024,-8.588583 -8.58819,-8.588583 z" />
              <rect
                 style="fill:#c9c9c9;fill-opacity:1;stroke:#030303;stroke-width:0.479009;stroke-dasharray:none;stroke-opacity:1"
                 id="rect15573"
                 width="9.1676617"
                 height="16.415394"
                 x="182.56805"
                 y="41.948257"
                 ry="0" />
              <rect
                 style="fill:#e78949;fill-opacity:1;stroke:#030303;stroke-width:0.322043;stroke-dasharray:none;stroke-opacity:1"
                 id="rect15575"
                 width="11.879038"
                 height="14.975878"
                 x="180.21104"
                 y="29.696018"
                 ry="5.1590557"
                 transform="matrix(1,0,0.02305587,0.99973418,0,0)" />
              <ellipse
                 style="fill:#242424;fill-opacity:1;stroke-width:0.267083"
                 id="ellipse15583"
                 cx="-196.6033"
                 cy="18.278696"
                 rx="3.8661387"
                 ry="3.2094326"
                 transform="scale(-1,1)" />
              <path
                 id="path15585"
                 d="m 192.10221,20.427836 v 12.303757 h 0.13765 c 3.90223,0 7.14331,-3.115868 7.12945,-5.540334 l -0.0638,-11.167371 h -0.11507 c -3.91469,0 -7.08817,1.971715 -7.08817,4.403948 z"
                 style="fill:#242424;fill-opacity:1;stroke-width:0.242303"
                 sodipodi:nodetypes="scsscss" />
              <ellipse
                 style="fill:#242424;fill-opacity:1;stroke-width:0.246279"
                 id="ellipse15587"
                 cx="177.12677"
                 cy="15.861236"
                 rx="3.4078743"
                 ry="3.095886" />
              <path
                 id="path15589"
                 d="m 180.74217,20.527147 v 11.868459 h -0.1162 c -3.29434,0 -6.03054,-3.005627 -6.01883,-5.344323 l 0.0539,-10.772276 h 0.0971 c 3.30486,0 5.98398,1.901957 5.98398,4.24814 z"
                 style="fill:#242424;fill-opacity:1;stroke-width:0.218658"
                 sodipodi:nodetypes="scsscss" />
              <rect
                 style="fill:#ffb380;stroke:#030303;stroke-width:0.138642;stroke-dasharray:none;stroke-opacity:1"
                 id="rect15591"
                 width="21.17848"
                 height="26.731375"
                 x="176.56264"
                 y="15.57576"
                 ry="9.2087202" />
              <path
                 id="path16544"
                 style="fill:#242424;fill-opacity:1;stroke-width:0.166418"
                 d="m 180.02937,32.571598 -0.0219,1.759822 c -0.0553,4.469921 2.72554,8.069221 6.11092,8.069221 h 1.83206 c 3.38539,0 6.11092,-3.598958 6.11092,-8.069221 l -0.0715,-1.657584 z"
                 sodipodi:nodetypes="csssscc" />
              <path
                 id="path15601"
                 d="m 183.39683,13.302059 h 13.42369 v 0.07984 c 0,2.263399 -3.39949,4.143321 -6.04465,4.135281 l -12.18386,-0.03704 v -0.06675 c 0,-2.270631 2.15118,-4.11134 4.80482,-4.11134 z"
                 style="fill:#626262;fill-opacity:1;stroke-width:0.192752"
                 sodipodi:nodetypes="scsscss"
                 inkscape:transform-center-x="-11.440388"
                 inkscape:transform-center-y="-2.4518104" />
              <path
                 id="path15603"
                 d="m 181.93921,12.604099 12.7147,-2.06021 0.0171,0.07954 c 0.48334,2.254883 -2.33515,4.649469 -4.84232,5.047426 l -11.54826,1.833027 -0.0142,-0.06649 c -0.48489,-2.262087 1.15961,-4.426025 3.67309,-4.833292 z"
                 style="fill:#242424;fill-opacity:1;stroke-width:0.190463"
                 sodipodi:nodetypes="scsscss"
                 inkscape:transform-center-x="-10.226556"
                 inkscape:transform-center-y="-4.0317996" />
              <ellipse
                 style="fill:#522200;fill-opacity:1;stroke-width:0.0646041"
                 id="ellipse15605"
                 cx="186.22969"
                 cy="30.907547"
                 rx="0.62372512"
                 ry="0.42840937" />
              <ellipse
                 style="fill:#e3e3e3;fill-opacity:1;stroke:#030303;stroke-width:0.125942;stroke-dasharray:none;stroke-opacity:1"
                 id="ellipse16193"
                 cx="-183.60555"
                 cy="25.814062"
                 rx="2.6722517"
                 ry="1.5439448"
                 transform="scale(-1,1)" />
              <ellipse
                 style="fill:#522200;fill-opacity:1;stroke-width:0.0646041"
                 id="ellipse16268"
                 cx="188.43579"
                 cy="30.907547"
                 rx="0.62372512"
                 ry="0.42840937" />
              <ellipse
                 style="fill:#2a9fff;fill-opacity:1;fill-rule:evenodd;stroke-width:0.221144"
                 id="path37288"
                 cx="183.58839"
                 cy="25.601803"
                 rx="1.3902293"
                 ry="1.2048655" />
              <circle
                 style="fill:#000000;fill-opacity:1;fill-rule:evenodd;stroke-width:0.127258"
                 id="path37772"
                 cx="183.58183"
                 cy="25.576599"
                 r="0.74667716" />
              <circle
                 style="fill:#fff4f4;fill-opacity:1;fill-rule:evenodd;stroke-width:0.381404"
                 id="circle37774"
                 cx="-183.30759"
                 cy="25.279985"
                 r="0.18084614"
                 transform="scale(-1,1)" />
              <path
                 id="path15593-4"
                 style="fill:#47001f;fill-opacity:1;stroke-width:0.0739751"
                 d="m 183.5125,34.957534 c 0.0609,0.893923 0.49466,1.682195 1.14773,2.211167 0.54566,-0.466567 1.25487,-0.747726 2.03255,-0.747726 h 0.93759 c 0.74559,0 1.42822,0.258508 1.96412,0.691034 0.61521,-0.527792 1.02131,-1.291892 1.08005,-2.154475 z" />
              <path
                 id="path15690-5"
                 style="fill:#ff4e4e;fill-opacity:1;stroke-width:0.0793165"
                 d="m 186.63236,36.142147 c -0.8451,0 -1.60927,0.332135 -2.1706,0.873324 0.5777,0.476362 1.319,0.762143 2.12979,0.762143 h 1.00358 c 0.81468,0 1.55916,-0.288504 2.1381,-0.768985 -0.56061,-0.537096 -1.32181,-0.866482 -2.16328,-0.866482 z" />
              <path
                 id="path16056-9"
                 style="fill:#ffffff;stroke-width:0.0783268"
                 d="m 184.28968,34.962299 c 0.0306,0.464825 0.6908,0.833514 1.38366,0.833512 l 2.97881,-5e-6 c 0.69286,-2e-6 1.29674,-0.372361 1.32184,-0.833519 z"
                 sodipodi:nodetypes="ccccc"
                 inkscape:original-d="m 184.28968,34.962299 c 0.0162,0.24605 0.0605,0.559642 0.12912,0.833515 l 5.48789,-1.1e-5 c 0.0687,-0.273875 0.0511,-0.53583 0.0673,-0.833516 z"
                 inkscape:path-effect="#path-effect16060-6" />
              <ellipse
                 style="fill:#e3e3e3;fill-opacity:1;stroke:#030303;stroke-width:0.125942;stroke-dasharray:none;stroke-opacity:1"
                 id="ellipse275"
                 cx="-191.23457"
                 cy="25.858416"
                 rx="2.6722517"
                 ry="1.5439448"
                 transform="scale(-1,1)" />
              <ellipse
                 style="fill:#2a9fff;fill-opacity:1;fill-rule:evenodd;stroke-width:0.221144"
                 id="ellipse277"
                 cx="191.26178"
                 cy="25.646156"
                 rx="1.3902293"
                 ry="1.2048655" />
              <circle
                 style="fill:#000000;fill-opacity:1;fill-rule:evenodd;stroke-width:0.127258"
                 id="circle279"
                 cx="191.21086"
                 cy="25.620953"
                 r="0.74667716" />
              <circle
                 style="fill:#fff4f4;fill-opacity:1;fill-rule:evenodd;stroke-width:0.381404"
                 id="circle281"
                 cx="-190.98097"
                 cy="25.346518"
                 r="0.18084614"
                 transform="scale(-1,1)" />
            </g>
          </g>
        </g>
      </g>
    </g>
  </g>
</svg>
