<?xml version="1.0" encoding="UTF-8" standalone="no"?>
<!-- Created with Inkscape (http://www.inkscape.org/) -->

<svg
   width="173.457mm"
   height="268.89038mm"
   viewBox="0 0 173.457 268.89038"
   version="1.1"
   id="svg43802"
   inkscape:version="1.2.1 (9c6d41e410, 2022-07-14)"
   sodipodi:docname="avatar_4.svg"
   xmlns:inkscape="http://www.inkscape.org/namespaces/inkscape"
   xmlns:sodipodi="http://sodipodi.sourceforge.net/DTD/sodipodi-0.dtd"
   xmlns:xlink="http://www.w3.org/1999/xlink"
   xmlns="http://www.w3.org/2000/svg"
   xmlns:svg="http://www.w3.org/2000/svg">
  <sodipodi:namedview
     id="namedview43804"
     pagecolor="#ffffff"
     bordercolor="#000000"
     borderopacity="0.25"
     inkscape:showpageshadow="2"
     inkscape:pageopacity="0.0"
     inkscape:pagecheckerboard="0"
     inkscape:deskcolor="#d1d1d1"
     inkscape:document-units="mm"
     showgrid="false"
     inkscape:zoom="0.37282197"
     inkscape:cx="178.36932"
     inkscape:cy="405.01905"
     inkscape:window-width="1920"
     inkscape:window-height="1017"
     inkscape:window-x="-8"
     inkscape:window-y="-8"
     inkscape:window-maximized="1"
     inkscape:current-layer="layer1" />
  <defs
     id="defs43799">
    <linearGradient
       inkscape:collect="always"
       id="linearGradient52379">
      <stop
         style="stop-color:#ff325a;stop-opacity:1;"
         offset="0"
         id="stop52377" />
      <stop
         style="stop-color:#cd0027;stop-opacity:1;"
         offset="1"
         id="stop52375" />
    </linearGradient>
    <inkscape:path-effect
       effect="fillet_chamfer"
       id="path-effect52346"
       is_visible="true"
       lpeversion="1"
       nodesatellites_param="F,0,0,1,0,0,0,1 @ F,0,1,1,0,1.2545445,0,1 @ F,0,0,1,0,1.2545445,0,1 @ F,0,0,1,0,0,0,1"
       unit="px"
       method="auto"
       mode="F"
       radius="0"
       chamfer_steps="1"
       flexible="false"
       use_knot_distance="true"
       apply_no_radius="true"
       apply_with_radius="true"
       only_selected="false"
       hide_knots="false" />
    <inkscape:path-effect
       effect="fillet_chamfer"
       id="path-effect16060-6"
       is_visible="true"
       lpeversion="1"
       nodesatellites_param="F,0,0,1,0,0,0,1 @ F,0,1,1,0,1.2545445,0,1 @ F,0,0,1,0,1.2545445,0,1 @ F,0,0,1,0,0,0,1"
       unit="px"
       method="auto"
       mode="F"
       radius="0"
       chamfer_steps="1"
       flexible="false"
       use_knot_distance="true"
       apply_no_radius="true"
       apply_with_radius="true"
       only_selected="false"
       hide_knots="false" />
    <filter
       inkscape:collect="always"
       style="color-interpolation-filters:sRGB"
       id="filter52348"
       x="-0.029416651"
       y="-0.012778087"
       width="1.0580238"
       height="1.0309659">
      <feGaussianBlur
         inkscape:collect="always"
         stdDeviation="0.25460838"
         id="feGaussianBlur52350" />
    </filter>
    <linearGradient
       inkscape:collect="always"
       xlink:href="#linearGradient52379"
       id="linearGradient52381"
       x1="104.17502"
       y1="162.38091"
       x2="133.56693"
       y2="162.38091"
       gradientUnits="userSpaceOnUse" />
  </defs>
  <g
     inkscape:label="Layer 1"
     inkscape:groupmode="layer"
     id="layer1"
     transform="translate(-24.772048,-6.9845218)">
    <g
       id="g45498"
       transform="matrix(4.7715208,0,0,4.8680335,-457.05423,-581.02276)">
      <g
         id="g52248">
        <g
           id="g53703">
          <g
             id="g52342"
             transform="matrix(1.0000993,0,0,0.98335338,2.0276888,2.8718806)"
             style="mix-blend-mode:normal;fill:#000000;fill-opacity:0.987898;filter:url(#filter52348)">
            <g
               id="g52254"
               transform="matrix(0.7860526,0,0,0.76518985,84.226638,61.772879)"
               style="fill:#000000;fill-opacity:0.987898">
              <rect
                 style="fill:#000000;fill-opacity:0.987898;stroke-width:0.103571"
                 id="rect52250"
                 width="9.1565714"
                 height="13.924938"
                 x="100.16856"
                 y="-39.610909"
                 ry="4.7970176"
                 transform="matrix(0,1,-0.99989952,-0.0141759,0,0)"
                 inkscape:transform-center-x="-0.18754404"
                 inkscape:transform-center-y="0.0026622334" />
              <rect
                 style="fill:#000000;fill-opacity:0.987898;stroke-width:0.103571"
                 id="rect52252"
                 width="9.1565714"
                 height="13.924938"
                 x="99.666679"
                 y="-62.500305"
                 ry="4.7970176"
                 transform="matrix(0,1,-0.99989952,-0.0141759,0,0)"
                 inkscape:transform-center-x="-0.18754404"
                 inkscape:transform-center-y="0.0026622334" />
            </g>
            <ellipse
               style="fill:#000000;fill-opacity:0.987898;fill-rule:evenodd;stroke-width:0.202456"
               id="ellipse52256"
               cx="130.17509"
               cy="142.0598"
               rx="2.4239106"
               ry="2.411911" />
            <ellipse
               style="fill:#000000;fill-opacity:0.987898;fill-rule:evenodd;stroke-width:0.202456"
               id="ellipse52258"
               cx="107.7069"
               cy="142.19556"
               rx="2.4239106"
               ry="2.411911" />
            <path
               id="path52260"
               style="fill:#000000;fill-opacity:0.987898;stroke-width:0.0938925"
               d="m 118.70715,149.30931 c -1.34709,0 -2.53241,0.66551 -3.2472,1.68724 0.84017,0.54223 1.8424,0.85647 2.92115,0.85647 h 1.61417 c 1.14455,0 2.20303,-0.35386 3.07319,-0.95835 -0.72096,-0.9638 -1.8715,-1.58536 -3.17321,-1.58536 z" />
            <rect
               style="fill:#000000;fill-opacity:0.987898;stroke-width:0.122339"
               id="rect52262"
               width="11.879038"
               height="14.975878"
               x="109.45574"
               y="143.77148"
               ry="5.1590557"
               transform="matrix(1,0,0.02305587,0.99973418,0,0)" />
            <path
               id="path52264"
               style="fill:#000000;fill-opacity:0.987898;stroke:#030303;stroke-width:0.517401;stroke-dasharray:none;stroke-opacity:1"
               d="m 113.02191,153.02381 c -4.75796,0 -8.58819,3.83063 -8.58819,8.58859 v 9.48619 c 0,0.21512 0.008,0.42833 0.0233,0.6394 h 28.8279 c 0.0154,-0.21107 0.0233,-0.42428 0.0233,-0.6394 v -9.48619 c 0,-4.75796 -3.83024,-8.58859 -8.58819,-8.58859 z" />
            <rect
               style="fill:#000000;fill-opacity:0.987898;stroke:#030303;stroke-width:0.228825;stroke-dasharray:none;stroke-opacity:1"
               id="rect52266"
               width="11.879038"
               height="14.975878"
               x="109.51923"
               y="143.09932"
               ry="5.1590557"
               transform="matrix(1,0,0.02305587,0.99973418,0,0)" />
            <ellipse
               style="fill:#000000;fill-opacity:0.987898;stroke-width:0.267083"
               id="ellipse52268"
               cx="-128.52609"
               cy="131.65186"
               rx="3.8661387"
               ry="3.2094326"
               transform="scale(-1,1)" />
            <path
               id="path52270"
               d="m 124.02501,133.801 v 12.30375 h 0.13765 c 3.90223,0 7.14331,-3.11587 7.12945,-5.54033 l -0.0638,-11.16737 h -0.11507 c -3.91469,0 -7.08817,1.97171 -7.08817,4.40395 z"
               style="fill:#000000;fill-opacity:0.987898;stroke-width:0.242303"
               sodipodi:nodetypes="scsscss" />
            <ellipse
               style="fill:#000000;fill-opacity:0.987898;stroke-width:0.246279"
               id="ellipse52272"
               cx="109.04957"
               cy="129.23439"
               rx="3.4078743"
               ry="3.095886" />
            <path
               id="path52274"
               d="m 112.66497,133.90031 v 11.86846 h -0.1162 c -3.29434,0 -6.03054,-3.00563 -6.01883,-5.34433 l 0.0539,-10.77227 h 0.0971 c 3.30486,0 5.98398,1.90195 5.98398,4.24814 z"
               style="fill:#000000;fill-opacity:0.987898;stroke-width:0.218658"
               sodipodi:nodetypes="scsscss" />
            <rect
               style="fill:#000000;fill-opacity:0.987898;stroke:#030303;stroke-width:0.048827;stroke-dasharray:none;stroke-opacity:1"
               id="rect52276"
               width="21.17848"
               height="26.731375"
               x="108.48544"
               y="128.94891"
               ry="9.2087202" />
            <path
               id="path52278"
               d="m 115.31963,126.67522 h 13.42369 v 0.0798 c 0,2.2634 -3.39949,4.14332 -6.04465,4.13528 l -12.18386,-0.037 v -0.0667 c 0,-2.27063 2.15118,-4.11134 4.80482,-4.11134 z"
               style="fill:#000000;fill-opacity:0.987898;stroke-width:0.192752"
               sodipodi:nodetypes="scsscss"
               inkscape:transform-center-x="-11.440388"
               inkscape:transform-center-y="-2.4518104" />
            <path
               id="path52280"
               d="m 113.86201,125.97726 12.7147,-2.06021 0.0171,0.0795 c 0.48334,2.25488 -2.33515,4.64947 -4.84232,5.04742 l -11.54826,1.83303 -0.0142,-0.0665 c -0.48489,-2.26209 1.15961,-4.42602 3.67309,-4.83329 z"
               style="fill:#000000;fill-opacity:0.987898;stroke-width:0.190463"
               sodipodi:nodetypes="scsscss"
               inkscape:transform-center-x="-10.226556"
               inkscape:transform-center-y="-4.0317996" />
            <ellipse
               style="fill:#000000;fill-opacity:0.987898;stroke-width:0.0646041"
               id="ellipse52282"
               cx="118.15249"
               cy="144.2807"
               rx="0.62372512"
               ry="0.42840937" />
            <ellipse
               style="fill:#000000;fill-opacity:0.987898;stroke:#030303;stroke-width:0;stroke-dasharray:none;stroke-opacity:1"
               id="ellipse52284"
               cx="-114.99609"
               cy="140.09372"
               rx="2.6722517"
               ry="1.5439448"
               transform="scale(-1,1)" />
            <ellipse
               style="fill:#000000;fill-opacity:0.987898;stroke:#030303;stroke-width:0.126254;stroke-opacity:1"
               id="ellipse52286"
               cx="-114.99609"
               cy="139.27592"
               rx="2.6722517"
               ry="1.5439448"
               transform="scale(-1,1)" />
            <ellipse
               style="fill:#000000;fill-opacity:0.987898;stroke-width:0.0646041"
               id="ellipse52288"
               cx="120.35859"
               cy="144.2807"
               rx="0.62372512"
               ry="0.42840937" />
            <ellipse
               style="fill:#000000;fill-opacity:0.987898;stroke:#030303;stroke-width:0;stroke-dasharray:none;stroke-opacity:1"
               id="ellipse52290"
               cx="-123.68963"
               cy="140.04938"
               rx="2.6722517"
               ry="1.5439448"
               transform="scale(-1,1)" />
            <ellipse
               style="fill:#000000;fill-opacity:0.987898;fill-rule:evenodd;stroke-width:0.221144"
               id="ellipse52292"
               cx="114.97894"
               cy="139.06367"
               rx="1.3902293"
               ry="1.2048655" />
            <circle
               style="fill:#000000;fill-opacity:0.987898;fill-rule:evenodd;stroke-width:0.127258"
               id="circle52294"
               cx="114.97237"
               cy="139.03847"
               r="0.74667716" />
            <circle
               style="fill:#000000;fill-opacity:0.987898;fill-rule:evenodd;stroke-width:0.381404"
               id="circle52296"
               cx="-114.74249"
               cy="138.76404"
               r="0.18084614"
               transform="scale(-1,1)" />
            <path
               id="path52298"
               style="fill:#000000;fill-opacity:0.987898;stroke-width:0.0739751"
               d="m 115.4353,148.33069 c 0.0609,0.89393 0.49466,1.6822 1.14773,2.21117 0.54566,-0.46657 1.25487,-0.74773 2.03255,-0.74773 h 0.93759 c 0.74559,0 1.42822,0.25851 1.96412,0.69104 0.61521,-0.52779 1.02131,-1.29189 1.08005,-2.15448 z" />
            <path
               id="path52300"
               style="fill:#000000;fill-opacity:0.987898;stroke-width:0.0793165"
               d="m 118.55516,149.51531 c -0.8451,0 -1.60927,0.33213 -2.1706,0.87332 0.5777,0.47636 1.319,0.76214 2.12979,0.76214 h 1.00358 c 0.81468,0 1.55916,-0.2885 2.1381,-0.76898 -0.56061,-0.5371 -1.32181,-0.86648 -2.16328,-0.86648 z" />
            <path
               id="path52302"
               style="fill:#000000;fill-opacity:0.987898;stroke-width:0.0783268"
               d="m 116.21248,148.33546 c 0.0306,0.46482 0.6908,0.83351 1.38366,0.83351 l 2.97881,-1e-5 c 0.69286,0 1.29674,-0.37236 1.32184,-0.83351 z"
               sodipodi:nodetypes="ccccc"
               inkscape:original-d="m 116.21248,148.33546 c 0.0162,0.24605 0.0605,0.55964 0.12912,0.83351 l 5.48789,-1e-5 c 0.0687,-0.27387 0.0511,-0.53583 0.0673,-0.83351 z"
               inkscape:path-effect="#path-effect52346" />
            <ellipse
               style="fill:#000000;fill-opacity:0.987898;stroke:#030303;stroke-width:0.126254;stroke-opacity:1"
               id="ellipse52304"
               cx="-123.68963"
               cy="139.23158"
               rx="2.6722517"
               ry="1.5439448"
               transform="scale(-1,1)" />
            <ellipse
               style="fill:#000000;fill-opacity:0.987898;fill-rule:evenodd;stroke-width:0.221144"
               id="ellipse52306"
               cx="123.67248"
               cy="139.01932"
               rx="1.3902293"
               ry="1.2048655" />
            <circle
               style="fill:#000000;fill-opacity:0.987898;fill-rule:evenodd;stroke-width:0.127258"
               id="circle52308"
               cx="123.66592"
               cy="138.99411"
               r="0.74667716" />
            <circle
               style="fill:#000000;fill-opacity:0.987898;fill-rule:evenodd;stroke-width:0.381404"
               id="circle52310"
               cx="-123.43603"
               cy="138.71968"
               r="0.18084614"
               transform="scale(-1,1)" />
            <ellipse
               style="fill:#000000;fill-opacity:0.987898;fill-rule:evenodd;stroke-width:0.0483915"
               id="ellipse52312"
               cx="126.00787"
               cy="142.87013"
               rx="0.24334912"
               ry="0.181733" />
            <ellipse
               style="fill:#000000;fill-opacity:0.987898;fill-rule:evenodd;stroke-width:0.0483915"
               id="ellipse52314"
               cx="125.21989"
               cy="143.05186"
               rx="0.22017303"
               ry="0.22716625" />
            <ellipse
               style="fill:#000000;fill-opacity:0.987898;fill-rule:evenodd;stroke-width:0.0483915"
               id="ellipse52316"
               cx="126.11217"
               cy="143.722"
               rx="0.23176108"
               ry="0.21580793" />
            <ellipse
               style="fill:#000000;fill-opacity:0.987898;fill-rule:evenodd;stroke-width:0.0483915"
               id="ellipse52318"
               cx="124.67525"
               cy="143.76743"
               rx="0.25493717"
               ry="0.21580793" />
            <ellipse
               style="fill:#000000;fill-opacity:0.987898;fill-rule:evenodd;stroke-width:0.0483915"
               id="ellipse52320"
               cx="127.01603"
               cy="143.56299"
               rx="0.16223274"
               ry="0.26124117" />
            <ellipse
               style="fill:#000000;fill-opacity:0.987898;fill-rule:evenodd;stroke-width:0.0483915"
               id="ellipse52322"
               cx="112.46144"
               cy="142.81334"
               rx="0.25493717"
               ry="0.28395781" />
            <ellipse
               style="fill:#000000;fill-opacity:0.987898;fill-rule:evenodd;stroke-width:0.0483915"
               id="ellipse52324"
               cx="113.26102"
               cy="143.32446"
               rx="0.31287745"
               ry="0.27259949" />
            <ellipse
               style="fill:#000000;fill-opacity:0.987898;fill-rule:evenodd;stroke-width:0.0483915"
               id="ellipse52326"
               cx="112.26444"
               cy="143.51755"
               rx="0.28970134"
               ry="0.28395781" />
            <ellipse
               style="fill:#000000;fill-opacity:0.987898;fill-rule:evenodd;stroke-width:0.0483915"
               id="ellipse52328"
               cx="112.80908"
               cy="144.06274"
               rx="0.25493717"
               ry="0.23852456" />
            <ellipse
               style="fill:#000000;fill-opacity:0.987898;fill-rule:evenodd;stroke-width:0.0483915"
               id="ellipse52330"
               cx="113.64342"
               cy="144.483"
               rx="0.30128941"
               ry="0.181733" />
            <ellipse
               style="fill:#000000;fill-opacity:0.987898;fill-rule:evenodd;stroke-width:0.0483915"
               id="ellipse52332"
               cx="111.89362"
               cy="144.44893"
               rx="0.10429247"
               ry="0.1930913" />
            <ellipse
               style="fill:#000000;fill-opacity:0.987898;fill-rule:evenodd;stroke-width:0.0483915"
               id="ellipse52334"
               cx="111.29105"
               cy="143.10864"
               rx="0.17382081"
               ry="0.17037468" />
            <ellipse
               style="fill:#000000;fill-opacity:0.987898;fill-rule:evenodd;stroke-width:0.0483915"
               id="ellipse52336"
               cx="125.61388"
               cy="144.28992"
               rx="0.17382081"
               ry="0.17037468" />
            <ellipse
               style="fill:#000000;fill-opacity:0.987898;fill-rule:evenodd;stroke-width:0.0483915"
               id="ellipse52338"
               cx="127.09715"
               cy="142.23405"
               rx="0.19699691"
               ry="0.20444961" />
            <ellipse
               style="fill:#000000;fill-opacity:0.987898;fill-rule:evenodd;stroke-width:0.0483915"
               id="ellipse52340"
               cx="111.31422"
               cy="141.9501"
               rx="0.1506447"
               ry="0.21580793" />
          </g>
          <g
             id="g15581"
             transform="matrix(0.7860526,0,0,0.76518985,84.226638,61.772879)"
             style="fill:#ffb98a;fill-opacity:1">
            <rect
               style="fill:#ffb98a;fill-opacity:1;stroke-width:0.103571"
               id="rect15577"
               width="9.1565714"
               height="13.924938"
               x="100.16856"
               y="-39.610909"
               ry="4.7970176"
               transform="matrix(0,1,-0.99989952,-0.0141759,0,0)"
               inkscape:transform-center-x="-0.18754404"
               inkscape:transform-center-y="0.0026622334" />
            <rect
               style="fill:#ffb98a;fill-opacity:1;stroke-width:0.103571"
               id="rect15579"
               width="9.1565714"
               height="13.924938"
               x="99.666679"
               y="-62.500305"
               ry="4.7970176"
               transform="matrix(0,1,-0.99989952,-0.0141759,0,0)"
               inkscape:transform-center-x="-0.18754404"
               inkscape:transform-center-y="0.0026622334" />
          </g>
          <ellipse
             style="fill:#db7f42;fill-opacity:1;fill-rule:evenodd;stroke:#030303;stroke-width:0.0378596;stroke-dasharray:none;stroke-opacity:1"
             id="ellipse16064"
             cx="130.17509"
             cy="142.0598"
             rx="2.4239106"
             ry="2.411911" />
          <ellipse
             style="fill:#db7f42;fill-opacity:1;fill-rule:evenodd;stroke:#030303;stroke-width:0.0378596;stroke-dasharray:none;stroke-opacity:1"
             id="path16062"
             cx="107.7069"
             cy="142.19556"
             rx="2.4239106"
             ry="2.411911" />
          <path
             id="path15595"
             style="fill:#ff4e4e;fill-opacity:1;stroke-width:0.0938925"
             d="m 118.70715,149.30931 c -1.34709,0 -2.53241,0.66551 -3.2472,1.68724 0.84017,0.54223 1.8424,0.85647 2.92115,0.85647 h 1.61417 c 1.14455,0 2.20303,-0.35386 3.07319,-0.95835 -0.72096,-0.9638 -1.8715,-1.58536 -3.17321,-1.58536 z" />
          <rect
             style="fill:#d38d5f;fill-opacity:1;stroke-width:0.122339"
             id="rect15569"
             width="11.879038"
             height="14.975878"
             x="109.45574"
             y="143.77148"
             ry="5.1590557"
             transform="matrix(1,0,0.02305587,0.99973418,0,0)" />
          <path
             id="path15571"
             style="fill:url(#linearGradient52381);fill-opacity:1;stroke:#030303;stroke-width:0.517401;stroke-dasharray:none;stroke-opacity:1"
             d="m 113.02191,153.02381 c -4.75796,0 -8.58819,3.83063 -8.58819,8.58859 v 9.48619 c 0,0.21512 0.008,0.42833 0.0233,0.6394 h 28.8279 c 0.0154,-0.21107 0.0233,-0.42428 0.0233,-0.6394 v -9.48619 c 0,-4.75796 -3.83024,-8.58859 -8.58819,-8.58859 z" />
          <rect
             style="fill:#ffa364;fill-opacity:0.848485;stroke:#030303;stroke-width:0.44834;stroke-dasharray:none;stroke-opacity:1"
             id="rect15575"
             width="11.879038"
             height="14.975878"
             x="109.51923"
             y="143.09932"
             ry="5.1590557"
             transform="matrix(1,0,0.02305587,0.99973418,0,0)" />
          <ellipse
             style="fill:#ff7f2a;fill-opacity:1;stroke-width:0.267083"
             id="ellipse15583"
             cx="-128.52609"
             cy="131.65186"
             rx="3.8661387"
             ry="3.2094326"
             transform="scale(-1,1)" />
          <path
             id="path15585"
             d="m 124.02501,133.801 v 12.30375 h 0.13765 c 3.90223,0 7.14331,-3.11587 7.12945,-5.54033 l -0.0638,-11.16737 h -0.11507 c -3.91469,0 -7.08817,1.97171 -7.08817,4.40395 z"
             style="fill:#ff7f2a;fill-opacity:1;stroke-width:0.242303"
             sodipodi:nodetypes="scsscss" />
          <ellipse
             style="fill:#ff7f2a;fill-opacity:1;stroke-width:0.246279"
             id="ellipse15587"
             cx="109.04957"
             cy="129.23439"
             rx="3.4078743"
             ry="3.095886" />
          <path
             id="path15589"
             d="m 112.66497,133.90031 v 11.86846 h -0.1162 c -3.29434,0 -6.03054,-3.00563 -6.01883,-5.34433 l 0.0539,-10.77227 h 0.0971 c 3.30486,0 5.98398,1.90195 5.98398,4.24814 z"
             style="fill:#ff7f2a;fill-opacity:1;stroke-width:0.218658"
             sodipodi:nodetypes="scsscss" />
          <rect
             style="fill:#ffb380;stroke:#030303;stroke-width:0.048827;stroke-dasharray:none;stroke-opacity:1"
             id="rect15591"
             width="21.17848"
             height="26.731375"
             x="108.48544"
             y="128.94891"
             ry="9.2087202" />
          <path
             id="path15601"
             d="m 115.31963,126.67522 h 13.42369 v 0.0798 c 0,2.2634 -3.39949,4.14332 -6.04465,4.13528 l -12.18386,-0.037 v -0.0667 c 0,-2.27063 2.15118,-4.11134 4.80482,-4.11134 z"
             style="fill:#d45500;fill-opacity:1;stroke-width:0.192752"
             sodipodi:nodetypes="scsscss"
             inkscape:transform-center-x="-11.440388"
             inkscape:transform-center-y="-2.4518104" />
          <path
             id="path15603"
             d="m 113.86201,125.97726 12.7147,-2.06021 0.0171,0.0795 c 0.48334,2.25488 -2.33515,4.64947 -4.84232,5.04742 l -11.54826,1.83303 -0.0142,-0.0665 c -0.48489,-2.26209 1.15961,-4.42602 3.67309,-4.83329 z"
             style="fill:#ff7f2a;fill-opacity:1;stroke-width:0.190463"
             sodipodi:nodetypes="scsscss"
             inkscape:transform-center-x="-10.226556"
             inkscape:transform-center-y="-4.0317996" />
          <ellipse
             style="fill:#522200;fill-opacity:1;stroke-width:0.0646041"
             id="ellipse15605"
             cx="118.15249"
             cy="144.2807"
             rx="0.62372512"
             ry="0.42840937" />
          <ellipse
             style="fill:#db7f42;fill-opacity:1;stroke:#030303;stroke-width:0;stroke-dasharray:none;stroke-opacity:1"
             id="ellipse51823"
             cx="-114.99609"
             cy="140.09372"
             rx="2.6722517"
             ry="1.5439448"
             transform="scale(-1,1)" />
          <ellipse
             style="fill:#e3e3e3;fill-opacity:1;stroke:#030303;stroke-width:0.126254;stroke-opacity:1"
             id="ellipse16193"
             cx="-114.99609"
             cy="139.27592"
             rx="2.6722517"
             ry="1.5439448"
             transform="scale(-1,1)" />
          <ellipse
             style="fill:#522200;fill-opacity:1;stroke-width:0.0646041"
             id="ellipse16268"
             cx="120.35859"
             cy="144.2807"
             rx="0.62372512"
             ry="0.42840937" />
          <ellipse
             style="fill:#db7f42;fill-opacity:1;stroke:#030303;stroke-width:0;stroke-dasharray:none;stroke-opacity:1"
             id="ellipse51825"
             cx="-123.68963"
             cy="140.04938"
             rx="2.6722517"
             ry="1.5439448"
             transform="scale(-1,1)" />
          <ellipse
             style="fill:#2a9fff;fill-opacity:1;fill-rule:evenodd;stroke-width:0.221144"
             id="path37288"
             cx="114.97894"
             cy="139.06367"
             rx="1.3902293"
             ry="1.2048655" />
          <circle
             style="fill:#000000;fill-opacity:1;fill-rule:evenodd;stroke-width:0.127258"
             id="path37772"
             cx="114.97237"
             cy="139.03847"
             r="0.74667716" />
          <circle
             style="fill:#fff4f4;fill-opacity:1;fill-rule:evenodd;stroke-width:0.381404"
             id="circle37774"
             cx="-114.74249"
             cy="138.76404"
             r="0.18084614"
             transform="scale(-1,1)" />
          <path
             id="path15593-4"
             style="fill:#47001f;fill-opacity:1;stroke-width:0.0739751"
             d="m 115.4353,148.33069 c 0.0609,0.89393 0.49466,1.6822 1.14773,2.21117 0.54566,-0.46657 1.25487,-0.74773 2.03255,-0.74773 h 0.93759 c 0.74559,0 1.42822,0.25851 1.96412,0.69104 0.61521,-0.52779 1.02131,-1.29189 1.08005,-2.15448 z" />
          <path
             id="path15690-5"
             style="fill:#ff4e4e;fill-opacity:1;stroke-width:0.0793165"
             d="m 118.55516,149.51531 c -0.8451,0 -1.60927,0.33213 -2.1706,0.87332 0.5777,0.47636 1.319,0.76214 2.12979,0.76214 h 1.00358 c 0.81468,0 1.55916,-0.2885 2.1381,-0.76898 -0.56061,-0.5371 -1.32181,-0.86648 -2.16328,-0.86648 z" />
          <path
             id="path16056-9"
             style="fill:#ffffff;stroke-width:0.0783268"
             d="m 116.21248,148.33546 c 0.0306,0.46482 0.6908,0.83351 1.38366,0.83351 l 2.97881,-1e-5 c 0.69286,0 1.29674,-0.37236 1.32184,-0.83351 z"
             sodipodi:nodetypes="ccccc"
             inkscape:original-d="m 116.21248,148.33546 c 0.0162,0.24605 0.0605,0.55964 0.12912,0.83351 l 5.48789,-1e-5 c 0.0687,-0.27387 0.0511,-0.53583 0.0673,-0.83351 z"
             inkscape:path-effect="#path-effect16060-6" />
          <ellipse
             style="fill:#e3e3e3;fill-opacity:1;stroke:#030303;stroke-width:0.126254;stroke-opacity:1"
             id="ellipse275"
             cx="-123.68963"
             cy="139.23158"
             rx="2.6722517"
             ry="1.5439448"
             transform="scale(-1,1)" />
          <ellipse
             style="fill:#2a9fff;fill-opacity:1;fill-rule:evenodd;stroke-width:0.221144"
             id="ellipse277"
             cx="123.67248"
             cy="139.01932"
             rx="1.3902293"
             ry="1.2048655" />
          <circle
             style="fill:#000000;fill-opacity:1;fill-rule:evenodd;stroke-width:0.127258"
             id="circle279"
             cx="123.66592"
             cy="138.99411"
             r="0.74667716" />
          <circle
             style="fill:#fff4f4;fill-opacity:1;fill-rule:evenodd;stroke-width:0.381404"
             id="circle281"
             cx="-123.43603"
             cy="138.71968"
             r="0.18084614"
             transform="scale(-1,1)" />
          <ellipse
             style="fill:#db7f42;fill-opacity:1;fill-rule:evenodd;stroke-width:0.0483915"
             id="path52034"
             cx="126.00787"
             cy="142.87013"
             rx="0.24334912"
             ry="0.181733" />
          <ellipse
             style="fill:#db7f42;fill-opacity:1;fill-rule:evenodd;stroke-width:0.0483915"
             id="path52036"
             cx="125.21989"
             cy="143.05186"
             rx="0.22017303"
             ry="0.22716625" />
          <ellipse
             style="fill:#db7f42;fill-opacity:1;fill-rule:evenodd;stroke-width:0.0483915"
             id="path52038"
             cx="126.11217"
             cy="143.722"
             rx="0.23176108"
             ry="0.21580793" />
          <ellipse
             style="fill:#db7f42;fill-opacity:1;fill-rule:evenodd;stroke-width:0.0483915"
             id="path52040"
             cx="124.67525"
             cy="143.76743"
             rx="0.25493717"
             ry="0.21580793" />
          <ellipse
             style="fill:#db7f42;fill-opacity:1;fill-rule:evenodd;stroke-width:0.0483915"
             id="path52042"
             cx="127.01603"
             cy="143.56299"
             rx="0.16223274"
             ry="0.26124117" />
          <ellipse
             style="fill:#db7f42;fill-opacity:1;fill-rule:evenodd;stroke-width:0.0483915"
             id="path52044"
             cx="112.46144"
             cy="142.81334"
             rx="0.25493717"
             ry="0.28395781" />
          <ellipse
             style="fill:#db7f42;fill-opacity:1;fill-rule:evenodd;stroke-width:0.0483915"
             id="path52046"
             cx="113.26102"
             cy="143.32446"
             rx="0.31287745"
             ry="0.27259949" />
          <ellipse
             style="fill:#db7f42;fill-opacity:1;fill-rule:evenodd;stroke-width:0.0483915"
             id="path52048"
             cx="112.26444"
             cy="143.51755"
             rx="0.28970134"
             ry="0.28395781" />
          <ellipse
             style="fill:#db7f42;fill-opacity:1;fill-rule:evenodd;stroke-width:0.0483915"
             id="path52050"
             cx="112.80908"
             cy="144.06274"
             rx="0.25493717"
             ry="0.23852456" />
          <ellipse
             style="fill:#db7f42;fill-opacity:1;fill-rule:evenodd;stroke-width:0.0483915"
             id="path52052"
             cx="113.64342"
             cy="144.483"
             rx="0.30128941"
             ry="0.181733" />
          <ellipse
             style="fill:#db7f42;fill-opacity:1;fill-rule:evenodd;stroke-width:0.0483915"
             id="path52054"
             cx="111.89362"
             cy="144.44893"
             rx="0.10429247"
             ry="0.1930913" />
          <ellipse
             style="fill:#db7f42;fill-opacity:1;fill-rule:evenodd;stroke-width:0.0483915"
             id="path52056"
             cx="111.29105"
             cy="143.10864"
             rx="0.17382081"
             ry="0.17037468" />
          <ellipse
             style="fill:#db7f42;fill-opacity:1;fill-rule:evenodd;stroke-width:0.0483915"
             id="path52058"
             cx="125.61388"
             cy="144.28992"
             rx="0.17382081"
             ry="0.17037468" />
          <ellipse
             style="fill:#db7f42;fill-opacity:1;fill-rule:evenodd;stroke-width:0.0483915"
             id="path52060"
             cx="127.09715"
             cy="142.23405"
             rx="0.19699691"
             ry="0.20444961" />
          <ellipse
             style="fill:#db7f42;fill-opacity:1;fill-rule:evenodd;stroke-width:0.0483915"
             id="path52062"
             cx="111.31422"
             cy="141.9501"
             rx="0.1506447"
             ry="0.21580793" />
        </g>
      </g>
    </g>
  </g>
</svg>
