<?xml version="1.0" encoding="UTF-8" standalone="no"?>
<!-- Created with Inkscape (http://www.inkscape.org/) -->

<svg
   width="29.435385mm"
   height="48.101379mm"
   viewBox="0 0 29.435385 48.101379"
   version="1.1"
   id="svg34454"
   inkscape:version="1.2.1 (9c6d41e410, 2022-07-14)"
   sodipodi:docname="avatar_31.svg"
   xmlns:inkscape="http://www.inkscape.org/namespaces/inkscape"
   xmlns:sodipodi="http://sodipodi.sourceforge.net/DTD/sodipodi-0.dtd"
   xmlns="http://www.w3.org/2000/svg"
   xmlns:svg="http://www.w3.org/2000/svg">
  <sodipodi:namedview
     id="namedview34456"
     pagecolor="#ffffff"
     bordercolor="#000000"
     borderopacity="0.25"
     inkscape:showpageshadow="2"
     inkscape:pageopacity="0.0"
     inkscape:pagecheckerboard="0"
     inkscape:deskcolor="#d1d1d1"
     inkscape:document-units="mm"
     showgrid="false"
     inkscape:zoom="2.9825757"
     inkscape:cx="2.1793244"
     inkscape:cy="118.68936"
     inkscape:window-width="1920"
     inkscape:window-height="1017"
     inkscape:window-x="-8"
     inkscape:window-y="-8"
     inkscape:window-maximized="1"
     inkscape:current-layer="g39312" />
  <defs
     id="defs34451">
    <inkscape:path-effect
       effect="fillet_chamfer"
       id="path-effect19959"
       is_visible="true"
       lpeversion="1"
       nodesatellites_param="F,0,0,1,0,0,0,1 @ F,0,1,1,0,1.2545445,0,1 @ F,0,0,1,0,1.2545445,0,1 @ F,0,0,1,0,0,0,1"
       unit="px"
       method="auto"
       mode="F"
       radius="0"
       chamfer_steps="1"
       flexible="false"
       use_knot_distance="true"
       apply_no_radius="true"
       apply_with_radius="true"
       only_selected="false"
       hide_knots="false" />
    <inkscape:path-effect
       effect="fillet_chamfer"
       id="path-effect16060"
       is_visible="true"
       lpeversion="1"
       nodesatellites_param="F,0,0,1,0,0,0,1 @ F,0,1,1,0,1.2545445,0,1 @ F,0,0,1,0,1.2545445,0,1 @ F,0,0,1,0,0,0,1"
       unit="px"
       method="auto"
       mode="F"
       radius="0"
       chamfer_steps="1"
       flexible="false"
       use_knot_distance="true"
       apply_no_radius="true"
       apply_with_radius="true"
       only_selected="false"
       hide_knots="false" />
    <inkscape:path-effect
       effect="fillet_chamfer"
       id="path-effect16060-6"
       is_visible="true"
       lpeversion="1"
       nodesatellites_param="F,0,0,1,0,0,0,1 @ F,0,1,1,0,1.2545445,0,1 @ F,0,0,1,0,1.2545445,0,1 @ F,0,0,1,0,0,0,1"
       unit="px"
       method="auto"
       mode="F"
       radius="0"
       chamfer_steps="1"
       flexible="false"
       use_knot_distance="true"
       apply_no_radius="true"
       apply_with_radius="true"
       only_selected="false"
       hide_knots="false" />
    <filter
       inkscape:collect="always"
       style="color-interpolation-filters:sRGB"
       id="filter20324"
       x="-0.026151888"
       y="-0.010347986"
       width="1.0514942"
       height="1.0265604">
      <feGaussianBlur
         inkscape:collect="always"
         stdDeviation="0.20618766"
         id="feGaussianBlur20326" />
    </filter>
  </defs>
  <g
     inkscape:label="Layer 1"
     inkscape:groupmode="layer"
     id="layer1"
     transform="translate(-92.443558,-116.82028)">
    <g
       id="g34449"
       transform="translate(-79.78692,106.27639)">
      <g
         id="g37249">
        <g
           id="g19955"
           transform="matrix(0.89404066,0,0,0.89404066,20.252099,2.9559426)"
           style="fill:#000000;fill-opacity:0.986864;filter:url(#filter20324)">
          <g
             id="g19953"
             style="fill:#000000;fill-opacity:0.986864">
            <g
               id="g19895"
               transform="matrix(0.7860526,0,0,0.76518985,152.30384,-51.600281)"
               style="fill:#000000;fill-opacity:0.986864">
              <rect
                 style="fill:#000000;fill-opacity:0.986864;stroke-width:0.103571"
                 id="rect19891"
                 width="9.1565714"
                 height="13.924938"
                 x="100.16856"
                 y="-39.610909"
                 ry="4.7970176"
                 transform="matrix(0,1,-0.99989952,-0.0141759,0,0)"
                 inkscape:transform-center-x="-0.18754404"
                 inkscape:transform-center-y="0.0026622334" />
              <rect
                 style="fill:#000000;fill-opacity:0.986864;stroke-width:0.103571"
                 id="rect19893"
                 width="9.1565714"
                 height="13.924938"
                 x="99.666679"
                 y="-62.500305"
                 ry="4.7970176"
                 transform="matrix(0,1,-0.99989952,-0.0141759,0,0)"
                 inkscape:transform-center-x="-0.18754404"
                 inkscape:transform-center-y="0.0026622334" />
            </g>
            <ellipse
               style="fill:#000000;fill-opacity:0.986864;fill-rule:evenodd;stroke-width:0.202456"
               id="ellipse19897"
               cx="198.2523"
               cy="28.686632"
               rx="2.4239106"
               ry="2.411911" />
            <ellipse
               style="fill:#000000;fill-opacity:0.986864;fill-rule:evenodd;stroke-width:0.202456"
               id="ellipse19899"
               cx="175.7841"
               cy="28.822393"
               rx="2.4239106"
               ry="2.411911" />
            <path
               id="path19901"
               style="fill:#000000;fill-opacity:0.986864;stroke-width:0.0938925"
               d="m 186.78435,35.936153 c -1.34709,0 -2.53241,0.665505 -3.2472,1.687236 0.84017,0.542228 1.8424,0.856469 2.92115,0.856469 h 1.61417 c 1.14455,0 2.20303,-0.35386 3.07319,-0.958343 -0.72096,-0.963808 -1.8715,-1.585362 -3.17321,-1.585362 z" />
            <rect
               style="fill:#000000;fill-opacity:0.986864;stroke-width:0.122339"
               id="rect19903"
               width="11.879038"
               height="14.975878"
               x="180.14755"
               y="30.368179"
               ry="5.1590557"
               transform="matrix(1,0,0.02305587,0.99973418,0,0)" />
            <path
               id="path19905"
               style="fill:#000000;fill-opacity:0.986864;stroke:#030303;stroke-width:0.560884;stroke-dasharray:none;stroke-opacity:1"
               d="m 181.09911,39.650654 c -4.75796,0 -8.58819,3.830625 -8.58819,8.588583 v 9.486196 c 0,0.215118 0.008,0.428331 0.0233,0.639393 h 28.8279 c 0.0154,-0.211062 0.0233,-0.424275 0.0233,-0.639393 v -9.486196 c 0,-4.757958 -3.83024,-8.588583 -8.58819,-8.588583 z" />
            <rect
               style="fill:#000000;fill-opacity:0.986864;stroke:#030303;stroke-width:0.479009;stroke-dasharray:none;stroke-opacity:1"
               id="rect19907"
               width="9.1676617"
               height="16.415394"
               x="182.56805"
               y="41.948257"
               ry="0" />
            <rect
               style="fill:#000000;fill-opacity:0.986864;stroke:#030303;stroke-width:0.322043;stroke-dasharray:none;stroke-opacity:1"
               id="rect19909"
               width="11.879038"
               height="14.975878"
               x="180.21104"
               y="29.696018"
               ry="5.1590557"
               transform="matrix(1,0,0.02305587,0.99973418,0,0)" />
            <ellipse
               style="fill:#000000;fill-opacity:0.986864;stroke-width:0.267083"
               id="ellipse19911"
               cx="-196.6033"
               cy="18.278696"
               rx="3.8661387"
               ry="3.2094326"
               transform="scale(-1,1)" />
            <path
               id="path19913"
               d="m 192.10221,20.427836 v 12.303757 h 0.13765 c 3.90223,0 7.14331,-3.115868 7.12945,-5.540334 l -0.0638,-11.167371 h -0.11507 c -3.91469,0 -7.08817,1.971715 -7.08817,4.403948 z"
               style="fill:#000000;fill-opacity:0.986864;stroke-width:0.242303"
               sodipodi:nodetypes="scsscss" />
            <ellipse
               style="fill:#000000;fill-opacity:0.986864;stroke-width:0.246279"
               id="ellipse19915"
               cx="177.12677"
               cy="15.861236"
               rx="3.4078743"
               ry="3.095886" />
            <path
               id="path19917"
               d="m 180.74217,20.527147 v 11.868459 h -0.1162 c -3.29434,0 -6.03054,-3.005627 -6.01883,-5.344323 l 0.0539,-10.772276 h 0.0971 c 3.30486,0 5.98398,1.901957 5.98398,4.24814 z"
               style="fill:#000000;fill-opacity:0.986864;stroke-width:0.218658"
               sodipodi:nodetypes="scsscss" />
            <rect
               style="fill:#000000;fill-opacity:0.986864;stroke:#030303;stroke-width:0.138642;stroke-dasharray:none;stroke-opacity:1"
               id="rect19919"
               width="21.17848"
               height="26.731375"
               x="176.56264"
               y="15.57576"
               ry="9.2087202" />
            <path
               id="path19921"
               style="fill:#000000;fill-opacity:0.986864;stroke-width:0.166418"
               d="m 180.02937,32.571598 -0.0219,1.759822 c -0.0553,4.469921 2.72554,8.069221 6.11092,8.069221 h 1.83206 c 3.38539,0 6.11092,-3.598958 6.11092,-8.069221 l -0.0715,-1.657584 z"
               sodipodi:nodetypes="csssscc" />
            <path
               id="path19923"
               d="m 183.39683,13.302059 h 13.42369 v 0.07984 c 0,2.263399 -3.39949,4.143321 -6.04465,4.135281 l -12.18386,-0.03704 v -0.06675 c 0,-2.270631 2.15118,-4.11134 4.80482,-4.11134 z"
               style="fill:#000000;fill-opacity:0.986864;stroke-width:0.192752"
               sodipodi:nodetypes="scsscss"
               inkscape:transform-center-x="-11.440388"
               inkscape:transform-center-y="-2.4518104" />
            <path
               id="path19925"
               d="m 181.93921,12.604099 12.7147,-2.06021 0.0171,0.07954 c 0.48334,2.254883 -2.33515,4.649469 -4.84232,5.047426 l -11.54826,1.833027 -0.0142,-0.06649 c -0.48489,-2.262087 1.15961,-4.426025 3.67309,-4.833292 z"
               style="fill:#000000;fill-opacity:0.986864;stroke-width:0.190463"
               sodipodi:nodetypes="scsscss"
               inkscape:transform-center-x="-10.226556"
               inkscape:transform-center-y="-4.0317996" />
            <ellipse
               style="fill:#000000;fill-opacity:0.986864;stroke-width:0.0646041"
               id="ellipse19927"
               cx="186.22969"
               cy="30.907547"
               rx="0.62372512"
               ry="0.42840937" />
            <ellipse
               style="fill:#000000;fill-opacity:0.986864;stroke:#030303;stroke-width:0.125942;stroke-dasharray:none;stroke-opacity:1"
               id="ellipse19929"
               cx="-183.60555"
               cy="25.814062"
               rx="2.6722517"
               ry="1.5439448"
               transform="scale(-1,1)" />
            <ellipse
               style="fill:#000000;fill-opacity:0.986864;stroke-width:0.0646041"
               id="ellipse19931"
               cx="188.43579"
               cy="30.907547"
               rx="0.62372512"
               ry="0.42840937" />
            <ellipse
               style="fill:#000000;fill-opacity:0.986864;fill-rule:evenodd;stroke-width:0.221144"
               id="ellipse19933"
               cx="183.58839"
               cy="25.601803"
               rx="1.3902293"
               ry="1.2048655" />
            <circle
               style="fill:#000000;fill-opacity:0.986864;fill-rule:evenodd;stroke-width:0.127258"
               id="circle19935"
               cx="183.58183"
               cy="25.576599"
               r="0.74667716" />
            <circle
               style="fill:#000000;fill-opacity:0.986864;fill-rule:evenodd;stroke-width:0.381404"
               id="circle19937"
               cx="-183.30759"
               cy="25.279985"
               r="0.18084614"
               transform="scale(-1,1)" />
            <path
               id="path19939"
               style="fill:#000000;fill-opacity:0.986864;stroke-width:0.0739751"
               d="m 183.5125,34.957534 c 0.0609,0.893923 0.49466,1.682195 1.14773,2.211167 0.54566,-0.466567 1.25487,-0.747726 2.03255,-0.747726 h 0.93759 c 0.74559,0 1.42822,0.258508 1.96412,0.691034 0.61521,-0.527792 1.02131,-1.291892 1.08005,-2.154475 z" />
            <path
               id="path19941"
               style="fill:#000000;fill-opacity:0.986864;stroke-width:0.0793165"
               d="m 186.63236,36.142147 c -0.8451,0 -1.60927,0.332135 -2.1706,0.873324 0.5777,0.476362 1.319,0.762143 2.12979,0.762143 h 1.00358 c 0.81468,0 1.55916,-0.288504 2.1381,-0.768985 -0.56061,-0.537096 -1.32181,-0.866482 -2.16328,-0.866482 z" />
            <path
               id="path19943"
               style="fill:#000000;fill-opacity:0.986864;stroke-width:0.0783268"
               d="m 184.28968,34.962299 c 0.0306,0.464825 0.6908,0.833514 1.38366,0.833512 l 2.97881,-5e-6 c 0.69286,-2e-6 1.29674,-0.372361 1.32184,-0.833519 z"
               sodipodi:nodetypes="ccccc"
               inkscape:original-d="m 184.28968,34.962299 c 0.0162,0.24605 0.0605,0.559642 0.12912,0.833515 l 5.48789,-1.1e-5 c 0.0687,-0.273875 0.0511,-0.53583 0.0673,-0.833516 z"
               inkscape:path-effect="#path-effect19959" />
            <ellipse
               style="fill:#000000;fill-opacity:0.986864;stroke:#030303;stroke-width:0.125942;stroke-dasharray:none;stroke-opacity:1"
               id="ellipse19945"
               cx="-191.23457"
               cy="25.858416"
               rx="2.6722517"
               ry="1.5439448"
               transform="scale(-1,1)" />
            <ellipse
               style="fill:#000000;fill-opacity:0.986864;fill-rule:evenodd;stroke-width:0.221144"
               id="ellipse19947"
               cx="191.26178"
               cy="25.646156"
               rx="1.3902293"
               ry="1.2048655" />
            <circle
               style="fill:#000000;fill-opacity:0.986864;fill-rule:evenodd;stroke-width:0.127258"
               id="circle19949"
               cx="191.21086"
               cy="25.620953"
               r="0.74667716" />
            <circle
               style="fill:#000000;fill-opacity:0.986864;fill-rule:evenodd;stroke-width:0.381404"
               id="circle19951"
               cx="-190.98097"
               cy="25.346518"
               r="0.18084614"
               transform="scale(-1,1)" />
          </g>
        </g>
        <g
           id="g19889"
           transform="matrix(0.9374663,0,0,0.9374663,11.489562,1.8084895)">
          <g
             id="g39312">
            <g
               id="g15581"
               transform="matrix(0.7496408,0,0,0.72974445,153.93613,-47.98604)"
               style="fill:#ffb98a;fill-opacity:1">
              <rect
                 style="fill:#ffb98a;fill-opacity:1;stroke-width:0.103571"
                 id="rect15577"
                 width="9.1565714"
                 height="13.924938"
                 x="100.16856"
                 y="-39.610909"
                 ry="4.7970176"
                 transform="matrix(0,1,-0.99989952,-0.0141759,0,0)"
                 inkscape:transform-center-x="-0.18754404"
                 inkscape:transform-center-y="0.0026622334" />
              <rect
                 style="fill:#ffb98a;fill-opacity:1;stroke-width:0.103571"
                 id="rect15579"
                 width="9.1565714"
                 height="13.924938"
                 x="99.666679"
                 y="-62.500305"
                 ry="4.7970176"
                 transform="matrix(0,1,-0.99989952,-0.0141759,0,0)"
                 inkscape:transform-center-x="-0.18754404"
                 inkscape:transform-center-y="0.0026622334" />
            </g>
            <ellipse
               style="fill:#ff885e;fill-opacity:0.809524;fill-rule:evenodd;stroke-width:0.193078"
               id="ellipse16064"
               cx="197.75616"
               cy="28.581795"
               rx="2.3116293"
               ry="2.3001857" />
            <ellipse
               style="fill:#ff885e;fill-opacity:0.809524;fill-rule:evenodd;stroke-width:0.193078"
               id="path16062"
               cx="176.32874"
               cy="28.711266"
               rx="2.3116293"
               ry="2.3001857" />
            <path
               id="path15595"
               style="fill:#ff4e4e;fill-opacity:1;stroke-width:0.0895432"
               d="m 186.81943,35.4955 c -1.2847,0 -2.41511,0.634677 -3.09679,1.60908 0.80125,0.51711 1.75706,0.816794 2.78583,0.816794 h 1.5394 c 1.09153,0 2.10098,-0.337468 2.93083,-0.913949 -0.68756,-0.919163 -1.7848,-1.511925 -3.02622,-1.511925 z" />
            <rect
               style="fill:#d38d5f;fill-opacity:1;stroke-width:0.116672"
               id="rect15569"
               width="11.328773"
               height="14.28216"
               x="180.46182"
               y="30.185774"
               ry="4.9200764"
               transform="matrix(1,0,0.02305587,0.99973418,0,0)" />
            <path
               id="path15571"
               style="fill:#d1000d;fill-opacity:1;stroke:#030303;stroke-width:0.534903;stroke-dasharray:none;stroke-opacity:1"
               d="m 181.39754,39.037937 c -4.53756,0 -8.19037,3.653181 -8.19037,8.190739 v 9.046773 c 0,0.205154 0.008,0.40849 0.0222,0.609775 h 27.49253 c 0.0147,-0.201285 0.0222,-0.404621 0.0222,-0.609775 v -9.046773 c 0,-4.537558 -3.65282,-8.190739 -8.19037,-8.190739 z" />
            <rect
               style="fill:#e78949;fill-opacity:1;stroke:#030303;stroke-width:0.307125;stroke-dasharray:none;stroke-opacity:1"
               id="rect15575"
               width="11.328773"
               height="14.28216"
               x="180.52238"
               y="29.544748"
               ry="4.9200764"
               transform="matrix(1,0,0.02305587,0.99973418,0,0)" />
            <ellipse
               style="fill:#242424;fill-opacity:1;stroke-width:0.254711"
               id="ellipse15583"
               cx="-196.18353"
               cy="18.655977"
               rx="3.6870499"
               ry="3.0607641"
               transform="scale(-1,1)" />
            <path
               id="path15585"
               d="m 191.89095,20.705564 v 11.733818 h 0.13127 c 3.72147,0 6.81241,-2.971533 6.7992,-5.283692 l -0.0608,-10.650072 h -0.10974 c -3.73335,0 -6.75983,1.880381 -6.75983,4.199946 z"
               style="fill:#242424;fill-opacity:1;stroke-width:0.231079"
               sodipodi:nodetypes="scsscss" />
            <ellipse
               style="fill:#242424;fill-opacity:1;stroke-width:0.234871"
               id="ellipse15587"
               cx="177.60921"
               cy="16.3505"
               rx="3.2500136"
               ry="2.9524772" />
            <path
               id="path15589"
               d="m 181.05713,20.800276 v 11.318683 h -0.11082 c -3.14174,0 -5.75119,-2.866399 -5.74002,-5.096761 l 0.0514,-10.273279 h 0.0926 c 3.15176,0 5.70678,1.813854 5.70678,4.051357 z"
               style="fill:#242424;fill-opacity:1;stroke-width:0.208529"
               sodipodi:nodetypes="scsscss" />
            <rect
               style="fill:#ffb380;stroke:#030303;stroke-width:0.13222;stroke-dasharray:none;stroke-opacity:1"
               id="rect15591"
               width="20.197443"
               height="25.493114"
               x="177.0712"
               y="16.078247"
               ry="8.7821512" />
            <path
               id="path16544"
               style="fill:#242424;fill-opacity:1;stroke-width:0.158709"
               d="m 180.37735,32.286799 -0.0209,1.678303 c -0.0528,4.262864 2.59929,7.695435 5.82785,7.695435 h 1.74719 c 3.22858,0 5.82785,-3.432246 5.82785,-7.695435 l -0.0682,-1.580801 z"
               sodipodi:nodetypes="csssscc" />
            <path
               id="path15601"
               d="m 183.58882,13.90987 h 12.80187 v 0.07614 c 0,2.158553 -3.24202,3.951392 -5.76465,3.943725 l -11.61947,-0.03533 v -0.06366 c 0,-2.16545 2.05153,-3.920893 4.58225,-3.920893 z"
               style="fill:#626262;fill-opacity:1;stroke-width:0.183824"
               sodipodi:nodetypes="scsscss"
               inkscape:transform-center-x="-10.910442"
               inkscape:transform-center-y="-2.3382423" />
            <path
               id="path15603"
               d="m 182.19872,13.244241 12.12572,-1.964776 0.0163,0.07585 c 0.46095,2.150432 -2.22698,4.434095 -4.61801,4.813617 l -11.01332,1.748117 -0.0136,-0.06341 c -0.46243,-2.157301 1.1059,-4.221001 3.50295,-4.609403 z"
               style="fill:#242424;fill-opacity:1;stroke-width:0.18164"
               sodipodi:nodetypes="scsscss"
               inkscape:transform-center-x="-9.752799"
               inkscape:transform-center-y="-3.8450402" />
            <ellipse
               style="fill:#522200;fill-opacity:1;stroke-width:0.0616115"
               id="ellipse15605"
               cx="186.29047"
               cy="30.699831"
               rx="0.59483272"
               ry="0.40856445" />
            <ellipse
               style="fill:#e3e3e3;fill-opacity:1;stroke:#030303;stroke-width:0.120108;stroke-dasharray:none;stroke-opacity:1"
               id="ellipse16193"
               cx="-183.78787"
               cy="25.842289"
               rx="2.5484667"
               ry="1.4724257"
               transform="scale(-1,1)" />
            <ellipse
               style="fill:#522200;fill-opacity:1;stroke-width:0.0616115"
               id="ellipse16268"
               cx="188.39436"
               cy="30.699831"
               rx="0.59483272"
               ry="0.40856445" />
            <ellipse
               style="fill:#2a9fff;fill-opacity:1;fill-rule:evenodd;stroke-width:0.2109"
               id="path37288"
               cx="183.77151"
               cy="25.63986"
               rx="1.3258307"
               ry="1.1490532" />
            <circle
               style="fill:#000000;fill-opacity:1;fill-rule:evenodd;stroke-width:0.121364"
               id="path37772"
               cx="183.76526"
               cy="25.615826"
               r="0.7120893" />
            <circle
               style="fill:#fff4f4;fill-opacity:1;fill-rule:evenodd;stroke-width:0.363737"
               id="circle37774"
               cx="-183.50371"
               cy="25.332951"
               r="0.17246892"
               transform="scale(-1,1)" />
            <path
               id="path15593-4"
               style="fill:#47001f;fill-opacity:1;stroke-width:0.0705484"
               d="m 183.69913,34.562213 c 0.0581,0.852514 0.47175,1.604271 1.09456,2.10874 0.52039,-0.444954 1.19675,-0.713089 1.93841,-0.713089 h 0.89415 c 0.71105,0 1.36206,0.246533 1.87314,0.659023 0.58671,-0.503343 0.974,-1.232048 1.03002,-2.054674 z" />
            <path
               id="path15690-5"
               style="fill:#ff4e4e;fill-opacity:1;stroke-width:0.0756424"
               d="m 186.67447,35.691952 c -0.80595,0 -1.53473,0.31675 -2.07005,0.832869 0.55094,0.454296 1.2579,0.726839 2.03113,0.726839 h 0.95709 c 0.77695,0 1.48694,-0.27514 2.03906,-0.733363 -0.53464,-0.512217 -1.26058,-0.826345 -2.06307,-0.826345 z" />
            <path
               id="path16056-9"
               style="fill:#ffffff;stroke-width:0.0746986"
               d="m 184.44031,34.566757 c 0.0291,0.4433 0.68482,0.794904 1.37768,0.794902 l 2.7246,-5e-6 c 0.69286,-2e-6 1.29473,-0.355116 1.31874,-0.794909 z"
               sodipodi:nodetypes="ccccc"
               inkscape:original-d="m 184.44031,34.566757 c 0.0154,0.234652 0.0577,0.533718 0.12314,0.794905 l 5.23368,-1.1e-5 c 0.0655,-0.261189 0.0487,-0.511009 0.0642,-0.794906 z"
               inkscape:path-effect="#path-effect16060-6" />
            <ellipse
               style="fill:#e3e3e3;fill-opacity:1;stroke:#030303;stroke-width:0.120108;stroke-dasharray:none;stroke-opacity:1"
               id="ellipse275"
               cx="-191.06351"
               cy="25.884586"
               rx="2.5484667"
               ry="1.4724257"
               transform="scale(-1,1)" />
            <ellipse
               style="fill:#2a9fff;fill-opacity:1;fill-rule:evenodd;stroke-width:0.2109"
               id="ellipse277"
               cx="191.08945"
               cy="25.682159"
               rx="1.3258307"
               ry="1.1490532" />
            <circle
               style="fill:#000000;fill-opacity:1;fill-rule:evenodd;stroke-width:0.121364"
               id="circle279"
               cx="191.04089"
               cy="25.658123"
               r="0.7120893" />
            <circle
               style="fill:#fff4f4;fill-opacity:1;fill-rule:evenodd;stroke-width:0.363737"
               id="circle281"
               cx="-190.82164"
               cy="25.3964"
               r="0.17246892"
               transform="scale(-1,1)" />
          </g>
        </g>
      </g>
    </g>
  </g>
</svg>
