<?xml version="1.0" encoding="UTF-8" standalone="no"?>
<!-- Created with Inkscape (http://www.inkscape.org/) -->

<svg
   width="159.28445mm"
   height="265.61731mm"
   viewBox="0 0 159.28445 265.61731"
   version="1.1"
   id="svg43802"
   inkscape:version="1.2.1 (9c6d41e410, 2022-07-14)"
   sodipodi:docname="avatar_5.svg"
   xmlns:inkscape="http://www.inkscape.org/namespaces/inkscape"
   xmlns:sodipodi="http://sodipodi.sourceforge.net/DTD/sodipodi-0.dtd"
   xmlns="http://www.w3.org/2000/svg"
   xmlns:svg="http://www.w3.org/2000/svg">
  <sodipodi:namedview
     id="namedview43804"
     pagecolor="#ffffff"
     bordercolor="#000000"
     borderopacity="0.25"
     inkscape:showpageshadow="2"
     inkscape:pageopacity="0.0"
     inkscape:pagecheckerboard="0"
     inkscape:deskcolor="#d1d1d1"
     inkscape:document-units="mm"
     showgrid="false"
     inkscape:zoom="0.52724989"
     inkscape:cx="336.65251"
     inkscape:cy="502.60798"
     inkscape:window-width="1920"
     inkscape:window-height="1017"
     inkscape:window-x="-8"
     inkscape:window-y="-8"
     inkscape:window-maximized="1"
     inkscape:current-layer="g45498" />
  <defs
     id="defs43799">
    <inkscape:path-effect
       effect="fillet_chamfer"
       id="path-effect7593"
       is_visible="true"
       lpeversion="1"
       nodesatellites_param="F,0,0,1,0,0,0,1 @ F,0,1,1,0,1.2545445,0,1 @ F,0,0,1,0,1.2545445,0,1 @ F,0,0,1,0,0,0,1"
       unit="px"
       method="auto"
       mode="F"
       radius="0"
       chamfer_steps="1"
       flexible="false"
       use_knot_distance="true"
       apply_no_radius="true"
       apply_with_radius="true"
       only_selected="false"
       hide_knots="false" />
    <inkscape:path-effect
       effect="fillet_chamfer"
       id="path-effect7529"
       is_visible="true"
       lpeversion="1"
       nodesatellites_param="F,0,0,1,0,0,0,1 @ F,0,1,1,0,1.2545445,0,1 @ F,0,0,1,0,1.2545445,0,1 @ F,0,0,1,0,0,0,1"
       unit="px"
       method="auto"
       mode="F"
       radius="0"
       chamfer_steps="1"
       flexible="false"
       use_knot_distance="true"
       apply_no_radius="true"
       apply_with_radius="true"
       only_selected="false"
       hide_knots="false" />
    <inkscape:path-effect
       effect="fillet_chamfer"
       id="path-effect16060-6"
       is_visible="true"
       lpeversion="1"
       nodesatellites_param="F,0,0,1,0,0,0,1 @ F,0,1,1,0,1.2545445,0,1 @ F,0,0,1,0,1.2545445,0,1 @ F,0,0,1,0,0,0,1"
       unit="px"
       method="auto"
       mode="F"
       radius="0"
       chamfer_steps="1"
       flexible="false"
       use_knot_distance="true"
       apply_no_radius="true"
       apply_with_radius="true"
       only_selected="false"
       hide_knots="false" />
    <filter
       inkscape:collect="always"
       style="color-interpolation-filters:sRGB"
       id="filter7958"
       x="-0.047460106"
       y="-0.023341495"
       width="1.0941107"
       height="1.0524469">
      <feGaussianBlur
         inkscape:collect="always"
         stdDeviation="0.46508844"
         id="feGaussianBlur7960" />
    </filter>
  </defs>
  <g
     inkscape:label="Layer 1"
     inkscape:groupmode="layer"
     id="layer1"
     transform="translate(-24.680366,-6.9845218)">
    <g
       id="g45498"
       transform="matrix(5.4130928,0,0,5.5225825,-539.137,-677.35761)">
      <g
         id="g8052"
         transform="matrix(1.0040441,0,0,1.0040441,-0.85618139,-1.4161826)">
        <g
           id="g7465"
           transform="matrix(0.8928847,0,0,0.8928847,12.7329,15.849352)">
          <g
             id="g15581"
             transform="matrix(0.7860526,0,0,0.76518985,84.226638,61.772879)"
             style="fill:#ffb98a;fill-opacity:1">
            <rect
               style="fill:#cc7c47;fill-opacity:1;stroke-width:0.103571"
               id="rect15577"
               width="9.1565714"
               height="13.924938"
               x="100.16856"
               y="-39.610909"
               ry="4.7970176"
               transform="matrix(0,1,-0.99989952,-0.0141759,0,0)"
               inkscape:transform-center-x="-0.18754404"
               inkscape:transform-center-y="0.0026622334" />
            <rect
               style="fill:#cc7c47;fill-opacity:1;stroke-width:0.103571"
               id="rect15579"
               width="9.1565714"
               height="13.924938"
               x="99.666679"
               y="-62.500305"
               ry="4.7970176"
               transform="matrix(0,1,-0.99989952,-0.0141759,0,0)"
               inkscape:transform-center-x="-0.18754404"
               inkscape:transform-center-y="0.0026622334" />
          </g>
          <ellipse
             style="fill:#d69468;fill-opacity:1;fill-rule:evenodd;stroke-width:0.202456"
             id="ellipse16064"
             cx="130.17509"
             cy="142.0598"
             rx="2.4239106"
             ry="2.411911" />
          <ellipse
             style="fill:#d99d74;fill-opacity:1;fill-rule:evenodd;stroke-width:0.202456"
             id="path16062"
             cx="107.7069"
             cy="142.19556"
             rx="2.4239106"
             ry="2.411911" />
          <path
             id="path15595"
             style="fill:#ff4e4e;fill-opacity:1;stroke-width:0.0938925"
             d="m 118.70715,149.30931 c -1.34709,0 -2.53241,0.66551 -3.2472,1.68724 0.84017,0.54223 1.8424,0.85647 2.92115,0.85647 h 1.61417 c 1.14455,0 2.20303,-0.35386 3.07319,-0.95835 -0.72096,-0.9638 -1.8715,-1.58536 -3.17321,-1.58536 z" />
          <rect
             style="fill:#d38d5f;fill-opacity:1;stroke-width:0.122339"
             id="rect15569"
             width="11.879038"
             height="14.975878"
             x="109.45574"
             y="143.77148"
             ry="5.1590557"
             transform="matrix(1,0,0.02305587,0.99973418,0,0)" />
          <path
             id="path15571"
             style="fill:#008000;fill-opacity:1;stroke:#030303;stroke-width:0.551275;stroke-dasharray:none;stroke-opacity:1"
             d="m 113.02191,153.02381 c -4.75796,0 -8.58819,3.83063 -8.58819,8.58859 v 9.48619 c 0,0.21512 0.008,0.42833 0.0233,0.6394 h 28.8279 c 0.0154,-0.21107 0.0233,-0.42428 0.0233,-0.6394 v -9.48619 c 0,-4.75796 -3.83024,-8.58859 -8.58819,-8.58859 z" />
          <rect
             style="fill:#cc7c47;fill-opacity:1;stroke:#030303;stroke-width:0.228825;stroke-dasharray:none;stroke-opacity:1"
             id="rect15575"
             width="11.879038"
             height="14.975878"
             x="109.51923"
             y="143.09932"
             ry="5.1590557"
             transform="matrix(1,0,0.02305587,0.99973418,0,0)" />
          <ellipse
             style="fill:#241f1c;fill-opacity:1;stroke-width:0.267083"
             id="ellipse15583"
             cx="-128.52609"
             cy="131.65186"
             rx="3.8661387"
             ry="3.2094326"
             transform="scale(-1,1)" />
          <path
             id="path15585"
             d="m 124.02501,133.801 v 12.30375 h 0.13765 c 3.90223,0 7.14331,-3.11587 7.12945,-5.54033 l -0.0638,-11.16737 h -0.11507 c -3.91469,0 -7.08817,1.97171 -7.08817,4.40395 z"
             style="fill:#241f1c;fill-opacity:1;stroke-width:0.242303"
             sodipodi:nodetypes="scsscss" />
          <ellipse
             style="fill:#241f1c;fill-opacity:1;stroke-width:0.246279"
             id="ellipse15587"
             cx="109.04957"
             cy="129.23439"
             rx="3.4078743"
             ry="3.095886" />
          <path
             id="path15589"
             d="m 112.66497,133.90031 v 11.86846 h -0.1162 c -3.29434,0 -6.03054,-3.00563 -6.01883,-5.34433 l 0.0539,-10.77227 h 0.0971 c 3.30486,0 5.98398,1.90195 5.98398,4.24814 z"
             style="fill:#241f1c;fill-opacity:1;stroke-width:0.218658"
             sodipodi:nodetypes="scsscss" />
          <rect
             style="fill:#d18857;fill-opacity:1;stroke-width:0.21824"
             id="rect15591"
             width="21.17848"
             height="26.731375"
             x="108.48544"
             y="128.94891"
             ry="9.2087202" />
          <path
             id="path15601"
             d="m 115.31963,126.67522 h 13.42369 v 0.0798 c 0,2.2634 -3.39949,4.14332 -6.04465,4.13528 l -12.18386,-0.037 v -0.0667 c 0,-2.27063 2.15118,-4.11134 4.80482,-4.11134 z"
             style="fill:#413833;fill-opacity:1;stroke-width:0.192752"
             sodipodi:nodetypes="scsscss"
             inkscape:transform-center-x="-11.440388"
             inkscape:transform-center-y="-2.4518104" />
          <path
             id="path15603"
             d="m 113.86201,125.97726 12.7147,-2.06021 0.0171,0.0795 c 0.48334,2.25488 -2.33515,4.64947 -4.84232,5.04742 l -11.54826,1.83303 -0.0142,-0.0665 c -0.48489,-2.26209 1.15961,-4.42602 3.67309,-4.83329 z"
             style="fill:#241f1c;fill-opacity:1;stroke-width:0.190463"
             sodipodi:nodetypes="scsscss"
             inkscape:transform-center-x="-10.226556"
             inkscape:transform-center-y="-4.0317996" />
          <ellipse
             style="fill:#522200;fill-opacity:1;stroke-width:0.0646041"
             id="ellipse15605"
             cx="118.15249"
             cy="144.2807"
             rx="0.62372512"
             ry="0.42840937" />
          <ellipse
             style="fill:#e3e3e3;fill-opacity:1;stroke:#030303;stroke-width:0.126254;stroke-opacity:1"
             id="ellipse16193"
             cx="-114.99609"
             cy="139.27592"
             rx="2.6722517"
             ry="1.5439448"
             transform="scale(-1,1)" />
          <ellipse
             style="fill:#522200;fill-opacity:1;stroke-width:0.0646041"
             id="ellipse16268"
             cx="120.35859"
             cy="144.2807"
             rx="0.62372512"
             ry="0.42840937" />
          <ellipse
             style="fill:#8d5027;fill-opacity:1;fill-rule:evenodd;stroke-width:0.221144"
             id="path37288"
             cx="114.97894"
             cy="139.06367"
             rx="1.3902293"
             ry="1.2048655" />
          <circle
             style="fill:#000000;fill-opacity:1;fill-rule:evenodd;stroke-width:0.127258"
             id="path37772"
             cx="114.97237"
             cy="139.03847"
             r="0.74667716" />
          <circle
             style="fill:#fff4f4;fill-opacity:1;fill-rule:evenodd;stroke-width:0.381404"
             id="circle37774"
             cx="-114.74249"
             cy="138.76404"
             r="0.18084614"
             transform="scale(-1,1)" />
          <path
             id="path15593-4"
             style="fill:#47001f;fill-opacity:1;stroke-width:0.0739751"
             d="m 115.4353,148.33069 c 0.0609,0.89393 0.49466,1.6822 1.14773,2.21117 0.54566,-0.46657 1.25487,-0.74773 2.03255,-0.74773 h 0.93759 c 0.74559,0 1.42822,0.25851 1.96412,0.69104 0.61521,-0.52779 1.02131,-1.29189 1.08005,-2.15448 z" />
          <path
             id="path15690-5"
             style="fill:#ff4e4e;fill-opacity:1;stroke-width:0.0793165"
             d="m 118.55516,149.51531 c -0.8451,0 -1.60927,0.33213 -2.1706,0.87332 0.5777,0.47636 1.319,0.76214 2.12979,0.76214 h 1.00358 c 0.81468,0 1.55916,-0.2885 2.1381,-0.76898 -0.56061,-0.5371 -1.32181,-0.86648 -2.16328,-0.86648 z" />
          <path
             id="path16056-9"
             style="fill:#ffffff;stroke-width:0.0783268"
             d="m 116.21248,148.33546 c 0.0306,0.46482 0.6908,0.83351 1.38366,0.83351 l 2.97881,-1e-5 c 0.69286,0 1.29674,-0.37236 1.32184,-0.83351 z"
             sodipodi:nodetypes="ccccc"
             inkscape:original-d="m 116.21248,148.33546 c 0.0162,0.24605 0.0605,0.55964 0.12912,0.83351 l 5.48789,-1e-5 c 0.0687,-0.27387 0.0511,-0.53583 0.0673,-0.83351 z"
             inkscape:path-effect="#path-effect16060-6" />
          <ellipse
             style="fill:#e3e3e3;fill-opacity:1;stroke:#030303;stroke-width:0.126254;stroke-opacity:1"
             id="ellipse275"
             cx="-123.68963"
             cy="139.23158"
             rx="2.6722517"
             ry="1.5439448"
             transform="scale(-1,1)" />
          <ellipse
             style="fill:#8d5027;fill-opacity:1;fill-rule:evenodd;stroke-width:0.221144"
             id="ellipse277"
             cx="123.67248"
             cy="139.01932"
             rx="1.3902293"
             ry="1.2048655" />
          <circle
             style="fill:#000000;fill-opacity:1;fill-rule:evenodd;stroke-width:0.127258"
             id="circle279"
             cx="123.66592"
             cy="138.99411"
             r="0.74667716" />
          <circle
             style="fill:#fff4f4;fill-opacity:1;fill-rule:evenodd;stroke-width:0.381404"
             id="circle281"
             cx="-123.43603"
             cy="138.71968"
             r="0.18084614"
             transform="scale(-1,1)" />
        </g>
        <g
           id="g7589"
           transform="matrix(0.8928847,0,0,0.8928847,14.030762,15.849352)"
           style="mix-blend-mode:normal;fill:#010101;fill-opacity:1;filter:url(#filter7958)">
          <g
             id="g7535"
             transform="matrix(0.7860526,0,0,0.76518985,84.226638,61.772879)"
             style="fill:#010101;fill-opacity:1">
            <rect
               style="fill:#010101;fill-opacity:1;stroke-width:0.103571"
               id="rect7531"
               width="9.1565714"
               height="13.924938"
               x="100.16856"
               y="-39.610909"
               ry="4.7970176"
               transform="matrix(0,1,-0.99989952,-0.0141759,0,0)"
               inkscape:transform-center-x="-0.18754404"
               inkscape:transform-center-y="0.0026622334" />
            <rect
               style="fill:#010101;fill-opacity:1;stroke-width:0.103571"
               id="rect7533"
               width="9.1565714"
               height="13.924938"
               x="99.666679"
               y="-62.500305"
               ry="4.7970176"
               transform="matrix(0,1,-0.99989952,-0.0141759,0,0)"
               inkscape:transform-center-x="-0.18754404"
               inkscape:transform-center-y="0.0026622334" />
          </g>
          <ellipse
             style="fill:#010101;fill-opacity:1;fill-rule:evenodd;stroke-width:0.202456"
             id="ellipse7537"
             cx="130.17509"
             cy="142.0598"
             rx="2.4239106"
             ry="2.411911" />
          <ellipse
             style="fill:#010101;fill-opacity:1;fill-rule:evenodd;stroke-width:0.202456"
             id="ellipse7539"
             cx="107.7069"
             cy="142.19556"
             rx="2.4239106"
             ry="2.411911" />
          <path
             id="path7541"
             style="fill:#010101;fill-opacity:1;stroke-width:0.0938925"
             d="m 118.70715,149.30931 c -1.34709,0 -2.53241,0.66551 -3.2472,1.68724 0.84017,0.54223 1.8424,0.85647 2.92115,0.85647 h 1.61417 c 1.14455,0 2.20303,-0.35386 3.07319,-0.95835 -0.72096,-0.9638 -1.8715,-1.58536 -3.17321,-1.58536 z" />
          <rect
             style="fill:#010101;fill-opacity:1;stroke-width:0.122339"
             id="rect7543"
             width="11.879038"
             height="14.975878"
             x="109.45574"
             y="143.77148"
             ry="5.1590557"
             transform="matrix(1,0,0.02305587,0.99973418,0,0)" />
          <path
             id="path7545"
             style="fill:#010101;fill-opacity:1;stroke:#030303;stroke-width:0.551275;stroke-dasharray:none;stroke-opacity:1"
             d="m 113.02191,153.02381 c -4.75796,0 -8.58819,3.83063 -8.58819,8.58859 v 9.48619 c 0,0.21512 0.008,0.42833 0.0233,0.6394 h 28.8279 c 0.0154,-0.21107 0.0233,-0.42428 0.0233,-0.6394 v -9.48619 c 0,-4.75796 -3.83024,-8.58859 -8.58819,-8.58859 z" />
          <rect
             style="fill:#010101;fill-opacity:1;stroke:#030303;stroke-width:0.228825;stroke-dasharray:none;stroke-opacity:1"
             id="rect7547"
             width="11.879038"
             height="14.975878"
             x="109.51923"
             y="143.09932"
             ry="5.1590557"
             transform="matrix(1,0,0.02305587,0.99973418,0,0)" />
          <ellipse
             style="fill:#010101;fill-opacity:1;stroke-width:0.267083"
             id="ellipse7549"
             cx="-128.52609"
             cy="131.65186"
             rx="3.8661387"
             ry="3.2094326"
             transform="scale(-1,1)" />
          <path
             id="path7551"
             d="m 124.02501,133.801 v 12.30375 h 0.13765 c 3.90223,0 7.14331,-3.11587 7.12945,-5.54033 l -0.0638,-11.16737 h -0.11507 c -3.91469,0 -7.08817,1.97171 -7.08817,4.40395 z"
             style="fill:#010101;fill-opacity:1;stroke-width:0.242303"
             sodipodi:nodetypes="scsscss" />
          <ellipse
             style="fill:#010101;fill-opacity:1;stroke-width:0.246279"
             id="ellipse7553"
             cx="109.04957"
             cy="129.23439"
             rx="3.4078743"
             ry="3.095886" />
          <path
             id="path7555"
             d="m 112.66497,133.90031 v 11.86846 h -0.1162 c -3.29434,0 -6.03054,-3.00563 -6.01883,-5.34433 l 0.0539,-10.77227 h 0.0971 c 3.30486,0 5.98398,1.90195 5.98398,4.24814 z"
             style="fill:#010101;fill-opacity:1;stroke-width:0.218658"
             sodipodi:nodetypes="scsscss" />
          <rect
             style="fill:#010101;fill-opacity:1;stroke-width:0.21824"
             id="rect7557"
             width="21.17848"
             height="26.731375"
             x="108.48544"
             y="128.94891"
             ry="9.2087202" />
          <path
             id="path7559"
             d="m 115.31963,126.67522 h 13.42369 v 0.0798 c 0,2.2634 -3.39949,4.14332 -6.04465,4.13528 l -12.18386,-0.037 v -0.0667 c 0,-2.27063 2.15118,-4.11134 4.80482,-4.11134 z"
             style="fill:#010101;fill-opacity:1;stroke-width:0.192752"
             sodipodi:nodetypes="scsscss"
             inkscape:transform-center-x="-11.440388"
             inkscape:transform-center-y="-2.4518104" />
          <path
             id="path7561"
             d="m 113.86201,125.97726 12.7147,-2.06021 0.0171,0.0795 c 0.48334,2.25488 -2.33515,4.64947 -4.84232,5.04742 l -11.54826,1.83303 -0.0142,-0.0665 c -0.48489,-2.26209 1.15961,-4.42602 3.67309,-4.83329 z"
             style="fill:#010101;fill-opacity:1;stroke-width:0.190463"
             sodipodi:nodetypes="scsscss"
             inkscape:transform-center-x="-10.226556"
             inkscape:transform-center-y="-4.0317996" />
          <ellipse
             style="fill:#010101;fill-opacity:1;stroke-width:0.0646041"
             id="ellipse7563"
             cx="118.15249"
             cy="144.2807"
             rx="0.62372512"
             ry="0.42840937" />
          <ellipse
             style="fill:#010101;fill-opacity:1;stroke:#030303;stroke-width:0.126254;stroke-opacity:1"
             id="ellipse7565"
             cx="-114.99609"
             cy="139.27592"
             rx="2.6722517"
             ry="1.5439448"
             transform="scale(-1,1)" />
          <ellipse
             style="fill:#010101;fill-opacity:1;stroke-width:0.0646041"
             id="ellipse7567"
             cx="120.35859"
             cy="144.2807"
             rx="0.62372512"
             ry="0.42840937" />
          <ellipse
             style="fill:#010101;fill-opacity:1;fill-rule:evenodd;stroke-width:0.221144"
             id="ellipse7569"
             cx="114.97894"
             cy="139.06367"
             rx="1.3902293"
             ry="1.2048655" />
          <circle
             style="fill:#010101;fill-opacity:1;fill-rule:evenodd;stroke-width:0.127258"
             id="circle7571"
             cx="114.97237"
             cy="139.03847"
             r="0.74667716" />
          <circle
             style="fill:#010101;fill-opacity:1;fill-rule:evenodd;stroke-width:0.381404"
             id="circle7573"
             cx="-114.74249"
             cy="138.76404"
             r="0.18084614"
             transform="scale(-1,1)" />
          <path
             id="path7575"
             style="fill:#010101;fill-opacity:1;stroke-width:0.0739751"
             d="m 115.4353,148.33069 c 0.0609,0.89393 0.49466,1.6822 1.14773,2.21117 0.54566,-0.46657 1.25487,-0.74773 2.03255,-0.74773 h 0.93759 c 0.74559,0 1.42822,0.25851 1.96412,0.69104 0.61521,-0.52779 1.02131,-1.29189 1.08005,-2.15448 z" />
          <path
             id="path7577"
             style="fill:#010101;fill-opacity:1;stroke-width:0.0793165"
             d="m 118.55516,149.51531 c -0.8451,0 -1.60927,0.33213 -2.1706,0.87332 0.5777,0.47636 1.319,0.76214 2.12979,0.76214 h 1.00358 c 0.81468,0 1.55916,-0.2885 2.1381,-0.76898 -0.56061,-0.5371 -1.32181,-0.86648 -2.16328,-0.86648 z" />
          <path
             id="path7579"
             style="fill:#010101;fill-opacity:1;stroke-width:0.0783268"
             d="m 116.21248,148.33546 c 0.0306,0.46482 0.6908,0.83351 1.38366,0.83351 l 2.97881,-1e-5 c 0.69286,0 1.29674,-0.37236 1.32184,-0.83351 z"
             sodipodi:nodetypes="ccccc"
             inkscape:original-d="m 116.21248,148.33546 c 0.0162,0.24605 0.0605,0.55964 0.12912,0.83351 l 5.48789,-1e-5 c 0.0687,-0.27387 0.0511,-0.53583 0.0673,-0.83351 z"
             inkscape:path-effect="#path-effect7593" />
          <ellipse
             style="fill:#010101;fill-opacity:1;stroke:#030303;stroke-width:0.126254;stroke-opacity:1"
             id="ellipse7581"
             cx="-123.68963"
             cy="139.23158"
             rx="2.6722517"
             ry="1.5439448"
             transform="scale(-1,1)" />
          <ellipse
             style="fill:#010101;fill-opacity:1;fill-rule:evenodd;stroke-width:0.221144"
             id="ellipse7583"
             cx="123.67248"
             cy="139.01932"
             rx="1.3902293"
             ry="1.2048655" />
          <circle
             style="fill:#010101;fill-opacity:1;fill-rule:evenodd;stroke-width:0.127258"
             id="circle7585"
             cx="123.66592"
             cy="138.99411"
             r="0.74667716" />
          <circle
             style="fill:#010101;fill-opacity:1;fill-rule:evenodd;stroke-width:0.381404"
             id="circle7587"
             cx="-123.43603"
             cy="138.71968"
             r="0.18084614"
             transform="scale(-1,1)" />
        </g>
        <g
           id="g7525"
           transform="matrix(0.8928847,0,0,0.8928847,12.7329,15.849352)">
          <g
             id="g7471"
             transform="matrix(0.7860526,0,0,0.76518985,84.226638,61.772879)"
             style="fill:#ffb98a;fill-opacity:1">
            <rect
               style="fill:#cc7c47;fill-opacity:1;stroke-width:0.103571"
               id="rect7467"
               width="9.1565714"
               height="13.924938"
               x="100.16856"
               y="-39.610909"
               ry="4.7970176"
               transform="matrix(0,1,-0.99989952,-0.0141759,0,0)"
               inkscape:transform-center-x="-0.18754404"
               inkscape:transform-center-y="0.0026622334" />
            <rect
               style="fill:#cc7c47;fill-opacity:1;stroke-width:0.103571"
               id="rect7469"
               width="9.1565714"
               height="13.924938"
               x="99.666679"
               y="-62.500305"
               ry="4.7970176"
               transform="matrix(0,1,-0.99989952,-0.0141759,0,0)"
               inkscape:transform-center-x="-0.18754404"
               inkscape:transform-center-y="0.0026622334" />
          </g>
          <ellipse
             style="fill:#d69468;fill-opacity:1;fill-rule:evenodd;stroke-width:0.202456"
             id="ellipse7473"
             cx="130.17509"
             cy="142.0598"
             rx="2.4239106"
             ry="2.411911" />
          <ellipse
             style="fill:#d99d74;fill-opacity:1;fill-rule:evenodd;stroke-width:0.202456"
             id="ellipse7475"
             cx="107.7069"
             cy="142.19556"
             rx="2.4239106"
             ry="2.411911" />
          <path
             id="path7477"
             style="fill:#ff4e4e;fill-opacity:1;stroke-width:0.0938925"
             d="m 118.70715,149.30931 c -1.34709,0 -2.53241,0.66551 -3.2472,1.68724 0.84017,0.54223 1.8424,0.85647 2.92115,0.85647 h 1.61417 c 1.14455,0 2.20303,-0.35386 3.07319,-0.95835 -0.72096,-0.9638 -1.8715,-1.58536 -3.17321,-1.58536 z" />
          <rect
             style="fill:#d38d5f;fill-opacity:1;stroke-width:0.122339"
             id="rect7479"
             width="11.879038"
             height="14.975878"
             x="109.45574"
             y="143.77148"
             ry="5.1590557"
             transform="matrix(1,0,0.02305587,0.99973418,0,0)" />
          <path
             id="path7481"
             style="fill:#008000;fill-opacity:1;stroke:#030303;stroke-width:0.551275;stroke-dasharray:none;stroke-opacity:1"
             d="m 113.02191,153.02381 c -4.75796,0 -8.58819,3.83063 -8.58819,8.58859 v 9.48619 c 0,0.21512 0.008,0.42833 0.0233,0.6394 h 28.8279 c 0.0154,-0.21107 0.0233,-0.42428 0.0233,-0.6394 v -9.48619 c 0,-4.75796 -3.83024,-8.58859 -8.58819,-8.58859 z" />
          <rect
             style="fill:#cc7c47;fill-opacity:1;stroke:#030303;stroke-width:0.228825;stroke-dasharray:none;stroke-opacity:1"
             id="rect7483"
             width="11.879038"
             height="14.975878"
             x="109.51923"
             y="143.09932"
             ry="5.1590557"
             transform="matrix(1,0,0.02305587,0.99973418,0,0)" />
          <ellipse
             style="fill:#241f1c;fill-opacity:1;stroke-width:0.267083"
             id="ellipse7485"
             cx="-128.52609"
             cy="131.65186"
             rx="3.8661387"
             ry="3.2094326"
             transform="scale(-1,1)" />
          <path
             id="path7487"
             d="m 124.02501,133.801 v 12.30375 h 0.13765 c 3.90223,0 7.14331,-3.11587 7.12945,-5.54033 l -0.0638,-11.16737 h -0.11507 c -3.91469,0 -7.08817,1.97171 -7.08817,4.40395 z"
             style="fill:#241f1c;fill-opacity:1;stroke-width:0.242303"
             sodipodi:nodetypes="scsscss" />
          <ellipse
             style="fill:#241f1c;fill-opacity:1;stroke-width:0.246279"
             id="ellipse7489"
             cx="109.04957"
             cy="129.23439"
             rx="3.4078743"
             ry="3.095886" />
          <path
             id="path7491"
             d="m 112.66497,133.90031 v 11.86846 h -0.1162 c -3.29434,0 -6.03054,-3.00563 -6.01883,-5.34433 l 0.0539,-10.77227 h 0.0971 c 3.30486,0 5.98398,1.90195 5.98398,4.24814 z"
             style="fill:#241f1c;fill-opacity:1;stroke-width:0.218658"
             sodipodi:nodetypes="scsscss" />
          <rect
             style="fill:#d18857;fill-opacity:1;stroke-width:0.21824"
             id="rect7493"
             width="21.17848"
             height="26.731375"
             x="108.48544"
             y="128.94891"
             ry="9.2087202" />
          <path
             id="path7495"
             d="m 115.31963,126.67522 h 13.42369 v 0.0798 c 0,2.2634 -3.39949,4.14332 -6.04465,4.13528 l -12.18386,-0.037 v -0.0667 c 0,-2.27063 2.15118,-4.11134 4.80482,-4.11134 z"
             style="fill:#413833;fill-opacity:1;stroke-width:0.192752"
             sodipodi:nodetypes="scsscss"
             inkscape:transform-center-x="-11.440388"
             inkscape:transform-center-y="-2.4518104" />
          <path
             id="path7497"
             d="m 113.86201,125.97726 12.7147,-2.06021 0.0171,0.0795 c 0.48334,2.25488 -2.33515,4.64947 -4.84232,5.04742 l -11.54826,1.83303 -0.0142,-0.0665 c -0.48489,-2.26209 1.15961,-4.42602 3.67309,-4.83329 z"
             style="fill:#241f1c;fill-opacity:1;stroke-width:0.190463"
             sodipodi:nodetypes="scsscss"
             inkscape:transform-center-x="-10.226556"
             inkscape:transform-center-y="-4.0317996" />
          <ellipse
             style="fill:#522200;fill-opacity:1;stroke-width:0.0646041"
             id="ellipse7499"
             cx="118.15249"
             cy="144.2807"
             rx="0.62372512"
             ry="0.42840937" />
          <ellipse
             style="fill:#e3e3e3;fill-opacity:1;stroke:#030303;stroke-width:0.126254;stroke-opacity:1"
             id="ellipse7501"
             cx="-114.99609"
             cy="139.27592"
             rx="2.6722517"
             ry="1.5439448"
             transform="scale(-1,1)" />
          <ellipse
             style="fill:#522200;fill-opacity:1;stroke-width:0.0646041"
             id="ellipse7503"
             cx="120.35859"
             cy="144.2807"
             rx="0.62372512"
             ry="0.42840937" />
          <ellipse
             style="fill:#8d5027;fill-opacity:1;fill-rule:evenodd;stroke-width:0.221144"
             id="ellipse7505"
             cx="114.97894"
             cy="139.06367"
             rx="1.3902293"
             ry="1.2048655" />
          <circle
             style="fill:#000000;fill-opacity:1;fill-rule:evenodd;stroke-width:0.127258"
             id="circle7507"
             cx="114.97237"
             cy="139.03847"
             r="0.74667716" />
          <circle
             style="fill:#fff4f4;fill-opacity:1;fill-rule:evenodd;stroke-width:0.381404"
             id="circle7509"
             cx="-114.74249"
             cy="138.76404"
             r="0.18084614"
             transform="scale(-1,1)" />
          <path
             id="path7511"
             style="fill:#47001f;fill-opacity:1;stroke-width:0.0739751"
             d="m 115.4353,148.33069 c 0.0609,0.89393 0.49466,1.6822 1.14773,2.21117 0.54566,-0.46657 1.25487,-0.74773 2.03255,-0.74773 h 0.93759 c 0.74559,0 1.42822,0.25851 1.96412,0.69104 0.61521,-0.52779 1.02131,-1.29189 1.08005,-2.15448 z" />
          <path
             id="path7513"
             style="fill:#ff4e4e;fill-opacity:1;stroke-width:0.0793165"
             d="m 118.55516,149.51531 c -0.8451,0 -1.60927,0.33213 -2.1706,0.87332 0.5777,0.47636 1.319,0.76214 2.12979,0.76214 h 1.00358 c 0.81468,0 1.55916,-0.2885 2.1381,-0.76898 -0.56061,-0.5371 -1.32181,-0.86648 -2.16328,-0.86648 z" />
          <path
             id="path7515"
             style="fill:#ffffff;stroke-width:0.0783268"
             d="m 116.21248,148.33546 c 0.0306,0.46482 0.6908,0.83351 1.38366,0.83351 l 2.97881,-1e-5 c 0.69286,0 1.29674,-0.37236 1.32184,-0.83351 z"
             sodipodi:nodetypes="ccccc"
             inkscape:original-d="m 116.21248,148.33546 c 0.0162,0.24605 0.0605,0.55964 0.12912,0.83351 l 5.48789,-1e-5 c 0.0687,-0.27387 0.0511,-0.53583 0.0673,-0.83351 z"
             inkscape:path-effect="#path-effect7529" />
          <ellipse
             style="fill:#e3e3e3;fill-opacity:1;stroke:#030303;stroke-width:0.126254;stroke-opacity:1"
             id="ellipse7517"
             cx="-123.68963"
             cy="139.23158"
             rx="2.6722517"
             ry="1.5439448"
             transform="scale(-1,1)" />
          <ellipse
             style="fill:#8d5027;fill-opacity:1;fill-rule:evenodd;stroke-width:0.221144"
             id="ellipse7519"
             cx="123.67248"
             cy="139.01932"
             rx="1.3902293"
             ry="1.2048655" />
          <circle
             style="fill:#000000;fill-opacity:1;fill-rule:evenodd;stroke-width:0.127258"
             id="circle7521"
             cx="123.66592"
             cy="138.99411"
             r="0.74667716" />
          <circle
             style="fill:#fff4f4;fill-opacity:1;fill-rule:evenodd;stroke-width:0.381404"
             id="circle7523"
             cx="-123.43603"
             cy="138.71968"
             r="0.18084614"
             transform="scale(-1,1)" />
        </g>
      </g>
    </g>
  </g>
</svg>
