<?xml version="1.0" encoding="UTF-8" standalone="no"?>
<!-- Created with Inkscape (http://www.inkscape.org/) -->

<svg
   width="29.435385mm"
   height="48.101379mm"
   viewBox="0 0 29.435385 48.101379"
   version="1.1"
   id="svg34454"
   inkscape:version="1.2.1 (9c6d41e410, 2022-07-14)"
   sodipodi:docname="avatar_31.svg"
   xmlns:inkscape="http://www.inkscape.org/namespaces/inkscape"
   xmlns:sodipodi="http://sodipodi.sourceforge.net/DTD/sodipodi-0.dtd"
   xmlns="http://www.w3.org/2000/svg"
   xmlns:svg="http://www.w3.org/2000/svg">
  <sodipodi:namedview
     id="namedview34456"
     pagecolor="#ffffff"
     bordercolor="#000000"
     borderopacity="0.25"
     inkscape:showpageshadow="2"
     inkscape:pageopacity="0.0"
     inkscape:pagecheckerboard="0"
     inkscape:deskcolor="#d1d1d1"
     inkscape:document-units="mm"
     showgrid="false"
     inkscape:zoom="2.9825757"
     inkscape:cx="-19.278639"
     inkscape:cy="119.02464"
     inkscape:window-width="1920"
     inkscape:window-height="1017"
     inkscape:window-x="-8"
     inkscape:window-y="-8"
     inkscape:window-maximized="1"
     inkscape:current-layer="g39312" />
  <defs
     id="defs34451">
    <inkscape:path-effect
       effect="fillet_chamfer"
       id="path-effect19959"
       is_visible="true"
       lpeversion="1"
       nodesatellites_param="F,0,0,1,0,0,0,1 @ F,0,1,1,0,1.2545445,0,1 @ F,0,0,1,0,1.2545445,0,1 @ F,0,0,1,0,0,0,1"
       unit="px"
       method="auto"
       mode="F"
       radius="0"
       chamfer_steps="1"
       flexible="false"
       use_knot_distance="true"
       apply_no_radius="true"
       apply_with_radius="true"
       only_selected="false"
       hide_knots="false" />
    <inkscape:path-effect
       effect="fillet_chamfer"
       id="path-effect16060"
       is_visible="true"
       lpeversion="1"
       nodesatellites_param="F,0,0,1,0,0,0,1 @ F,0,1,1,0,1.2545445,0,1 @ F,0,0,1,0,1.2545445,0,1 @ F,0,0,1,0,0,0,1"
       unit="px"
       method="auto"
       mode="F"
       radius="0"
       chamfer_steps="1"
       flexible="false"
       use_knot_distance="true"
       apply_no_radius="true"
       apply_with_radius="true"
       only_selected="false"
       hide_knots="false" />
    <inkscape:path-effect
       effect="fillet_chamfer"
       id="path-effect16060-6"
       is_visible="true"
       lpeversion="1"
       nodesatellites_param="F,0,0,1,0,0,0,1 @ F,0,1,1,0,1.2545445,0,1 @ F,0,0,1,0,1.2545445,0,1 @ F,0,0,1,0,0,0,1"
       unit="px"
       method="auto"
       mode="F"
       radius="0"
       chamfer_steps="1"
       flexible="false"
       use_knot_distance="true"
       apply_no_radius="true"
       apply_with_radius="true"
       only_selected="false"
       hide_knots="false" />
    <filter
       inkscape:collect="always"
       style="color-interpolation-filters:sRGB"
       id="filter20324"
       x="-0.026151888"
       y="-0.010347986"
       width="1.0514942"
       height="1.0265604">
      <feGaussianBlur
         inkscape:collect="always"
         stdDeviation="0.20618766"
         id="feGaussianBlur20326" />
    </filter>
  </defs>
  <g
     inkscape:label="Layer 1"
     inkscape:groupmode="layer"
     id="layer1"
     transform="translate(-92.443558,-116.82028)">
    <g
       id="g34449"
       transform="translate(-79.78692,106.27639)">
      <g
         id="g37249">
        <g
           id="g19889"
           transform="matrix(0.9374663,0,0,0.9374663,11.489562,1.8084895)">
          <g
             id="g39312">
            <g
               id="g54828"
               transform="translate(-0.4731353,-0.09462706)">
              <g
                 id="g19955"
                 transform="matrix(0.95086823,0,0,0.92887114,10.20102,2.0821647)"
                 style="fill:#000000;fill-opacity:0.986864;filter:url(#filter20324)">
                <g
                   id="g19953"
                   style="fill:#000000;fill-opacity:0.986864">
                  <g
                     id="g19895"
                     transform="matrix(0.7860526,0,0,0.76518985,152.30384,-51.600281)"
                     style="fill:#000000;fill-opacity:0.986864">
                    <rect
                       style="fill:#000000;fill-opacity:0.986864;stroke-width:0.103571"
                       id="rect19891"
                       width="9.1565714"
                       height="13.924938"
                       x="100.16856"
                       y="-39.610909"
                       ry="4.7970176"
                       transform="matrix(0,1,-0.99989952,-0.0141759,0,0)"
                       inkscape:transform-center-x="-0.18754404"
                       inkscape:transform-center-y="0.0026622334" />
                    <rect
                       style="fill:#000000;fill-opacity:0.986864;stroke-width:0.103571"
                       id="rect19893"
                       width="9.1565714"
                       height="13.924938"
                       x="99.666679"
                       y="-62.500305"
                       ry="4.7970176"
                       transform="matrix(0,1,-0.99989952,-0.0141759,0,0)"
                       inkscape:transform-center-x="-0.18754404"
                       inkscape:transform-center-y="0.0026622334" />
                  </g>
                  <ellipse
                     style="fill:#000000;fill-opacity:0.986864;fill-rule:evenodd;stroke-width:0.202456"
                     id="ellipse19897"
                     cx="198.2523"
                     cy="28.686632"
                     rx="2.4239106"
                     ry="2.411911" />
                  <ellipse
                     style="fill:#000000;fill-opacity:0.986864;fill-rule:evenodd;stroke-width:0.202456"
                     id="ellipse19899"
                     cx="175.7841"
                     cy="28.822393"
                     rx="2.4239106"
                     ry="2.411911" />
                  <path
                     id="path19901"
                     style="fill:#000000;fill-opacity:0.986864;stroke-width:0.0938925"
                     d="m 186.78435,35.936153 c -1.34709,0 -2.53241,0.665505 -3.2472,1.687236 0.84017,0.542228 1.8424,0.856469 2.92115,0.856469 h 1.61417 c 1.14455,0 2.20303,-0.35386 3.07319,-0.958343 -0.72096,-0.963808 -1.8715,-1.585362 -3.17321,-1.585362 z" />
                  <rect
                     style="fill:#000000;fill-opacity:0.986864;stroke-width:0.122339"
                     id="rect19903"
                     width="11.879038"
                     height="14.975878"
                     x="180.14755"
                     y="30.368179"
                     ry="5.1590557"
                     transform="matrix(1,0,0.02305587,0.99973418,0,0)" />
                  <path
                     id="path19905"
                     style="fill:#000000;fill-opacity:0.986864;stroke:#030303;stroke-width:0.560884;stroke-dasharray:none;stroke-opacity:1"
                     d="m 181.09911,39.650654 c -4.75796,0 -8.58819,3.830625 -8.58819,8.588583 v 9.486196 c 0,0.215118 0.008,0.428331 0.0233,0.639393 h 28.8279 c 0.0154,-0.211062 0.0233,-0.424275 0.0233,-0.639393 v -9.486196 c 0,-4.757958 -3.83024,-8.588583 -8.58819,-8.588583 z" />
                  <rect
                     style="fill:#000000;fill-opacity:0.986864;stroke:#030303;stroke-width:0.479009;stroke-dasharray:none;stroke-opacity:1"
                     id="rect19907"
                     width="9.1676617"
                     height="16.415394"
                     x="182.56805"
                     y="41.948257"
                     ry="0" />
                  <rect
                     style="fill:#000000;fill-opacity:0.986864;stroke:#030303;stroke-width:0.322043;stroke-dasharray:none;stroke-opacity:1"
                     id="rect19909"
                     width="11.879038"
                     height="14.975878"
                     x="180.21104"
                     y="29.696018"
                     ry="5.1590557"
                     transform="matrix(1,0,0.02305587,0.99973418,0,0)" />
                  <ellipse
                     style="fill:#000000;fill-opacity:0.986864;stroke-width:0.267083"
                     id="ellipse19911"
                     cx="-196.6033"
                     cy="18.278696"
                     rx="3.8661387"
                     ry="3.2094326"
                     transform="scale(-1,1)" />
                  <path
                     id="path19913"
                     d="m 192.10221,20.427836 v 12.303757 h 0.13765 c 3.90223,0 7.14331,-3.115868 7.12945,-5.540334 l -0.0638,-11.167371 h -0.11507 c -3.91469,0 -7.08817,1.971715 -7.08817,4.403948 z"
                     style="fill:#000000;fill-opacity:0.986864;stroke-width:0.242303"
                     sodipodi:nodetypes="scsscss" />
                  <ellipse
                     style="fill:#000000;fill-opacity:0.986864;stroke-width:0.246279"
                     id="ellipse19915"
                     cx="177.12677"
                     cy="15.861236"
                     rx="3.4078743"
                     ry="3.095886" />
                  <path
                     id="path19917"
                     d="m 180.74217,20.527147 v 11.868459 h -0.1162 c -3.29434,0 -6.03054,-3.005627 -6.01883,-5.344323 l 0.0539,-10.772276 h 0.0971 c 3.30486,0 5.98398,1.901957 5.98398,4.24814 z"
                     style="fill:#000000;fill-opacity:0.986864;stroke-width:0.218658"
                     sodipodi:nodetypes="scsscss" />
                  <rect
                     style="fill:#000000;fill-opacity:0.986864;stroke:#030303;stroke-width:0.138642;stroke-dasharray:none;stroke-opacity:1"
                     id="rect19919"
                     width="21.17848"
                     height="26.731375"
                     x="176.56264"
                     y="15.57576"
                     ry="9.2087202" />
                  <path
                     id="path19921"
                     style="fill:#000000;fill-opacity:0.986864;stroke-width:0.166418"
                     d="m 180.02937,32.571598 -0.0219,1.759822 c -0.0553,4.469921 2.72554,8.069221 6.11092,8.069221 h 1.83206 c 3.38539,0 6.11092,-3.598958 6.11092,-8.069221 l -0.0715,-1.657584 z"
                     sodipodi:nodetypes="csssscc" />
                  <path
                     id="path19923"
                     d="m 183.39683,13.302059 h 13.42369 v 0.07984 c 0,2.263399 -3.39949,4.143321 -6.04465,4.135281 l -12.18386,-0.03704 v -0.06675 c 0,-2.270631 2.15118,-4.11134 4.80482,-4.11134 z"
                     style="fill:#000000;fill-opacity:0.986864;stroke-width:0.192752"
                     sodipodi:nodetypes="scsscss"
                     inkscape:transform-center-x="-11.440388"
                     inkscape:transform-center-y="-2.4518104" />
                  <path
                     id="path19925"
                     d="m 181.93921,12.604099 12.7147,-2.06021 0.0171,0.07954 c 0.48334,2.254883 -2.33515,4.649469 -4.84232,5.047426 l -11.54826,1.833027 -0.0142,-0.06649 c -0.48489,-2.262087 1.15961,-4.426025 3.67309,-4.833292 z"
                     style="fill:#000000;fill-opacity:0.986864;stroke-width:0.190463"
                     sodipodi:nodetypes="scsscss"
                     inkscape:transform-center-x="-10.226556"
                     inkscape:transform-center-y="-4.0317996" />
                  <ellipse
                     style="fill:#000000;fill-opacity:0.986864;stroke-width:0.0646041"
                     id="ellipse19927"
                     cx="186.22969"
                     cy="30.907547"
                     rx="0.62372512"
                     ry="0.42840937" />
                  <ellipse
                     style="fill:#000000;fill-opacity:0.986864;stroke:#030303;stroke-width:0.125942;stroke-dasharray:none;stroke-opacity:1"
                     id="ellipse19929"
                     cx="-183.60555"
                     cy="25.814062"
                     rx="2.6722517"
                     ry="1.5439448"
                     transform="scale(-1,1)" />
                  <ellipse
                     style="fill:#000000;fill-opacity:0.986864;stroke-width:0.0646041"
                     id="ellipse19931"
                     cx="188.43579"
                     cy="30.907547"
                     rx="0.62372512"
                     ry="0.42840937" />
                  <ellipse
                     style="fill:#000000;fill-opacity:0.986864;fill-rule:evenodd;stroke-width:0.221144"
                     id="ellipse19933"
                     cx="183.58839"
                     cy="25.601803"
                     rx="1.3902293"
                     ry="1.2048655" />
                  <circle
                     style="fill:#000000;fill-opacity:0.986864;fill-rule:evenodd;stroke-width:0.127258"
                     id="circle19935"
                     cx="183.58183"
                     cy="25.576599"
                     r="0.74667716" />
                  <circle
                     style="fill:#000000;fill-opacity:0.986864;fill-rule:evenodd;stroke-width:0.381404"
                     id="circle19937"
                     cx="-183.30759"
                     cy="25.279985"
                     r="0.18084614"
                     transform="scale(-1,1)" />
                  <path
                     id="path19939"
                     style="fill:#000000;fill-opacity:0.986864;stroke-width:0.0739751"
                     d="m 183.5125,34.957534 c 0.0609,0.893923 0.49466,1.682195 1.14773,2.211167 0.54566,-0.466567 1.25487,-0.747726 2.03255,-0.747726 h 0.93759 c 0.74559,0 1.42822,0.258508 1.96412,0.691034 0.61521,-0.527792 1.02131,-1.291892 1.08005,-2.154475 z" />
                  <path
                     id="path19941"
                     style="fill:#000000;fill-opacity:0.986864;stroke-width:0.0793165"
                     d="m 186.63236,36.142147 c -0.8451,0 -1.60927,0.332135 -2.1706,0.873324 0.5777,0.476362 1.319,0.762143 2.12979,0.762143 h 1.00358 c 0.81468,0 1.55916,-0.288504 2.1381,-0.768985 -0.56061,-0.537096 -1.32181,-0.866482 -2.16328,-0.866482 z" />
                  <path
                     id="path19943"
                     style="fill:#000000;fill-opacity:0.986864;stroke-width:0.0783268"
                     d="m 184.28968,34.962299 c 0.0306,0.464825 0.6908,0.833514 1.38366,0.833512 l 2.97881,-5e-6 c 0.69286,-2e-6 1.29674,-0.372361 1.32184,-0.833519 z"
                     sodipodi:nodetypes="ccccc"
                     inkscape:original-d="m 184.28968,34.962299 c 0.0162,0.24605 0.0605,0.559642 0.12912,0.833515 l 5.48789,-1.1e-5 c 0.0687,-0.273875 0.0511,-0.53583 0.0673,-0.833516 z"
                     inkscape:path-effect="#path-effect19959" />
                  <ellipse
                     style="fill:#000000;fill-opacity:0.986864;stroke:#030303;stroke-width:0.125942;stroke-dasharray:none;stroke-opacity:1"
                     id="ellipse19945"
                     cx="-191.23457"
                     cy="25.858416"
                     rx="2.6722517"
                     ry="1.5439448"
                     transform="scale(-1,1)" />
                  <ellipse
                     style="fill:#000000;fill-opacity:0.986864;fill-rule:evenodd;stroke-width:0.221144"
                     id="ellipse19947"
                     cx="191.26178"
                     cy="25.646156"
                     rx="1.3902293"
                     ry="1.2048655" />
                  <circle
                     style="fill:#000000;fill-opacity:0.986864;fill-rule:evenodd;stroke-width:0.127258"
                     id="circle19949"
                     cx="191.21086"
                     cy="25.620953"
                     r="0.74667716" />
                  <circle
                     style="fill:#000000;fill-opacity:0.986864;fill-rule:evenodd;stroke-width:0.381404"
                     id="circle19951"
                     cx="-190.98097"
                     cy="25.346518"
                     r="0.18084614"
                     transform="scale(-1,1)" />
                </g>
              </g>
              <g
                 id="g15581"
                 transform="matrix(0.73020851,0,0,0.71082792,154.80725,-45.855186)"
                 style="fill:#ffb98a;fill-opacity:1">
                <rect
                   style="fill:#ffb98a;fill-opacity:1;stroke-width:0.103571"
                   id="rect15577"
                   width="9.1565714"
                   height="13.924938"
                   x="100.16856"
                   y="-39.610909"
                   ry="4.7970176"
                   transform="matrix(0,1,-0.99989952,-0.0141759,0,0)"
                   inkscape:transform-center-x="-0.18754404"
                   inkscape:transform-center-y="0.0026622334" />
                <rect
                   style="fill:#ffb98a;fill-opacity:1;stroke-width:0.103571"
                   id="rect15579"
                   width="9.1565714"
                   height="13.924938"
                   x="99.666679"
                   y="-62.500305"
                   ry="4.7970176"
                   transform="matrix(0,1,-0.99989952,-0.0141759,0,0)"
                   inkscape:transform-center-x="-0.18754404"
                   inkscape:transform-center-y="0.0026622334" />
              </g>
              <ellipse
                 style="fill:#ff885e;fill-opacity:0.809524;fill-rule:evenodd;stroke-width:0.188073"
                 id="ellipse16064"
                 cx="197.49138"
                 cy="28.727848"
                 rx="2.2517068"
                 ry="2.2405601" />
              <ellipse
                 style="fill:#ff885e;fill-opacity:0.809524;fill-rule:evenodd;stroke-width:0.188073"
                 id="path16062"
                 cx="176.6194"
                 cy="28.853962"
                 rx="2.2517068"
                 ry="2.2405601" />
              <path
                 id="path15595"
                 style="fill:#ff4e4e;fill-opacity:1;stroke-width:0.087222"
                 d="m 186.83815,35.462335 c -1.2514,0 -2.35251,0.618224 -3.01652,1.567369 0.78048,0.503705 1.71152,0.795621 2.71362,0.795621 h 1.49949 c 1.06324,0 2.04652,-0.32872 2.85486,-0.890258 -0.66974,-0.895336 -1.73853,-1.472732 -2.94777,-1.472732 z" />
              <rect
                 style="fill:#d38d5f;fill-opacity:1;stroke-width:0.113648"
                 id="rect15569"
                 width="11.035107"
                 height="13.911936"
                 x="180.62489"
                 y="30.290483"
                 ry="4.7925377"
                 transform="matrix(1,0,0.02305587,0.99973418,0,0)" />
              <path
                 id="path15571"
                 style="fill:#d1000d;fill-opacity:1;stroke:#030303;stroke-width:0.521037;stroke-dasharray:none;stroke-opacity:1"
                 d="m 181.5568,38.912944 c -4.41993,0 -7.97805,3.558483 -7.97805,7.978418 v 8.812261 c 0,0.199836 0.008,0.397901 0.0216,0.593968 h 26.77987 c 0.0143,-0.196067 0.0216,-0.394132 0.0216,-0.593968 v -8.812261 c 0,-4.419935 -3.55813,-7.978418 -7.97806,-7.978418 z" />
              <rect
                 style="fill:#e78949;fill-opacity:1;stroke:#030303;stroke-width:0.299164;stroke-dasharray:none;stroke-opacity:1"
                 id="rect15575"
                 width="11.035107"
                 height="13.911936"
                 x="180.68388"
                 y="29.666075"
                 ry="4.7925377"
                 transform="matrix(1,0,0.02305587,0.99973418,0,0)" />
              <ellipse
                 style="fill:#242424;fill-opacity:1;stroke-width:0.248108"
                 id="ellipse15583"
                 cx="-195.95952"
                 cy="19.059328"
                 rx="3.5914736"
                 ry="2.9814227"
                 transform="scale(-1,1)" />
              <path
                 id="path15585"
                 d="m 191.7782,21.055785 v 11.429653 h 0.12787 c 3.625,0 6.63582,-2.894505 6.62295,-5.146728 l -0.0592,-10.373999 h -0.1069 c -3.63657,0 -6.5846,1.831637 -6.5846,4.091074 z"
                 style="fill:#242424;fill-opacity:1;stroke-width:0.225089"
                 sodipodi:nodetypes="scsscss" />
              <ellipse
                 style="fill:#242424;fill-opacity:1;stroke-width:0.228783"
                 id="ellipse15587"
                 cx="177.86667"
                 cy="16.813614"
                 rx="3.1657662"
                 ry="2.8759427" />
              <path
                 id="path15589"
                 d="m 181.22522,21.148042 v 11.025279 h -0.10795 c -3.0603,0 -5.60211,-2.792096 -5.59123,-4.964642 l 0.0501,-10.006974 h 0.0902 c 3.07006,0 5.55885,1.766835 5.55885,3.946337 z"
                 style="fill:#242424;fill-opacity:1;stroke-width:0.203123"
                 sodipodi:nodetypes="scsscss" />
              <rect
                 style="fill:#ffb380;stroke:#030303;stroke-width:0.128793;stroke-dasharray:none;stroke-opacity:1"
                 id="rect15591"
                 width="19.673882"
                 height="24.832279"
                 x="177.34261"
                 y="16.548418"
                 ry="8.5544996" />
              <path
                 id="path16544"
                 style="fill:#242424;fill-opacity:1;stroke-width:0.154595"
                 d="m 180.56306,32.33681 -0.0204,1.634798 c -0.0514,4.152361 2.53191,7.495953 5.67678,7.495953 h 1.7019 c 3.14489,0 5.67678,-3.343275 5.67678,-7.495953 l -0.0664,-1.539824 z"
                 sodipodi:nodetypes="csssscc" />
              <path
                 id="path15601"
                 d="m 183.69128,14.43625 h 12.47002 v 0.07417 c 0,2.102599 -3.15798,3.848964 -5.61522,3.841496 l -11.31827,-0.03441 v -0.06201 c 0,-2.109317 1.99835,-3.819255 4.46347,-3.819255 z"
                 style="fill:#626262;fill-opacity:1;stroke-width:0.179059"
                 sodipodi:nodetypes="scsscss"
                 inkscape:transform-center-x="-10.910442"
                 inkscape:transform-center-y="-2.3382423" />
              <path
                 id="path15603"
                 d="m 182.33722,13.787876 11.81139,-1.913845 0.0159,0.07388 c 0.449,2.094688 -2.16925,4.319153 -4.4983,4.688837 l -10.72783,1.702802 -0.0132,-0.06177 c -0.45044,-2.101379 1.07723,-4.111583 3.41214,-4.489917 z"
                 style="fill:#242424;fill-opacity:1;stroke-width:0.176932"
                 sodipodi:nodetypes="scsscss"
                 inkscape:transform-center-x="-9.752799"
                 inkscape:transform-center-y="-3.8450402" />
              <ellipse
                 style="fill:#522200;fill-opacity:1;stroke-width:0.0600144"
                 id="ellipse15605"
                 cx="186.32289"
                 cy="30.790979"
                 rx="0.57941341"
                 ry="0.3979736" />
              <ellipse
                 style="fill:#e3e3e3;fill-opacity:1;stroke:#030303;stroke-width:0.116995;stroke-dasharray:none;stroke-opacity:1"
                 id="ellipse16193"
                 cx="-183.88518"
                 cy="26.059355"
                 rx="2.4824049"
                 ry="1.4342573"
                 transform="scale(-1,1)" />
              <ellipse
                 style="fill:#522200;fill-opacity:1;stroke-width:0.0600144"
                 id="ellipse16268"
                 cx="188.37225"
                 cy="30.790979"
                 rx="0.57941341"
                 ry="0.3979736" />
              <ellipse
                 style="fill:#2a9fff;fill-opacity:1;fill-rule:evenodd;stroke-width:0.205433"
                 id="path37288"
                 cx="183.86925"
                 cy="25.862173"
                 rx="1.2914623"
                 ry="1.1192673" />
              <circle
                 style="fill:#000000;fill-opacity:1;fill-rule:evenodd;stroke-width:0.118218"
                 id="path37772"
                 cx="183.86314"
                 cy="25.838762"
                 r="0.69363046" />
              <circle
                 style="fill:#fff4f4;fill-opacity:1;fill-rule:evenodd;stroke-width:0.354308"
                 id="circle37774"
                 cx="-183.60838"
                 cy="25.563221"
                 r="0.16799815"
                 transform="scale(-1,1)" />
              <path
                 id="path15593-4"
                 style="fill:#47001f;fill-opacity:1;stroke-width:0.0687196"
                 d="m 183.79873,34.55324 c 0.0566,0.830415 0.45952,1.562685 1.06619,2.054077 0.5069,-0.433419 1.16573,-0.694604 1.88816,-0.694604 h 0.87097 c 0.69262,0 1.32676,0.240142 1.82459,0.64194 0.5715,-0.490295 0.94875,-1.200111 1.00332,-2.001413 z" />
              <path
                 id="path15690-5"
                 style="fill:#ff4e4e;fill-opacity:1;stroke-width:0.0736816"
                 d="m 186.69694,35.653694 c -0.78505,0 -1.49494,0.308539 -2.01639,0.811279 0.53666,0.44252 1.2253,0.707998 1.97848,0.707998 h 0.93228 c 0.75681,0 1.4484,-0.268008 1.98621,-0.714352 -0.52078,-0.49894 -1.22791,-0.804925 -2.00959,-0.804925 z" />
              <path
                 id="path16056-9"
                 style="fill:#ffffff;stroke-width:0.0727623"
                 d="m 184.5207,34.557667 c 0.0283,0.431809 0.68163,0.774298 1.37449,0.774296 l 2.58893,-5e-6 c 0.69286,-2e-6 1.29365,-0.345912 1.31704,-0.774303 z"
                 sodipodi:nodetypes="ccccc"
                 inkscape:original-d="m 184.5207,34.557667 c 0.015,0.228569 0.0562,0.519882 0.11995,0.774299 l 5.09801,-1.1e-5 c 0.0638,-0.254418 0.0474,-0.497762 0.0625,-0.7743 z"
                 inkscape:path-effect="#path-effect16060-6" />
              <ellipse
                 style="fill:#e3e3e3;fill-opacity:1;stroke:#030303;stroke-width:0.116995;stroke-dasharray:none;stroke-opacity:1"
                 id="ellipse275"
                 cx="-190.97221"
                 cy="26.100555"
                 rx="2.4824049"
                 ry="1.4342573"
                 transform="scale(-1,1)" />
              <ellipse
                 style="fill:#2a9fff;fill-opacity:1;fill-rule:evenodd;stroke-width:0.205433"
                 id="ellipse277"
                 cx="190.99748"
                 cy="25.903378"
                 rx="1.2914623"
                 ry="1.1192673" />
              <circle
                 style="fill:#000000;fill-opacity:1;fill-rule:evenodd;stroke-width:0.118218"
                 id="circle279"
                 cx="190.95018"
                 cy="25.879963"
                 r="0.69363046" />
              <circle
                 style="fill:#fff4f4;fill-opacity:1;fill-rule:evenodd;stroke-width:0.354308"
                 id="circle281"
                 cx="-190.73662"
                 cy="25.625025"
                 r="0.16799815"
                 transform="scale(-1,1)" />
            </g>
          </g>
        </g>
      </g>
    </g>
  </g>
</svg>
